<svg viewBox="0 0 1143.567138671875 399.99578857421875" xmlns="http://www.w3.org/2000/svg"><g><g><g><g><g><line x1="51.5625" y1="377.996" x2="46.5625" y2="377.996" style="visibility: inherit;" fill="rgb(0, 0, 0)" stroke="rgb(204, 204, 204)" stroke-width="1px"></line><line x1="51.5625" y1="335.9964444444444" x2="46.5625" y2="335.9964444444444" style="visibility: inherit;" fill="rgb(0, 0, 0)" stroke="rgb(204, 204, 204)" stroke-width="1px"></line><line x1="51.5625" y1="293.99688888888886" x2="46.5625" y2="293.99688888888886" style="visibility: inherit;" fill="rgb(0, 0, 0)" stroke="rgb(204, 204, 204)" stroke-width="1px"></line><line x1="51.5625" y1="251.99733333333336" x2="46.5625" y2="251.99733333333336" style="visibility: inherit;" fill="rgb(0, 0, 0)" stroke="rgb(204, 204, 204)" stroke-width="1px"></line><line x1="51.5625" y1="209.99777777777777" x2="46.5625" y2="209.99777777777777" style="visibility: inherit;" fill="rgb(0, 0, 0)" stroke="rgb(204, 204, 204)" stroke-width="1px"></line><line x1="51.5625" y1="167.9982222222222" x2="46.5625" y2="167.9982222222222" style="visibility: inherit;" fill="rgb(0, 0, 0)" stroke="rgb(204, 204, 204)" stroke-width="1px"></line><line x1="51.5625" y1="125.99866666666668" x2="46.5625" y2="125.99866666666668" style="visibility: inherit;" fill="rgb(0, 0, 0)" stroke="rgb(204, 204, 204)" stroke-width="1px"></line><line x1="51.5625" y1="83.9991111111111" x2="46.5625" y2="83.9991111111111" style="visibility: inherit;" fill="rgb(0, 0, 0)" stroke="rgb(204, 204, 204)" stroke-width="1px"></line><line x1="51.5625" y1="41.999555555555574" x2="46.5625" y2="41.999555555555574" style="visibility: inherit;" fill="rgb(0, 0, 0)" stroke="rgb(204, 204, 204)" stroke-width="1px"></line><line x1="51.5625" y1="0" x2="46.5625" y2="0" style="visibility: inherit;" fill="rgb(0, 0, 0)" stroke="rgb(204, 204, 204)" stroke-width="1px"></line></g><g transform="translate(41.5625, 0)"><text x="0" y="377.996" dx="0em" dy="0.3em" style="text-anchor: end; visibility: hidden; font-family: Roboto, sans-serif; font-size: 12px; font-weight: 200;" fill="rgb(50, 49, 63)" stroke="none" stroke-width="1px">0.84</text><text x="0" y="335.9964444444444" dx="0em" dy="0.3em" style="text-anchor: end; visibility: inherit; font-family: Roboto, sans-serif; font-size: 12px; font-weight: 200;" fill="rgb(50, 49, 63)" stroke="none" stroke-width="1px">0.85</text><text x="0" y="293.99688888888886" dx="0em" dy="0.3em" style="text-anchor: end; visibility: inherit; font-family: Roboto, sans-serif; font-size: 12px; font-weight: 200;" fill="rgb(50, 49, 63)" stroke="none" stroke-width="1px">0.86</text><text x="0" y="251.99733333333336" dx="0em" dy="0.3em" style="text-anchor: end; visibility: inherit; font-family: Roboto, sans-serif; font-size: 12px; font-weight: 200;" fill="rgb(50, 49, 63)" stroke="none" stroke-width="1px">0.87</text><text x="0" y="209.99777777777777" dx="0em" dy="0.3em" style="text-anchor: end; visibility: inherit; font-family: Roboto, sans-serif; font-size: 12px; font-weight: 200;" fill="rgb(50, 49, 63)" stroke="none" stroke-width="1px">0.88</text><text x="0" y="167.9982222222222" dx="0em" dy="0.3em" style="text-anchor: end; visibility: inherit; font-family: Roboto, sans-serif; font-size: 12px; font-weight: 200;" fill="rgb(50, 49, 63)" stroke="none" stroke-width="1px">0.89</text><text x="0" y="125.99866666666668" dx="0em" dy="0.3em" style="text-anchor: end; visibility: inherit; font-family: Roboto, sans-serif; font-size: 12px; font-weight: 200;" fill="rgb(50, 49, 63)" stroke="none" stroke-width="1px">0.9</text><text x="0" y="83.9991111111111" dx="0em" dy="0.3em" style="text-anchor: end; visibility: inherit; font-family: Roboto, sans-serif; font-size: 12px; font-weight: 200;" fill="rgb(50, 49, 63)" stroke="none" stroke-width="1px">0.91</text><text x="0" y="41.999555555555574" dx="0em" dy="0.3em" style="text-anchor: end; visibility: inherit; font-family: Roboto, sans-serif; font-size: 12px; font-weight: 200;" fill="rgb(50, 49, 63)" stroke="none" stroke-width="1px">0.92</text><text x="0" y="0" dx="0em" dy="0.3em" style="text-anchor: end; visibility: hidden; font-family: Roboto, sans-serif; font-size: 12px; font-weight: 200;" fill="rgb(50, 49, 63)" stroke="none" stroke-width="1px">0.93</text></g><line x1="51.5625" y1="0" x2="51.5625" y2="377.996" fill="rgb(0, 0, 0)" stroke="rgb(204, 204, 204)" stroke-width="1px"></line></g></g><g transform="translate(51, 0)" clip-path="url(#clip_0)"><clipPath id="clip_0"><rect width="1092" height="377"></rect></clipPath><g><g><g><line x1="0" y1="0" x2="0" y2="377.996" fill="rgb(0, 0, 0)" stroke="rgb(60, 60, 60)" stroke-width="1px" opacity="0.25"></line><line x1="91.00062499999999" y1="0" x2="91.00062499999999" y2="377.996" fill="rgb(0, 0, 0)" stroke="rgb(60, 60, 60)" stroke-width="1px" opacity="0.25"></line><line x1="182.00124999999997" y1="0" x2="182.00124999999997" y2="377.996" fill="rgb(0, 0, 0)" stroke="rgb(60, 60, 60)" stroke-width="1px" opacity="0.25"></line><line x1="273.001875" y1="0" x2="273.001875" y2="377.996" fill="rgb(0, 0, 0)" stroke="rgb(60, 60, 60)" stroke-width="1px" opacity="0.25"></line><line x1="364.00249999999994" y1="0" x2="364.00249999999994" y2="377.996" fill="rgb(0, 0, 0)" stroke="rgb(60, 60, 60)" stroke-width="1px" opacity="0.25"></line><line x1="455.003125" y1="0" x2="455.003125" y2="377.996" fill="rgb(0, 0, 0)" stroke="rgb(60, 60, 60)" stroke-width="1px" opacity="0.25"></line><line x1="546.00375" y1="0" x2="546.00375" y2="377.996" fill="rgb(0, 0, 0)" stroke="rgb(60, 60, 60)" stroke-width="1px" opacity="0.25"></line><line x1="637.004375" y1="0" x2="637.004375" y2="377.996" fill="rgb(0, 0, 0)" stroke="rgb(60, 60, 60)" stroke-width="1px" opacity="0.25"></line><line x1="728.0049999999999" y1="0" x2="728.0049999999999" y2="377.996" fill="rgb(0, 0, 0)" stroke="rgb(60, 60, 60)" stroke-width="1px" opacity="0.25"></line><line x1="819.005625" y1="0" x2="819.005625" y2="377.996" fill="rgb(0, 0, 0)" stroke="rgb(60, 60, 60)" stroke-width="1px" opacity="0.25"></line><line x1="910.00625" y1="0" x2="910.00625" y2="377.996" fill="rgb(0, 0, 0)" stroke="rgb(60, 60, 60)" stroke-width="1px" opacity="0.25"></line><line x1="1001.0068749999999" y1="0" x2="1001.0068749999999" y2="377.996" fill="rgb(0, 0, 0)" stroke="rgb(60, 60, 60)" stroke-width="1px" opacity="0.25"></line><line x1="1092.0075" y1="0" x2="1092.0075" y2="377.996" fill="rgb(0, 0, 0)" stroke="rgb(60, 60, 60)" stroke-width="1px" opacity="0.25"></line></g><g><line x1="0" y1="377.996" x2="1092.0075" y2="377.996" fill="rgb(0, 0, 0)" stroke="rgb(60, 60, 60)" stroke-width="1px" opacity="0.25"></line><line x1="0" y1="335.9964444444444" x2="1092.0075" y2="335.9964444444444" fill="rgb(0, 0, 0)" stroke="rgb(60, 60, 60)" stroke-width="1px" opacity="0.25"></line><line x1="0" y1="293.99688888888886" x2="1092.0075" y2="293.99688888888886" fill="rgb(0, 0, 0)" stroke="rgb(60, 60, 60)" stroke-width="1px" opacity="0.25"></line><line x1="0" y1="251.99733333333336" x2="1092.0075" y2="251.99733333333336" fill="rgb(0, 0, 0)" stroke="rgb(60, 60, 60)" stroke-width="1px" opacity="0.25"></line><line x1="0" y1="209.99777777777777" x2="1092.0075" y2="209.99777777777777" fill="rgb(0, 0, 0)" stroke="rgb(60, 60, 60)" stroke-width="1px" opacity="0.25"></line><line x1="0" y1="167.9982222222222" x2="1092.0075" y2="167.9982222222222" fill="rgb(0, 0, 0)" stroke="rgb(60, 60, 60)" stroke-width="1px" opacity="0.25"></line><line x1="0" y1="125.99866666666668" x2="1092.0075" y2="125.99866666666668" fill="rgb(0, 0, 0)" stroke="rgb(60, 60, 60)" stroke-width="1px" opacity="0.25"></line><line x1="0" y1="83.9991111111111" x2="1092.0075" y2="83.9991111111111" fill="rgb(0, 0, 0)" stroke="rgb(60, 60, 60)" stroke-width="1px" opacity="0.25"></line><line x1="0" y1="41.999555555555574" x2="1092.0075" y2="41.999555555555574" fill="rgb(0, 0, 0)" stroke="rgb(60, 60, 60)" stroke-width="1px" opacity="0.25"></line><line x1="0" y1="0" x2="1092.0075" y2="0" fill="rgb(0, 0, 0)" stroke="rgb(60, 60, 60)" stroke-width="1px" opacity="0.25"></line></g></g></g><g><g><line x1="0" y1="3905.9586666666632" x2="1092.0075" y2="3905.9586666666632" fill="rgb(0, 0, 0)" stroke="rgb(153, 153, 153)" stroke-width="1.5px"></line></g></g><g><g><line x1="91.00062499999999" y1="0" x2="91.00062499999999" y2="377.996" fill="rgb(0, 0, 0)" stroke="rgb(153, 153, 153)" stroke-width="1.5px"></line></g></g><g><g><g><g><g><path stroke="rgb(255, 112, 67)" stroke-width="2px" d="M112.840775,422.79539308049925L113.75078125,355.59596800835914L114.66078749999998,321.9962554722891L115.57079374999999,333.1960762053595L116.4808,265.99690147007834L117.39080625,344.3958969384298L118.30081249999999,478.7944967458511L121.03083125,501.19413821199174L121.94083749999999,377.9956094744999L122.85084375,344.3958969384298L123.76084999999999,198.7977267347972L124.67085624999999,176.3978349317975L125.5808625,243.5972600039376L126.49086874999999,277.1967222031487L127.400875,971.5893627063956L131.0409,613.1930965532723L131.95090625,344.3958969384298L132.8609125,389.1956805444292L133.77091875,467.5949263496397L134.680925,288.396542936219L135.59093124999998,209.99754746786755L136.5009375,165.19801419872715L137.41094374999997,165.19801419872715L138.32095,254.79708073700797L139.23095625,3905.9586666666632L140.14096249999997,590.7934550871316L141.05096875,377.9956094744999L141.960975,355.59596800835914L142.87098125,265.99690147007834L143.78098749999998,445.194784209781L144.69099375,176.3978349317975L145.601,265.99690147007834L146.51100624999998,254.79708073700797L147.4210125,221.19736820093792L148.33101875,254.79708073700797L149.24102499999998,254.79708073700797L150.15103125000002,366.7957887414295L151.0610375,389.1954302075702L151.97104374999998,254.79708073700797L152.88105000000002,153.99819346565678L153.79105625,120.39848092958673L154.70106249999998,187.59790600172684L155.61106875,153.99819346565678L156.521075,153.99819346565678L157.43108124999998,176.3978349317975L158.3410875,176.3978349317975L159.25109375,198.7977267347972L160.1611,187.59790600172684L161.07110624999999,153.99819346565678L161.9811125,176.3978349317975L162.89111875,165.19801419872715L163.80112499999998,221.19736820093792L164.71113125,321.9962554722891L165.6211375,377.9956094744999L166.53114374999998,445.194784209781L167.44114999999996,445.19503454664L168.35115625,232.39718893400823L169.26116249999998,198.7977267347972L170.17116875,288.396542936219L171.081175,467.5946760127807L171.99118124999998,198.7977267347972L172.9011875,982.789183439466L173.81119375,355.59596800835914L174.72119999999998,422.79514274364027L175.63120625,321.9962554722891L176.54121249999997,97.99883946344598L177.45121875,131.59855199951602L178.361225,153.99819346565678L179.27123124999997,187.59790600172684L180.1812375,120.39848092958673L181.09124375,131.59855199951602L182.00124999999997,131.59855199951602L182.91125625,131.59855199951602L183.8212625,120.39848092958673L184.73126874999997,97.99883946344598L185.641275,109.19866019651634L186.55128125,142.79812239572743L187.4612875,120.39848092958673L188.37129374999998,153.99819346565678L189.2813,97.99858912658704L190.19130625,131.59855199951602L191.10131249999998,131.59855199951602L192.01131875,120.39848092958673L192.921325,86.79901873037564L193.83133124999998,120.39848092958673L194.7413375,86.79901873037564L195.65134375,120.39848092958673L196.56134999999998,86.79901873037564L197.47135625,75.59919799730527L198.3813625,97.99883946344598L199.29136874999998,86.79901873037564L200.20137499999998,86.79901873037564L201.11138125,75.59919799730527L202.02138749999997,86.79901873037564L202.93139374999998,86.79901873037564L203.8414,97.99883946344598L204.75140625,75.59919799730527L205.66141249999998,97.99883946344598L206.57141875,109.19866019651634L207.481425,86.79901873037564L208.39143124999998,97.99883946344598L209.3014375,86.79901873037564L210.21144375,120.39848092958673L211.12144999999998,53.199306194305585L212.03145624999996,120.39848092958673L212.9414625,86.79901873037564L213.85146874999998,97.99883946344598L214.761475,75.59919799730527L215.67148125,86.79901873037564L216.58148749999998,53.1990558574466L217.49149375,75.59894766044629L218.4015,86.79901873037564L219.31150624999998,86.79901873037564L220.2215125,75.59919799730527L221.13151875,75.59919799730527L222.04152499999998,75.59919799730527L222.95153125,75.59919799730527L223.86153749999997,53.199306194305585L224.77154375,86.79901873037564L225.68155,97.99883946344598L226.59155624999997,64.39887659051698L227.5015625,75.59919799730527L228.41156875,75.59919799730527L229.32157499999997,75.59894766044629L230.23158125,75.59919799730527L231.14158749999999,75.59919799730527L232.05159374999997,75.59919799730527L232.9616,41.99948546123521L233.87160624999999,75.59919799730527L234.7816125,75.59919799730527L235.69161874999998,64.39912692737596L236.60162499999998,75.59919799730527L237.51163125,75.59919799730527L238.42163749999997,53.199306194305585L239.33164374999998,30.79966472816484L240.24165,53.199306194305585L241.15165624999997,41.999235124376234L242.0616625,30.79966472816484L242.97166875,53.1990558574466L243.88167499999997,30.799414391305902L244.79168124999998,53.1990558574466L245.7016875,53.199306194305585L246.61169374999997,75.59919799730527L247.52169999999998,53.199306194305585L248.43170625,75.59919799730527L249.34171249999997,75.59894766044629L250.25171874999998,64.39912692737596L251.161725,64.39912692737596L252.07173125,30.79966472816484L252.98173749999998,41.999235124376234L253.89174375,64.39887659051698L254.80175,64.39912692737596L255.71175624999998,53.199306194305585L256.6217625,153.99819346565678L257.53176874999997,120.39848092958673L258.441775,131.59855199951602L259.35178125,120.39848092958673L260.26178749999997,131.59855199951602L261.17179375,109.19866019651634L262.0818,75.59919799730527L262.99180624999997,97.99858912658704L263.9018125,86.79901873037564L264.81181875,75.59919799730527L265.721825,97.99883946344598L266.63183125,86.79901873037564L267.5418375,75.59894766044629L268.45184374999997,86.79901873037564L269.36185,53.199306194305585L270.27185625,86.79901873037564L271.18186249999997,109.19866019651634L272.09186875,198.7977267347972L273.001875,209.99754746786755L273.91188125,165.19801419872715L274.82188749999995,153.9979431287978L275.73189375,153.99819346565678L276.6419,165.19801419872715L277.55190624999994,131.59855199951602L278.4619125,109.19866019651634L279.37191875,142.79837273258642L280.28192499999994,131.59855199951602L281.19193125,142.79837273258642L282.1019375,131.59855199951602L283.01194375,142.79837273258642L283.92195,142.79837273258642L284.83195624999996,131.59855199951602L285.7419625,142.79837273258642L286.65196875,142.79837273258642L287.56197499999996,109.19866019651634L288.47198125,131.59855199951602L289.3819875,131.59855199951602L290.29199374999996,75.59919799730527L291.202,142.79837273258642L292.11200625,109.19866019651634L293.02201249999996,97.99883946344598L293.93201875,109.19866019651634L294.842025,97.99883946344598L295.75203124999996,97.99883946344598L296.6620375,97.99883946344598L297.57204375,97.99883946344598L298.48204999999996,86.79901873037564L299.39205625,97.99883946344598L300.30206250000003,97.99883946344598L301.21206874999996,109.1984098596574L302.122075,120.39848092958673L303.03208125000003,86.79901873037564L303.94208749999996,97.99883946344598L304.85209375,109.19866019651634L305.76210000000003,86.79901873037564L306.67210624999996,97.99883946344598L307.5821125,97.99883946344598L308.49211875,109.19866019651634L309.40212499999996,109.19866019651634L310.31213125,86.79901873037564L311.2221375,109.19866019651634L312.13214374999995,97.99858912658704L313.04215,86.79901873037564L313.95215625,97.99883946344598L314.86216249999995,109.1984098596574L315.77216875,109.19866019651634L316.682175,109.19866019651634L317.59218124999995,109.19866019651634L318.5021875,97.99883946344598L319.41219375,86.79901873037564L320.3222,109.19866019651634L321.23220625,109.19866019651634L322.14221249999997,109.19866019651634L323.05221875,86.79876839351667L323.962225,97.99883946344598L324.87223124999997,97.99883946344598L325.7822375,97.99883946344598L326.69224375,109.1984098596574L327.60224999999997,109.1984098596574L328.51225625,97.99883946344598L329.4222625,86.79901873037564L330.33226874999997,109.19866019651634L331.242275,109.19866019651634L332.15228124999993,97.99883946344598L333.06228749999997,109.19866019651634L333.97229375,131.59855199951602L334.88229999999993,120.39848092958673L335.79230624999997,86.79901873037564L336.7023125,109.19866019651634L337.61231874999993,86.79901873037564L338.52232499999997,97.99883946344598L339.43233125,75.59894766044629L340.3423375,97.99883946344598L341.25234374999997,109.19866019651634L342.16235,97.99883946344598L343.07235625,97.99883946344598L343.98236249999997,97.99883946344598L344.89236875,86.79901873037564L345.802375,86.79901873037564L346.71238124999996,75.59919799730527L347.6223875,75.59919799730527L348.53239375,86.79901873037564L349.44239999999996,86.79901873037564L350.35240625,97.99883946344598L351.2624125,86.79901873037564L352.17241874999996,86.79901873037564L353.08242499999994,75.59919799730527L353.99243125,75.59919799730527L354.9024375,109.19866019651634L355.81244374999994,86.79901873037564L356.72245,75.59919799730527L357.63245625,97.99883946344598L358.54246249999994,75.59919799730527L359.45246875,86.79901873037564L360.362475,86.79901873037564L361.27248124999994,75.59919799730527L362.1824875,97.99883946344598L363.09249375,86.79901873037564L364.00249999999994,75.59919799730527L364.91250625,75.59919799730527L365.8225125,97.99883946344598L366.73251874999994,75.59919799730527L367.642525,86.79901873037564L368.55253125,86.79901873037564L369.46253749999994,53.199306194305585L370.37254375,86.79901873037564L371.28255,64.39912692737596L372.19255624999994,97.99883946344598L373.1025625,86.79901873037564L374.01256875,86.79901873037564L374.922575,75.59919799730527L375.83258125,86.79901873037564L376.74258749999996,86.79901873037564L377.65259375,64.39912692737596L378.5626,75.59894766044629L379.47260624999996,64.39912692737596L380.3826125,86.79901873037564L381.29261875,53.199306194305585L382.20262499999995,97.99883946344598L383.11263125,64.39912692737596L384.0226375,86.79901873037564L384.93264374999995,75.59919799730527L385.84265,64.39912692737596L386.75265625,86.79876839351667L387.66266249999995,86.79901873037564L388.57266875,75.59894766044629L389.482675,64.39912692737596L390.39268124999995,97.99883946344598L391.3026875,86.79901873037564L392.21269375,75.59894766044629L393.12269999999995,75.59919799730527L394.03270625,97.99883946344598L394.9427125,86.79901873037564L395.85271874999995,97.99883946344598L396.762725,97.99883946344598L397.67273125,75.59919799730527L398.58273749999995,53.199306194305585L399.49274375,86.79901873037564L400.40274999999997,75.59919799730527L401.31275624999995,64.39912692737596L402.2227625,64.39912692737596L403.13276874999997,64.39912692737596L404.04277499999995,86.79901873037564L404.95278125,75.59894766044629L405.86278749999997,86.79901873037564L406.77279374999995,75.59894766044629L407.6828,97.99858912658704L408.59280624999997,97.99883946344598L409.5028125,64.39912692737596L410.41281875,64.39912692737596L411.32282499999997,75.59894766044629L412.23283125,75.59919799730527L413.1428375,97.99883946344598L414.05284374999997,75.59894766044629L414.96285,75.59919799730527L415.87285625,75.59919799730527L416.78286249999996,86.79901873037564L417.69286875,86.79901873037564L418.602875,75.59919799730527L419.51288124999996,64.39912692737596L420.4228875,41.99948546123521L421.3328937499999,86.79901873037564L422.24289999999996,86.79901873037564L423.15290625,75.59919799730527L424.0629124999999,64.39912692737596L424.97291874999996,86.79901873037564L425.882925,86.79901873037564L426.7929312499999,86.79901873037564L427.70293749999996,97.99883946344598L428.61294375,86.79901873037564L429.52295,75.59919799730527L430.43295624999996,75.59919799730527L431.3429625,75.59919799730527L432.25296875,86.79901873037564L433.16297499999996,97.99883946344598L434.07298125,53.199306194305585L434.9829875,97.99883946344598L435.89299374999996,97.99883946344598L436.803,75.59894766044629L437.71300625,86.79901873037564L438.62301249999996,86.79901873037564L439.53301875,75.59919799730527L440.443025,75.59919799730527L441.35303124999996,86.79876839351667L442.2630375,64.39912692737596L443.17304375,75.59919799730527L444.08304999999996,97.99883946344598L444.99305624999994,86.79901873037564L445.9030625,86.79901873037564L446.81306875,86.79901873037564L447.72307499999994,64.39887659051698L448.63308125,75.59919799730527L449.5430875,53.199306194305585L450.45309374999994,86.79901873037564L451.3631,53.1990558574466L452.27310625,86.79901873037564L453.18311249999994,75.59919799730527L454.09311875,86.79901873037564L455.003125,30.799414391305902L455.91313124999994,75.59919799730527L456.8231375,64.39887659051698L457.73314375,86.79901873037564L458.64314999999993,75.59919799730527L459.55315625,86.79901873037564L460.4631625,86.79901873037564L461.37316874999993,53.199306194305585L462.28317499999997,53.199306194305585L463.19318125,64.39912692737596L464.10318749999993,86.79901873037564L465.01319374999997,86.79901873037564L465.9232,97.99883946344598L466.83320625,86.79901873037564L467.74321249999997,64.39887659051698L468.65321874999995,64.39912692737596L469.563225,53.1990558574466L470.47323124999997,75.59919799730527L471.38323749999995,75.59919799730527L472.29324375,86.79901873037564L473.20324999999997,64.39912692737596L474.11325624999995,97.99883946344598L475.0232625,75.59894766044629L475.93326874999997,75.59919799730527L476.84327499999995,86.79901873037564L477.75328125,75.59919799730527L478.66328749999997,53.199306194305585L479.57329374999995,86.79901873037564L480.4833,75.59919799730527L481.39330625,53.199306194305585L482.30331249999995,97.99883946344598L483.21331875,64.39912692737596L484.123325,64.39912692737596L485.03333124999995,64.39912692737596L485.9433375,75.59919799730527L486.85334375,86.79901873037564L487.76334999999995,64.39887659051698L488.67335625,53.199306194305585L489.58336249999996,64.39912692737596L490.49336874999995,86.79901873037564L491.403375,41.99948546123521L492.31338124999996,64.39912692737596L493.22338749999994,53.199306194305585L494.13339375,64.39912692737596L495.04339999999996,41.99948546123521L495.95340624999994,97.99883946344598L496.8634125,75.59894766044629L497.77341874999996,64.39912692737596L498.68342499999994,64.39887659051698L499.59343125,53.199306194305585L500.50343749999996,75.59919799730527L501.41344375,53.199306194305585L502.32345,75.59894766044629L503.23345624999996,75.59894766044629L504.1434625,86.79901873037564L505.05346875,86.79901873037564L505.96347499999996,86.79901873037564L506.87348125,75.59919799730527L507.7834875,75.59919799730527L508.69349374999996,75.59919799730527L509.6035,86.79901873037564L510.51350625,86.79901873037564L511.42351249999996,64.39912692737596L512.3335187499999,86.79876839351667L513.243525,86.79901873037564L514.15353125,86.79901873037564L515.0635374999999,97.99883946344598L515.97354375,75.59919799730527L516.88355,53.199306194305585L517.7935562499999,64.39887659051698L518.7035625,97.99883946344598L519.61356875,97.99883946344598L520.5235749999999,75.59919799730527L521.43358125,53.199306194305585L522.3435875,53.199306194305585L523.2535937499999,86.79901873037564L524.1636,75.59919799730527L525.07360625,64.39912692737596L525.9836124999999,97.99883946344598L526.89361875,86.79901873037564L527.803625,97.99883946344598L528.71363125,75.59919799730527L529.6236375,53.199306194305585L530.53364375,86.79901873037564L531.44365,97.99858912658704L532.35365625,64.39887659051698L533.2636625,64.39887659051698L534.17366875,86.79901873037564L535.083675,75.59919799730527L535.99368125,86.79901873037564L536.9036874999999,97.99858912658704L537.81369375,53.199306194305585L538.7237,97.99883946344598L539.6337062499999,75.59919799730527L540.5437125,97.99883946344598L541.45371875,64.39912692737596L542.3637249999999,75.59919799730527L543.27373125,75.59894766044629L544.1837375,75.59919799730527L545.0937437499999,86.79901873037564L546.00375,64.39912692737596L546.91375625,53.199306194305585L547.8237625,41.99948546123521L548.7337687499999,75.59919799730527L549.6437749999999,64.39912692737596L550.5537812499999,64.39912692737596L551.4637875,75.59919799730527L552.37379375,86.79901873037564L553.2838,64.39912692737596L554.19380625,86.79901873037564L555.1038124999999,53.199306194305585L556.0138187499999,86.79901873037564L556.923825,64.39912692737596L557.83383125,53.199306194305585L558.7438375,53.1990558574466L559.65384375,64.39912692737596L560.5638499999999,64.39912692737596L561.4738562499999,75.59919799730527L562.3838625,75.59919799730527L563.29386875,75.59919799730527L564.203875,64.39887659051698L565.11388125,86.79901873037564L566.0238875,86.79901873037564L566.9338937499999,41.99948546123521L567.8439,64.39912692737596L568.75390625,97.99883946344598L569.6639124999999,53.199306194305585L570.57391875,75.59919799730527L571.483925,30.79966472816484L572.3939312499999,86.79901873037564L573.3039375,75.59894766044629L574.21394375,75.59919799730527L575.1239499999999,75.59919799730527L576.03395625,75.59919799730527L576.9439625,41.99948546123521L577.8539687499999,75.59919799730527L578.763975,75.59919799730527L579.67398125,75.59919799730527L580.5839874999999,75.59919799730527L581.49399375,41.99948546123521L582.404,53.199306194305585L583.31400625,64.39887659051698L584.2240125,86.79901873037564L585.13401875,86.79901873037564L586.0440249999999,64.39912692737596L586.95403125,86.79901873037564L587.8640375,86.79901873037564L588.77404375,75.59919799730527L589.68405,53.199306194305585L590.59405625,86.79901873037564L591.5040624999999,75.59919799730527L592.41406875,64.39912692737596L593.324075,75.59919799730527L594.23408125,75.59919799730527L595.1440875,64.39912692737596L596.0540937499999,64.39912692737596L596.9640999999999,53.199306194305585L597.87410625,41.999235124376234L598.7841125,97.99858912658704L599.69411875,86.79876839351667L600.6041250000001,53.199306194305585L601.5141312499999,53.199306194305585L602.4241374999999,64.39912692737596L603.33414375,75.59919799730527L604.24415,97.99883946344598L605.15415625,86.79901873037564L606.0641625000001,64.39912692737596L606.9741687499999,75.59919799730527L607.8841749999999,75.59919799730527L608.79418125,64.39912692737596L609.7041875,53.199306194305585L610.61419375,75.59919799730527L611.5242000000001,30.79966472816484L612.4342062499999,53.199306194305585L613.3442124999999,75.59919799730527L614.25421875,41.99948546123521L615.164225,41.99948546123521L616.07423125,53.199306194305585L616.9842375,97.99883946344598L617.8942437499999,86.79876839351667L618.8042499999999,75.59919799730527L619.71425625,64.39912692737596L620.6242625,64.39912692737596L621.53426875,86.79901873037564L622.444275,64.39912692737596L623.35428125,64.39912692737596L624.2642874999999,75.59919799730527L625.17429375,75.59919799730527L626.0843,86.79901873037564L626.99430625,64.39912692737596L627.9043125,64.39887659051698L628.81431875,75.59919799730527L629.7243249999999,64.39912692737596L630.63433125,53.199306194305585L631.5443375,64.39912692737596L632.45434375,53.1990558574466L633.36435,86.79901873037564L634.27435625,86.79901873037564L635.1843624999999,53.199306194305585L636.09436875,64.39912692737596L637.004375,75.59919799730527L637.9143812499999,86.79876839351667L638.8243875,53.199306194305585L639.73439375,64.39912692737596L640.6444,97.99883946344598L641.5544062499999,64.39912692737596L642.4644125,75.59919799730527L643.3744187499999,64.39912692737596L644.2844249999999,64.39912692737596L645.19443125,64.39912692737596L646.1044375,53.199306194305585L647.0144437499999,64.39887659051698L647.92445,75.59919799730527L648.8344562499999,75.59919799730527L649.7444624999999,64.39912692737596L650.65446875,64.39912692737596L651.564475,53.199306194305585L652.4744812499999,75.59894766044629L653.3844875,75.59919799730527L654.2944937499999,75.59919799730527L655.2044999999999,75.59919799730527L656.11450625,75.59919799730527L657.0245125,64.39887659051698L657.93451875,53.199306194305585L658.844525,75.59919799730527L659.7545312499999,53.199306194305585L660.6645374999999,86.79901873037564L661.57454375,64.39912692737596L662.48455,64.39912692737596L663.39455625,64.39887659051698L664.3045624999999,97.99883946344598L665.2145687499999,64.39912692737596L666.1245749999999,41.99948546123521L667.03458125,64.39912692737596L667.9445875,64.39887659051698L668.85459375,75.59919799730527L669.7645999999999,64.39912692737596L670.6746062499999,75.59919799730527L671.5846124999999,86.79876839351667L672.49461875,64.39912692737596L673.404625,86.79876839351667L674.31463125,86.79901873037564L675.2246374999999,30.79966472816484L676.1346437499999,64.39912692737596L677.0446499999999,64.39887659051698L677.95465625,86.79901873037564L678.8646625,53.1990558574466L679.77466875,75.59894766044629L680.684675,64.39912692737596L681.5946812499999,64.39887659051698L682.5046874999999,30.79966472816484L683.41469375,86.79901873037564L684.3247,64.39912692737596L685.2347062499999,75.59894766044629L686.1447125,86.79901873037564L687.0547187499999,97.99883946344598L687.9647249999999,97.99883946344598L688.87473125,53.199306194305585L689.7847375,75.59894766044629L690.6947437499999,86.79901873037564L691.60475,75.59919799730527L692.51475625,86.79901873037564L693.4247624999999,75.59894766044629L694.33476875,53.199306194305585L695.244775,75.59919799730527L696.1547812499999,86.79901873037564L697.0647875,64.39912692737596L697.97479375,53.199306194305585L698.8847999999999,64.39912692737596L699.79480625,53.199306194305585L700.7048125,97.99883946344598L701.6148187499999,75.59894766044629L702.524825,86.79901873037564L703.43483125,75.59894766044629L704.3448374999999,75.59919799730527L705.25484375,97.99883946344598L706.1648499999999,75.59919799730527L707.0748562499999,53.199306194305585L707.9848625,86.79901873037564L708.89486875,86.79901873037564L709.804875,64.39887659051698L710.71488125,97.99883946344598L711.6248874999999,86.79901873037564L712.5348937499999,41.999235124376234L713.4449,97.99883946344598L714.35490625,86.79901873037564L715.2649125,64.39912692737596L716.17491875,75.59894766044629L717.0849249999999,86.79901873037564L717.9949312499999,75.59919799730527L718.9049375,53.199306194305585L719.81494375,53.199306194305585L720.72495,64.39912692737596L721.63495625,64.39912692737596L722.5449624999999,75.59919799730527L723.4549687499999,53.199306194305585L724.364975,64.39912692737596L725.27498125,86.79901873037564L726.1849875,64.39887659051698L727.0949937500001,53.199306194305585L728.0049999999999,64.39912692737596L728.9150062499999,75.59919799730527L729.8250125,53.199306194305585L730.73501875,64.39912692737596L731.645025,64.39912692737596L732.55503125,86.79901873037564L733.4650374999999,75.59894766044629L734.3750437499999,64.39912692737596L735.28505,64.39912692737596L736.19505625,75.59894766044629L737.1050625,86.79901873037564L738.01506875,86.79901873037564L738.9250749999999,75.59919799730527L739.8350812499999,64.39912692737596L740.7450875,41.99948546123521L741.65509375,75.59919799730527L742.5651,75.59919799730527L743.47510625,75.59919799730527L744.3851124999999,64.39887659051698L745.2951187499999,86.79901873037564L746.205125,64.39887659051698L747.11513125,64.39912692737596L748.0251375,75.59919799730527L748.93514375,86.79901873037564L749.84515,86.79901873037564L750.7551562499999,30.79966472816484L751.6651625,64.39912692737596L752.57516875,75.59919799730527L753.4851749999999,64.39912692737596L754.39518125,53.199306194305585L755.3051875,97.99883946344598L756.2151937499999,75.59919799730527L757.1252,64.39912692737596L758.03520625,53.199306194305585L758.9452124999999,41.99948546123521L759.85521875,41.99948546123521L760.765225,75.59919799730527L761.6752312499999,86.79901873037564L762.5852375,30.79966472816484L763.49524375,97.99883946344598L764.4052499999999,86.79901873037564L765.31525625,75.59919799730527L766.2252625,86.79901873037564L767.13526875,75.59919799730527L768.045275,64.39912692737596L768.95528125,86.79901873037564L769.8652874999999,75.59919799730527L770.77529375,86.79901873037564L771.6853,86.79901873037564L772.59530625,75.59919799730527L773.5053125,53.199306194305585L774.4153187499999,75.59919799730527L775.3253249999999,75.59919799730527L776.23533125,64.39912692737596L777.1453375,86.79901873037564L778.05534375,97.99883946344598L778.96535,86.79901873037564L779.8753562499999,64.39912692737596L780.7853624999999,86.79901873037564L781.69536875,75.59919799730527L782.605375,64.39912692737596L783.51538125,75.59919799730527L784.4253875,64.39912692737596L785.3353937499999,53.199306194305585L786.2453999999999,64.39887659051698L787.1554062499999,86.79901873037564L788.0654125,53.199306194305585L788.97541875,41.99948546123521L789.885425,75.59919799730527L790.7954312499999,75.59894766044629L791.7054374999999,64.39887659051698L792.6154437499999,41.99948546123521L793.52545,53.1990558574466L794.43545625,75.59919799730527L795.3454625,64.39887659051698L796.2554687499999,75.59919799730527L797.1654749999999,64.39912692737596L798.0754812499999,75.59919799730527L798.9854875,53.199306194305585L799.89549375,64.39912692737596L800.8054999999999,97.99883946344598L801.7155062499999,53.1990558574466L802.6255124999999,53.199306194305585L803.5355187499999,64.39912692737596L804.445525,64.39912692737596L805.35553125,75.59919799730527L806.2655374999999,86.79901873037564L807.17554375,75.59919799730527L808.0855499999999,86.79901873037564L808.9955562499999,75.59919799730527L809.9055625,75.59919799730527L810.81556875,64.39912692737596L811.7255749999999,75.59919799730527L812.63558125,75.59919799730527L813.5455874999999,86.79901873037564L814.4555937499999,75.59919799730527L815.3656,64.39887659051698L816.27560625,86.79901873037564L817.1856124999999,97.99883946344598L818.09561875,64.39887659051698L819.005625,97.99883946344598L819.9156312499999,86.79876839351667L820.8256375,64.39912692737596L821.7356437499999,86.79901873037564L822.6456499999999,64.39912692737596L823.55565625,75.59919799730527L824.4656625,53.199306194305585L825.3756687499999,64.39887659051698L826.285675,75.59919799730527L827.1956812499999,64.39912692737596L828.1056874999999,41.999235124376234L829.01569375,41.999235124376234L829.9257,97.99883946344598L830.8357062499999,75.59919799730527L831.7457125,75.59894766044629L832.6557187499999,64.39912692737596L833.5657249999999,64.39912692737596L834.47573125,86.79901873037564L835.3857375,53.199306194305585L836.29574375,64.39912692737596L837.20575,53.199306194305585L838.1157562499999,86.79901873037564L839.0257624999999,64.39887659051698L839.93576875,64.39912692737596L840.845775,64.39912692737596L841.75578125,75.59919799730527L842.6657874999999,41.99948546123521L843.5757937499999,64.39912692737596L844.4857999999999,53.199306194305585L845.39580625,86.79901873037564L846.3058125,86.79876839351667L847.21581875,75.59919799730527L848.1258249999998,75.59919799730527L849.0358312499999,53.199306194305585L849.9458374999999,53.1990558574466L850.85584375,64.39912692737596L851.76585,75.59919799730527L852.67585625,86.79901873037564L853.5858624999998,53.199306194305585L854.4958687499999,75.59919799730527L855.4058749999999,75.59919799730527L856.31588125,75.59919799730527L857.2258875,64.39912692737596L858.13589375,64.39887659051698L859.0459,53.199306194305585L859.9559062499999,64.39912692737596L860.8659124999999,53.1990558574466L861.77591875,41.99948546123521L862.685925,86.79901873037564L863.59593125,75.59919799730527L864.5059375,86.79901873037564L865.4159437499999,41.99948546123521L866.3259499999999,64.39887659051698L867.23595625,64.39912692737596L868.1459625,53.1990558574466L869.0559687499999,64.39912692737596L869.965975,64.39912692737596L870.8759812499999,64.39912692737596L871.7859874999999,86.79901873037564L872.69599375,41.999235124376234L873.606,64.39887659051698L874.5160062499999,75.59919799730527L875.4260125,86.79901873037564L876.33601875,109.19866019651634L877.2460249999999,75.59919799730527L878.15603125,75.59919799730527L879.0660375,53.199306194305585L879.9760437499999,97.99883946344598L880.88605,86.79901873037564L881.79605625,64.39912692737596L882.7060624999999,75.59919799730527L883.61606875,53.199306194305585L884.526075,64.39912692737596L885.4360812499999,75.59919799730527L886.3460875,75.59919799730527L887.25609375,86.79901873037564L888.1660999999999,86.79901873037564L889.07610625,86.79901873037564L889.9861124999999,75.59919799730527L890.8961187499999,64.39887659051698L891.806125,75.59894766044629L892.71613125,86.79901873037564L893.6261375,75.59894766044629L894.53614375,75.59894766044629L895.4461499999999,53.199306194305585L896.3561562499999,86.79901873037564L897.2661625,75.59919799730527L898.17616875,75.59919799730527L899.086175,53.199306194305585L899.99618125,64.39887659051698L900.9061874999999,64.39912692737596L901.8161937499999,86.79901873037564L902.7262,41.99948546123521L903.63620625,75.59919799730527L904.5462125,41.99948546123521L905.45621875,64.39912692737596L906.3662249999999,53.199306194305585L907.2762312499999,75.59919799730527L908.1862375,64.39912692737596L909.09624375,41.99948546123521L910.00625,86.79901873037564L910.9162562499998,64.39912692737596L911.8262624999999,64.39887659051698L912.7362687499999,86.79901873037564L913.646275,64.39912692737596L914.55628125,75.59919799730527L915.4662875,41.999235124376234L916.37629375,75.59919799730527L917.2862999999999,41.999235124376234L918.1963062499999,75.59919799730527L919.1063125,86.79901873037564L920.01631875,97.99883946344598L920.926325,53.199306194305585L921.83633125,41.99948546123521L922.7463374999999,75.59919799730527L923.6563437499999,75.59919799730527L924.5663499999999,75.59919799730527L925.47635625,64.39912692737596L926.3863625,86.79876839351667L927.2963687499999,64.39912692737596L928.2063749999999,53.199306194305585L929.1163812499999,75.59919799730527L930.0263874999999,86.79901873037564L930.93639375,97.99883946344598L931.8464,64.39912692737596L932.7564062499999,64.39912692737596L933.6664125,64.39912692737596L934.5764187499999,75.59919799730527L935.4864249999999,53.199306194305585L936.39643125,75.59919799730527L937.3064374999999,86.79901873037564L938.2164437499999,86.79901873037564L939.12645,53.199306194305585L940.0364562499999,97.99858912658704L940.9464624999999,75.59919799730527L941.85646875,64.39912692737596L942.7664749999999,53.199306194305585L943.6764812499999,86.79901873037564L944.5864875,75.59894766044629L945.4964937499999,86.79901873037564L946.4064999999999,53.1990558574466L947.31650625,86.79901873037564L948.2265124999999,86.79901873037564L949.1365187499999,75.59919799730527L950.046525,75.59919799730527L950.95653125,64.39912692737596L951.8665374999999,75.59919799730527L952.77654375,64.39912692737596L953.6865499999999,53.199306194305585L954.5965562499999,75.59919799730527L955.5065625,53.199306194305585L956.41656875,75.59894766044629L957.3265749999999,86.79901873037564L958.2365812499999,75.59894766044629L959.1465874999999,75.59919799730527L960.0565937499999,75.59919799730527L960.9666,53.199306194305585L961.87660625,86.79901873037564L962.7866125,86.79901873037564L963.6966187499999,53.199306194305585L964.6066249999999,64.39912692737596L965.5166312499999,75.59919799730527L966.4266375,41.99948546123521L967.33664375,64.39912692737596L968.24665,75.59919799730527L969.1566562499999,86.79901873037564L970.0666624999999,75.59894766044629L970.9766687499999,86.79876839351667L971.886675,86.79901873037564L972.79668125,64.39912692737596L973.7066875,75.59919799730527L974.6166937499999,86.79901873037564L975.5266999999999,75.59894766044629L976.4367062499999,75.59919799730527L977.3467125,75.59919799730527L978.25671875,41.99948546123521L979.1667249999999,75.59919799730527L980.0767312499999,53.199306194305585L980.9867374999999,86.79901873037564L981.8967437499999,64.39912692737596L982.80675,64.39887659051698L983.71675625,75.59919799730527L984.6267624999999,75.59894766044629L985.53676875,75.59919799730527L986.4467749999999,53.1990558574466L987.3567812499999,97.99883946344598L988.2667875,53.199306194305585L989.17679375,41.99948546123521L990.0867999999999,53.199306194305585L990.99680625,53.199306194305585L991.9068124999999,53.1990558574466L992.8168187499999,41.99948546123521L993.726825,75.59919799730527L994.63683125,53.199306194305585L995.5468374999999,64.39912692737596L996.45684375,97.99883946344598L997.3668499999999,86.79901873037564L998.2768562499999,64.39887659051698L999.1868625,97.99883946344598L1000.09686875,75.59919799730527" style="fill: none;" fill="none"></path></g></g></g></g></g></g><g transform="translate(51, 377)" clip-path="url(#clip_1)"><clipPath id="clip_1"><rect width="1092" height="21"></rect></clipPath><g><g><line x1="0" y1="0" x2="0" y2="5" style="visibility: inherit;" fill="rgb(0, 0, 0)" stroke="rgb(204, 204, 204)" stroke-width="1px"></line><line x1="91.00062499999999" y1="0" x2="91.00062499999999" y2="5" style="visibility: inherit;" fill="rgb(0, 0, 0)" stroke="rgb(204, 204, 204)" stroke-width="1px"></line><line x1="182.00124999999997" y1="0" x2="182.00124999999997" y2="5" style="visibility: inherit;" fill="rgb(0, 0, 0)" stroke="rgb(204, 204, 204)" stroke-width="1px"></line><line x1="273.001875" y1="0" x2="273.001875" y2="5" style="visibility: inherit;" fill="rgb(0, 0, 0)" stroke="rgb(204, 204, 204)" stroke-width="1px"></line><line x1="364.00249999999994" y1="0" x2="364.00249999999994" y2="5" style="visibility: inherit;" fill="rgb(0, 0, 0)" stroke="rgb(204, 204, 204)" stroke-width="1px"></line><line x1="455.003125" y1="0" x2="455.003125" y2="5" style="visibility: inherit;" fill="rgb(0, 0, 0)" stroke="rgb(204, 204, 204)" stroke-width="1px"></line><line x1="546.00375" y1="0" x2="546.00375" y2="5" style="visibility: inherit;" fill="rgb(0, 0, 0)" stroke="rgb(204, 204, 204)" stroke-width="1px"></line><line x1="637.004375" y1="0" x2="637.004375" y2="5" style="visibility: inherit;" fill="rgb(0, 0, 0)" stroke="rgb(204, 204, 204)" stroke-width="1px"></line><line x1="728.0049999999999" y1="0" x2="728.0049999999999" y2="5" style="visibility: inherit;" fill="rgb(0, 0, 0)" stroke="rgb(204, 204, 204)" stroke-width="1px"></line><line x1="819.005625" y1="0" x2="819.005625" y2="5" style="visibility: inherit;" fill="rgb(0, 0, 0)" stroke="rgb(204, 204, 204)" stroke-width="1px"></line><line x1="910.00625" y1="0" x2="910.00625" y2="5" style="visibility: inherit;" fill="rgb(0, 0, 0)" stroke="rgb(204, 204, 204)" stroke-width="1px"></line><line x1="1001.0068749999999" y1="0" x2="1001.0068749999999" y2="5" style="visibility: inherit;" fill="rgb(0, 0, 0)" stroke="rgb(204, 204, 204)" stroke-width="1px"></line><line x1="1092.0075" y1="0" x2="1092.0075" y2="5" style="visibility: inherit;" fill="rgb(0, 0, 0)" stroke="rgb(204, 204, 204)" stroke-width="1px"></line></g><g transform="translate(0, 8)"><text x="0" y="0" dx="0em" dy="0.95em" style="text-anchor: middle; visibility: hidden; font-family: Roboto, sans-serif; font-size: 12px; font-weight: 200;" fill="rgb(50, 49, 63)" stroke="none" stroke-width="1px">-100</text><text x="91.00062499999999" y="0" dx="0em" dy="0.95em" style="text-anchor: middle; visibility: inherit; font-family: Roboto, sans-serif; font-size: 12px; font-weight: 200;" fill="rgb(50, 49, 63)" stroke="none" stroke-width="1px">0</text><text x="182.00124999999997" y="0" dx="0em" dy="0.95em" style="text-anchor: middle; visibility: inherit; font-family: Roboto, sans-serif; font-size: 12px; font-weight: 200;" fill="rgb(50, 49, 63)" stroke="none" stroke-width="1px">100</text><text x="273.001875" y="0" dx="0em" dy="0.95em" style="text-anchor: middle; visibility: inherit; font-family: Roboto, sans-serif; font-size: 12px; font-weight: 200;" fill="rgb(50, 49, 63)" stroke="none" stroke-width="1px">200</text><text x="364.00249999999994" y="0" dx="0em" dy="0.95em" style="text-anchor: middle; visibility: inherit; font-family: Roboto, sans-serif; font-size: 12px; font-weight: 200;" fill="rgb(50, 49, 63)" stroke="none" stroke-width="1px">300</text><text x="455.003125" y="0" dx="0em" dy="0.95em" style="text-anchor: middle; visibility: inherit; font-family: Roboto, sans-serif; font-size: 12px; font-weight: 200;" fill="rgb(50, 49, 63)" stroke="none" stroke-width="1px">400</text><text x="546.00375" y="0" dx="0em" dy="0.95em" style="text-anchor: middle; visibility: inherit; font-family: Roboto, sans-serif; font-size: 12px; font-weight: 200;" fill="rgb(50, 49, 63)" stroke="none" stroke-width="1px">500</text><text x="637.004375" y="0" dx="0em" dy="0.95em" style="text-anchor: middle; visibility: inherit; font-family: Roboto, sans-serif; font-size: 12px; font-weight: 200;" fill="rgb(50, 49, 63)" stroke="none" stroke-width="1px">600</text><text x="728.0049999999999" y="0" dx="0em" dy="0.95em" style="text-anchor: middle; visibility: inherit; font-family: Roboto, sans-serif; font-size: 12px; font-weight: 200;" fill="rgb(50, 49, 63)" stroke="none" stroke-width="1px">700</text><text x="819.005625" y="0" dx="0em" dy="0.95em" style="text-anchor: middle; visibility: inherit; font-family: Roboto, sans-serif; font-size: 12px; font-weight: 200;" fill="rgb(50, 49, 63)" stroke="none" stroke-width="1px">800</text><text x="910.00625" y="0" dx="0em" dy="0.95em" style="text-anchor: middle; visibility: inherit; font-family: Roboto, sans-serif; font-size: 12px; font-weight: 200;" fill="rgb(50, 49, 63)" stroke="none" stroke-width="1px">900</text><text x="1001.0068749999999" y="0" dx="0em" dy="0.95em" style="text-anchor: middle; visibility: inherit; font-family: Roboto, sans-serif; font-size: 12px; font-weight: 200;" fill="rgb(50, 49, 63)" stroke="none" stroke-width="1px">1k</text><text x="1092.0075" y="0" dx="0em" dy="0.95em" style="text-anchor: middle; visibility: hidden; font-family: Roboto, sans-serif; font-size: 12px; font-weight: 200;" fill="rgb(50, 49, 63)" stroke="none" stroke-width="1px">1.1k</text></g><line x1="0" y1="0" x2="1092.0075" y2="0" fill="rgb(0, 0, 0)" stroke="rgb(204, 204, 204)" stroke-width="1px"></line></g></g></g></g></svg>