<?xml version="1.0" encoding="utf-8" standalone="no"?>
<!DOCTYPE svg PUBLIC "-//W3C//DTD SVG 1.1//EN"
  "http://www.w3.org/Graphics/SVG/1.1/DTD/svg11.dtd">
<svg height="288pt" version="1.1" viewBox="0 0 720 288" width="720pt" xmlns="http://www.w3.org/2000/svg" xmlns:xlink="http://www.w3.org/1999/xlink">
 <metadata>
  <rdf:RDF xmlns:cc="http://creativecommons.org/ns#" xmlns:dc="http://purl.org/dc/elements/1.1/" xmlns:rdf="http://www.w3.org/1999/02/22-rdf-syntax-ns#">
   <cc:Work>
    <dc:type rdf:resource="http://purl.org/dc/dcmitype/StillImage"/>
    <dc:date>2021-05-08T21:17:22.660426</dc:date>
    <dc:format>image/svg+xml</dc:format>
    <dc:creator>
     <cc:Agent>
      <dc:title>Matplotlib v3.4.1, https://matplotlib.org/</dc:title>
     </cc:Agent>
    </dc:creator>
   </cc:Work>
  </rdf:RDF>
 </metadata>
 <defs>
  <style type="text/css">*{stroke-linecap:butt;stroke-linejoin:round;}</style>
 </defs>
 <g id="figure_1">
  <g id="patch_1">
   <path d="M 0 288 
L 720 288 
L 720 0 
L 0 0 
z
" style="fill:none;"/>
  </g>
  <g id="axes_1">
   <g id="patch_2">
    <path d="M 90 252 
L 648 252 
L 648 34.56 
L 90 34.56 
z
" style="fill:#ffffff;"/>
   </g>
   <g id="PathCollection_1">
    <defs>
     <path d="M 0 3 
C 0.795609 3 1.55874 2.683901 2.12132 2.12132 
C 2.683901 1.55874 3 0.795609 3 0 
C 3 -0.795609 2.683901 -1.55874 2.12132 -2.12132 
C 1.55874 -2.683901 0.795609 -3 0 -3 
C -0.795609 -3 -1.55874 -2.683901 -2.12132 -2.12132 
C -2.683901 -1.55874 -3 -0.795609 -3 0 
C -3 0.795609 -2.683901 1.55874 -2.12132 2.12132 
C -1.55874 2.683901 -0.795609 3 0 3 
z
" id="mf99b69b3cc" style="stroke:#1f77b4;"/>
    </defs>
    <g clip-path="url(#p5f62f21ff6)">
     <use style="fill:#1f77b4;stroke:#1f77b4;" x="115.363636" xlink:href="#mf99b69b3cc" y="148.977883"/>
     <use style="fill:#1f77b4;stroke:#1f77b4;" x="117.175325" xlink:href="#mf99b69b3cc" y="121.949462"/>
     <use style="fill:#1f77b4;stroke:#1f77b4;" x="118.987013" xlink:href="#mf99b69b3cc" y="108.289151"/>
     <use style="fill:#1f77b4;stroke:#1f77b4;" x="120.798701" xlink:href="#mf99b69b3cc" y="104.782762"/>
     <use style="fill:#1f77b4;stroke:#1f77b4;" x="122.61039" xlink:href="#mf99b69b3cc" y="95.578488"/>
     <use style="fill:#1f77b4;stroke:#1f77b4;" x="124.422078" xlink:href="#mf99b69b3cc" y="97.331683"/>
     <use style="fill:#1f77b4;stroke:#1f77b4;" x="126.233766" xlink:href="#mf99b69b3cc" y="101.349421"/>
     <use style="fill:#1f77b4;stroke:#1f77b4;" x="128.045455" xlink:href="#mf99b69b3cc" y="84.54797"/>
     <use style="fill:#1f77b4;stroke:#1f77b4;" x="129.857143" xlink:href="#mf99b69b3cc" y="80.311082"/>
     <use style="fill:#1f77b4;stroke:#1f77b4;" x="131.668831" xlink:href="#mf99b69b3cc" y="83.013925"/>
     <use style="fill:#1f77b4;stroke:#1f77b4;" x="133.480519" xlink:href="#mf99b69b3cc" y="83.963572"/>
     <use style="fill:#1f77b4;stroke:#1f77b4;" x="135.292208" xlink:href="#mf99b69b3cc" y="83.160024"/>
     <use style="fill:#1f77b4;stroke:#1f77b4;" x="137.103896" xlink:href="#mf99b69b3cc" y="85.424568"/>
     <use style="fill:#1f77b4;stroke:#1f77b4;" x="138.915584" xlink:href="#mf99b69b3cc" y="84.328821"/>
     <use style="fill:#1f77b4;stroke:#1f77b4;" x="140.727273" xlink:href="#mf99b69b3cc" y="90.684152"/>
     <use style="fill:#1f77b4;stroke:#1f77b4;" x="142.538961" xlink:href="#mf99b69b3cc" y="103.248716"/>
     <use style="fill:#1f77b4;stroke:#1f77b4;" x="144.350649" xlink:href="#mf99b69b3cc" y="105.878508"/>
     <use style="fill:#1f77b4;stroke:#1f77b4;" x="146.162338" xlink:href="#mf99b69b3cc" y="115.81328"/>
     <use style="fill:#1f77b4;stroke:#1f77b4;" x="147.974026" xlink:href="#mf99b69b3cc" y="113.183487"/>
     <use style="fill:#1f77b4;stroke:#1f77b4;" x="149.785714" xlink:href="#mf99b69b3cc" y="113.110437"/>
     <use style="fill:#1f77b4;stroke:#1f77b4;" x="151.597403" xlink:href="#mf99b69b3cc" y="111.284193"/>
     <use style="fill:#1f77b4;stroke:#1f77b4;" x="153.409091" xlink:href="#mf99b69b3cc" y="110.918944"/>
     <use style="fill:#1f77b4;stroke:#1f77b4;" x="155.220779" xlink:href="#mf99b69b3cc" y="111.284193"/>
     <use style="fill:#1f77b4;stroke:#1f77b4;" x="157.032468" xlink:href="#mf99b69b3cc" y="115.374981"/>
     <use style="fill:#1f77b4;stroke:#1f77b4;" x="158.844156" xlink:href="#mf99b69b3cc" y="113.987035"/>
     <use style="fill:#1f77b4;stroke:#1f77b4;" x="160.655844" xlink:href="#mf99b69b3cc" y="78.265688"/>
     <use style="fill:#1f77b4;stroke:#1f77b4;" x="162.467532" xlink:href="#mf99b69b3cc" y="107.412554"/>
     <use style="fill:#1f77b4;stroke:#1f77b4;" x="164.279221" xlink:href="#mf99b69b3cc" y="103.248716"/>
     <use style="fill:#1f77b4;stroke:#1f77b4;" x="166.090909" xlink:href="#mf99b69b3cc" y="99.961476"/>
     <use style="fill:#1f77b4;stroke:#1f77b4;" x="167.902597" xlink:href="#mf99b69b3cc" y="107.339504"/>
     <use style="fill:#1f77b4;stroke:#1f77b4;" x="169.714286" xlink:href="#mf99b69b3cc" y="107.777803"/>
     <use style="fill:#1f77b4;stroke:#1f77b4;" x="171.525974" xlink:href="#mf99b69b3cc" y="111.284193"/>
     <use style="fill:#1f77b4;stroke:#1f77b4;" x="173.337662" xlink:href="#mf99b69b3cc" y="110.042346"/>
     <use style="fill:#1f77b4;stroke:#1f77b4;" x="175.149351" xlink:href="#mf99b69b3cc" y="111.065043"/>
     <use style="fill:#1f77b4;stroke:#1f77b4;" x="176.961039" xlink:href="#mf99b69b3cc" y="110.772844"/>
     <use style="fill:#1f77b4;stroke:#1f77b4;" x="178.772727" xlink:href="#mf99b69b3cc" y="106.974255"/>
     <use style="fill:#1f77b4;stroke:#1f77b4;" x="180.584416" xlink:href="#mf99b69b3cc" y="108.070002"/>
     <use style="fill:#1f77b4;stroke:#1f77b4;" x="182.396104" xlink:href="#mf99b69b3cc" y="107.996952"/>
     <use style="fill:#1f77b4;stroke:#1f77b4;" x="184.207792" xlink:href="#mf99b69b3cc" y="110.188446"/>
     <use style="fill:#1f77b4;stroke:#1f77b4;" x="186.019481" xlink:href="#mf99b69b3cc" y="110.480645"/>
     <use style="fill:#1f77b4;stroke:#1f77b4;" x="187.831169" xlink:href="#mf99b69b3cc" y="108.508301"/>
     <use style="fill:#1f77b4;stroke:#1f77b4;" x="189.642857" xlink:href="#mf99b69b3cc" y="103.906164"/>
     <use style="fill:#1f77b4;stroke:#1f77b4;" x="191.454545" xlink:href="#mf99b69b3cc" y="93.094795"/>
     <use style="fill:#1f77b4;stroke:#1f77b4;" x="193.266234" xlink:href="#mf99b69b3cc" y="104.052264"/>
     <use style="fill:#1f77b4;stroke:#1f77b4;" x="195.077922" xlink:href="#mf99b69b3cc" y="89.953655"/>
     <use style="fill:#1f77b4;stroke:#1f77b4;" x="196.88961" xlink:href="#mf99b69b3cc" y="97.258633"/>
     <use style="fill:#1f77b4;stroke:#1f77b4;" x="198.701299" xlink:href="#mf99b69b3cc" y="93.313945"/>
     <use style="fill:#1f77b4;stroke:#1f77b4;" x="200.512987" xlink:href="#mf99b69b3cc" y="97.258633"/>
     <use style="fill:#1f77b4;stroke:#1f77b4;" x="202.324675" xlink:href="#mf99b69b3cc" y="97.331683"/>
     <use style="fill:#1f77b4;stroke:#1f77b4;" x="204.136364" xlink:href="#mf99b69b3cc" y="95.943737"/>
     <use style="fill:#1f77b4;stroke:#1f77b4;" x="205.948052" xlink:href="#mf99b69b3cc" y="86.301165"/>
     <use style="fill:#1f77b4;stroke:#1f77b4;" x="207.75974" xlink:href="#mf99b69b3cc" y="87.689111"/>
     <use style="fill:#1f77b4;stroke:#1f77b4;" x="209.571429" xlink:href="#mf99b69b3cc" y="92.364298"/>
     <use style="fill:#1f77b4;stroke:#1f77b4;" x="211.383117" xlink:href="#mf99b69b3cc" y="95.943737"/>
     <use style="fill:#1f77b4;stroke:#1f77b4;" x="213.194805" xlink:href="#mf99b69b3cc" y="58.323096"/>
     <use style="fill:#1f77b4;stroke:#1f77b4;" x="215.006494" xlink:href="#mf99b69b3cc" y="97.404733"/>
     <use style="fill:#1f77b4;stroke:#1f77b4;" x="216.818182" xlink:href="#mf99b69b3cc" y="89.223157"/>
     <use style="fill:#1f77b4;stroke:#1f77b4;" x="218.62987" xlink:href="#mf99b69b3cc" y="93.167845"/>
     <use style="fill:#1f77b4;stroke:#1f77b4;" x="220.441558" xlink:href="#mf99b69b3cc" y="94.482741"/>
     <use style="fill:#1f77b4;stroke:#1f77b4;" x="222.253247" xlink:href="#mf99b69b3cc" y="92.583447"/>
     <use style="fill:#1f77b4;stroke:#1f77b4;" x="224.064935" xlink:href="#mf99b69b3cc" y="98.57353"/>
     <use style="fill:#1f77b4;stroke:#1f77b4;" x="225.876623" xlink:href="#mf99b69b3cc" y="87.689111"/>
     <use style="fill:#1f77b4;stroke:#1f77b4;" x="227.688312" xlink:href="#mf99b69b3cc" y="82.721725"/>
     <use style="fill:#1f77b4;stroke:#1f77b4;" x="229.5" xlink:href="#mf99b69b3cc" y="85.497617"/>
     <use style="fill:#1f77b4;stroke:#1f77b4;" x="231.311688" xlink:href="#mf99b69b3cc" y="95.505438"/>
     <use style="fill:#1f77b4;stroke:#1f77b4;" x="233.123377" xlink:href="#mf99b69b3cc" y="77.900439"/>
     <use style="fill:#1f77b4;stroke:#1f77b4;" x="234.935065" xlink:href="#mf99b69b3cc" y="83.379174"/>
     <use style="fill:#1f77b4;stroke:#1f77b4;" x="236.746753" xlink:href="#mf99b69b3cc" y="89.588406"/>
     <use style="fill:#1f77b4;stroke:#1f77b4;" x="238.558442" xlink:href="#mf99b69b3cc" y="98.35438"/>
     <use style="fill:#1f77b4;stroke:#1f77b4;" x="240.37013" xlink:href="#mf99b69b3cc" y="75.124547"/>
     <use style="fill:#1f77b4;stroke:#1f77b4;" x="242.181818" xlink:href="#mf99b69b3cc" y="74.1749"/>
     <use style="fill:#1f77b4;stroke:#1f77b4;" x="243.993506" xlink:href="#mf99b69b3cc" y="72.640855"/>
     <use style="fill:#1f77b4;stroke:#1f77b4;" x="245.805195" xlink:href="#mf99b69b3cc" y="80.457182"/>
     <use style="fill:#1f77b4;stroke:#1f77b4;" x="247.616883" xlink:href="#mf99b69b3cc" y="91.122451"/>
     <use style="fill:#1f77b4;stroke:#1f77b4;" x="249.428571" xlink:href="#mf99b69b3cc" y="78.777037"/>
     <use style="fill:#1f77b4;stroke:#1f77b4;" x="251.24026" xlink:href="#mf99b69b3cc" y="91.195501"/>
     <use style="fill:#1f77b4;stroke:#1f77b4;" x="253.051948" xlink:href="#mf99b69b3cc" y="91.41465"/>
     <use style="fill:#1f77b4;stroke:#1f77b4;" x="254.863636" xlink:href="#mf99b69b3cc" y="89.369256"/>
     <use style="fill:#1f77b4;stroke:#1f77b4;" x="256.675325" xlink:href="#mf99b69b3cc" y="83.379174"/>
     <use style="fill:#1f77b4;stroke:#1f77b4;" x="258.487013" xlink:href="#mf99b69b3cc" y="86.812514"/>
     <use style="fill:#1f77b4;stroke:#1f77b4;" x="260.298701" xlink:href="#mf99b69b3cc" y="75.489796"/>
     <use style="fill:#1f77b4;stroke:#1f77b4;" x="262.11039" xlink:href="#mf99b69b3cc" y="86.593364"/>
     <use style="fill:#1f77b4;stroke:#1f77b4;" x="263.922078" xlink:href="#mf99b69b3cc" y="93.094795"/>
     <use style="fill:#1f77b4;stroke:#1f77b4;" x="265.733766" xlink:href="#mf99b69b3cc" y="92.218198"/>
     <use style="fill:#1f77b4;stroke:#1f77b4;" x="267.545455" xlink:href="#mf99b69b3cc" y="87.104713"/>
     <use style="fill:#1f77b4;stroke:#1f77b4;" x="269.357143" xlink:href="#mf99b69b3cc" y="85.205418"/>
     <use style="fill:#1f77b4;stroke:#1f77b4;" x="271.168831" xlink:href="#mf99b69b3cc" y="87.250812"/>
     <use style="fill:#1f77b4;stroke:#1f77b4;" x="272.980519" xlink:href="#mf99b69b3cc" y="87.469962"/>
     <use style="fill:#1f77b4;stroke:#1f77b4;" x="274.792208" xlink:href="#mf99b69b3cc" y="86.885563"/>
     <use style="fill:#1f77b4;stroke:#1f77b4;" x="276.603896" xlink:href="#mf99b69b3cc" y="87.762161"/>
     <use style="fill:#1f77b4;stroke:#1f77b4;" x="278.415584" xlink:href="#mf99b69b3cc" y="86.301165"/>
     <use style="fill:#1f77b4;stroke:#1f77b4;" x="280.227273" xlink:href="#mf99b69b3cc" y="88.05436"/>
     <use style="fill:#1f77b4;stroke:#1f77b4;" x="282.038961" xlink:href="#mf99b69b3cc" y="86.228115"/>
     <use style="fill:#1f77b4;stroke:#1f77b4;" x="283.850649" xlink:href="#mf99b69b3cc" y="84.69407"/>
     <use style="fill:#1f77b4;stroke:#1f77b4;" x="285.662338" xlink:href="#mf99b69b3cc" y="85.132368"/>
     <use style="fill:#1f77b4;stroke:#1f77b4;" x="287.474026" xlink:href="#mf99b69b3cc" y="85.424568"/>
     <use style="fill:#1f77b4;stroke:#1f77b4;" x="289.285714" xlink:href="#mf99b69b3cc" y="83.525273"/>
     <use style="fill:#1f77b4;stroke:#1f77b4;" x="291.097403" xlink:href="#mf99b69b3cc" y="82.575626"/>
     <use style="fill:#1f77b4;stroke:#1f77b4;" x="292.909091" xlink:href="#mf99b69b3cc" y="78.777037"/>
     <use style="fill:#1f77b4;stroke:#1f77b4;" x="294.720779" xlink:href="#mf99b69b3cc" y="78.046539"/>
     <use style="fill:#1f77b4;stroke:#1f77b4;" x="296.532468" xlink:href="#mf99b69b3cc" y="68.988365"/>
     <use style="fill:#1f77b4;stroke:#1f77b4;" x="298.344156" xlink:href="#mf99b69b3cc" y="70.96071"/>
     <use style="fill:#1f77b4;stroke:#1f77b4;" x="300.155844" xlink:href="#mf99b69b3cc" y="82.210377"/>
     <use style="fill:#1f77b4;stroke:#1f77b4;" x="301.967532" xlink:href="#mf99b69b3cc" y="80.749381"/>
     <use style="fill:#1f77b4;stroke:#1f77b4;" x="303.779221" xlink:href="#mf99b69b3cc" y="77.900439"/>
     <use style="fill:#1f77b4;stroke:#1f77b4;" x="305.590909" xlink:href="#mf99b69b3cc" y="75.197597"/>
     <use style="fill:#1f77b4;stroke:#1f77b4;" x="307.402597" xlink:href="#mf99b69b3cc" y="74.10185"/>
     <use style="fill:#1f77b4;stroke:#1f77b4;" x="309.214286" xlink:href="#mf99b69b3cc" y="70.376311"/>
     <use style="fill:#1f77b4;stroke:#1f77b4;" x="311.025974" xlink:href="#mf99b69b3cc" y="80.676331"/>
     <use style="fill:#1f77b4;stroke:#1f77b4;" x="312.837662" xlink:href="#mf99b69b3cc" y="74.905398"/>
     <use style="fill:#1f77b4;stroke:#1f77b4;" x="314.649351" xlink:href="#mf99b69b3cc" y="76.001145"/>
     <use style="fill:#1f77b4;stroke:#1f77b4;" x="316.461039" xlink:href="#mf99b69b3cc" y="68.988365"/>
     <use style="fill:#1f77b4;stroke:#1f77b4;" x="318.272727" xlink:href="#mf99b69b3cc" y="68.550067"/>
     <use style="fill:#1f77b4;stroke:#1f77b4;" x="320.084416" xlink:href="#mf99b69b3cc" y="61.245088"/>
     <use style="fill:#1f77b4;stroke:#1f77b4;" x="321.896104" xlink:href="#mf99b69b3cc" y="68.111768"/>
     <use style="fill:#1f77b4;stroke:#1f77b4;" x="323.707792" xlink:href="#mf99b69b3cc" y="60.733739"/>
     <use style="fill:#1f77b4;stroke:#1f77b4;" x="325.519481" xlink:href="#mf99b69b3cc" y="70.96071"/>
     <use style="fill:#1f77b4;stroke:#1f77b4;" x="327.331169" xlink:href="#mf99b69b3cc" y="72.056456"/>
     <use style="fill:#1f77b4;stroke:#1f77b4;" x="329.142857" xlink:href="#mf99b69b3cc" y="71.399008"/>
     <use style="fill:#1f77b4;stroke:#1f77b4;" x="330.954545" xlink:href="#mf99b69b3cc" y="67.089071"/>
     <use style="fill:#1f77b4;stroke:#1f77b4;" x="332.766234" xlink:href="#mf99b69b3cc" y="67.673469"/>
     <use style="fill:#1f77b4;stroke:#1f77b4;" x="334.577922" xlink:href="#mf99b69b3cc" y="61.683386"/>
     <use style="fill:#1f77b4;stroke:#1f77b4;" x="336.38961" xlink:href="#mf99b69b3cc" y="69.938012"/>
     <use style="fill:#1f77b4;stroke:#1f77b4;" x="338.201299" xlink:href="#mf99b69b3cc" y="70.084112"/>
     <use style="fill:#1f77b4;stroke:#1f77b4;" x="340.012987" xlink:href="#mf99b69b3cc" y="61.975586"/>
     <use style="fill:#1f77b4;stroke:#1f77b4;" x="341.824675" xlink:href="#mf99b69b3cc" y="67.089071"/>
     <use style="fill:#1f77b4;stroke:#1f77b4;" x="343.636364" xlink:href="#mf99b69b3cc" y="67.38127"/>
     <use style="fill:#1f77b4;stroke:#1f77b4;" x="345.448052" xlink:href="#mf99b69b3cc" y="58.030897"/>
     <use style="fill:#1f77b4;stroke:#1f77b4;" x="347.25974" xlink:href="#mf99b69b3cc" y="63.582681"/>
     <use style="fill:#1f77b4;stroke:#1f77b4;" x="349.071429" xlink:href="#mf99b69b3cc" y="61.098988"/>
     <use style="fill:#1f77b4;stroke:#1f77b4;" x="350.883117" xlink:href="#mf99b69b3cc" y="51.602516"/>
     <use style="fill:#1f77b4;stroke:#1f77b4;" x="352.694805" xlink:href="#mf99b69b3cc" y="56.350752"/>
     <use style="fill:#1f77b4;stroke:#1f77b4;" x="354.506494" xlink:href="#mf99b69b3cc" y="70.88766"/>
     <use style="fill:#1f77b4;stroke:#1f77b4;" x="356.318182" xlink:href="#mf99b69b3cc" y="59.711042"/>
     <use style="fill:#1f77b4;stroke:#1f77b4;" x="358.12987" xlink:href="#mf99b69b3cc" y="61.683386"/>
     <use style="fill:#1f77b4;stroke:#1f77b4;" x="359.941558" xlink:href="#mf99b69b3cc" y="72.567805"/>
     <use style="fill:#1f77b4;stroke:#1f77b4;" x="361.753247" xlink:href="#mf99b69b3cc" y="55.766354"/>
     <use style="fill:#1f77b4;stroke:#1f77b4;" x="363.564935" xlink:href="#mf99b69b3cc" y="70.157162"/>
     <use style="fill:#1f77b4;stroke:#1f77b4;" x="365.376623" xlink:href="#mf99b69b3cc" y="59.930191"/>
     <use style="fill:#1f77b4;stroke:#1f77b4;" x="367.188312" xlink:href="#mf99b69b3cc" y="67.673469"/>
     <use style="fill:#1f77b4;stroke:#1f77b4;" x="369" xlink:href="#mf99b69b3cc" y="68.550067"/>
     <use style="fill:#1f77b4;stroke:#1f77b4;" x="370.811688" xlink:href="#mf99b69b3cc" y="71.399008"/>
     <use style="fill:#1f77b4;stroke:#1f77b4;" x="372.623377" xlink:href="#mf99b69b3cc" y="44.443636"/>
     <use style="fill:#1f77b4;stroke:#1f77b4;" x="374.435065" xlink:href="#mf99b69b3cc" y="71.399008"/>
     <use style="fill:#1f77b4;stroke:#1f77b4;" x="376.246753" xlink:href="#mf99b69b3cc" y="65.335876"/>
     <use style="fill:#1f77b4;stroke:#1f77b4;" x="378.058442" xlink:href="#mf99b69b3cc" y="239.632671"/>
     <use style="fill:#1f77b4;stroke:#1f77b4;" x="379.87013" xlink:href="#mf99b69b3cc" y="235.834082"/>
     <use style="fill:#1f77b4;stroke:#1f77b4;" x="381.681818" xlink:href="#mf99b69b3cc" y="232.765991"/>
     <use style="fill:#1f77b4;stroke:#1f77b4;" x="383.493506" xlink:href="#mf99b69b3cc" y="234.373086"/>
     <use style="fill:#1f77b4;stroke:#1f77b4;" x="385.305195" xlink:href="#mf99b69b3cc" y="236.856779"/>
     <use style="fill:#1f77b4;stroke:#1f77b4;" x="387.116883" xlink:href="#mf99b69b3cc" y="236.929829"/>
     <use style="fill:#1f77b4;stroke:#1f77b4;" x="388.928571" xlink:href="#mf99b69b3cc" y="237.587277"/>
     <use style="fill:#1f77b4;stroke:#1f77b4;" x="390.74026" xlink:href="#mf99b69b3cc" y="237.295078"/>
     <use style="fill:#1f77b4;stroke:#1f77b4;" x="392.551948" xlink:href="#mf99b69b3cc" y="238.829123"/>
     <use style="fill:#1f77b4;stroke:#1f77b4;" x="394.363636" xlink:href="#mf99b69b3cc" y="234.665285"/>
     <use style="fill:#1f77b4;stroke:#1f77b4;" x="396.175325" xlink:href="#mf99b69b3cc" y="228.967402"/>
     <use style="fill:#1f77b4;stroke:#1f77b4;" x="397.987013" xlink:href="#mf99b69b3cc" y="235.687982"/>
     <use style="fill:#1f77b4;stroke:#1f77b4;" x="399.798701" xlink:href="#mf99b69b3cc" y="237.002878"/>
     <use style="fill:#1f77b4;stroke:#1f77b4;" x="401.61039" xlink:href="#mf99b69b3cc" y="236.126281"/>
     <use style="fill:#1f77b4;stroke:#1f77b4;" x="403.422078" xlink:href="#mf99b69b3cc" y="235.834082"/>
     <use style="fill:#1f77b4;stroke:#1f77b4;" x="405.233766" xlink:href="#mf99b69b3cc" y="237.587277"/>
     <use style="fill:#1f77b4;stroke:#1f77b4;" x="407.045455" xlink:href="#mf99b69b3cc" y="239.632671"/>
     <use style="fill:#1f77b4;stroke:#1f77b4;" x="408.857143" xlink:href="#mf99b69b3cc" y="236.856779"/>
     <use style="fill:#1f77b4;stroke:#1f77b4;" x="410.668831" xlink:href="#mf99b69b3cc" y="232.327692"/>
     <use style="fill:#1f77b4;stroke:#1f77b4;" x="412.480519" xlink:href="#mf99b69b3cc" y="232.692941"/>
     <use style="fill:#1f77b4;stroke:#1f77b4;" x="414.292208" xlink:href="#mf99b69b3cc" y="233.423439"/>
     <use style="fill:#1f77b4;stroke:#1f77b4;" x="416.103896" xlink:href="#mf99b69b3cc" y="230.939746"/>
     <use style="fill:#1f77b4;stroke:#1f77b4;" x="417.915584" xlink:href="#mf99b69b3cc" y="226.19151"/>
     <use style="fill:#1f77b4;stroke:#1f77b4;" x="419.727273" xlink:href="#mf99b69b3cc" y="229.332651"/>
     <use style="fill:#1f77b4;stroke:#1f77b4;" x="421.538961" xlink:href="#mf99b69b3cc" y="231.378045"/>
     <use style="fill:#1f77b4;stroke:#1f77b4;" x="423.350649" xlink:href="#mf99b69b3cc" y="229.113501"/>
     <use style="fill:#1f77b4;stroke:#1f77b4;" x="425.162338" xlink:href="#mf99b69b3cc" y="219.397879"/>
     <use style="fill:#1f77b4;stroke:#1f77b4;" x="426.974026" xlink:href="#mf99b69b3cc" y="228.748252"/>
     <use style="fill:#1f77b4;stroke:#1f77b4;" x="428.785714" xlink:href="#mf99b69b3cc" y="229.186551"/>
     <use style="fill:#1f77b4;stroke:#1f77b4;" x="430.597403" xlink:href="#mf99b69b3cc" y="221.954622"/>
     <use style="fill:#1f77b4;stroke:#1f77b4;" x="432.409091" xlink:href="#mf99b69b3cc" y="228.456053"/>
     <use style="fill:#1f77b4;stroke:#1f77b4;" x="434.220779" xlink:href="#mf99b69b3cc" y="213.115598"/>
     <use style="fill:#1f77b4;stroke:#1f77b4;" x="436.032468" xlink:href="#mf99b69b3cc" y="201.573731"/>
     <use style="fill:#1f77b4;stroke:#1f77b4;" x="437.844156" xlink:href="#mf99b69b3cc" y="198.943939"/>
     <use style="fill:#1f77b4;stroke:#1f77b4;" x="439.655844" xlink:href="#mf99b69b3cc" y="215.234042"/>
     <use style="fill:#1f77b4;stroke:#1f77b4;" x="441.467532" xlink:href="#mf99b69b3cc" y="224.584414"/>
     <use style="fill:#1f77b4;stroke:#1f77b4;" x="443.279221" xlink:href="#mf99b69b3cc" y="221.808522"/>
     <use style="fill:#1f77b4;stroke:#1f77b4;" x="445.090909" xlink:href="#mf99b69b3cc" y="217.717734"/>
     <use style="fill:#1f77b4;stroke:#1f77b4;" x="446.902597" xlink:href="#mf99b69b3cc" y="220.274477"/>
     <use style="fill:#1f77b4;stroke:#1f77b4;" x="448.714286" xlink:href="#mf99b69b3cc" y="217.863834"/>
     <use style="fill:#1f77b4;stroke:#1f77b4;" x="450.525974" xlink:href="#mf99b69b3cc" y="215.307091"/>
     <use style="fill:#1f77b4;stroke:#1f77b4;" x="452.337662" xlink:href="#mf99b69b3cc" y="215.81844"/>
     <use style="fill:#1f77b4;stroke:#1f77b4;" x="454.149351" xlink:href="#mf99b69b3cc" y="210.047507"/>
     <use style="fill:#1f77b4;stroke:#1f77b4;" x="455.961039" xlink:href="#mf99b69b3cc" y="210.193606"/>
     <use style="fill:#1f77b4;stroke:#1f77b4;" x="457.772727" xlink:href="#mf99b69b3cc" y="226.848958"/>
     <use style="fill:#1f77b4;stroke:#1f77b4;" x="459.584416" xlink:href="#mf99b69b3cc" y="227.944705"/>
     <use style="fill:#1f77b4;stroke:#1f77b4;" x="461.396104" xlink:href="#mf99b69b3cc" y="226.629809"/>
     <use style="fill:#1f77b4;stroke:#1f77b4;" x="463.207792" xlink:href="#mf99b69b3cc" y="225.095763"/>
     <use style="fill:#1f77b4;stroke:#1f77b4;" x="465.019481" xlink:href="#mf99b69b3cc" y="229.186551"/>
     <use style="fill:#1f77b4;stroke:#1f77b4;" x="466.831169" xlink:href="#mf99b69b3cc" y="229.843999"/>
     <use style="fill:#1f77b4;stroke:#1f77b4;" x="468.642857" xlink:href="#mf99b69b3cc" y="234.884435"/>
     <use style="fill:#1f77b4;stroke:#1f77b4;" x="470.454545" xlink:href="#mf99b69b3cc" y="233.569538"/>
     <use style="fill:#1f77b4;stroke:#1f77b4;" x="472.266234" xlink:href="#mf99b69b3cc" y="233.788688"/>
     <use style="fill:#1f77b4;stroke:#1f77b4;" x="474.077922" xlink:href="#mf99b69b3cc" y="233.496489"/>
     <use style="fill:#1f77b4;stroke:#1f77b4;" x="475.88961" xlink:href="#mf99b69b3cc" y="232.546841"/>
     <use style="fill:#1f77b4;stroke:#1f77b4;" x="477.701299" xlink:href="#mf99b69b3cc" y="228.821302"/>
     <use style="fill:#1f77b4;stroke:#1f77b4;" x="479.512987" xlink:href="#mf99b69b3cc" y="231.743294"/>
     <use style="fill:#1f77b4;stroke:#1f77b4;" x="481.324675" xlink:href="#mf99b69b3cc" y="221.881572"/>
     <use style="fill:#1f77b4;stroke:#1f77b4;" x="483.136364" xlink:href="#mf99b69b3cc" y="227.798605"/>
     <use style="fill:#1f77b4;stroke:#1f77b4;" x="484.948052" xlink:href="#mf99b69b3cc" y="233.13124"/>
     <use style="fill:#1f77b4;stroke:#1f77b4;" x="486.75974" xlink:href="#mf99b69b3cc" y="229.47875"/>
     <use style="fill:#1f77b4;stroke:#1f77b4;" x="488.571429" xlink:href="#mf99b69b3cc" y="224.949663"/>
     <use style="fill:#1f77b4;stroke:#1f77b4;" x="490.383117" xlink:href="#mf99b69b3cc" y="216.183689"/>
     <use style="fill:#1f77b4;stroke:#1f77b4;" x="492.194805" xlink:href="#mf99b69b3cc" y="197.775142"/>
     <use style="fill:#1f77b4;stroke:#1f77b4;" x="494.006494" xlink:href="#mf99b69b3cc" y="217.425535"/>
     <use style="fill:#1f77b4;stroke:#1f77b4;" x="495.818182" xlink:href="#mf99b69b3cc" y="227.579456"/>
     <use style="fill:#1f77b4;stroke:#1f77b4;" x="497.62987" xlink:href="#mf99b69b3cc" y="225.899311"/>
     <use style="fill:#1f77b4;stroke:#1f77b4;" x="499.441558" xlink:href="#mf99b69b3cc" y="229.843999"/>
     <use style="fill:#1f77b4;stroke:#1f77b4;" x="501.253247" xlink:href="#mf99b69b3cc" y="236.34543"/>
     <use style="fill:#1f77b4;stroke:#1f77b4;" x="503.064935" xlink:href="#mf99b69b3cc" y="236.053231"/>
     <use style="fill:#1f77b4;stroke:#1f77b4;" x="504.876623" xlink:href="#mf99b69b3cc" y="239.77877"/>
     <use style="fill:#1f77b4;stroke:#1f77b4;" x="506.688312" xlink:href="#mf99b69b3cc" y="232.546841"/>
     <use style="fill:#1f77b4;stroke:#1f77b4;" x="508.5" xlink:href="#mf99b69b3cc" y="242.116364"/>
     <use style="fill:#1f77b4;stroke:#1f77b4;" x="510.311688" xlink:href="#mf99b69b3cc" y="232.473792"/>
     <use style="fill:#1f77b4;stroke:#1f77b4;" x="512.123377" xlink:href="#mf99b69b3cc" y="232.035493"/>
     <use style="fill:#1f77b4;stroke:#1f77b4;" x="513.935065" xlink:href="#mf99b69b3cc" y="231.012796"/>
     <use style="fill:#1f77b4;stroke:#1f77b4;" x="515.746753" xlink:href="#mf99b69b3cc" y="231.231945"/>
     <use style="fill:#1f77b4;stroke:#1f77b4;" x="517.558442" xlink:href="#mf99b69b3cc" y="233.13124"/>
     <use style="fill:#1f77b4;stroke:#1f77b4;" x="519.37013" xlink:href="#mf99b69b3cc" y="234.884435"/>
     <use style="fill:#1f77b4;stroke:#1f77b4;" x="521.181818" xlink:href="#mf99b69b3cc" y="239.267422"/>
     <use style="fill:#1f77b4;stroke:#1f77b4;" x="522.993506" xlink:href="#mf99b69b3cc" y="229.990099"/>
     <use style="fill:#1f77b4;stroke:#1f77b4;" x="524.805195" xlink:href="#mf99b69b3cc" y="229.4057"/>
     <use style="fill:#1f77b4;stroke:#1f77b4;" x="526.616883" xlink:href="#mf99b69b3cc" y="224.219165"/>
     <use style="fill:#1f77b4;stroke:#1f77b4;" x="528.428571" xlink:href="#mf99b69b3cc" y="221.735473"/>
     <use style="fill:#1f77b4;stroke:#1f77b4;" x="530.24026" xlink:href="#mf99b69b3cc" y="220.639726"/>
     <use style="fill:#1f77b4;stroke:#1f77b4;" x="532.051948" xlink:href="#mf99b69b3cc" y="219.763128"/>
     <use style="fill:#1f77b4;stroke:#1f77b4;" x="533.863636" xlink:href="#mf99b69b3cc" y="221.954622"/>
     <use style="fill:#1f77b4;stroke:#1f77b4;" x="535.675325" xlink:href="#mf99b69b3cc" y="209.463108"/>
     <use style="fill:#1f77b4;stroke:#1f77b4;" x="537.487013" xlink:href="#mf99b69b3cc" y="207.490764"/>
     <use style="fill:#1f77b4;stroke:#1f77b4;" x="539.298701" xlink:href="#mf99b69b3cc" y="208.075162"/>
     <use style="fill:#1f77b4;stroke:#1f77b4;" x="541.11039" xlink:href="#mf99b69b3cc" y="205.737569"/>
     <use style="fill:#1f77b4;stroke:#1f77b4;" x="542.922078" xlink:href="#mf99b69b3cc" y="207.636864"/>
     <use style="fill:#1f77b4;stroke:#1f77b4;" x="544.733766" xlink:href="#mf99b69b3cc" y="208.002112"/>
     <use style="fill:#1f77b4;stroke:#1f77b4;" x="546.545455" xlink:href="#mf99b69b3cc" y="208.148212"/>
     <use style="fill:#1f77b4;stroke:#1f77b4;" x="548.357143" xlink:href="#mf99b69b3cc" y="206.248918"/>
     <use style="fill:#1f77b4;stroke:#1f77b4;" x="550.168831" xlink:href="#mf99b69b3cc" y="196.679395"/>
     <use style="fill:#1f77b4;stroke:#1f77b4;" x="551.980519" xlink:href="#mf99b69b3cc" y="202.304229"/>
     <use style="fill:#1f77b4;stroke:#1f77b4;" x="553.792208" xlink:href="#mf99b69b3cc" y="201.354582"/>
     <use style="fill:#1f77b4;stroke:#1f77b4;" x="555.603896" xlink:href="#mf99b69b3cc" y="201.573731"/>
     <use style="fill:#1f77b4;stroke:#1f77b4;" x="557.415584" xlink:href="#mf99b69b3cc" y="201.208482"/>
     <use style="fill:#1f77b4;stroke:#1f77b4;" x="559.227273" xlink:href="#mf99b69b3cc" y="200.477984"/>
     <use style="fill:#1f77b4;stroke:#1f77b4;" x="561.038961" xlink:href="#mf99b69b3cc" y="199.455287"/>
     <use style="fill:#1f77b4;stroke:#1f77b4;" x="562.850649" xlink:href="#mf99b69b3cc" y="199.966636"/>
     <use style="fill:#1f77b4;stroke:#1f77b4;" x="564.662338" xlink:href="#mf99b69b3cc" y="200.770183"/>
     <use style="fill:#1f77b4;stroke:#1f77b4;" x="566.474026" xlink:href="#mf99b69b3cc" y="200.843233"/>
     <use style="fill:#1f77b4;stroke:#1f77b4;" x="568.285714" xlink:href="#mf99b69b3cc" y="201.86593"/>
     <use style="fill:#1f77b4;stroke:#1f77b4;" x="570.097403" xlink:href="#mf99b69b3cc" y="196.460246"/>
     <use style="fill:#1f77b4;stroke:#1f77b4;" x="571.909091" xlink:href="#mf99b69b3cc" y="197.190744"/>
     <use style="fill:#1f77b4;stroke:#1f77b4;" x="573.720779" xlink:href="#mf99b69b3cc" y="201.135432"/>
     <use style="fill:#1f77b4;stroke:#1f77b4;" x="575.532468" xlink:href="#mf99b69b3cc" y="201.573731"/>
     <use style="fill:#1f77b4;stroke:#1f77b4;" x="577.344156" xlink:href="#mf99b69b3cc" y="202.304229"/>
     <use style="fill:#1f77b4;stroke:#1f77b4;" x="579.155844" xlink:href="#mf99b69b3cc" y="205.37232"/>
     <use style="fill:#1f77b4;stroke:#1f77b4;" x="580.967532" xlink:href="#mf99b69b3cc" y="205.810619"/>
     <use style="fill:#1f77b4;stroke:#1f77b4;" x="582.779221" xlink:href="#mf99b69b3cc" y="206.760266"/>
     <use style="fill:#1f77b4;stroke:#1f77b4;" x="584.590909" xlink:href="#mf99b69b3cc" y="205.37232"/>
     <use style="fill:#1f77b4;stroke:#1f77b4;" x="586.402597" xlink:href="#mf99b69b3cc" y="207.417714"/>
     <use style="fill:#1f77b4;stroke:#1f77b4;" x="588.214286" xlink:href="#mf99b69b3cc" y="206.395017"/>
     <use style="fill:#1f77b4;stroke:#1f77b4;" x="590.025974" xlink:href="#mf99b69b3cc" y="206.248918"/>
     <use style="fill:#1f77b4;stroke:#1f77b4;" x="591.837662" xlink:href="#mf99b69b3cc" y="205.080121"/>
     <use style="fill:#1f77b4;stroke:#1f77b4;" x="593.649351" xlink:href="#mf99b69b3cc" y="204.568772"/>
     <use style="fill:#1f77b4;stroke:#1f77b4;" x="595.461039" xlink:href="#mf99b69b3cc" y="204.860972"/>
     <use style="fill:#1f77b4;stroke:#1f77b4;" x="597.272727" xlink:href="#mf99b69b3cc" y="203.619125"/>
     <use style="fill:#1f77b4;stroke:#1f77b4;" x="599.084416" xlink:href="#mf99b69b3cc" y="203.984374"/>
     <use style="fill:#1f77b4;stroke:#1f77b4;" x="600.896104" xlink:href="#mf99b69b3cc" y="202.158129"/>
     <use style="fill:#1f77b4;stroke:#1f77b4;" x="602.707792" xlink:href="#mf99b69b3cc" y="202.01203"/>
     <use style="fill:#1f77b4;stroke:#1f77b4;" x="604.519481" xlink:href="#mf99b69b3cc" y="202.231179"/>
     <use style="fill:#1f77b4;stroke:#1f77b4;" x="606.331169" xlink:href="#mf99b69b3cc" y="201.646781"/>
     <use style="fill:#1f77b4;stroke:#1f77b4;" x="608.142857" xlink:href="#mf99b69b3cc" y="202.01203"/>
     <use style="fill:#1f77b4;stroke:#1f77b4;" x="609.954545" xlink:href="#mf99b69b3cc" y="201.719831"/>
     <use style="fill:#1f77b4;stroke:#1f77b4;" x="611.766234" xlink:href="#mf99b69b3cc" y="198.57869"/>
     <use style="fill:#1f77b4;stroke:#1f77b4;" x="613.577922" xlink:href="#mf99b69b3cc" y="200.404934"/>
     <use style="fill:#1f77b4;stroke:#1f77b4;" x="615.38961" xlink:href="#mf99b69b3cc" y="201.79288"/>
     <use style="fill:#1f77b4;stroke:#1f77b4;" x="617.201299" xlink:href="#mf99b69b3cc" y="202.450329"/>
     <use style="fill:#1f77b4;stroke:#1f77b4;" x="619.012987" xlink:href="#mf99b69b3cc" y="197.994291"/>
     <use style="fill:#1f77b4;stroke:#1f77b4;" x="620.824675" xlink:href="#mf99b69b3cc" y="198.43259"/>
     <use style="fill:#1f77b4;stroke:#1f77b4;" x="622.636364" xlink:href="#mf99b69b3cc" y="200.039686"/>
    </g>
   </g>
   <g id="matplotlib.axis_1">
    <g id="xtick_1">
     <g id="line2d_1">
      <defs>
       <path d="M 0 0 
L 0 3.5 
" id="me3c196fb8d" style="stroke:#000000;stroke-width:0.8;"/>
      </defs>
      <g>
       <use style="stroke:#000000;stroke-width:0.8;" x="115.363636" xlink:href="#me3c196fb8d" y="252"/>
      </g>
     </g>
     <g id="text_1">
      <!-- 0 -->
      <g transform="translate(112.863636 265.875)scale(0.1 -0.1)">
       <defs>
        <path d="M 225 2537 
Q 250 3200 412 3587 
Q 575 3975 875 4225 
Q 1175 4475 1612 4475 
Q 2050 4475 2375 4112 
Q 2700 3750 2800 3200 
Q 2900 2650 2862 1937 
Q 2825 1225 2612 775 
Q 2400 325 1975 150 
Q 1550 -25 1125 187 
Q 700 400 525 750 
Q 350 1100 275 1487 
Q 200 1875 225 2537 
z
M 750 2687 
Q 675 2000 800 1462 
Q 925 925 1212 700 
Q 1500 475 1800 612 
Q 2100 750 2237 1162 
Q 2375 1575 2375 2062 
Q 2375 2550 2337 2950 
Q 2300 3350 2112 3675 
Q 1925 4000 1612 4012 
Q 1300 4025 1062 3700 
Q 825 3375 750 2687 
z
" id="SimHei-30" transform="scale(0.015625)"/>
       </defs>
       <use xlink:href="#SimHei-30"/>
      </g>
     </g>
    </g>
    <g id="xtick_2">
     <g id="line2d_2">
      <g>
       <use style="stroke:#000000;stroke-width:0.8;" x="205.948052" xlink:href="#me3c196fb8d" y="252"/>
      </g>
     </g>
     <g id="text_2">
      <!-- 50 -->
      <g transform="translate(200.948052 265.875)scale(0.1 -0.1)">
       <defs>
        <path d="M 550 1325 
Q 725 650 1150 575 
Q 1575 500 1837 662 
Q 2100 825 2212 1087 
Q 2325 1350 2312 1675 
Q 2300 2000 2137 2225 
Q 1975 2450 1725 2525 
Q 1475 2600 1162 2525 
Q 850 2450 650 2175 
L 225 2225 
Q 275 2375 700 4375 
L 2675 4375 
L 2675 3925 
L 1075 3925 
Q 950 3250 825 2850 
Q 1200 3025 1525 3012 
Q 1850 3000 2150 2862 
Q 2450 2725 2587 2487 
Q 2725 2250 2787 2012 
Q 2850 1775 2837 1500 
Q 2825 1225 2725 937 
Q 2625 650 2425 462 
Q 2225 275 1937 162 
Q 1650 50 1275 75 
Q 900 100 562 350 
Q 225 600 100 1200 
L 550 1325 
z
" id="SimHei-35" transform="scale(0.015625)"/>
       </defs>
       <use xlink:href="#SimHei-35"/>
       <use x="50" xlink:href="#SimHei-30"/>
      </g>
     </g>
    </g>
    <g id="xtick_3">
     <g id="line2d_3">
      <g>
       <use style="stroke:#000000;stroke-width:0.8;" x="296.532468" xlink:href="#me3c196fb8d" y="252"/>
      </g>
     </g>
     <g id="text_3">
      <!-- 100 -->
      <g transform="translate(289.032468 265.875)scale(0.1 -0.1)">
       <defs>
        <path d="M 1400 3600 
Q 1075 3275 575 2975 
L 575 3450 
Q 1200 3875 1600 4450 
L 1900 4450 
L 1900 150 
L 1400 150 
L 1400 3600 
z
" id="SimHei-31" transform="scale(0.015625)"/>
       </defs>
       <use xlink:href="#SimHei-31"/>
       <use x="50" xlink:href="#SimHei-30"/>
       <use x="100" xlink:href="#SimHei-30"/>
      </g>
     </g>
    </g>
    <g id="xtick_4">
     <g id="line2d_4">
      <g>
       <use style="stroke:#000000;stroke-width:0.8;" x="387.116883" xlink:href="#me3c196fb8d" y="252"/>
      </g>
     </g>
     <g id="text_4">
      <!-- 150 -->
      <g transform="translate(379.616883 265.875)scale(0.1 -0.1)">
       <use xlink:href="#SimHei-31"/>
       <use x="50" xlink:href="#SimHei-35"/>
       <use x="100" xlink:href="#SimHei-30"/>
      </g>
     </g>
    </g>
    <g id="xtick_5">
     <g id="line2d_5">
      <g>
       <use style="stroke:#000000;stroke-width:0.8;" x="477.701299" xlink:href="#me3c196fb8d" y="252"/>
      </g>
     </g>
     <g id="text_5">
      <!-- 200 -->
      <g transform="translate(470.201299 265.875)scale(0.1 -0.1)">
       <defs>
        <path d="M 300 250 
Q 325 625 650 925 
Q 975 1225 1475 1862 
Q 1975 2500 2125 2850 
Q 2275 3200 2237 3450 
Q 2200 3700 2000 3862 
Q 1800 4025 1537 4000 
Q 1275 3975 1037 3800 
Q 800 3625 675 3275 
L 200 3350 
Q 400 3925 712 4187 
Q 1025 4450 1450 4475 
Q 1700 4500 1900 4462 
Q 2100 4425 2312 4287 
Q 2525 4150 2662 3875 
Q 2800 3600 2762 3212 
Q 2725 2825 2375 2287 
Q 2025 1750 1025 600 
L 2825 600 
L 2825 150 
L 300 150 
L 300 250 
z
" id="SimHei-32" transform="scale(0.015625)"/>
       </defs>
       <use xlink:href="#SimHei-32"/>
       <use x="50" xlink:href="#SimHei-30"/>
       <use x="100" xlink:href="#SimHei-30"/>
      </g>
     </g>
    </g>
    <g id="xtick_6">
     <g id="line2d_6">
      <g>
       <use style="stroke:#000000;stroke-width:0.8;" x="568.285714" xlink:href="#me3c196fb8d" y="252"/>
      </g>
     </g>
     <g id="text_6">
      <!-- 250 -->
      <g transform="translate(560.785714 265.875)scale(0.1 -0.1)">
       <use xlink:href="#SimHei-32"/>
       <use x="50" xlink:href="#SimHei-35"/>
       <use x="100" xlink:href="#SimHei-30"/>
      </g>
     </g>
    </g>
   </g>
   <g id="matplotlib.axis_2">
    <g id="ytick_1">
     <g id="line2d_7">
      <defs>
       <path d="M 0 0 
L -3.5 0 
" id="m0da308f10e" style="stroke:#000000;stroke-width:0.8;"/>
      </defs>
      <g>
       <use style="stroke:#000000;stroke-width:0.8;" x="90" xlink:href="#m0da308f10e" y="248.983044"/>
      </g>
     </g>
     <g id="text_7">
      <!-- 0.80 -->
      <g transform="translate(63 252.420544)scale(0.1 -0.1)">
       <defs>
        <path d="M 1075 125 
L 500 125 
L 500 675 
L 1075 675 
L 1075 125 
z
" id="SimHei-2e" transform="scale(0.015625)"/>
        <path d="M 175 1375 
Q 175 1675 325 1962 
Q 475 2250 825 2425 
Q 525 2600 425 2812 
Q 325 3025 312 3300 
Q 300 3575 387 3775 
Q 475 3975 650 4150 
Q 825 4325 1037 4387 
Q 1250 4450 1500 4450 
Q 1750 4450 1950 4400 
Q 2150 4350 2375 4187 
Q 2600 4025 2700 3725 
Q 2800 3425 2687 3025 
Q 2575 2625 2100 2400 
Q 2525 2275 2700 2012 
Q 2875 1750 2875 1375 
Q 2875 1000 2762 775 
Q 2650 550 2512 400 
Q 2375 250 2137 162 
Q 1900 75 1537 75 
Q 1175 75 912 162 
Q 650 250 475 425 
Q 300 600 237 837 
Q 175 1075 175 1375 
z
M 687 1400 
Q 675 1100 787 875 
Q 900 650 1200 587 
Q 1500 525 1825 600 
Q 2150 675 2275 950 
Q 2400 1225 2362 1500 
Q 2325 1775 2050 1962 
Q 1775 2150 1450 2125 
Q 1125 2100 912 1900 
Q 700 1700 687 1400 
z
M 775 3350 
Q 775 3100 950 2875 
Q 1125 2650 1500 2650 
Q 1875 2650 2062 2875 
Q 2250 3100 2237 3412 
Q 2225 3725 2012 3875 
Q 1800 4025 1437 4000 
Q 1075 3975 925 3787 
Q 775 3600 775 3350 
z
" id="SimHei-38" transform="scale(0.015625)"/>
       </defs>
       <use xlink:href="#SimHei-30"/>
       <use x="50" xlink:href="#SimHei-2e"/>
       <use x="100" xlink:href="#SimHei-38"/>
       <use x="150" xlink:href="#SimHei-30"/>
      </g>
     </g>
    </g>
    <g id="ytick_2">
     <g id="line2d_8">
      <g>
       <use style="stroke:#000000;stroke-width:0.8;" x="90" xlink:href="#m0da308f10e" y="212.45815"/>
      </g>
     </g>
     <g id="text_8">
      <!-- 0.85 -->
      <g transform="translate(63 215.89565)scale(0.1 -0.1)">
       <use xlink:href="#SimHei-30"/>
       <use x="50" xlink:href="#SimHei-2e"/>
       <use x="100" xlink:href="#SimHei-38"/>
       <use x="150" xlink:href="#SimHei-35"/>
      </g>
     </g>
    </g>
    <g id="ytick_3">
     <g id="line2d_9">
      <g>
       <use style="stroke:#000000;stroke-width:0.8;" x="90" xlink:href="#m0da308f10e" y="175.933255"/>
      </g>
     </g>
     <g id="text_9">
      <!-- 0.90 -->
      <g transform="translate(63 179.370755)scale(0.1 -0.1)">
       <defs>
        <path d="M 800 75 
Q 1350 1000 1700 1750 
Q 1075 1650 662 1912 
Q 250 2175 162 2625 
Q 75 3075 175 3437 
Q 275 3800 487 4037 
Q 700 4275 1000 4375 
Q 1300 4475 1537 4475 
Q 1775 4475 2025 4375 
Q 2275 4275 2475 4075 
Q 2675 3875 2750 3662 
Q 2825 3450 2825 3112 
Q 2825 2775 2575 2250 
Q 2325 1725 1350 75 
L 800 75 
z
M 662 2875 
Q 700 2550 937 2337 
Q 1175 2125 1450 2150 
Q 1725 2175 1887 2300 
Q 2050 2425 2200 2725 
Q 2300 3100 2250 3362 
Q 2200 3625 1987 3800 
Q 1775 3975 1525 3975 
Q 1375 4000 1137 3900 
Q 900 3800 762 3500 
Q 625 3200 662 2875 
z
" id="SimHei-39" transform="scale(0.015625)"/>
       </defs>
       <use xlink:href="#SimHei-30"/>
       <use x="50" xlink:href="#SimHei-2e"/>
       <use x="100" xlink:href="#SimHei-39"/>
       <use x="150" xlink:href="#SimHei-30"/>
      </g>
     </g>
    </g>
    <g id="ytick_4">
     <g id="line2d_10">
      <g>
       <use style="stroke:#000000;stroke-width:0.8;" x="90" xlink:href="#m0da308f10e" y="139.408361"/>
      </g>
     </g>
     <g id="text_10">
      <!-- 0.95 -->
      <g transform="translate(63 142.845861)scale(0.1 -0.1)">
       <use xlink:href="#SimHei-30"/>
       <use x="50" xlink:href="#SimHei-2e"/>
       <use x="100" xlink:href="#SimHei-39"/>
       <use x="150" xlink:href="#SimHei-35"/>
      </g>
     </g>
    </g>
    <g id="ytick_5">
     <g id="line2d_11">
      <g>
       <use style="stroke:#000000;stroke-width:0.8;" x="90" xlink:href="#m0da308f10e" y="102.883467"/>
      </g>
     </g>
     <g id="text_11">
      <!-- 1.00 -->
      <g transform="translate(63 106.320967)scale(0.1 -0.1)">
       <use xlink:href="#SimHei-31"/>
       <use x="50" xlink:href="#SimHei-2e"/>
       <use x="100" xlink:href="#SimHei-30"/>
       <use x="150" xlink:href="#SimHei-30"/>
      </g>
     </g>
    </g>
    <g id="ytick_6">
     <g id="line2d_12">
      <g>
       <use style="stroke:#000000;stroke-width:0.8;" x="90" xlink:href="#m0da308f10e" y="66.358573"/>
      </g>
     </g>
     <g id="text_12">
      <!-- 1.05 -->
      <g transform="translate(63 69.796073)scale(0.1 -0.1)">
       <use xlink:href="#SimHei-31"/>
       <use x="50" xlink:href="#SimHei-2e"/>
       <use x="100" xlink:href="#SimHei-30"/>
       <use x="150" xlink:href="#SimHei-35"/>
      </g>
     </g>
    </g>
   </g>
   <g id="patch_3">
    <path d="M 90 252 
L 90 34.56 
" style="fill:none;stroke:#000000;stroke-linecap:square;stroke-linejoin:miter;stroke-width:0.8;"/>
   </g>
   <g id="patch_4">
    <path d="M 648 252 
L 648 34.56 
" style="fill:none;stroke:#000000;stroke-linecap:square;stroke-linejoin:miter;stroke-width:0.8;"/>
   </g>
   <g id="patch_5">
    <path d="M 90 252 
L 648 252 
" style="fill:none;stroke:#000000;stroke-linecap:square;stroke-linejoin:miter;stroke-width:0.8;"/>
   </g>
   <g id="patch_6">
    <path d="M 90 34.56 
L 648 34.56 
" style="fill:none;stroke:#000000;stroke-linecap:square;stroke-linejoin:miter;stroke-width:0.8;"/>
   </g>
  </g>
 </g>
 <defs>
  <clipPath id="p5f62f21ff6">
   <rect height="217.44" width="558" x="90" y="34.56"/>
  </clipPath>
 </defs>
</svg>
