<svg viewBox="0 0 1143.567138671875 399.99578857421875" xmlns="http://www.w3.org/2000/svg"><g><g><g><g><g><line x1="74.78125" y1="376.996" x2="69.78125" y2="376.996" style="visibility: inherit;" fill="rgb(0, 0, 0)" stroke="rgb(204, 204, 204)" stroke-width="1px"></line><line x1="74.78125" y1="345.57966666666664" x2="69.78125" y2="345.57966666666664" style="visibility: inherit;" fill="rgb(0, 0, 0)" stroke="rgb(204, 204, 204)" stroke-width="1px"></line><line x1="74.78125" y1="314.16333333333336" x2="69.78125" y2="314.16333333333336" style="visibility: inherit;" fill="rgb(0, 0, 0)" stroke="rgb(204, 204, 204)" stroke-width="1px"></line><line x1="74.78125" y1="282.74699999999996" x2="69.78125" y2="282.74699999999996" style="visibility: inherit;" fill="rgb(0, 0, 0)" stroke="rgb(204, 204, 204)" stroke-width="1px"></line><line x1="74.78125" y1="251.33066666666667" x2="69.78125" y2="251.33066666666667" style="visibility: inherit;" fill="rgb(0, 0, 0)" stroke="rgb(204, 204, 204)" stroke-width="1px"></line><line x1="74.78125" y1="219.91433333333333" x2="69.78125" y2="219.91433333333333" style="visibility: inherit;" fill="rgb(0, 0, 0)" stroke="rgb(204, 204, 204)" stroke-width="1px"></line><line x1="74.78125" y1="188.498" x2="69.78125" y2="188.498" style="visibility: inherit;" fill="rgb(0, 0, 0)" stroke="rgb(204, 204, 204)" stroke-width="1px"></line><line x1="74.78125" y1="157.08166666666668" x2="69.78125" y2="157.08166666666668" style="visibility: inherit;" fill="rgb(0, 0, 0)" stroke="rgb(204, 204, 204)" stroke-width="1px"></line><line x1="74.78125" y1="125.66533333333334" x2="69.78125" y2="125.66533333333334" style="visibility: inherit;" fill="rgb(0, 0, 0)" stroke="rgb(204, 204, 204)" stroke-width="1px"></line><line x1="74.78125" y1="94.249" x2="69.78125" y2="94.249" style="visibility: inherit;" fill="rgb(0, 0, 0)" stroke="rgb(204, 204, 204)" stroke-width="1px"></line><line x1="74.78125" y1="62.83266666666669" x2="69.78125" y2="62.83266666666669" style="visibility: inherit;" fill="rgb(0, 0, 0)" stroke="rgb(204, 204, 204)" stroke-width="1px"></line><line x1="74.78125" y1="31.416333333333345" x2="69.78125" y2="31.416333333333345" style="visibility: inherit;" fill="rgb(0, 0, 0)" stroke="rgb(204, 204, 204)" stroke-width="1px"></line><line x1="74.78125" y1="0" x2="69.78125" y2="0" style="visibility: inherit;" fill="rgb(0, 0, 0)" stroke="rgb(204, 204, 204)" stroke-width="1px"></line></g><g transform="translate(64.78125, 0)"><text x="0" y="376.996" dx="0em" dy="0.3em" style="text-anchor: end; visibility: hidden; font-family: Roboto, sans-serif; font-size: 12px; font-weight: 200;" fill="rgb(50, 49, 63)" stroke="none" stroke-width="1px">-1e-4</text><text x="0" y="345.57966666666664" dx="0em" dy="0.3em" style="text-anchor: end; visibility: inherit; font-family: Roboto, sans-serif; font-size: 12px; font-weight: 200;" fill="rgb(50, 49, 63)" stroke="none" stroke-width="1px">0</text><text x="0" y="314.16333333333336" dx="0em" dy="0.3em" style="text-anchor: end; visibility: inherit; font-family: Roboto, sans-serif; font-size: 12px; font-weight: 200;" fill="rgb(50, 49, 63)" stroke="none" stroke-width="1px">1e-4</text><text x="0" y="282.74699999999996" dx="0em" dy="0.3em" style="text-anchor: end; visibility: inherit; font-family: Roboto, sans-serif; font-size: 12px; font-weight: 200;" fill="rgb(50, 49, 63)" stroke="none" stroke-width="1px">2e-4</text><text x="0" y="251.33066666666667" dx="0em" dy="0.3em" style="text-anchor: end; visibility: inherit; font-family: Roboto, sans-serif; font-size: 12px; font-weight: 200;" fill="rgb(50, 49, 63)" stroke="none" stroke-width="1px">3e-4</text><text x="0" y="219.91433333333333" dx="0em" dy="0.3em" style="text-anchor: end; visibility: inherit; font-family: Roboto, sans-serif; font-size: 12px; font-weight: 200;" fill="rgb(50, 49, 63)" stroke="none" stroke-width="1px">4e-4</text><text x="0" y="188.498" dx="0em" dy="0.3em" style="text-anchor: end; visibility: inherit; font-family: Roboto, sans-serif; font-size: 12px; font-weight: 200;" fill="rgb(50, 49, 63)" stroke="none" stroke-width="1px">5e-4</text><text x="0" y="157.08166666666668" dx="0em" dy="0.3em" style="text-anchor: end; visibility: inherit; font-family: Roboto, sans-serif; font-size: 12px; font-weight: 200;" fill="rgb(50, 49, 63)" stroke="none" stroke-width="1px">6e-4</text><text x="0" y="125.66533333333334" dx="0em" dy="0.3em" style="text-anchor: end; visibility: inherit; font-family: Roboto, sans-serif; font-size: 12px; font-weight: 200;" fill="rgb(50, 49, 63)" stroke="none" stroke-width="1px">7e-4</text><text x="0" y="94.249" dx="0em" dy="0.3em" style="text-anchor: end; visibility: inherit; font-family: Roboto, sans-serif; font-size: 12px; font-weight: 200;" fill="rgb(50, 49, 63)" stroke="none" stroke-width="1px">8e-4</text><text x="0" y="62.83266666666669" dx="0em" dy="0.3em" style="text-anchor: end; visibility: inherit; font-family: Roboto, sans-serif; font-size: 12px; font-weight: 200;" fill="rgb(50, 49, 63)" stroke="none" stroke-width="1px">9e-4</text><text x="0" y="31.416333333333345" dx="0em" dy="0.3em" style="text-anchor: end; visibility: inherit; font-family: Roboto, sans-serif; font-size: 12px; font-weight: 200;" fill="rgb(50, 49, 63)" stroke="none" stroke-width="1px">1e-3</text><text x="0" y="0" dx="0em" dy="0.3em" style="text-anchor: end; visibility: hidden; font-family: Roboto, sans-serif; font-size: 12px; font-weight: 200;" fill="rgb(50, 49, 63)" stroke="none" stroke-width="1px">1.1e-3</text></g><line x1="74.78125" y1="0" x2="74.78125" y2="376.996" fill="rgb(0, 0, 0)" stroke="rgb(204, 204, 204)" stroke-width="1px"></line></g></g><g transform="translate(74, 0)" clip-path="url(#clip_0)"><clipPath id="clip_0"><rect width="1068" height="376"></rect></clipPath><g><g><g><line x1="0" y1="0" x2="0" y2="376.996" fill="rgb(0, 0, 0)" stroke="rgb(60, 60, 60)" stroke-width="1px" opacity="0.25"></line><line x1="89.06572916666666" y1="0" x2="89.06572916666666" y2="376.996" fill="rgb(0, 0, 0)" stroke="rgb(60, 60, 60)" stroke-width="1px" opacity="0.25"></line><line x1="178.1314583333333" y1="0" x2="178.1314583333333" y2="376.996" fill="rgb(0, 0, 0)" stroke="rgb(60, 60, 60)" stroke-width="1px" opacity="0.25"></line><line x1="267.1971875" y1="0" x2="267.1971875" y2="376.996" fill="rgb(0, 0, 0)" stroke="rgb(60, 60, 60)" stroke-width="1px" opacity="0.25"></line><line x1="356.2629166666666" y1="0" x2="356.2629166666666" y2="376.996" fill="rgb(0, 0, 0)" stroke="rgb(60, 60, 60)" stroke-width="1px" opacity="0.25"></line><line x1="445.3286458333333" y1="0" x2="445.3286458333333" y2="376.996" fill="rgb(0, 0, 0)" stroke="rgb(60, 60, 60)" stroke-width="1px" opacity="0.25"></line><line x1="534.394375" y1="0" x2="534.394375" y2="376.996" fill="rgb(0, 0, 0)" stroke="rgb(60, 60, 60)" stroke-width="1px" opacity="0.25"></line><line x1="623.4601041666667" y1="0" x2="623.4601041666667" y2="376.996" fill="rgb(0, 0, 0)" stroke="rgb(60, 60, 60)" stroke-width="1px" opacity="0.25"></line><line x1="712.5258333333333" y1="0" x2="712.5258333333333" y2="376.996" fill="rgb(0, 0, 0)" stroke="rgb(60, 60, 60)" stroke-width="1px" opacity="0.25"></line><line x1="801.5915625" y1="0" x2="801.5915625" y2="376.996" fill="rgb(0, 0, 0)" stroke="rgb(60, 60, 60)" stroke-width="1px" opacity="0.25"></line><line x1="890.6572916666667" y1="0" x2="890.6572916666667" y2="376.996" fill="rgb(0, 0, 0)" stroke="rgb(60, 60, 60)" stroke-width="1px" opacity="0.25"></line><line x1="979.7230208333332" y1="0" x2="979.7230208333332" y2="376.996" fill="rgb(0, 0, 0)" stroke="rgb(60, 60, 60)" stroke-width="1px" opacity="0.25"></line><line x1="1068.78875" y1="0" x2="1068.78875" y2="376.996" fill="rgb(0, 0, 0)" stroke="rgb(60, 60, 60)" stroke-width="1px" opacity="0.25"></line></g><g><line x1="0" y1="376.996" x2="1068.78875" y2="376.996" fill="rgb(0, 0, 0)" stroke="rgb(60, 60, 60)" stroke-width="1px" opacity="0.25"></line><line x1="0" y1="345.57966666666664" x2="1068.78875" y2="345.57966666666664" fill="rgb(0, 0, 0)" stroke="rgb(60, 60, 60)" stroke-width="1px" opacity="0.25"></line><line x1="0" y1="314.16333333333336" x2="1068.78875" y2="314.16333333333336" fill="rgb(0, 0, 0)" stroke="rgb(60, 60, 60)" stroke-width="1px" opacity="0.25"></line><line x1="0" y1="282.74699999999996" x2="1068.78875" y2="282.74699999999996" fill="rgb(0, 0, 0)" stroke="rgb(60, 60, 60)" stroke-width="1px" opacity="0.25"></line><line x1="0" y1="251.33066666666667" x2="1068.78875" y2="251.33066666666667" fill="rgb(0, 0, 0)" stroke="rgb(60, 60, 60)" stroke-width="1px" opacity="0.25"></line><line x1="0" y1="219.91433333333333" x2="1068.78875" y2="219.91433333333333" fill="rgb(0, 0, 0)" stroke="rgb(60, 60, 60)" stroke-width="1px" opacity="0.25"></line><line x1="0" y1="188.498" x2="1068.78875" y2="188.498" fill="rgb(0, 0, 0)" stroke="rgb(60, 60, 60)" stroke-width="1px" opacity="0.25"></line><line x1="0" y1="157.08166666666668" x2="1068.78875" y2="157.08166666666668" fill="rgb(0, 0, 0)" stroke="rgb(60, 60, 60)" stroke-width="1px" opacity="0.25"></line><line x1="0" y1="125.66533333333334" x2="1068.78875" y2="125.66533333333334" fill="rgb(0, 0, 0)" stroke="rgb(60, 60, 60)" stroke-width="1px" opacity="0.25"></line><line x1="0" y1="94.249" x2="1068.78875" y2="94.249" fill="rgb(0, 0, 0)" stroke="rgb(60, 60, 60)" stroke-width="1px" opacity="0.25"></line><line x1="0" y1="62.83266666666669" x2="1068.78875" y2="62.83266666666669" fill="rgb(0, 0, 0)" stroke="rgb(60, 60, 60)" stroke-width="1px" opacity="0.25"></line><line x1="0" y1="31.416333333333345" x2="1068.78875" y2="31.416333333333345" fill="rgb(0, 0, 0)" stroke="rgb(60, 60, 60)" stroke-width="1px" opacity="0.25"></line><line x1="0" y1="0" x2="1068.78875" y2="0" fill="rgb(0, 0, 0)" stroke="rgb(60, 60, 60)" stroke-width="1px" opacity="0.25"></line></g></g></g><g><g><line x1="0" y1="345.57966666666664" x2="1068.78875" y2="345.57966666666664" fill="rgb(0, 0, 0)" stroke="rgb(153, 153, 153)" stroke-width="1.5px"></line></g></g><g><g><line x1="89.06572916666666" y1="0" x2="89.06572916666666" y2="376.996" fill="rgb(0, 0, 0)" stroke="rgb(153, 153, 153)" stroke-width="1.5px"></line></g></g><g><g><g><g><g><path stroke="rgb(255, 112, 67)" stroke-width="2px" d="M102.42558854166667,-989.3746508900273L103.31624583333333,171.01174403934613L104.206903125,-457.75957560572266L105.09756041666665,270.31680515852787L105.98821770833332,-156.0472477733666L106.878875,310.4570426129256L107.76953229166666,-326.7161140755637L109.55084687499999,-583.6580339223344L110.44150416666666,119.03646265274877L111.33216145833333,246.21561261206276L112.22281874999999,172.31653756948992L113.11347604166666,320.70955670714665L114.00413333333333,288.60419911669015L114.89479062499998,-34.61989073100313L115.78544791666667,23.347928146268565L116.67610520833333,34.397418328463424L117.5667625,237.28181280808786L118.45741979166667,-946.9450884337425L119.34807708333332,27.26713642887338L120.23873437499999,225.8460249618118L121.12939166666665,332.31519268462534L122.02004895833332,315.393570443285L122.91070625,327.8153492695681L123.80136354166666,1.9389420284225574L124.69202083333333,-579.228406912667L125.58267812499999,-614.5646997760248L126.47333541666666,190.15663396142142L127.36399270833333,-876.2474864839464L128.25465,-127.5006650708193L129.14530729166665,251.31545678840436L130.03596458333334,188.30643922267046L130.926621875,11.978310770180077L131.81727916666665,15.650721577131513L132.7079364583333,331.01439022954537L133.59859375,336.9714440684531L134.48925104166665,335.56410951078533L135.37990833333333,200.92283553261422L136.270565625,-14752.735603479066L137.16122291666665,-1276.2977094833627L138.05188020833333,150.18773157655912L138.9425375,282.66154320679635L139.83319479166664,-3371.2491267416817L140.7238520833333,-464.32318884974455L141.614509375,319.421522949264L142.50516666666667,326.5853815393537L143.39582395833332,338.6467629729069L144.28648125,336.50165727426383L145.17713854166666,334.3925335403105L146.06779583333332,318.38853397449765L146.958453125,264.3053774935538L147.84911041666666,19.69438922690414L148.73976770833332,254.2486638047262L149.630425,320.79275667860884L150.52108229166666,341.8765156098053L151.41173958333331,341.6353327264346L152.30239687499997,326.3495835214364L153.19305416666666,342.79941257331984L154.0837114583333,342.79194130823043L154.97436874999997,343.4834064922332L155.86502604166668,342.99197594482166L156.75568333333334,343.17337042076434L157.646340625,344.68943670112367L158.53699791666668,344.77824383589143L159.42765520833333,344.67440680903184L160.3183125,340.2507665548251L161.20896979166668,138.15110635188907L162.09962708333333,241.4255270634696L162.990284375,-146.07071217671464L163.88094166666664,79.15915841219201L164.77159895833333,129.0696870590129L165.66225624999998,290.83568553189934L166.55291354166664,336.4697178160175L167.44357083333333,-414.65530659477656L168.33422812499998,270.74832129163116L169.22488541666664,-1863.3469795895314L170.11554270833332,-177.12846285137775L171.0062,178.5978222549306L171.89685729166666,286.0864250695833L172.78751458333332,338.9164536985792L173.678171875,343.58666413031415L174.56882916666666,343.4291676735385L175.45948645833332,342.3365012974053L176.35014375,343.86830679430125L177.24080104166666,343.4652846456L178.1314583333333,344.72716404682916L179.022115625,344.707494829992L179.91277291666665,344.7624953331334L180.8034302083333,344.6573338768144L181.6940875,344.54391175516014L182.58474479166665,344.11664135388264L183.4754020833333,343.215855311956L184.36605937499996,344.24703718805097L185.25671666666665,343.9272031530216L186.14737395833333,344.6633435620985L187.03803125,344.7338844137751L187.92868854166667,-221.68817133233378L188.81934583333333,344.9399432364422L189.710003125,344.6130804604862L190.60066041666667,343.97150042888745L191.49131770833333,344.47140872491593L192.38197499999998,344.77090143498117L193.27263229166667,343.9613635896808L194.16328958333332,345.36352516846455L195.05394687499998,343.1197237772608L195.94460416666664,344.90477145884745L196.83526145833332,344.5253825291403L197.72591874999998,344.7999539498801L198.61657604166663,344.91570062703124L199.50723333333332,343.4101790652926L200.397890625,344.63220914780925L201.28854791666666,345.0211674571672L202.17920520833334,344.339046926259L203.0698625,345.00998873964323L203.96051979166666,344.76138070084363L204.85117708333334,344.8815161176291L205.741834375,343.9142914480158L206.63249166666665,344.74775988569036L207.5231489583333,344.3635005471916L208.41380625,344.0344190072293L209.30446354166665,344.58515300701794L210.1951208333333,344.82311407161353L211.085778125,345.0728723517901L211.97643541666665,344.2695948483174L212.8670927083333,344.96452557868906L213.75775,344.95454696240733L214.64840729166664,344.34604402260067L215.53906458333333,344.91217550598094L216.429721875,345.3049302547752L217.32037916666667,345.2367151550894L218.21103645833333,344.8073566397966L219.10169374999998,345.04025092773566L219.99235104166667,345.085434001968L220.88300833333332,345.19214897168354L221.77366562499998,343.4887347831689L222.66432291666666,344.82997816069275L223.55498020833332,344.6697166957991L224.44563749999998,345.1295582683872L225.33629479166666,344.8957898255745L226.22695208333332,344.778774150562L227.11760937499997,345.11999017452086L228.00826666666666,344.78296380789743L228.8989239583333,345.3029532539697L229.78958124999997,345.17220252542336L230.68023854166665,344.5790677461787L231.57089583333334,345.2594398244749L232.461553125,345.0167251074629L233.35221041666665,339.6884552800361L234.24286770833334,344.5952038415286L235.133525,345.1952131389934L236.02418229166665,345.1289814511775L236.91483958333333,345.38184375798323L237.805496875,345.38972997430125L238.69615416666664,345.281015859714L239.5868114583333,345.25762018940475L240.47746874999999,344.92425652277234L241.36812604166664,345.1648846258509L242.2587833333333,345.4535153589011L243.14944062499998,345.1907007854667L244.04009791666664,345.05158397511497L244.9307552083333,344.9891137426823L245.8214125,344.8376985822438L246.71206979166666,345.33509504469237L247.60272708333332,345.3093095653232L248.493384375,345.43975175023667L249.38404166666666,345.4297153540144L250.27469895833332,345.3557535655475L251.16535624999997,316.96523797387346L252.05601354166666,338.67981906355226L252.94667083333331,344.4835142430452L253.83732812499997,344.38320040855916L254.72798541666666,343.9527122601574L255.6186427083333,344.9548906954616L256.5093,345.15429011879746L257.3999572916667,345.39174679870973L258.2906145833333,345.1907648246777L259.181271875,345.0774196715118L260.0719291666667,345.34557413472953L260.9625864583333,345.247202477719L261.85324375,345.34576809174854L262.7439010416666,345.1143351871754L263.6345583333333,345.18478089079963L264.525215625,345.0767746005753L265.4158729166666,345.4959545333108L266.3065302083333,344.40944619877655L267.1971875,344.7955019210758L268.08784479166667,345.22967444922375L268.9785020833333,345.35410231467154L269.869159375,341.7439177982616L270.75981666666667,344.56586395379566L271.6504739583333,345.0954601922759L272.54113125,344.46742743610076L273.43178854166666,344.9551754967266L274.3224458333333,344.16984097297774L275.213103125,345.2951514351171L276.10376041666666,345.1536856929374L276.9944177083333,345.0915760516223L277.885075,344.74154654642916L278.7757322916666,344.4294887217112L279.6663895833333,345.3045368582949L280.55704687499997,344.6396643405925L281.4477041666666,345.34059932738046L282.33836145833334,345.2954265929984L283.22901875,345.3410905149146L284.11967604166665,344.82070422574526L285.01033333333334,345.35925270303625L285.900990625,345.23333068457606L286.79164791666665,345.2792814435827L287.68230520833333,345.0554790449367L288.5729625,345.37800585199705L289.46361979166664,345.2873892612863L290.35427708333333,345.27055382417944L291.244934375,345.3501325086262L292.13559166666664,345.24608105934436L293.0262489583333,344.22145393400945L293.91690625,345.0614168691542L294.80756354166664,344.9293470864419L295.6982208333333,344.9917893887781L296.588878125,345.09224505243685L297.47953541666664,345.06999194451396L298.3701927083333,345.4127672321832L299.26085,345.36146853831116L300.15150729166663,344.9566234329298L301.0421645833333,345.2141287789694L301.93282187499995,345.1621437976246L302.82347916666663,345.2849580749671L303.7141364583333,345.32307733492905L304.60479374999994,345.44589536247634L305.4954510416666,345.41067458220596L306.3861083333333,344.8918043222435L307.27676562499994,345.0157781629006L308.1674229166666,345.3207562617651L309.0580802083333,344.9877933491575L309.94873749999994,345.3486297480009L310.8393947916666,345.4243754731601L311.73005208333336,345.3758661994533L312.620709375,344.80240058347135L313.5113666666667,345.38675365107355L314.40202395833336,345.1372596174682L315.29268125,345.3292360640656L316.18333854166667,345.4687458065865L317.07399583333336,345.3682935002539L317.964653125,345.3872802691137L318.85531041666667,345.09678490746523L319.74596770833335,345.2363860299757L320.636625,345.32439271032274L321.52728229166667,345.2717209236198L322.41793958333335,345.4751609157933L323.308596875,345.39104749266903L324.19925416666666,345.2018106420879L325.0899114583333,345.34233168982814L325.98056875,345.4483854627267L326.87122604166666,345.1906860703775L327.7618833333333,345.36492004819934L328.652540625,345.2206471348851L329.54319791666666,345.42843196251L330.4338552083333,345.33128224722L331.32451249999997,345.3819841585065L332.21516979166665,345.4130191030788L333.1058270833333,336.3499609913326L333.99648437499997,345.22545482596644L334.88714166666665,345.4833696765087L335.7777989583333,345.0398250830551L336.66845624999996,345.3712383396197L337.55911354166665,345.51172581856275L338.4497708333333,345.31798487829894L339.34042812499996,345.441593672238L340.23108541666664,345.4049752352955L341.1217427083333,345.5256128357512L342.0124,345.2162710030821L342.9030572916667,345.45813475398677L343.7937145833333,345.3108459706427L344.684371875,345.3625388467522L345.57502916666664,345.1321290516144L346.4656864583333,345.11901347833407L347.35634375,345.4469238561342L348.24700104166664,345.4734471436464L349.1376583333333,345.23251635439766L350.028315625,345.32137425979477L350.91897291666663,345.4371739934144L351.8096302083333,345.2596731229278L352.7002875,345.3114268952195L353.59094479166663,345.1314994815243L354.4816020833333,345.4521428553881L355.372259375,345.16696588234896L356.2629166666666,345.4386296889698L357.1535739583333,345.4266076128967L358.04423125,345.4676131375976L358.9348885416666,345.4092783273961L359.8255458333333,345.45086209795613L360.716203125,345.4467006564471L361.6068604166666,345.5106039090899L362.4975177083333,345.4145700984806L363.388175,345.4813915417127L364.2788322916666,345.35324794659266L365.1694895833333,345.44045881562965L366.060146875,345.0887962926989L366.9508041666666,345.50473592350716L367.8414614583333,345.35711447914196L368.7321187499999,345.41977025742005L369.6227760416666,345.4228778556728L370.5134333333333,345.37078249330096L371.4040906249999,345.42770624431284L372.29474791666667,344.7796411979046L373.18540520833335,345.4628268494706L374.0760625,345.35349724591924L374.96671979166666,345.28846074836315L375.85737708333335,345.4669563249485L376.748034375,344.9291104306629L377.63869166666666,345.50472514613296L378.52934895833334,345.4713766555935L379.42000625,345.47361400097145L380.31066354166666,345.519872107117L381.20132083333334,345.3821493996719L382.09197812499997,345.45315222300167L382.98263541666665,345.4962782652729L383.87329270833334,345.50731526970196L384.76394999999997,344.8217665694657L385.65460729166665,345.4298716393336L386.54526458333333,345.38446666905674L387.43592187499996,345.49169095229615L388.32657916666665,345.40053090334004L389.21723645833333,345.49721324489616L390.10789374999996,345.45794501148356L390.99855104166664,344.99048074589496L391.8892083333333,345.487258629925L392.77986562499996,345.457567008701L393.67052291666664,345.37705655016316L394.56118020833327,345.43227746712535L395.45183749999995,345.32901153394863L396.34249479166664,345.3152047264969L397.23315208333327,345.4717494705928L398.12380937499995,345.3936769040975L399.01446666666664,345.4992327837386L399.90512395833326,345.42834785077446L400.79578125,345.4523630013371L401.6864385416667,345.23213647651266L402.5770958333333,345.43103913165254L403.467753125,345.28464591506537L404.3584104166667,345.35866793896406L405.2490677083333,345.38793951939584L406.139725,345.4963922536398L407.0303822916667,345.3661664555415L407.9210395833333,345.49445721048244L408.811696875,345.5258213024911L409.7023541666667,345.48361855616946L410.5930114583333,345.4476094649985L411.48366875,345.3526191086854L412.3743260416666,345.27791126162504L413.2649833333333,345.41825174593475L414.155640625,345.3796966943205L415.0462979166666,345.4272467906543L415.9369552083333,345.3276728894273L416.8276125,345.4944783812812L417.7182697916666,345.42622943153293L418.6089270833333,345.468943620959L419.499584375,345.2056376010478L420.3902416666666,345.5058387649746L421.2808989583333,345.48706198525923L422.17155625,345.34271269277457L423.0622135416666,345.48179876037625L423.9528708333333,345.4768053180811L424.843528125,345.47526115340935L425.7341854166666,345.5039443267129L426.6248427083333,345.46910237962754L427.5155,345.502842695133L428.4061572916666,345.4943953142456L429.2968145833333,345.5077100948316L430.187471875,345.4125649711394L431.07812916666666,345.43435847360973L431.96878645833334,345.48966212723235L432.85944375,345.4772716024698L433.75010104166665,345.50424718253515L434.64075833333334,345.27614062923055L435.53141562499997,345.3773195288081L436.42207291666665,345.38546381278854L437.31273020833333,345.48696351559687L438.20338749999996,345.48755165485335L439.09404479166665,345.46383577956027L439.98470208333333,345.51913273638866L440.87535937499996,345.5161985538548L441.76601666666664,345.38945953096305L442.65667395833333,345.4339683987394L443.54733124999996,345.41895162343525L444.43798854166664,345.4246743644802L445.3286458333333,345.3200885110188L446.21930312499995,345.4597155545875L447.10996041666664,345.5468353762423L448.0006177083333,345.4284657143529L448.89127499999995,345.3860618454424L449.78193229166664,345.4704639896886L450.6725895833333,345.4195653176585L451.56324687499995,345.4336538458499L452.45390416666663,345.461803240008L453.3445614583333,345.41557429616904L454.23521874999994,345.4923259155379L455.12587604166663,345.45408922952134L456.0165333333333,345.53257240325803L456.90719062499994,345.4339029576662L457.7978479166666,345.51763416349206L458.68850520833325,345.47109314904196L459.57916249999994,345.1287792615661L460.4698197916667,345.53622422765517L461.3604770833333,345.1058170077795L462.251134375,345.3555989321042L463.1417916666667,345.4062920393386L464.0324489583333,345.4017235220309L464.92310625,345.4333482577356L465.8137635416667,345.48474581414865L466.7044208333333,345.2988330289969L467.595078125,345.3521053127739L468.48573541666667,345.46814001458046L469.3763927083333,345.50163597745797L470.26705,345.39452859345863L471.15770729166667,345.4958099539879L472.0483645833333,345.5096449817305L472.939021875,345.49636202877514L473.82967916666666,345.4588080318206L474.7203364583333,345.50709635149855L475.61099375,345.50228237882425L476.50165104166666,345.4373506012718L477.3923083333333,345.481872612623L478.282965625,345.47783411532697L479.1736229166666,345.5117774419172L480.0642802083333,345.4149794958346L480.95493749999997,345.4836191544164L481.8455947916666,345.46753964251315L482.7362520833333,345.4585080868715L483.62690937499997,345.5077829023785L484.5175666666666,345.3737151534303L485.4082239583333,345.48523074241245L486.29888124999997,345.43539190503725L487.1895385416666,345.5279642632512L488.0801958333333,345.49075454402345L488.97085312499996,345.4414808267907L489.8615104166666,345.488603274774L490.75216770833333,345.2888931291149L491.642825,345.3968522024754L492.53348229166664,345.49471754612586L493.42413958333333,345.36966348577226L494.314796875,345.4402626352749L495.20545416666664,345.48962946473466L496.0961114583333,345.43610024728565L496.98676875,345.4579274480246L497.87742604166664,345.22988360350115L498.7680833333333,345.44763713615225L499.658740625,345.4196028197062L500.54939791666663,345.4739769493606L501.4400552083333,345.3771566627724L502.33071249999995,345.513930358578L503.22136979166663,345.4468682816712L504.1120270833333,345.4933665437869L505.00268437499994,345.4838718557144L505.89334166666663,345.52468725396255L506.7839989583333,345.4502840396072L507.67465624999994,345.48434504226566L508.5653135416666,345.47264411765667L509.4559708333333,345.4386430021967L510.34662812499994,345.4987741069082L511.2372854166666,345.4359390956293L512.1279427083333,345.47264720711104L513.0186,345.4434742034903L513.9092572916667,345.12318577757884L514.7999145833334,345.46641215237844L515.6905718749999,344.93984037368284L516.5812291666666,345.5230647144757L517.4718864583333,345.48117562813763L518.36254375,345.49158787523936L519.2532010416667,345.4368220456259L520.1438583333334,345.4795716209127L521.0345156249999,345.46314520613925L521.9251729166666,345.4809551339554L522.8158302083333,345.4028877641724L523.7064875,345.4377144782831L524.5971447916667,345.47788596637247L525.4878020833332,345.4971359549617L526.3784593749999,345.404744561986L527.2691166666666,345.446225371567L528.1597739583333,345.44900166601553L529.05043125,345.4540450931828L529.9410885416667,345.4931998025396L530.8317458333332,345.53363350137477L531.7224031249999,345.50328964810893L532.6130604166666,345.4362995260238L533.5037177083333,345.48103943320115L534.394375,345.44852261307256L535.2850322916667,345.48996495626744L536.1756895833333,345.4462353542549L537.0663468749999,345.39680669999086L537.9570041666666,345.4800738090475L538.8476614583333,345.46569360421563L539.73831875,345.4964671059412L540.6289760416666,345.5268091600016L541.5196333333333,345.4828185124854L542.4102906249999,345.4643845238086L543.3009479166666,345.401440399429L544.1916052083333,345.4976007392685L545.0822625,345.49042420455766L545.9729197916666,345.4561066253896L546.8635770833333,345.4679025194699L547.7542343749999,345.506806849084L548.6448916666666,345.40642006418614L549.5355489583333,345.2601740788524L550.42620625,345.54398454647395L551.3168635416666,345.3619847986429L552.2075208333333,345.35234504014926L553.0981781249999,345.47904121695154L553.9888354166666,345.32166488280626L554.8794927083333,345.1924071643528L555.77015,345.46921133200516L556.6608072916666,345.4504740321241L557.5514645833332,345.52985715232114L558.4421218749999,345.48913458949914L559.3327791666666,345.389468299299L560.2234364583333,345.49060027667156L561.1140937499999,345.4971865827261L562.0047510416666,345.3641997767281L562.8954083333332,345.4803416183133L563.7860656249999,345.5097069940451L564.6767229166667,345.48297452100377L565.5673802083334,345.4230708126372L566.4580375,345.43522418159347L567.3486947916667,345.4820163168981L568.2393520833333,345.36889221151625L569.130009375,345.4796226772719L570.0206666666667,345.34679364774604L570.9113239583334,345.40782153356645L571.80198125,345.5073271498149L572.6926385416667,345.39109747754117L573.5832958333333,345.4156896774691L574.473953125,345.48885058292035L575.3646104166667,345.49403229442396L576.2552677083333,345.50395437190423L577.145925,345.5162714730149L578.0365822916667,345.49110099151164L578.9272395833333,345.44724263246866L579.817896875,345.4764331727612L580.7085541666667,345.4654555822906L581.5992114583333,345.4839503867881L582.48986875,345.4720609786732L583.3805260416666,345.4952786392627L584.2711833333333,345.46335547654905L585.161840625,345.49774497035804L586.0524979166667,345.42775906862573L586.9431552083333,345.4610226259563L587.8338125,345.5295765298557L588.7244697916666,345.4595605014784L589.6151270833333,345.43124026763496L590.505784375,345.44912626210447L591.3964416666666,345.46220986935367L592.2870989583333,345.4862437173658L593.17775625,345.5368689057131L594.0684135416666,345.5037468784318L594.9590708333333,345.47417460301006L595.849728125,345.3814603263328L596.7403854166666,345.5022512164084L597.6310427083333,345.43385631226215L598.5217,345.4852505292071L599.4123572916666,345.49084369174824L600.3030145833333,344.99591825708L601.193671875,345.4557577491974L602.0843291666666,345.50707712723454L602.9749864583333,345.42194775131577L603.8656437499999,345.50273861802157L604.7563010416666,345.45819674844324L605.6469583333333,345.4535603613583L606.537615625,345.4572398033349L607.4282729166666,345.478843402579L608.3189302083333,345.5005631242351L609.2095874999999,345.33511981390194L610.1002447916666,345.40860543351187L610.9909020833333,345.49027531249925L611.8815593749999,345.4993264317091L612.7722166666666,345.46705976809676L613.6628739583333,345.52741302333095L614.5535312499999,345.37080329800835L615.4441885416666,345.4316319050906L616.3348458333332,345.44987518692585L617.2255031249999,345.3647463601442L618.1161604166666,345.5247289571325L619.0068177083333,345.5050572535524L619.8974749999999,345.4790410383703L620.7881322916666,345.5301178138752L621.6787895833332,345.53247913477253L622.5694468749999,345.5214413535154L623.4601041666667,345.4704694632017L624.3507614583332,345.48629094315874L625.24141875,345.49263890584206L626.1320760416667,345.39736760561743L627.0227333333333,345.2819963953961L627.913390625,345.45690838345297L628.8040479166667,345.47289336340884L629.6947052083333,345.44813937786137L630.5853625,345.52663334683035L631.4760197916667,345.5266748669546L632.3666770833333,345.5211605480043L633.257334375,345.5034344953036L634.1479916666667,345.44627663329453L635.0386489583333,345.4856496849304L635.92930625,345.43590296865665L636.8199635416667,345.43379140693247L637.7106208333333,345.4932626631148L638.601278125,345.4185213320833L639.4919354166667,345.49260591296917L640.3825927083333,345.25254673381215L641.27325,345.4250595283681L642.1639072916666,345.5246771105516L643.0545645833333,345.34263706364504L643.945221875,345.4577478578614L644.8358791666667,345.5120794003691L645.7265364583333,345.4671530856921L646.61719375,345.3541692290395L647.5078510416666,345.4974323282872L648.3985083333333,345.4995128526024L649.289165625,345.4840651519831L650.1798229166666,345.4818214759023L651.0704802083333,345.44902195283754L651.9611375,345.4447047171075L652.8517947916666,345.45059904787877L653.7424520833333,345.3270637133079L654.633109375,345.5065347315472L655.5237666666666,345.4273073832485L656.4144239583333,345.43745793748974L657.30508125,345.4513934305394L658.1957385416666,345.40383754817543L659.0863958333333,345.50837913582694L659.977053125,345.5153473243402L660.8677104166666,345.5404163494109L661.7583677083333,345.4834202774859L662.6490249999999,345.499096276285L663.5396822916666,345.5518490785723L664.4303395833333,345.5125476491507L665.320996875,345.48331670933084L666.2116541666666,345.4927335806544L667.1023114583332,345.43145944031653L667.9929687499999,345.52856811318696L668.8836260416666,345.47687692020503L669.7742833333333,345.49574730771013L670.6649406249999,345.29830525017906L671.5555979166666,345.5064624686729L672.4462552083332,345.45340678154395L673.3369124999999,345.4697549599027L674.2275697916666,345.46531403884774L675.1182270833333,345.4917642420122L676.0088843749999,345.437195280291L676.8995416666666,345.43981335181456L677.7901989583332,345.5052163202735L678.6808562499999,345.4407843780489L679.5715135416666,345.4579036967277L680.4621708333333,345.5010114969315L681.3528281249999,345.5107578148149L682.2434854166665,345.44246020169516L683.1341427083333,345.4194167381172L684.0248,345.46613278891033L684.9154572916667,345.52214908858775L685.8061145833334,345.2853431852806L686.696771875,345.50779381815306L687.5874291666667,345.33091944169576L688.4780864583333,345.5393760068917L689.36874375,345.4615656377487L690.2594010416667,345.439634458118L691.1500583333333,345.4276496697952L692.040715625,345.46109051359167L692.9313729166666,345.45338078012423L693.8220302083333,345.41360147416316L694.7126875,345.22753493954497L695.6033447916667,345.5013038968257L696.4940020833333,345.51336892167245L697.384659375,345.5086475790559L698.2753166666666,345.4692889165986L699.1659739583333,345.48200845932627L700.05663125,345.4924712449017L700.9472885416667,344.4540954224309L701.8379458333333,345.4479086509775L702.728603125,345.3190452219102L703.6192604166666,345.36551583073026L704.5099177083333,345.49315921996657L705.400575,345.479092612615L706.2912322916667,345.45221900240307L707.1818895833333,345.48775765717295L708.072546875,345.4110861939665L708.9632041666666,345.49244924370043L709.8538614583333,345.4553654509914L710.74451875,345.48518327553495L711.6351760416667,345.51358892029197L712.5258333333333,345.5013954732545L713.4164906249999,345.49336675808433L714.3071479166666,345.3887230621789L715.1978052083333,345.3987134469603L716.0884625,345.507398787655L716.9791197916666,345.4999817621344L717.8697770833332,345.41816515192085L718.7604343749999,345.3633814106151L719.6510916666666,345.37005523930566L720.5417489583333,345.48922556768105L721.43240625,345.3104188044614L722.3230635416666,345.5049333673237L723.2137208333332,345.47859358536704L724.1043781249999,345.43194806521075L724.9950354166666,345.48264427975766L725.8856927083333,345.4698236779405L726.77635,345.44885539017145L727.6670072916666,345.5088230172067L728.5576645833332,345.34144860589566L729.4483218749999,345.4975468881138L730.3389791666666,345.42954357677786L731.2296364583333,345.46655720494147L732.12029375,345.44939999133635L733.0109510416665,345.5087218688266L733.9016083333332,345.4683373021385L734.7922656249999,345.4445598341966L735.6829229166666,345.3133644117262L736.5735802083333,345.50902264864266L737.4642374999999,345.0793599560268L738.3548947916665,345.39463188481284L739.2455520833332,345.39316951925036L740.1362093749999,345.437030699876L741.0268666666666,345.4690048118002L741.9175239583334,345.423403723672L742.8081812499998,345.52511362099307L743.6988385416666,345.47966554568404L744.5894958333333,345.4565418098659L745.480153125,345.482527594815L746.3708104166667,345.4262441109059L747.2614677083334,345.37181933562897L748.152125,345.5198393955094L749.0427822916666,345.48151789682623L749.9334395833333,345.4586200215548L750.824096875,345.50740859622636L751.7147541666667,345.3439360988608L752.6054114583334,345.5203599060733L753.49606875,345.42460805728825L754.3867260416666,345.4975567457949L755.2773833333333,345.5070232046474L756.168040625,345.4808407884261L757.0586979166667,345.49360430676927L757.9493552083333,345.3364194562937L758.8400125,345.4715713269372L759.7306697916666,345.47866642863016L760.6213270833333,345.4199897694059L761.511984375,345.34446641353134L762.4026416666667,345.4479810120714L763.2932989583333,345.5024163772123L764.1839562499999,345.3547462962628L765.0746135416666,345.47706691272185L765.9652708333333,345.4564885033838L766.855928125,337.86774900855943L767.7465854166667,345.4625136002237L768.6372427083332,345.4873519653785L769.5278999999999,345.4980467011189L770.4185572916666,345.386048469712L771.3092145833333,345.5491754571406L772.199871875,345.4649889764558L773.0905291666667,345.119146092718L773.9811864583332,345.50666010446423L774.8718437499999,345.5081262068379L775.7625010416666,345.4903475217992L776.6531583333333,345.5244074306479L777.543815625,345.49083768249153L778.4344729166667,345.47458955423866L779.3251302083332,345.52194230497554L780.2157874999999,345.5068043355539L781.1064447916666,345.48645771119317L781.9971020833333,345.51848762973594L782.887759375,345.5071693688783L783.7784166666665,345.4218700863608L784.6690739583332,345.21604645510706L785.5597312499999,345.39400718998894L786.4503885416666,345.43497522157116L787.3410458333333,345.4097561213418L788.231703125,345.35935729803305L789.1223604166665,345.3894596023955L790.0130177083332,345.38911458355676L790.9036749999999,345.4732769914986L791.7943322916666,345.4097890874275L792.6849895833333,345.3841818856498L793.575646875,345.43533349113346L794.4663041666665,345.4574169558649L795.3569614583332,345.4740393724119L796.2476187499999,345.3478742067468L797.1382760416666,345.47102050221815L798.0289333333333,345.45265926751387L798.919590625,345.36401748106016L799.8102479166665,345.42238804321374L800.7009052083332,345.5255712040138L801.5915625,345.46820286622653L802.4822197916667,345.50642101105217L803.3728770833334,345.54563852294524L804.263534375,345.4660004691854L805.1541916666666,345.470028153391L806.0448489583333,345.383426987288L806.93550625,345.4951447480234L807.8261635416667,345.50064614662546L808.7168208333334,345.52592495100765L809.607478125,345.50864743172644L810.4981354166666,345.4668490690921L811.3887927083333,345.5312728724795L812.27945,345.40983694718363L813.1701072916667,345.45948385443614L814.0607645833334,345.5130583823949L814.9514218749999,345.4620353955413L815.8420791666666,345.46826459281124L816.7327364583333,345.49466486467793L817.62339375,345.5073467312412L818.5140510416667,345.4704089777562L819.4047083333334,345.51381751759527L820.2953656249999,345.48448146042864L821.1860229166666,345.4731130004015L822.0766802083333,345.30858731160095L822.9673375,345.5125159286687L823.8579947916667,345.4683999752034L824.7486520833332,345.405341255281L825.6393093749999,345.4752651536278L826.5299666666666,345.5040600294591L827.4206239583333,345.4618983344861L828.31128125,345.45474384562186L829.2019385416667,345.40540918756165L830.0925958333332,345.50274852034795L830.9832531249999,345.44116497025857L831.8739104166666,345.5212442088223L832.7645677083333,345.5060579465852L833.655225,345.4896224822105L834.5458822916667,345.4454534722768L835.4365395833332,345.36998130669735L836.3271968749999,345.50839670375046L837.2178541666666,345.48275561619397L838.1085114583333,345.494145702402L838.99916875,345.4491127345801L839.8898260416667,345.3791134303302L840.7804833333332,345.4239329847136L841.6711406249999,345.45892349348213L842.5617979166666,345.52879633993433L843.4524552083333,345.496964454526L844.3431125,345.5127342843413L845.2337697916666,345.4108199830023L846.1244270833332,345.42762109680643L847.0150843749999,345.4765930475621L847.9057416666666,345.4666838904302L848.7963989583333,345.40725469904464L849.68705625,345.4534003526215L850.5777135416665,345.4822104792855L851.4683708333332,345.5110407722292L852.3590281249999,345.4475122989787L853.2496854166666,345.37837262202345L854.1403427083333,344.7489263065222L855.031,345.42648846353376L855.9216572916665,345.50501759513696L856.8123145833332,345.4931003149645L857.7029718749999,345.4661637459578L858.5936291666666,345.4575812773372L859.4842864583333,345.48771923543217L860.37494375,345.4810308434464L861.2656010416665,345.52794355676343L862.1562583333333,345.4198367967675L863.046915625,345.52274191113565L863.9375729166667,345.4068856431792L864.8282302083334,345.38136267814383L865.7188875,345.4972367193922L866.6095447916666,345.51986190566714L867.5002020833333,345.4464394993302L868.390859375,345.4736897461787L869.2815166666667,345.4751350036642L870.1721739583334,345.2292703557308L871.0628312499999,345.4572812788138L871.9534885416666,345.4579384486252L872.8441458333333,345.084025460773L873.734803125,345.5268301879355L874.6254604166667,345.48074125620576L875.5161177083334,345.4571799429235L876.4067749999999,345.39485877220136L877.2974322916666,345.39625468770697L878.1880895833333,345.50610901187343L879.078746875,345.3495031706916L879.9694041666667,345.498442794175L880.8600614583333,345.36964425257923L881.7507187499999,345.4751755415919L882.6413760416666,345.4837669839168L883.5320333333333,345.4180338054633L884.422690625,345.5264140446775L885.3133479166667,345.4217398649647L886.2040052083333,345.4684955875669L887.0946624999999,345.48950565440293L887.9853197916666,345.4511520870044L888.8759770833333,345.4369027196737L889.766634375,345.43872467629916L890.6572916666667,345.54161257990614L891.5479489583332,345.43893627713874L892.4386062499999,345.4419966853148L893.3292635416666,345.4744391888855L894.2199208333333,345.508938215461L895.110578125,345.52146290826374L896.0012354166666,345.47674285931356L896.8918927083332,345.5014164744012L897.7825499999999,345.4774800959968L898.6732072916666,345.53451808092467L899.5638645833333,345.5068783351301L900.454521875,345.40998227654745L901.3451791666666,345.37069523853665L902.2358364583332,345.37563556186L903.1264937499999,345.4076393093309L904.0171510416666,345.48257931192455L904.9078083333333,345.4674932471227L905.798465625,345.4318977499634L906.6891229166666,345.3769424367895L907.5797802083332,345.4169544786727L908.4704374999999,345.40444272407643L909.3610947916666,345.465259268L910.2517520833333,345.50982299145016L911.1424093749999,345.43029837692006L912.0330666666666,345.3061295166859L912.9237239583332,345.42582315934965L913.8143812499999,345.4768891530158L914.7050385416666,345.5005019244649L915.5956958333333,345.38294765754415L916.4863531249999,345.44812802009835L917.3770104166665,345.4512726650168L918.2676677083332,345.452624310248L919.1583249999999,345.47781309632217L920.0489822916666,345.2130327191222L920.9396395833334,345.4282782755469L921.830296875,345.4909433400464L922.7209541666666,345.4925328911249L923.6116114583333,345.4831722728729L924.50226875,345.44358520062246L925.3929260416667,345.3788853285897L926.2835833333334,345.53567267075334L927.174240625,345.49401036465514L928.0648979166666,345.49993451848337L928.9555552083333,345.4737433562488L929.8462125,345.4876453653273L930.7368697916667,345.4016294990399L931.6275270833333,345.4669640932298L932.518184375,345.4454413466147L933.4088416666666,345.3206528275459L934.2994989583333,345.4525970051856L935.19015625,345.4878645915832L936.0808135416667,345.5310338237127L936.9714708333333,345.45816288052254L937.8621281249999,345.32972151914385L938.7527854166666,345.4968189197938L939.6434427083333,345.4355143402939L940.5341,345.51870585593724L941.4247572916667,345.4142682248548L942.3154145833333,345.4590156502998L943.2060718749999,345.5088237136733L944.0967291666666,345.42284255017364L944.9873864583333,345.48816367041354L945.87804375,345.4305700971137L946.7687010416666,345.4750709733823L947.6593583333333,345.4648022609036L948.5500156249999,345.4442345664363L949.4406729166666,345.38724749946726L950.3313302083333,345.48791564794243L951.2219875,345.461471659403L952.1126447916666,345.45471080810364L953.0033020833333,345.5187265713541L953.8939593749999,345.4637658918157L954.7846166666666,345.4393404420641L955.6752739583333,345.3909249681218L956.56593125,345.4290204410707L957.4565885416666,345.4446511159665L958.3472458333332,345.53223979134674L959.2379031249999,345.35369375664914L960.1285604166666,345.50261667386314L961.0192177083333,345.5195694120178L961.9098749999999,345.32854945514674L962.8005322916666,345.4845035152043L963.6911895833332,345.4235464100344L964.5818468749999,345.47659788711206L965.4725041666666,345.4739482245779L966.3631614583333,345.38526023024394L967.2538187499999,345.45322629847493L968.1444760416666,345.51657331092446L969.0351333333332,345.4838483097859L969.9257906249999,345.48058330115254L970.8164479166666,345.3769035060924L971.7071052083332,345.4651219926473L972.5977624999999,345.5218789175858L973.4884197916666,345.489601659645L974.3790770833332,345.45203213505687L975.2697343749999,345.4243777411411L976.1603916666666,345.44734990618315L977.0510489583332,345.4487722427743L977.9417062499999,345.4409592447398L978.8323635416667,345.2870060439333" style="fill: none;" fill="none"></path></g></g></g></g></g></g><g transform="translate(74, 376)" clip-path="url(#clip_1)"><clipPath id="clip_1"><rect width="1068" height="22"></rect></clipPath><g><g><line x1="0" y1="0" x2="0" y2="5" style="visibility: inherit;" fill="rgb(0, 0, 0)" stroke="rgb(204, 204, 204)" stroke-width="1px"></line><line x1="89.06572916666666" y1="0" x2="89.06572916666666" y2="5" style="visibility: inherit;" fill="rgb(0, 0, 0)" stroke="rgb(204, 204, 204)" stroke-width="1px"></line><line x1="178.1314583333333" y1="0" x2="178.1314583333333" y2="5" style="visibility: inherit;" fill="rgb(0, 0, 0)" stroke="rgb(204, 204, 204)" stroke-width="1px"></line><line x1="267.1971875" y1="0" x2="267.1971875" y2="5" style="visibility: inherit;" fill="rgb(0, 0, 0)" stroke="rgb(204, 204, 204)" stroke-width="1px"></line><line x1="356.2629166666666" y1="0" x2="356.2629166666666" y2="5" style="visibility: inherit;" fill="rgb(0, 0, 0)" stroke="rgb(204, 204, 204)" stroke-width="1px"></line><line x1="445.3286458333333" y1="0" x2="445.3286458333333" y2="5" style="visibility: inherit;" fill="rgb(0, 0, 0)" stroke="rgb(204, 204, 204)" stroke-width="1px"></line><line x1="534.394375" y1="0" x2="534.394375" y2="5" style="visibility: inherit;" fill="rgb(0, 0, 0)" stroke="rgb(204, 204, 204)" stroke-width="1px"></line><line x1="623.4601041666667" y1="0" x2="623.4601041666667" y2="5" style="visibility: inherit;" fill="rgb(0, 0, 0)" stroke="rgb(204, 204, 204)" stroke-width="1px"></line><line x1="712.5258333333333" y1="0" x2="712.5258333333333" y2="5" style="visibility: inherit;" fill="rgb(0, 0, 0)" stroke="rgb(204, 204, 204)" stroke-width="1px"></line><line x1="801.5915625" y1="0" x2="801.5915625" y2="5" style="visibility: inherit;" fill="rgb(0, 0, 0)" stroke="rgb(204, 204, 204)" stroke-width="1px"></line><line x1="890.6572916666667" y1="0" x2="890.6572916666667" y2="5" style="visibility: inherit;" fill="rgb(0, 0, 0)" stroke="rgb(204, 204, 204)" stroke-width="1px"></line><line x1="979.7230208333332" y1="0" x2="979.7230208333332" y2="5" style="visibility: inherit;" fill="rgb(0, 0, 0)" stroke="rgb(204, 204, 204)" stroke-width="1px"></line><line x1="1068.78875" y1="0" x2="1068.78875" y2="5" style="visibility: inherit;" fill="rgb(0, 0, 0)" stroke="rgb(204, 204, 204)" stroke-width="1px"></line></g><g transform="translate(0, 8)"><text x="0" y="0" dx="0em" dy="0.95em" style="text-anchor: middle; visibility: hidden; font-family: Roboto, sans-serif; font-size: 12px; font-weight: 200;" fill="rgb(50, 49, 63)" stroke="none" stroke-width="1px">-100</text><text x="89.06572916666666" y="0" dx="0em" dy="0.95em" style="text-anchor: middle; visibility: inherit; font-family: Roboto, sans-serif; font-size: 12px; font-weight: 200;" fill="rgb(50, 49, 63)" stroke="none" stroke-width="1px">0</text><text x="178.1314583333333" y="0" dx="0em" dy="0.95em" style="text-anchor: middle; visibility: inherit; font-family: Roboto, sans-serif; font-size: 12px; font-weight: 200;" fill="rgb(50, 49, 63)" stroke="none" stroke-width="1px">100</text><text x="267.1971875" y="0" dx="0em" dy="0.95em" style="text-anchor: middle; visibility: inherit; font-family: Roboto, sans-serif; font-size: 12px; font-weight: 200;" fill="rgb(50, 49, 63)" stroke="none" stroke-width="1px">200</text><text x="356.2629166666666" y="0" dx="0em" dy="0.95em" style="text-anchor: middle; visibility: inherit; font-family: Roboto, sans-serif; font-size: 12px; font-weight: 200;" fill="rgb(50, 49, 63)" stroke="none" stroke-width="1px">300</text><text x="445.3286458333333" y="0" dx="0em" dy="0.95em" style="text-anchor: middle; visibility: inherit; font-family: Roboto, sans-serif; font-size: 12px; font-weight: 200;" fill="rgb(50, 49, 63)" stroke="none" stroke-width="1px">400</text><text x="534.394375" y="0" dx="0em" dy="0.95em" style="text-anchor: middle; visibility: inherit; font-family: Roboto, sans-serif; font-size: 12px; font-weight: 200;" fill="rgb(50, 49, 63)" stroke="none" stroke-width="1px">500</text><text x="623.4601041666667" y="0" dx="0em" dy="0.95em" style="text-anchor: middle; visibility: inherit; font-family: Roboto, sans-serif; font-size: 12px; font-weight: 200;" fill="rgb(50, 49, 63)" stroke="none" stroke-width="1px">600</text><text x="712.5258333333333" y="0" dx="0em" dy="0.95em" style="text-anchor: middle; visibility: inherit; font-family: Roboto, sans-serif; font-size: 12px; font-weight: 200;" fill="rgb(50, 49, 63)" stroke="none" stroke-width="1px">700</text><text x="801.5915625" y="0" dx="0em" dy="0.95em" style="text-anchor: middle; visibility: inherit; font-family: Roboto, sans-serif; font-size: 12px; font-weight: 200;" fill="rgb(50, 49, 63)" stroke="none" stroke-width="1px">800</text><text x="890.6572916666667" y="0" dx="0em" dy="0.95em" style="text-anchor: middle; visibility: inherit; font-family: Roboto, sans-serif; font-size: 12px; font-weight: 200;" fill="rgb(50, 49, 63)" stroke="none" stroke-width="1px">900</text><text x="979.7230208333332" y="0" dx="0em" dy="0.95em" style="text-anchor: middle; visibility: inherit; font-family: Roboto, sans-serif; font-size: 12px; font-weight: 200;" fill="rgb(50, 49, 63)" stroke="none" stroke-width="1px">1k</text><text x="1068.78875" y="0" dx="0em" dy="0.95em" style="text-anchor: middle; visibility: hidden; font-family: Roboto, sans-serif; font-size: 12px; font-weight: 200;" fill="rgb(50, 49, 63)" stroke="none" stroke-width="1px">1.1k</text></g><line x1="0" y1="0" x2="1068.78875" y2="0" fill="rgb(0, 0, 0)" stroke="rgb(204, 204, 204)" stroke-width="1px"></line></g></g></g></g></svg>