<svg viewBox="0 0 1143.567138671875 399.99578857421875" xmlns="http://www.w3.org/2000/svg"><g><g><g><g><g><line x1="74.78125" y1="376.996" x2="69.78125" y2="376.996" style="visibility: inherit;" fill="rgb(0, 0, 0)" stroke="rgb(204, 204, 204)" stroke-width="1px"></line><line x1="74.78125" y1="350.06771428571426" x2="69.78125" y2="350.06771428571426" style="visibility: inherit;" fill="rgb(0, 0, 0)" stroke="rgb(204, 204, 204)" stroke-width="1px"></line><line x1="74.78125" y1="323.13942857142854" x2="69.78125" y2="323.13942857142854" style="visibility: inherit;" fill="rgb(0, 0, 0)" stroke="rgb(204, 204, 204)" stroke-width="1px"></line><line x1="74.78125" y1="296.2111428571428" x2="69.78125" y2="296.2111428571428" style="visibility: inherit;" fill="rgb(0, 0, 0)" stroke="rgb(204, 204, 204)" stroke-width="1px"></line><line x1="74.78125" y1="269.28285714285715" x2="69.78125" y2="269.28285714285715" style="visibility: inherit;" fill="rgb(0, 0, 0)" stroke="rgb(204, 204, 204)" stroke-width="1px"></line><line x1="74.78125" y1="242.3545714285714" x2="69.78125" y2="242.3545714285714" style="visibility: inherit;" fill="rgb(0, 0, 0)" stroke="rgb(204, 204, 204)" stroke-width="1px"></line><line x1="74.78125" y1="215.42628571428568" x2="69.78125" y2="215.42628571428568" style="visibility: inherit;" fill="rgb(0, 0, 0)" stroke="rgb(204, 204, 204)" stroke-width="1px"></line><line x1="74.78125" y1="188.498" x2="69.78125" y2="188.498" style="visibility: inherit;" fill="rgb(0, 0, 0)" stroke="rgb(204, 204, 204)" stroke-width="1px"></line><line x1="74.78125" y1="161.56971428571424" x2="69.78125" y2="161.56971428571424" style="visibility: inherit;" fill="rgb(0, 0, 0)" stroke="rgb(204, 204, 204)" stroke-width="1px"></line><line x1="74.78125" y1="134.64142857142855" x2="69.78125" y2="134.64142857142855" style="visibility: inherit;" fill="rgb(0, 0, 0)" stroke="rgb(204, 204, 204)" stroke-width="1px"></line><line x1="74.78125" y1="107.71314285714284" x2="69.78125" y2="107.71314285714284" style="visibility: inherit;" fill="rgb(0, 0, 0)" stroke="rgb(204, 204, 204)" stroke-width="1px"></line><line x1="74.78125" y1="80.7848571428571" x2="69.78125" y2="80.7848571428571" style="visibility: inherit;" fill="rgb(0, 0, 0)" stroke="rgb(204, 204, 204)" stroke-width="1px"></line><line x1="74.78125" y1="53.8565714285714" x2="69.78125" y2="53.8565714285714" style="visibility: inherit;" fill="rgb(0, 0, 0)" stroke="rgb(204, 204, 204)" stroke-width="1px"></line><line x1="74.78125" y1="26.928285714285742" x2="69.78125" y2="26.928285714285742" style="visibility: inherit;" fill="rgb(0, 0, 0)" stroke="rgb(204, 204, 204)" stroke-width="1px"></line><line x1="74.78125" y1="0" x2="69.78125" y2="0" style="visibility: inherit;" fill="rgb(0, 0, 0)" stroke="rgb(204, 204, 204)" stroke-width="1px"></line></g><g transform="translate(64.78125, 0)"><text x="0" y="376.996" dx="0em" dy="0.3em" style="text-anchor: end; visibility: hidden; font-family: Roboto, sans-serif; font-size: 12px; font-weight: 200;" fill="rgb(50, 49, 63)" stroke="none" stroke-width="1px">-1e-4</text><text x="0" y="350.06771428571426" dx="0em" dy="0.3em" style="text-anchor: end; visibility: inherit; font-family: Roboto, sans-serif; font-size: 12px; font-weight: 200;" fill="rgb(50, 49, 63)" stroke="none" stroke-width="1px">0</text><text x="0" y="323.13942857142854" dx="0em" dy="0.3em" style="text-anchor: end; visibility: inherit; font-family: Roboto, sans-serif; font-size: 12px; font-weight: 200;" fill="rgb(50, 49, 63)" stroke="none" stroke-width="1px">1e-4</text><text x="0" y="296.2111428571428" dx="0em" dy="0.3em" style="text-anchor: end; visibility: inherit; font-family: Roboto, sans-serif; font-size: 12px; font-weight: 200;" fill="rgb(50, 49, 63)" stroke="none" stroke-width="1px">2e-4</text><text x="0" y="269.28285714285715" dx="0em" dy="0.3em" style="text-anchor: end; visibility: inherit; font-family: Roboto, sans-serif; font-size: 12px; font-weight: 200;" fill="rgb(50, 49, 63)" stroke="none" stroke-width="1px">3e-4</text><text x="0" y="242.3545714285714" dx="0em" dy="0.3em" style="text-anchor: end; visibility: inherit; font-family: Roboto, sans-serif; font-size: 12px; font-weight: 200;" fill="rgb(50, 49, 63)" stroke="none" stroke-width="1px">4e-4</text><text x="0" y="215.42628571428568" dx="0em" dy="0.3em" style="text-anchor: end; visibility: inherit; font-family: Roboto, sans-serif; font-size: 12px; font-weight: 200;" fill="rgb(50, 49, 63)" stroke="none" stroke-width="1px">5e-4</text><text x="0" y="188.498" dx="0em" dy="0.3em" style="text-anchor: end; visibility: inherit; font-family: Roboto, sans-serif; font-size: 12px; font-weight: 200;" fill="rgb(50, 49, 63)" stroke="none" stroke-width="1px">6e-4</text><text x="0" y="161.56971428571424" dx="0em" dy="0.3em" style="text-anchor: end; visibility: inherit; font-family: Roboto, sans-serif; font-size: 12px; font-weight: 200;" fill="rgb(50, 49, 63)" stroke="none" stroke-width="1px">7e-4</text><text x="0" y="134.64142857142855" dx="0em" dy="0.3em" style="text-anchor: end; visibility: inherit; font-family: Roboto, sans-serif; font-size: 12px; font-weight: 200;" fill="rgb(50, 49, 63)" stroke="none" stroke-width="1px">8e-4</text><text x="0" y="107.71314285714284" dx="0em" dy="0.3em" style="text-anchor: end; visibility: inherit; font-family: Roboto, sans-serif; font-size: 12px; font-weight: 200;" fill="rgb(50, 49, 63)" stroke="none" stroke-width="1px">9e-4</text><text x="0" y="80.7848571428571" dx="0em" dy="0.3em" style="text-anchor: end; visibility: inherit; font-family: Roboto, sans-serif; font-size: 12px; font-weight: 200;" fill="rgb(50, 49, 63)" stroke="none" stroke-width="1px">1e-3</text><text x="0" y="53.8565714285714" dx="0em" dy="0.3em" style="text-anchor: end; visibility: inherit; font-family: Roboto, sans-serif; font-size: 12px; font-weight: 200;" fill="rgb(50, 49, 63)" stroke="none" stroke-width="1px">1.1e-3</text><text x="0" y="26.928285714285742" dx="0em" dy="0.3em" style="text-anchor: end; visibility: inherit; font-family: Roboto, sans-serif; font-size: 12px; font-weight: 200;" fill="rgb(50, 49, 63)" stroke="none" stroke-width="1px">1.2e-3</text><text x="0" y="0" dx="0em" dy="0.3em" style="text-anchor: end; visibility: hidden; font-family: Roboto, sans-serif; font-size: 12px; font-weight: 200;" fill="rgb(50, 49, 63)" stroke="none" stroke-width="1px">1.3e-3</text></g><line x1="74.78125" y1="0" x2="74.78125" y2="376.996" fill="rgb(0, 0, 0)" stroke="rgb(204, 204, 204)" stroke-width="1px"></line></g></g><g transform="translate(74, 0)" clip-path="url(#clip_0)"><clipPath id="clip_0"><rect width="1068" height="376"></rect></clipPath><g><g><g><line x1="0" y1="0" x2="0" y2="376.996" fill="rgb(0, 0, 0)" stroke="rgb(60, 60, 60)" stroke-width="1px" opacity="0.25"></line><line x1="89.06572916666666" y1="0" x2="89.06572916666666" y2="376.996" fill="rgb(0, 0, 0)" stroke="rgb(60, 60, 60)" stroke-width="1px" opacity="0.25"></line><line x1="178.1314583333333" y1="0" x2="178.1314583333333" y2="376.996" fill="rgb(0, 0, 0)" stroke="rgb(60, 60, 60)" stroke-width="1px" opacity="0.25"></line><line x1="267.1971875" y1="0" x2="267.1971875" y2="376.996" fill="rgb(0, 0, 0)" stroke="rgb(60, 60, 60)" stroke-width="1px" opacity="0.25"></line><line x1="356.2629166666666" y1="0" x2="356.2629166666666" y2="376.996" fill="rgb(0, 0, 0)" stroke="rgb(60, 60, 60)" stroke-width="1px" opacity="0.25"></line><line x1="445.3286458333333" y1="0" x2="445.3286458333333" y2="376.996" fill="rgb(0, 0, 0)" stroke="rgb(60, 60, 60)" stroke-width="1px" opacity="0.25"></line><line x1="534.394375" y1="0" x2="534.394375" y2="376.996" fill="rgb(0, 0, 0)" stroke="rgb(60, 60, 60)" stroke-width="1px" opacity="0.25"></line><line x1="623.4601041666667" y1="0" x2="623.4601041666667" y2="376.996" fill="rgb(0, 0, 0)" stroke="rgb(60, 60, 60)" stroke-width="1px" opacity="0.25"></line><line x1="712.5258333333333" y1="0" x2="712.5258333333333" y2="376.996" fill="rgb(0, 0, 0)" stroke="rgb(60, 60, 60)" stroke-width="1px" opacity="0.25"></line><line x1="801.5915625" y1="0" x2="801.5915625" y2="376.996" fill="rgb(0, 0, 0)" stroke="rgb(60, 60, 60)" stroke-width="1px" opacity="0.25"></line><line x1="890.6572916666667" y1="0" x2="890.6572916666667" y2="376.996" fill="rgb(0, 0, 0)" stroke="rgb(60, 60, 60)" stroke-width="1px" opacity="0.25"></line><line x1="979.7230208333332" y1="0" x2="979.7230208333332" y2="376.996" fill="rgb(0, 0, 0)" stroke="rgb(60, 60, 60)" stroke-width="1px" opacity="0.25"></line><line x1="1068.78875" y1="0" x2="1068.78875" y2="376.996" fill="rgb(0, 0, 0)" stroke="rgb(60, 60, 60)" stroke-width="1px" opacity="0.25"></line></g><g><line x1="0" y1="376.996" x2="1068.78875" y2="376.996" fill="rgb(0, 0, 0)" stroke="rgb(60, 60, 60)" stroke-width="1px" opacity="0.25"></line><line x1="0" y1="350.06771428571426" x2="1068.78875" y2="350.06771428571426" fill="rgb(0, 0, 0)" stroke="rgb(60, 60, 60)" stroke-width="1px" opacity="0.25"></line><line x1="0" y1="323.13942857142854" x2="1068.78875" y2="323.13942857142854" fill="rgb(0, 0, 0)" stroke="rgb(60, 60, 60)" stroke-width="1px" opacity="0.25"></line><line x1="0" y1="296.2111428571428" x2="1068.78875" y2="296.2111428571428" fill="rgb(0, 0, 0)" stroke="rgb(60, 60, 60)" stroke-width="1px" opacity="0.25"></line><line x1="0" y1="269.28285714285715" x2="1068.78875" y2="269.28285714285715" fill="rgb(0, 0, 0)" stroke="rgb(60, 60, 60)" stroke-width="1px" opacity="0.25"></line><line x1="0" y1="242.3545714285714" x2="1068.78875" y2="242.3545714285714" fill="rgb(0, 0, 0)" stroke="rgb(60, 60, 60)" stroke-width="1px" opacity="0.25"></line><line x1="0" y1="215.42628571428568" x2="1068.78875" y2="215.42628571428568" fill="rgb(0, 0, 0)" stroke="rgb(60, 60, 60)" stroke-width="1px" opacity="0.25"></line><line x1="0" y1="188.498" x2="1068.78875" y2="188.498" fill="rgb(0, 0, 0)" stroke="rgb(60, 60, 60)" stroke-width="1px" opacity="0.25"></line><line x1="0" y1="161.56971428571424" x2="1068.78875" y2="161.56971428571424" fill="rgb(0, 0, 0)" stroke="rgb(60, 60, 60)" stroke-width="1px" opacity="0.25"></line><line x1="0" y1="134.64142857142855" x2="1068.78875" y2="134.64142857142855" fill="rgb(0, 0, 0)" stroke="rgb(60, 60, 60)" stroke-width="1px" opacity="0.25"></line><line x1="0" y1="107.71314285714284" x2="1068.78875" y2="107.71314285714284" fill="rgb(0, 0, 0)" stroke="rgb(60, 60, 60)" stroke-width="1px" opacity="0.25"></line><line x1="0" y1="80.7848571428571" x2="1068.78875" y2="80.7848571428571" fill="rgb(0, 0, 0)" stroke="rgb(60, 60, 60)" stroke-width="1px" opacity="0.25"></line><line x1="0" y1="53.8565714285714" x2="1068.78875" y2="53.8565714285714" fill="rgb(0, 0, 0)" stroke="rgb(60, 60, 60)" stroke-width="1px" opacity="0.25"></line><line x1="0" y1="26.928285714285742" x2="1068.78875" y2="26.928285714285742" fill="rgb(0, 0, 0)" stroke="rgb(60, 60, 60)" stroke-width="1px" opacity="0.25"></line><line x1="0" y1="0" x2="1068.78875" y2="0" fill="rgb(0, 0, 0)" stroke="rgb(60, 60, 60)" stroke-width="1px" opacity="0.25"></line></g></g></g><g><g><line x1="0" y1="350.06771428571426" x2="1068.78875" y2="350.06771428571426" fill="rgb(0, 0, 0)" stroke="rgb(153, 153, 153)" stroke-width="1.5px"></line></g></g><g><g><line x1="89.06572916666666" y1="0" x2="89.06572916666666" y2="376.996" fill="rgb(0, 0, 0)" stroke="rgb(153, 153, 153)" stroke-width="1.5px"></line></g></g><g><g><g><g><g><path stroke="rgb(255, 112, 67)" stroke-width="2px" d="M105.09756041666665,-175.03487740349607L105.98821770833332,153.8957594620564L106.878875,303.60979015825194L107.76953229166666,331.3080646638635L108.66018958333333,337.7516524154694L109.55084687499999,338.04117287694754L110.44150416666666,342.56628346756327L111.33216145833333,326.8452492297944L112.22281874999999,-926.2187324551365L114.00413333333333,-215.92289087168652L114.89479062499998,288.9600681306347L115.78544791666667,282.66555300849905L116.67610520833333,-896.6654818884795L117.5667625,134.7172820733828L118.45741979166667,244.7530515604487L119.34807708333332,291.64445698954114L120.23873437499999,39.066499179239216L121.12939166666665,326.8054325251076L122.02004895833332,344.50315787797933L122.91070625,345.43011592038L123.80136354166666,346.70275063336123L124.69202083333333,347.30150765326545L125.58267812499999,-420.9155408745929L126.47333541666666,102.32042677062906L127.36399270833333,327.44274863000953L128.25465,344.6530617365099L129.14530729166665,-67.9251909519312L130.03596458333334,175.43615389792592L130.926621875,-3691.346134710448L132.7079364583333,-133.76892460515774L133.59859375,204.8066418323035L134.48925104166665,292.39078606718533L135.37990833333333,330.328474196603L136.270565625,110.81017424679442L137.16122291666665,290.7103299026345L138.05188020833333,344.59144155559386L138.9425375,345.3198945551263L139.83319479166664,344.31369692077374L140.7238520833333,347.8822874466779L141.614509375,349.1121686619643L142.50516666666667,348.5896243136339L143.39582395833332,348.5302198455371L144.28648125,344.9962868446587L145.17713854166666,348.36878776570506L146.06779583333332,349.11844341274195L146.958453125,349.2530905810828L147.84911041666666,349.6250100213077L148.73976770833332,348.8072138271251L149.630425,348.0462866870904L150.52108229166666,349.4808690182573L151.41173958333331,349.516134290753L152.30239687499997,349.41229274323837L153.19305416666666,349.80640243591336L154.0837114583333,349.04906382855455L154.97436874999997,349.62189585126754L155.86502604166668,349.4097593804217L156.75568333333334,349.57772627625195L157.646340625,349.53670163826257L158.53699791666668,349.77463452785037L159.42765520833333,349.7632846938402L160.3183125,349.2979707663277L161.20896979166668,349.7496530209512L162.09962708333333,349.92791142769886L162.990284375,344.4467773300969L163.88094166666664,-3727.743171859988L165.66225624999998,-27.94917242341065L166.55291354166664,339.70461064287076L167.44357083333333,347.14802710964454L168.33422812499998,335.9012718706547L169.22488541666664,347.79527828763423L170.11554270833332,348.3325106420418L171.0062,348.057249285671L171.89685729166666,349.17631932798884L172.78751458333332,349.0864002549559L173.678171875,349.0061853036248L174.56882916666666,348.12971095651403L175.45948645833332,343.4341478343472L176.35014375,346.04243612984203L177.24080104166666,-99.4315878378925L178.1314583333333,82.88583090756033L179.022115625,-342.4775809382785L179.91277291666665,195.52443182073608L180.8034302083333,309.93374950034786L181.6940875,108.28411566570215L182.58474479166665,343.6568790163393L183.4754020833333,342.1401264842235L184.36605937499996,345.2500081269377L185.25671666666665,348.31141300027093L186.14737395833333,349.4391563937228L187.03803125,349.6879770614793L187.92868854166667,349.10161653477587L188.81934583333333,349.6829238365832L189.710003125,349.1401039219812L190.60066041666667,349.48032923368186L191.49131770833333,349.62111433920757L192.38197499999998,349.20513259513046L193.27263229166667,349.55681899181377L194.16328958333332,349.88987554984067L195.05394687499998,349.73668873144146L195.94460416666664,349.4759526681817L196.83526145833332,349.87126406422726L197.72591874999998,349.3105606782528L198.61657604166663,349.5025854897359L199.50723333333332,349.78660496717544L200.397890625,349.82023478302483L201.28854791666666,349.3290781791426L202.17920520833334,349.75590790329704L203.0698625,349.7259804426651L203.96051979166666,349.82318726566507L204.85117708333334,349.88772757031165L205.741834375,349.9039384044364L206.63249166666665,349.62161441753335L207.5231489583333,349.8646554686904L208.41380625,349.7718550291452L209.30446354166665,349.99629194968225L210.1951208333333,-4017.4779327127844L211.085778125,89.45671181371777L211.97643541666665,123.03392217854783L212.8670927083333,247.6275739030781L213.75775,327.66806705531127L214.64840729166664,346.96222267862345L215.53906458333333,344.0451007038435L216.429721875,348.9727094757753L217.32037916666667,349.07128322545316L218.21103645833333,349.03444305063795L219.10169374999998,349.3298254036161L219.99235104166667,349.364371432758L220.88300833333332,349.6019798760589L221.77366562499998,349.39235347083934L222.66432291666666,349.38601779836785L223.55498020833332,349.4588093647749L224.44563749999998,349.76931857432294L225.33629479166666,349.75415329728787L226.22695208333332,349.5037953517152L227.11760937499997,349.89917549131025L228.00826666666666,349.6513015895348L228.8989239583333,349.8502940977951L229.78958124999997,349.73450776541745L230.68023854166665,349.7191576415546L231.57089583333334,349.6991621926188L232.461553125,349.85655770510715L233.35221041666665,349.8734899561738L234.24286770833334,349.9605085902245L235.133525,349.8722702977411L236.02418229166665,349.88171045094816L236.91483958333333,349.8822039472818L237.805496875,349.80703553170616L238.69615416666664,349.92964931850963L239.5868114583333,350.01114192251134L240.47746874999999,349.88042654921185L241.36812604166664,349.9601045936756L242.2587833333333,349.9786715666545L243.14944062499998,350.0186504409104L244.04009791666664,-693.0633326261204L244.9307552083333,151.8571723958778L245.8214125,281.7835195415222L246.71206979166666,314.520194215444L247.60272708333332,348.17809502695593L248.493384375,349.7623627251314L249.38404166666666,348.3633567344656L250.27469895833332,346.5838990825959L251.16535624999997,348.8695326176153L252.05601354166666,349.6467714034018L252.94667083333331,349.9185039701546L253.83732812499997,349.401236588529L254.72798541666666,349.7634054351268L255.6186427083333,349.92575043725526L256.5093,347.530042988911L257.3999572916667,349.8605562805805L258.2906145833333,349.62563359617246L259.181271875,349.6462331189083L260.0719291666667,347.4250367655578L260.9625864583333,349.83706648268276L261.85324375,349.9282175209428L262.7439010416666,349.83587629014477L263.6345583333333,349.65886837004365L264.525215625,349.9983114961782L265.4158729166666,349.8776542753909L266.3065302083333,349.99373039144854L267.1971875,350.00315841389113L268.08784479166667,349.9656161395154L268.9785020833333,349.9047565307404L269.869159375,350.02230566600343L270.75981666666667,350.03848955222816L271.6504739583333,349.9546878361748L272.54113125,349.96803208265544L273.43178854166666,349.85761902836373L274.3224458333333,349.99421138199733L275.213103125,350.03301715776087L276.10376041666666,350.0525332712127L276.9944177083333,350.00092172288566L277.885075,349.988390872859L278.7757322916666,350.02275141228085L279.6663895833333,350.0288260360598L280.55704687499997,350.0352124051769L281.4477041666666,350.001864547325L282.33836145833334,350.00237997087635L283.22901875,350.00098923422496L284.11967604166665,350.0278788146967L285.01033333333334,350.03299696022947L285.900990625,350.0379434803197L286.79164791666665,350.05353649786593L287.68230520833333,350.056646183924L288.5729625,350.0490113104114L289.46361979166664,350.059165233778L290.35427708333333,350.0057441839061L291.244934375,350.0520652992319L292.13559166666664,350.05776077539525L293.0262489583333,-1569.4008752058958L293.91690625,222.72716057464555L294.80756354166664,335.62474542479913L295.6982208333333,342.44775813869194L296.588878125,347.2332395991576L297.47953541666664,340.3032689635082L298.3701927083333,349.77534743412343L299.26085,349.7973500538794L300.15150729166663,346.62261564558L301.0421645833333,349.6918799684637L301.93282187499995,349.3042190054537L302.82347916666663,349.74221414538545L303.7141364583333,349.79332637499454L304.60479374999994,349.673698179782L305.4954510416666,349.7422331872415L306.3861083333333,349.5586492754245L307.27676562499994,349.68040265810527L308.1674229166666,349.9733132664271L309.0580802083333,349.808369104522L309.94873749999994,349.7802054340742L310.8393947916666,349.84302708875646L311.73005208333336,349.88790673825787L312.620709375,349.9610210059585L313.5113666666667,349.9046559793318L314.40202395833336,350.00387484076464L315.29268125,349.98142963561816L316.18333854166667,350.00004977731646L317.07399583333336,349.93187490431694L317.964653125,349.8093471273118L318.85531041666667,349.9689650111462L319.74596770833335,349.98339719203034L320.636625,350.00563326585996L321.52728229166667,350.00967779664865L322.41793958333335,349.9270687337268L323.308596875,349.9371286197521L324.19925416666666,350.0063916988536L325.0899114583333,349.9642852913381L325.98056875,350.0333064784053L326.87122604166666,350.02828215687305L327.7618833333333,349.6561880604279L328.652540625,350.0498586404784L329.54319791666666,350.04025080145726L330.4338552083333,350.0441182728333L331.32451249999997,350.0476180806392L332.21516979166665,350.0321369655679L333.1058270833333,350.0342447337176L333.99648437499997,350.03292845776457L334.88714166666665,350.0244794875047L335.7777989583333,350.01851968504633L336.66845624999996,350.03726379014597L337.55911354166665,350.0375199348718L338.4497708333333,350.04872139662234L339.34042812499996,350.0579614343108L340.23108541666664,350.0574934221492L341.1217427083333,350.0569806208712L342.0124,350.0568468122257L342.9030572916667,350.0479745701298L343.7937145833333,350.05890884414083L344.684371875,350.0513295320166L345.57502916666664,349.98649382794986L346.4656864583333,350.06129409682956L347.35634375,350.0492007321063L348.24700104166664,350.06103775024326L349.1376583333333,350.05253358883203L350.028315625,350.0558994033523L350.91897291666663,350.0607591219875L351.8096302083333,350.05893113107203L352.7002875,350.0612049414513L353.59094479166663,350.0537259319977L354.4816020833333,350.02970698212044L355.372259375,350.029084268272L356.2629166666666,350.0573484413376L357.1535739583333,350.0583292605173L358.04423125,350.05419411636257L358.9348885416666,350.04016154084366L359.8255458333333,350.0662318439998L360.716203125,350.0643927295896L361.6068604166666,350.04639198754404L362.4975177083333,350.0626539282539L363.388175,350.0651283721966L364.2788322916666,350.05844070282683L365.1694895833333,350.039016620548L366.060146875,350.0628322696244L366.9508041666666,350.0655630745037L367.8414614583333,350.06330040567667L368.7321187499999,350.0577608586268L369.6227760416666,350.065128375545L370.5134333333333,350.06520639893785L371.4040906249999,350.06555192984223L372.29474791666667,350.0640806388881L373.18540520833335,350.06520639822037L374.0760625,350.0581509449774L374.96671979166666,350.06530671524126L375.85737708333335,350.06103775024326L376.748034375,350.06659966829295L377.63869166666666,350.0636236412788L378.52934895833334,350.0609263500279L379.42000625,350.0649946250181L380.31066354166666,350.06532900647755L381.20132083333334,350.06700093015803L382.09197812499997,350.0654627782907L382.98263541666665,350.065875168434L383.87329270833334,350.0665550846245L384.76394999999997,350.06683373811285L385.65460729166665,350.0627988449677L386.54526458333333,350.06432585492405L387.43592187499996,350.06659966781456L388.32657916666665,350.0645487768537L389.21723645833333,350.0668114449632L390.10789374999996,350.0654962048607L390.99855104166664,350.06575256101394L391.8892083333333,-29.03352224340188L392.77986562499996,307.2343603121883L393.67052291666664,346.74827622119346L394.56118020833327,348.42583741134615L395.45183749999995,347.9457743417653L396.34249479166664,349.4335129631308L397.23315208333327,349.4243763622127L398.12380937499995,349.36894974396773L399.01446666666664,349.50540723564575L399.90512395833326,348.9099253537546L400.79578125,349.3116971280604L401.6864385416667,349.35718138710536L402.5770958333333,349.7053929818124L403.467753125,349.2974006127472L404.3584104166667,349.7750840932139L405.2490677083333,349.85442823169063L406.139725,349.8092492852347L407.0303822916667,349.80664881671316L407.9210395833333,349.93994356937253L408.811696875,349.3605175692678L409.7023541666667,349.89524330211475L410.5930114583333,349.91419187756253L411.48366875,349.9308573589609L412.3743260416666,349.9509775596064L413.2649833333333,349.8955816624267L414.155640625,349.8398228219601L415.0462979166666,349.8915446817951L415.9369552083333,349.82119844788787L416.8276125,349.94639784781L417.7182697916666,350.00733691500517L418.6089270833333,349.8212297506175L419.499584375,349.7923229120401L420.3902416666666,349.8874886440005L421.2808989583333,349.88405784952914L422.17155625,350.0121292404516L423.0622135416666,349.7184432658135L423.9528708333333,350.0147382196419L424.843528125,349.8410946618134L425.7341854166666,349.9316448101207L426.6248427083333,349.99769891936285L427.5155,349.97986561654596L428.4061572916666,349.95390907936735L429.2968145833333,132.02242668379841L430.187471875,241.60050587390361L431.07812916666666,222.37653375622563L431.96878645833334,334.6813283612529L432.85944375,-134.08310078023584L433.75010104166665,349.59941268486455L434.64075833333334,349.6802917744998L435.53141562499997,349.26053931432966L436.42207291666665,349.9344266354835L437.31273020833333,349.37943207142655L438.20338749999996,349.8725178571768L439.09404479166665,349.8153194432085L439.98470208333333,349.85806210357697L440.87535937499996,349.6874556758677L441.76601666666664,349.9619442910657L442.65667395833333,349.8244840558603L443.54733124999996,349.9787960887598L444.43798854166664,349.8676294423L445.3286458333333,349.94550273515944L446.21930312499995,349.80310335781763L447.10996041666664,349.9555107382498L448.0006177083333,349.96633930145055L448.89127499999995,349.8553951110149L449.78193229166664,349.94254334142755L450.6725895833333,349.8282590579016L451.56324687499995,349.9639047603563L452.45390416666663,350.0266190941276L453.3445614583333,350.02933888038865L454.23521874999994,349.95265982493095L455.12587604166663,350.0366175265423L456.0165333333333,349.9281258628768L456.90719062499994,350.0185610176603L457.7978479166666,350.04537769874344L458.68850520833325,349.8969351189813L459.57916249999994,350.0025821375273L460.4698197916667,211.3070039492135L461.3604770833333,315.7778746425025L462.251134375,298.99508855333227L463.1417916666667,341.4789765881513L464.0324489583333,342.49998939879015L464.92310625,349.23428292149254L465.8137635416667,347.0398127927554L466.7044208333333,349.68791338453303L467.595078125,349.7232322007686L468.48573541666667,349.7322176301672L469.3763927083333,349.95481584826655L470.26705,348.8718442132209L471.15770729166667,347.43093423042876L472.0483645833333,349.47436496924513L472.939021875,349.25271898936455L473.82967916666666,349.9746063982593L474.7203364583333,349.1246600583061L475.61099375,349.6951876796838L476.50165104166666,350.01879529830967L477.3923083333333,303.99162455822153L478.282965625,349.88057224084037L479.1736229166666,290.74653759393516L480.0642802083333,148.44976218095658L480.95493749999997,345.10870898314033L481.8455947916666,334.93800719277533L482.7362520833333,349.90053657073L483.62690937499997,349.9510605692409L484.5175666666666,349.5917210301904L485.4082239583333,349.8258718918431L486.29888124999997,349.9504160161898L487.1895385416666,350.0311221486772L488.0801958333333,349.8009897730238L488.97085312499996,350.0394259860125L489.8615104166666,350.0089308209133L490.75216770833333,349.9972770595938L491.642825,349.9443929194591L492.53348229166664,350.0026513785529L493.42413958333333,349.59121531890406L494.314796875,350.0062488964134L495.20545416666664,349.91399233605495L496.0961114583333,349.94596384962296L496.98676875,350.03823385140413L497.87742604166664,350.0556207401776L498.7680833333333,349.96882410294216L499.658740625,349.9952058444603L500.54939791666663,350.04672626663825L501.4400552083333,350.0524663912854L502.33071249999995,350.0384336014691L503.22136979166663,350.03864555117974L504.1120270833333,349.9992917920513L505.00268437499994,349.9721530602203L505.89334166666663,349.98465050281067L506.7839989583333,350.00030590864867L507.67465624999994,350.0328168394251L508.5653135416666,350.03526825261406L509.4559708333333,350.03364092396265L510.34662812499994,350.04882198055833L511.2372854166666,350.01721286114L512.1279427083333,350.05777196286834L513.0186,349.98346705298775L513.9092572916667,350.02966259194153L514.7999145833334,349.9882138402334L515.6905718749999,349.9859083138367L516.5812291666666,350.0366398000799L517.4718864583333,350.0557879438225L518.36254375,350.042624960428L519.2532010416667,350.0488216418919L520.1438583333334,350.0563786804785L521.0345156249999,350.0492453633698L521.9251729166666,350.05970029807014L522.8158302083333,350.0556765187334L523.7064875,350.05556504389665L524.5971447916667,350.0380325993439L525.4878020833332,350.0553755935012L526.3784593749999,350.06001230267003L527.2691166666666,350.0346688857037L528.1597739583333,350.0669229068249L529.05043125,350.02811394870895L529.9410885416667,350.05684694903164L530.8317458333332,350.0541384602624L531.7224031249999,350.06468253025065L532.6130604166666,350.0614835921892L533.5037177083333,350.0602909835435L534.394375,350.05387082096763L535.2850322916667,350.0549408911941L536.1756895833333,350.0574933150005L537.0663468749999,350.0579170900528L537.9570041666666,350.0535253639672L538.8476614583333,350.0158984870766L539.73831875,350.0587305257308L540.6289760416666,350.0654404660073L541.5196333333333,350.06336729325744L542.4102906249999,350.0620074642248L543.3009479166666,350.0535364586419L544.1916052083333,350.0441515157199L545.0822625,350.06471596806176L545.9729197916666,350.0658305828522L546.8635770833333,350.04522174571275L547.7542343749999,350.06539588138224L548.6448916666666,350.06451533378083L549.5355489583333,350.0625759082094L550.42620625,350.06361252220864L551.3168635416666,350.062375276081L552.2075208333333,350.0600346503507L553.0981781249999,350.06561880618193L553.9888354166666,350.0645822144256L554.8794927083333,350.06695634547316L555.77015,350.06604236000084L556.6608072916666,350.06602006720993L557.5514645833332,350.063099777375L558.4421218749999,350.06610923550346L559.3327791666666,350.061060084052L560.2234364583333,350.0652175450344L561.1140937499999,350.06620955324183L562.0047510416666,350.0665550830699L562.8954083333332,350.0643481612281L563.7860656249999,350.06591975174365L564.6767229166667,350.06070339987605L565.5673802083334,350.065496199599L566.4580375,350.0565127120316L567.3486947916667,350.06348990581967L568.2393520833333,350.066532792312L569.130009375,350.0645153476528L570.0206666666667,350.0661092361014L570.9113239583334,350.0672127075159L571.80198125,350.06240878683934L572.6926385416667,350.0610823848551L573.5832958333333,350.0645487778104L574.473953125,350.0664993531854L575.3646104166667,350.0654739083627L576.2552677083333,350.0662987221333L577.145925,350.0668225913587L578.0365822916667,350.06561880713866L578.9272395833333,350.06681144556114L579.817896875,350.0667668603979L580.7085541666667,350.0553314367534L581.5992114583333,350.06593089963394L582.48986875,350.06675571412205L583.3805260416666,350.06355680488065L584.2711833333333,350.06579714504113L585.161840625,350.06688946823647L586.0524979166667,350.067156976585L586.9431552083333,350.0670900995876L587.8338125,350.0672572922008L588.7244697916666,350.06722385370205L589.6151270833333,350.0664547679624L590.505784375,350.0663544527353L591.3964416666666,350.06652164561757L592.2870989583333,350.06698978406155L593.17775625,350.06707895325195L594.0684135416666,350.0673576077867L594.9590708333333,350.0673018768558L595.849728125,350.0669674921078L596.7403854166666,350.0667780067933L597.6310427083333,350.06719041511366L598.5217,350.06741333871753L599.4123572916666,350.0667111297959L600.3030145833333,350.06706780733487L601.193671875,350.0671792689574L602.0843291666666,350.0672350000377L602.9749864583333,350.0674467772462L603.8656437499999,350.0670566609992L604.7563010416666,350.06741333871753L605.6469583333333,350.06719041541265L606.537615625,350.0671012456841L607.4282729166666,350.065942043817L608.3189302083333,350.0673687540924L609.2095874999999,350.06726843868597L610.1002447916666,350.06716812274135L610.9909020833333,350.0673353156535L611.8815593749999,350.0661649677796L612.7722166666666,350.06755823912283L613.6628739583333,350.06720156138954L614.5535312499999,350.0673799001889L615.4441885416666,350.0674802158943L616.3348458333332,350.06698978394195L617.2255031249999,350.0671792691966L618.1161604166666,350.0674467774554L619.0068177083333,350.06740219265095L619.8974749999999,350.0673799002487L620.7881322916666,350.06756938527906L621.6787895833332,350.0672127076056L622.5694468749999,350.0675916776813L623.4601041666667,350.0676585547834L624.3507614583332,350.0675582391527L625.24141875,350.06730187700526L626.1320760416667,350.0674690696484L627.0227333333333,350.0667668606371L627.913390625,350.06768084715577L628.8040479166667,350.0671235380564L629.6947052083333,350.0675470929815L630.5853625,350.0676139700537L631.4760197916667,350.0675916776813L632.3666770833333,350.0675916776813L633.257334375,350.0672684390447L634.1479916666667,350.06760282385255L635.0386489583333,350.0674690696484L635.92930625,350.06756938527906L636.8199635416667,350.0674579235818L637.7106208333333,350.06748021586446L638.601278125,350.0675470929516L639.4919354166667,350.0675470929516L640.3825927083333,350.0672127077551L641.27325,350.06760282385255L642.1639072916666,350.06732416925803L643.0545645833333,350.0676474085972L643.945221875,350.06763626241855L644.8358791666667,350.06758053148025L645.7265364583333,350.0674690697082L646.61719375,350.06753594682516L647.5078510416666,350.0674802158196L648.3985083333333,350.06756938527906L649.289165625,350.06768084715577L650.1798229166666,350.06762511623236L651.0704802083333,350.06762511623236L651.9611375,350.0675693853837L652.8517947916666,350.0676474085972L653.7424520833333,350.0676251162249L654.633109375,350.06751365439305L655.5237666666666,350.0674802159093L656.4144239583333,350.0675248006241L657.30508125,350.0676585547834L658.1957385416666,350.06763626241855L659.0863958333333,350.0676474085972L659.977053125,350.0676139700537L660.8677104166666,350.06751365439305L661.7583677083333,350.0674690698278L662.6490249999999,350.06766970097334L663.5396822916666,350.0676474085972L664.4303395833333,350.0675248006241L665.320996875,350.06771428571426L666.2116541666666,350.0675916776813L667.1023114583332,350.06771428571426L667.9929687499999,350.0675470929516L668.8836260416666,350.06750250823677L669.7742833333333,350.0676474085972L670.6649406249999,350.0675470929815L671.5555979166666,350.067569385309L672.4462552083332,350.06768084715577L673.3369124999999,350.06770313952813L674.2275697916666,350.06768084715577L675.1182270833333,350.0676474085972L676.0088843749999,350.0676474085972L676.8995416666666,350.0675470929516L677.7901989583332,350.0676585547834L678.6808562499999,350.0676585547834L679.5715135416666,350.06758053148025L680.4621708333333,350.0674579235818L681.3528281249999,350.06770313952813L682.2434854166665,350.0674579235818L683.1341427083333,350.0676585547834L684.0248,350.06769199334195L684.9154572916667,350.06770313952813L685.8061145833334,350.06769199334195L686.696771875,350.0676697009696L687.5874291666667,350.06771428571426L688.4780864583333,350.06769199334195L689.36874375,350.06768084715577L690.2594010416667,350.0676585547834L691.1500583333333,350.06771428571426L692.040715625,350.0676474085972L692.9313729166666,350.06771428571426L693.8220302083333,350.06760282385255L694.7126875,350.06766970097334L695.6033447916667,350.06766970097334L696.4940020833333,350.0675025082817L697.384659375,350.06769199334195L698.2753166666666,350.06768084715577L699.1659739583333,350.06769199334195L700.05663125,350.06770313952813L700.9472885416667,350.06769199334195L701.8379458333333,350.06758053155494L702.728603125,350.06770313952813L703.6192604166666,350.06769199334195L704.5099177083333,350.06768084715577L705.400575,350.06768084715577L706.2912322916667,350.06771428571426L707.1818895833333,350.06766970097334L708.072546875,350.06769199334195L708.9632041666666,350.06770313952813L709.8538614583333,350.06770313952813L710.74451875,350.0676585547834L711.6351760416667,350.06769199334195L712.5258333333333,350.06770313952813L713.4164906249999,350.06770313952813L714.3071479166666,350.06770313952813L715.1978052083333,350.06770313952813L716.0884625,350.06768084715577L716.9791197916666,350.06770313952813L717.8697770833332,350.06771428571426L718.7604343749999,350.0676585547834L719.6510916666666,350.06768084715577L720.5417489583333,350.06771428571426L721.43240625,350.0676585547834L722.3230635416666,350.06768084715577L723.2137208333332,350.06763626241855L724.1043781249999,350.06771428571426L724.9950354166666,350.0676697009696L725.8856927083333,350.06771428571426L726.77635,350.06771428571426L727.6670072916666,350.06771428571426L728.5576645833332,350.06770313952813L729.4483218749999,350.0676697009696L730.3389791666666,350.06771428571426L731.2296364583333,350.06771428571426L732.12029375,350.06771428571426L733.0109510416665,350.0676919933438L733.9016083333332,350.06771428571426L734.7922656249999,350.06770313952813L735.6829229166666,350.06771428571426L736.5735802083333,350.06771428571426L737.4642374999999,350.06771428571426L738.3548947916665,350.0676919933438L739.2455520833332,350.06771428571426L740.1362093749999,350.06771428571426L741.0268666666666,350.06761397006863L741.9175239583334,350.06771428571426L742.8081812499998,350.06771428571426L743.6988385416666,350.06771428571426L744.5894958333333,350.06770313952813L745.480153125,350.06768084715577L746.3708104166667,350.06768084715577L747.2614677083334,350.0676919933438L748.152125,350.06771428571426L749.0427822916666,350.06770313952813L749.9334395833333,350.0676697009696L750.824096875,350.06771428571426L751.7147541666667,350.06770313952813L752.6054114583334,350.06768084715577L753.49606875,350.06770313952813L754.3867260416666,350.06771428571426L755.2773833333333,350.06770313952813L756.168040625,-641.9818352256534L757.0586979166667,346.67640601121684L757.9493552083333,49.155529408127066L758.8400125,339.93384569019145L759.7306697916666,349.3271502371383L760.6213270833333,349.5184905214488L761.511984375,349.37255900226523L762.4026416666667,350.03735264129847L763.2932989583333,350.0190519653855L764.1839562499999,349.861634135352L765.0746135416666,349.87710983750026L765.9652708333333,349.8541411956097L766.855928125,349.93395155342057L767.7465854166667,349.8482503433447L768.6372427083332,349.87807015013937L769.5278999999999,349.69602959300096L770.4185572916666,349.99970659531266L771.3092145833333,349.9271499524472L772.199871875,350.0540603354609L773.0905291666667,349.76089662467115L773.9811864583332,349.90180611453957L774.8718437499999,350.0139151721508L775.7625010416666,349.9344211708994L776.6531583333333,350.0105631319796L777.543815625,349.9594074306091L778.4344729166667,350.0083186076382L779.3251302083332,349.932056322386L780.2157874999999,350.01035820624946L781.1064447916666,350.04178873747253L781.9971020833333,350.03542632757177L782.887759375,350.0285476560637L783.7784166666665,349.9733500873152L784.6690739583332,350.00504748387505L785.5597312499999,350.002784954724L786.4503885416666,350.050694450146L787.3410458333333,350.05695831671966L788.231703125,350.04923434809996L789.1223604166665,350.02853766062L790.0130177083332,349.99927345431536L790.9036749999999,349.9736897027977L791.7943322916666,350.001605561245L792.6849895833333,350.05991200860956L793.575646875,350.02844866213803L794.4663041666665,350.05426097715616L795.3569614583332,350.0490562669478L796.2476187499999,350.0146837268706L797.1382760416666,350.05589944353306L798.0289333333333,350.051976112283L798.919590625,350.00756874271445L799.8102479166665,350.0405182293247L800.7009052083332,350.0140148357559L801.5915625,350.04332702172115L802.4822197916667,350.05548700902347L803.3728770833334,-428.7917639122774L804.263534375,301.194168954208L805.1541916666666,349.8711537163653L806.0448489583333,346.0854283548575L806.93550625,349.39748228149523L807.8261635416667,349.9561056891027L808.7168208333334,349.6718656307414L809.607478125,349.9931563805145L810.4981354166666,349.86863409919715L811.3887927083333,349.88770555890574L812.27945,349.9931079339917L813.1701072916667,349.82043700325016L814.0607645833334,350.04468665272003L814.9514218749999,350.01262294342916L815.8420791666666,349.8710852177272L816.7327364583333,350.04437470839133L817.62339375,350.01469492391055L818.5140510416667,350.0370629341533L819.4047083333334,350.03326302577756L820.2953656249999,349.8838462155245L821.1860229166666,350.0317580150294L822.0766802083333,349.93210178405195L822.9673375,350.05056097729687L823.8579947916667,350.0219177991618L824.7486520833332,349.94705081968806L825.6393093749999,350.0350691550082L826.5299666666666,350.06040244594334L827.4206239583333,350.0128909223471L828.31128125,350.05693595995047L829.2019385416667,349.9217270645096L830.0925958333332,350.05983401152554L830.9832531249999,349.9988661667705L831.8739104166666,350.00967370203733L832.7645677083333,350.0570586605277L833.655225,350.0144236999175L834.5458822916667,350.0599232912728L835.4365395833332,349.99618199214774L836.3271968749999,350.0373640411556L837.2178541666666,350.04468664889333L838.1085114583333,350.0573372777816L838.99916875,350.04557857386976L839.8898260416667,350.00145344069404L840.7804833333332,350.0432044799536L841.6711406249999,350.0626204978571L842.5617979166666,350.06015722416726L843.4524552083333,350.03841186558833L844.3431125,350.04979146015205L845.2337697916666,350.0506277845161L846.1244270833332,350.06161736448064L847.0150843749999,350.0562784409491L847.9057416666666,350.0410086068656L848.7963989583333,350.0519762691793L849.68705625,350.05671308585505L850.5777135416665,350.0611157889431L851.4683708333332,350.0232882579203L852.3590281249999,350.0576048673288L853.2496854166666,350.05243333973584L854.1403427083333,350.0412110643488L855.031,350.05537555332046L855.9216572916665,350.0318290699296L856.8123145833332,350.04297199213175L857.7029718749999,349.9763278953178L858.5936291666666,350.05751560862853L859.4842864583333,350.06700093027763L860.37494375,349.9842584992636L861.2656010416665,350.05875282605564L862.1562583333333,350.05981173798796L863.046915625,350.05617826743094L863.9375729166667,350.0617399579092L864.8282302083334,350.06661081438943L865.7188875,350.0418458362536L866.6095447916666,350.0647939916938L867.5002020833333,350.06408063984475L868.390859375,350.05329121916714L869.2815166666667,350.0603244455109L870.1721739583334,350.0604136094993L871.0628312499999,350.0498363497205L871.9534885416666,350.063902300866L872.8441458333333,350.06554078207154L873.734803125,350.0666999844767L874.6254604166667,350.0655296383668L875.5161177083334,350.0668448834918L876.4067749999999,350.06549620390405L877.2974322916666,350.06473828752024L878.1880895833333,350.06214127334863L879.078746875,350.0650392180142L879.9694041666667,350.0599900320025L880.8600614583333,350.06702322247054L881.7507187499999,350.0666553991341L882.6413760416666,350.0616953682615L883.5320333333333,350.06562995443096L884.422690625,350.0649500372837L885.3133479166667,350.06523983961904L886.2040052083333,350.06519525714646L887.0946624999999,350.0642032502545L887.9853197916666,350.06501692558203L888.8759770833333,350.0643147270046L889.766634375,350.0601238148175L890.6572916666667,350.0659754843786L891.5479489583332,350.06493890649426L892.4386062499999,350.0652732738426L893.3292635416666,350.0651172325577L894.2199208333333,350.0616284988578L895.110578125,350.06581943651656L896.0012354166666,350.06635445297445L896.8918927083332,350.0604137687874L897.7825499999999,350.0655630745037L898.6732072916666,350.0651060895705L899.5638645833333,350.0655296424327L900.454521875,350.0649612070582L901.3451791666666,350.0669451999148L902.2358364583332,350.0676585547834L903.1264937499999,350.065161824358L904.0171510416666,350.0667111293176L904.9078083333333,350.06637674552616L905.798465625,350.0673353155638L906.6891229166666,350.06743563106L907.5797802083332,350.0614168232373L908.4704374999999,350.0661315388179L909.3610947916666,350.0669340531606L910.2517520833333,350.0658640226963L911.1424093749999,350.0675916776813L912.0330666666666,350.06651049928195L912.9237239583332,350.06741333871753L913.8143812499999,350.06586402293544L914.7050385416666,350.06589746170323L915.5956958333333,350.0666331075391L916.4863531249999,350.06760282385255L917.3770104166665,350.06591975305906L918.2676677083332,350.066064653868L919.1583249999999,350.0669451994963L920.0489822916666,350.06674457065645L920.9396395833334,-137.40351849008402L921.830296875,180.78128689611674L922.7209541666666,348.09120930322354L923.6116114583333,349.78152275090036L924.50226875,349.3645213184931L925.3929260416667,349.938802711161L926.2835833333334,350.03297445134734L927.174240625,348.86330342034535L928.0648979166666,350.0243350701804L928.9555552083333,349.998171529352L929.8462125,349.7390162462837L930.7368697916667,350.01685064876045L931.6275270833333,349.1752131247307L932.518184375,350.05108435663976L933.4088416666666,349.96037993524044L934.2994989583333,350.05652364980995L935.19015625,350.0175161264234L936.0808135416667,349.98718694232593L936.9714708333333,350.03838930121856L937.8621281249999,349.88534208801855L938.7527854166666,350.0228648062275L939.6434427083333,350.04624717989236L940.5341,350.0522771188334L941.4247572916667,349.9542966821639L942.3154145833333,349.9955589912939L943.2060718749999,349.97378656522943L944.0967291666666,350.0367740861112L944.9873864583333,350.0302314597376L945.87804375,350.0602909782817L946.7687010416666,350.020637092753L947.6593583333333,350.036776087496L948.5500156249999,350.04522159264314L949.4406729166666,350.0505159097851L950.3313302083333,350.0327053129273L951.2219875,350.0382118706121L952.1126447916666,350.03506843175444L953.0033020833333,350.0231688445123L953.8939593749999,350.041979186647L954.7846166666666,350.0528566622761L955.6752739583333,350.04247050747927L956.56593125,350.03926161798154L957.4565885416666,350.02843644335866L958.3472458333332,350.0409749870452L959.2379031249999,350.0326499667931L960.1285604166666,350.025997558915L961.0192177083333,350.03372099083447L961.9098749999999,350.06497233115095L962.8005322916666,350.06162849981445L963.6911895833332,350.0504380930361L964.5818468749999,350.05617811436133L965.4725041666666,350.0537037369083L966.3631614583333,350.0662541367907L967.2538187499999,350.05683571659426L968.1444760416666,350.06457107024255L969.0351333333332,350.02281061959536L969.9257906249999,350.04978035686725L970.8164479166666,350.0600011883833L971.7071052083332,350.0538485713471L972.5977624999999,350.06161740179135L973.4884197916666,350.0446982343473L974.3790770833332,350.06210779798766L975.2697343749999,350.06185141361226L976.1603916666666,330.7406854388846L977.0510489583332,341.4217251355728L977.9417062499999,349.8480785839663L978.8323635416667,347.822839384364" style="fill: none;" fill="none"></path></g></g></g></g></g></g><g transform="translate(74, 376)" clip-path="url(#clip_1)"><clipPath id="clip_1"><rect width="1068" height="22"></rect></clipPath><g><g><line x1="0" y1="0" x2="0" y2="5" style="visibility: inherit;" fill="rgb(0, 0, 0)" stroke="rgb(204, 204, 204)" stroke-width="1px"></line><line x1="89.06572916666666" y1="0" x2="89.06572916666666" y2="5" style="visibility: inherit;" fill="rgb(0, 0, 0)" stroke="rgb(204, 204, 204)" stroke-width="1px"></line><line x1="178.1314583333333" y1="0" x2="178.1314583333333" y2="5" style="visibility: inherit;" fill="rgb(0, 0, 0)" stroke="rgb(204, 204, 204)" stroke-width="1px"></line><line x1="267.1971875" y1="0" x2="267.1971875" y2="5" style="visibility: inherit;" fill="rgb(0, 0, 0)" stroke="rgb(204, 204, 204)" stroke-width="1px"></line><line x1="356.2629166666666" y1="0" x2="356.2629166666666" y2="5" style="visibility: inherit;" fill="rgb(0, 0, 0)" stroke="rgb(204, 204, 204)" stroke-width="1px"></line><line x1="445.3286458333333" y1="0" x2="445.3286458333333" y2="5" style="visibility: inherit;" fill="rgb(0, 0, 0)" stroke="rgb(204, 204, 204)" stroke-width="1px"></line><line x1="534.394375" y1="0" x2="534.394375" y2="5" style="visibility: inherit;" fill="rgb(0, 0, 0)" stroke="rgb(204, 204, 204)" stroke-width="1px"></line><line x1="623.4601041666667" y1="0" x2="623.4601041666667" y2="5" style="visibility: inherit;" fill="rgb(0, 0, 0)" stroke="rgb(204, 204, 204)" stroke-width="1px"></line><line x1="712.5258333333333" y1="0" x2="712.5258333333333" y2="5" style="visibility: inherit;" fill="rgb(0, 0, 0)" stroke="rgb(204, 204, 204)" stroke-width="1px"></line><line x1="801.5915625" y1="0" x2="801.5915625" y2="5" style="visibility: inherit;" fill="rgb(0, 0, 0)" stroke="rgb(204, 204, 204)" stroke-width="1px"></line><line x1="890.6572916666667" y1="0" x2="890.6572916666667" y2="5" style="visibility: inherit;" fill="rgb(0, 0, 0)" stroke="rgb(204, 204, 204)" stroke-width="1px"></line><line x1="979.7230208333332" y1="0" x2="979.7230208333332" y2="5" style="visibility: inherit;" fill="rgb(0, 0, 0)" stroke="rgb(204, 204, 204)" stroke-width="1px"></line><line x1="1068.78875" y1="0" x2="1068.78875" y2="5" style="visibility: inherit;" fill="rgb(0, 0, 0)" stroke="rgb(204, 204, 204)" stroke-width="1px"></line></g><g transform="translate(0, 8)"><text x="0" y="0" dx="0em" dy="0.95em" style="text-anchor: middle; visibility: hidden; font-family: Roboto, sans-serif; font-size: 12px; font-weight: 200;" fill="rgb(50, 49, 63)" stroke="none" stroke-width="1px">-100</text><text x="89.06572916666666" y="0" dx="0em" dy="0.95em" style="text-anchor: middle; visibility: inherit; font-family: Roboto, sans-serif; font-size: 12px; font-weight: 200;" fill="rgb(50, 49, 63)" stroke="none" stroke-width="1px">0</text><text x="178.1314583333333" y="0" dx="0em" dy="0.95em" style="text-anchor: middle; visibility: inherit; font-family: Roboto, sans-serif; font-size: 12px; font-weight: 200;" fill="rgb(50, 49, 63)" stroke="none" stroke-width="1px">100</text><text x="267.1971875" y="0" dx="0em" dy="0.95em" style="text-anchor: middle; visibility: inherit; font-family: Roboto, sans-serif; font-size: 12px; font-weight: 200;" fill="rgb(50, 49, 63)" stroke="none" stroke-width="1px">200</text><text x="356.2629166666666" y="0" dx="0em" dy="0.95em" style="text-anchor: middle; visibility: inherit; font-family: Roboto, sans-serif; font-size: 12px; font-weight: 200;" fill="rgb(50, 49, 63)" stroke="none" stroke-width="1px">300</text><text x="445.3286458333333" y="0" dx="0em" dy="0.95em" style="text-anchor: middle; visibility: inherit; font-family: Roboto, sans-serif; font-size: 12px; font-weight: 200;" fill="rgb(50, 49, 63)" stroke="none" stroke-width="1px">400</text><text x="534.394375" y="0" dx="0em" dy="0.95em" style="text-anchor: middle; visibility: inherit; font-family: Roboto, sans-serif; font-size: 12px; font-weight: 200;" fill="rgb(50, 49, 63)" stroke="none" stroke-width="1px">500</text><text x="623.4601041666667" y="0" dx="0em" dy="0.95em" style="text-anchor: middle; visibility: inherit; font-family: Roboto, sans-serif; font-size: 12px; font-weight: 200;" fill="rgb(50, 49, 63)" stroke="none" stroke-width="1px">600</text><text x="712.5258333333333" y="0" dx="0em" dy="0.95em" style="text-anchor: middle; visibility: inherit; font-family: Roboto, sans-serif; font-size: 12px; font-weight: 200;" fill="rgb(50, 49, 63)" stroke="none" stroke-width="1px">700</text><text x="801.5915625" y="0" dx="0em" dy="0.95em" style="text-anchor: middle; visibility: inherit; font-family: Roboto, sans-serif; font-size: 12px; font-weight: 200;" fill="rgb(50, 49, 63)" stroke="none" stroke-width="1px">800</text><text x="890.6572916666667" y="0" dx="0em" dy="0.95em" style="text-anchor: middle; visibility: inherit; font-family: Roboto, sans-serif; font-size: 12px; font-weight: 200;" fill="rgb(50, 49, 63)" stroke="none" stroke-width="1px">900</text><text x="979.7230208333332" y="0" dx="0em" dy="0.95em" style="text-anchor: middle; visibility: inherit; font-family: Roboto, sans-serif; font-size: 12px; font-weight: 200;" fill="rgb(50, 49, 63)" stroke="none" stroke-width="1px">1k</text><text x="1068.78875" y="0" dx="0em" dy="0.95em" style="text-anchor: middle; visibility: hidden; font-family: Roboto, sans-serif; font-size: 12px; font-weight: 200;" fill="rgb(50, 49, 63)" stroke="none" stroke-width="1px">1.1k</text></g><line x1="0" y1="0" x2="1068.78875" y2="0" fill="rgb(0, 0, 0)" stroke="rgb(204, 204, 204)" stroke-width="1px"></line></g></g></g></g></svg>