<svg viewBox="0 0 1143.567138671875 399.99578857421875" xmlns="http://www.w3.org/2000/svg"><g><g><g><g><g><line x1="61.953125" y1="377.996" x2="56.953125" y2="377.996" style="visibility: inherit;" fill="rgb(0, 0, 0)" stroke="rgb(204, 204, 204)" stroke-width="1px"></line><line x1="61.953125" y1="340.1964" x2="56.953125" y2="340.1964" style="visibility: inherit;" fill="rgb(0, 0, 0)" stroke="rgb(204, 204, 204)" stroke-width="1px"></line><line x1="61.953125" y1="302.3968" x2="56.953125" y2="302.3968" style="visibility: inherit;" fill="rgb(0, 0, 0)" stroke="rgb(204, 204, 204)" stroke-width="1px"></line><line x1="61.953125" y1="264.5972" x2="56.953125" y2="264.5972" style="visibility: inherit;" fill="rgb(0, 0, 0)" stroke="rgb(204, 204, 204)" stroke-width="1px"></line><line x1="61.953125" y1="226.7976" x2="56.953125" y2="226.7976" style="visibility: inherit;" fill="rgb(0, 0, 0)" stroke="rgb(204, 204, 204)" stroke-width="1px"></line><line x1="61.953125" y1="188.99799999999996" x2="56.953125" y2="188.99799999999996" style="visibility: inherit;" fill="rgb(0, 0, 0)" stroke="rgb(204, 204, 204)" stroke-width="1px"></line><line x1="61.953125" y1="151.19839999999996" x2="56.953125" y2="151.19839999999996" style="visibility: inherit;" fill="rgb(0, 0, 0)" stroke="rgb(204, 204, 204)" stroke-width="1px"></line><line x1="61.953125" y1="113.39880000000001" x2="56.953125" y2="113.39880000000001" style="visibility: inherit;" fill="rgb(0, 0, 0)" stroke="rgb(204, 204, 204)" stroke-width="1px"></line><line x1="61.953125" y1="75.59919999999998" x2="56.953125" y2="75.59919999999998" style="visibility: inherit;" fill="rgb(0, 0, 0)" stroke="rgb(204, 204, 204)" stroke-width="1px"></line><line x1="61.953125" y1="37.79959999999999" x2="56.953125" y2="37.79959999999999" style="visibility: inherit;" fill="rgb(0, 0, 0)" stroke="rgb(204, 204, 204)" stroke-width="1px"></line><line x1="61.953125" y1="0" x2="56.953125" y2="0" style="visibility: inherit;" fill="rgb(0, 0, 0)" stroke="rgb(204, 204, 204)" stroke-width="1px"></line></g><g transform="translate(51.953125, 0)"><text x="0" y="377.996" dx="0em" dy="0.3em" style="text-anchor: end; visibility: hidden; font-family: Roboto, sans-serif; font-size: 12px; font-weight: 200;" fill="rgb(50, 49, 63)" stroke="none" stroke-width="1px">-0.01</text><text x="0" y="340.1964" dx="0em" dy="0.3em" style="text-anchor: end; visibility: inherit; font-family: Roboto, sans-serif; font-size: 12px; font-weight: 200;" fill="rgb(50, 49, 63)" stroke="none" stroke-width="1px">0</text><text x="0" y="302.3968" dx="0em" dy="0.3em" style="text-anchor: end; visibility: inherit; font-family: Roboto, sans-serif; font-size: 12px; font-weight: 200;" fill="rgb(50, 49, 63)" stroke="none" stroke-width="1px">0.01</text><text x="0" y="264.5972" dx="0em" dy="0.3em" style="text-anchor: end; visibility: inherit; font-family: Roboto, sans-serif; font-size: 12px; font-weight: 200;" fill="rgb(50, 49, 63)" stroke="none" stroke-width="1px">0.02</text><text x="0" y="226.7976" dx="0em" dy="0.3em" style="text-anchor: end; visibility: inherit; font-family: Roboto, sans-serif; font-size: 12px; font-weight: 200;" fill="rgb(50, 49, 63)" stroke="none" stroke-width="1px">0.03</text><text x="0" y="188.99799999999996" dx="0em" dy="0.3em" style="text-anchor: end; visibility: inherit; font-family: Roboto, sans-serif; font-size: 12px; font-weight: 200;" fill="rgb(50, 49, 63)" stroke="none" stroke-width="1px">0.04</text><text x="0" y="151.19839999999996" dx="0em" dy="0.3em" style="text-anchor: end; visibility: inherit; font-family: Roboto, sans-serif; font-size: 12px; font-weight: 200;" fill="rgb(50, 49, 63)" stroke="none" stroke-width="1px">0.05</text><text x="0" y="113.39880000000001" dx="0em" dy="0.3em" style="text-anchor: end; visibility: inherit; font-family: Roboto, sans-serif; font-size: 12px; font-weight: 200;" fill="rgb(50, 49, 63)" stroke="none" stroke-width="1px">0.06</text><text x="0" y="75.59919999999998" dx="0em" dy="0.3em" style="text-anchor: end; visibility: inherit; font-family: Roboto, sans-serif; font-size: 12px; font-weight: 200;" fill="rgb(50, 49, 63)" stroke="none" stroke-width="1px">0.07</text><text x="0" y="37.79959999999999" dx="0em" dy="0.3em" style="text-anchor: end; visibility: inherit; font-family: Roboto, sans-serif; font-size: 12px; font-weight: 200;" fill="rgb(50, 49, 63)" stroke="none" stroke-width="1px">0.08</text><text x="0" y="0" dx="0em" dy="0.3em" style="text-anchor: end; visibility: hidden; font-family: Roboto, sans-serif; font-size: 12px; font-weight: 200;" fill="rgb(50, 49, 63)" stroke="none" stroke-width="1px">0.09</text></g><line x1="61.953125" y1="0" x2="61.953125" y2="377.996" fill="rgb(0, 0, 0)" stroke="rgb(204, 204, 204)" stroke-width="1px"></line></g></g><g transform="translate(61, 0)" clip-path="url(#clip_0)"><clipPath id="clip_0"><rect width="1081" height="377"></rect></clipPath><g><g><g><line x1="0" y1="0" x2="0" y2="377.996" fill="rgb(0, 0, 0)" stroke="rgb(60, 60, 60)" stroke-width="1px" opacity="0.25"></line><line x1="90.13473958333333" y1="0" x2="90.13473958333333" y2="377.996" fill="rgb(0, 0, 0)" stroke="rgb(60, 60, 60)" stroke-width="1px" opacity="0.25"></line><line x1="180.26947916666666" y1="0" x2="180.26947916666666" y2="377.996" fill="rgb(0, 0, 0)" stroke="rgb(60, 60, 60)" stroke-width="1px" opacity="0.25"></line><line x1="270.40421875" y1="0" x2="270.40421875" y2="377.996" fill="rgb(0, 0, 0)" stroke="rgb(60, 60, 60)" stroke-width="1px" opacity="0.25"></line><line x1="360.5389583333333" y1="0" x2="360.5389583333333" y2="377.996" fill="rgb(0, 0, 0)" stroke="rgb(60, 60, 60)" stroke-width="1px" opacity="0.25"></line><line x1="450.67369791666664" y1="0" x2="450.67369791666664" y2="377.996" fill="rgb(0, 0, 0)" stroke="rgb(60, 60, 60)" stroke-width="1px" opacity="0.25"></line><line x1="540.8084375" y1="0" x2="540.8084375" y2="377.996" fill="rgb(0, 0, 0)" stroke="rgb(60, 60, 60)" stroke-width="1px" opacity="0.25"></line><line x1="630.9431770833334" y1="0" x2="630.9431770833334" y2="377.996" fill="rgb(0, 0, 0)" stroke="rgb(60, 60, 60)" stroke-width="1px" opacity="0.25"></line><line x1="721.0779166666666" y1="0" x2="721.0779166666666" y2="377.996" fill="rgb(0, 0, 0)" stroke="rgb(60, 60, 60)" stroke-width="1px" opacity="0.25"></line><line x1="811.21265625" y1="0" x2="811.21265625" y2="377.996" fill="rgb(0, 0, 0)" stroke="rgb(60, 60, 60)" stroke-width="1px" opacity="0.25"></line><line x1="901.3473958333333" y1="0" x2="901.3473958333333" y2="377.996" fill="rgb(0, 0, 0)" stroke="rgb(60, 60, 60)" stroke-width="1px" opacity="0.25"></line><line x1="991.4821354166666" y1="0" x2="991.4821354166666" y2="377.996" fill="rgb(0, 0, 0)" stroke="rgb(60, 60, 60)" stroke-width="1px" opacity="0.25"></line><line x1="1081.616875" y1="0" x2="1081.616875" y2="377.996" fill="rgb(0, 0, 0)" stroke="rgb(60, 60, 60)" stroke-width="1px" opacity="0.25"></line></g><g><line x1="0" y1="377.996" x2="1081.616875" y2="377.996" fill="rgb(0, 0, 0)" stroke="rgb(60, 60, 60)" stroke-width="1px" opacity="0.25"></line><line x1="0" y1="340.1964" x2="1081.616875" y2="340.1964" fill="rgb(0, 0, 0)" stroke="rgb(60, 60, 60)" stroke-width="1px" opacity="0.25"></line><line x1="0" y1="302.3968" x2="1081.616875" y2="302.3968" fill="rgb(0, 0, 0)" stroke="rgb(60, 60, 60)" stroke-width="1px" opacity="0.25"></line><line x1="0" y1="264.5972" x2="1081.616875" y2="264.5972" fill="rgb(0, 0, 0)" stroke="rgb(60, 60, 60)" stroke-width="1px" opacity="0.25"></line><line x1="0" y1="226.7976" x2="1081.616875" y2="226.7976" fill="rgb(0, 0, 0)" stroke="rgb(60, 60, 60)" stroke-width="1px" opacity="0.25"></line><line x1="0" y1="188.99799999999996" x2="1081.616875" y2="188.99799999999996" fill="rgb(0, 0, 0)" stroke="rgb(60, 60, 60)" stroke-width="1px" opacity="0.25"></line><line x1="0" y1="151.19839999999996" x2="1081.616875" y2="151.19839999999996" fill="rgb(0, 0, 0)" stroke="rgb(60, 60, 60)" stroke-width="1px" opacity="0.25"></line><line x1="0" y1="113.39880000000001" x2="1081.616875" y2="113.39880000000001" fill="rgb(0, 0, 0)" stroke="rgb(60, 60, 60)" stroke-width="1px" opacity="0.25"></line><line x1="0" y1="75.59919999999998" x2="1081.616875" y2="75.59919999999998" fill="rgb(0, 0, 0)" stroke="rgb(60, 60, 60)" stroke-width="1px" opacity="0.25"></line><line x1="0" y1="37.79959999999999" x2="1081.616875" y2="37.79959999999999" fill="rgb(0, 0, 0)" stroke="rgb(60, 60, 60)" stroke-width="1px" opacity="0.25"></line><line x1="0" y1="0" x2="1081.616875" y2="0" fill="rgb(0, 0, 0)" stroke="rgb(60, 60, 60)" stroke-width="1px" opacity="0.25"></line></g></g></g><g><g><line x1="0" y1="340.1964" x2="1081.616875" y2="340.1964" fill="rgb(0, 0, 0)" stroke="rgb(153, 153, 153)" stroke-width="1.5px"></line></g></g><g><g><line x1="90.13473958333333" y1="0" x2="90.13473958333333" y2="377.996" fill="rgb(0, 0, 0)" stroke="rgb(153, 153, 153)" stroke-width="1.5px"></line></g></g><g><g><g><g><g><path stroke="rgb(255, 112, 67)" stroke-width="2px" d="M121.6818984375,-29.906953851139576L126.18863541666666,0.12136856629849319L130.69537239583332,38.053720575416094L135.202109375,78.1919033004284L139.70884635416667,106.04616274937392L144.2155833333333,142.2643659734666L148.72232031250002,170.9976879964709L153.22905729166666,199.61541541024442L157.73579427083334,224.88215944595035L162.24253124999998,249.85700209877785L166.74926822916666,270.8847936662971L171.2560052083333,289.48777391515074L175.7627421875,295.8157092411011L180.26947916666666,303.7072626695722L184.77621614583333,320.30322113058867L189.28295312499998,326.6133715873152L193.78969010416665,331.0539668750331L198.2964270833333,332.31675771662367L202.8031640625,335.959634556755L207.30990104166668,336.25946027467364L211.81663802083332,335.1403129672246L216.323375,335.02691990442906L220.83011197916665,336.05367926951834L225.33684895833332,336.2037707868531L229.84358593749997,332.32303276202975L234.35032291666667,334.74887378660367L238.85705989583332,336.5308779907493L243.363796875,337.9775303030094L247.87053385416664,337.32309147213454L252.3772708333333,330.40887548556884L256.8840078125,325.21791062022896L261.39074479166663,332.28409843752496L265.8974817708333,309.588319712834L270.40421875,312.333804333651L274.91095572916663,323.65340186610223L279.41769270833333,333.4592049805388L283.9244296875,334.668980049308L288.4311666666666,338.84739527106854L292.9379036458333,339.45147026188073L297.44464062500003,339.8830776539152L301.9513776041667,339.9737067766255L306.4581145833333,340.0249095629761L310.9648515625,340.0463836066419L315.4715885416667,340.0685512028915L319.9783255208333,340.0784046825996L324.48506249999997,340.0969395195848L328.9917994791666,340.09444779767915L333.4985364583333,340.10921993140965L338.00527343749997,340.1178522373916L342.5120104166666,340.12113370990033L347.0187473958333,340.1218863248089L351.525484375,340.12409954619494L356.03222135416667,340.1325390367203L360.5389583333333,339.4346750544464L365.0456953125,333.18360859467515L369.55243229166666,328.21088637620545L374.0591692708333,328.8475773016583L378.56590624999995,333.514980277185L383.07264322916666,336.77032377842215L387.5793802083333,338.72090745144044L392.08611718749995,339.1536652317956L396.5928541666666,339.0562296402709L401.0995911458333,339.5914149955903L405.606328125,339.981245632018L410.11306510416665,340.07722071332506L414.61980208333335,340.1153027457942L419.1265390625,340.1326381087851L423.63327604166665,340.13976216995235L428.1400130208333,340.14677266850185L432.64675,340.14667991864974L437.15348697916664,340.15045104464565L441.6602239583333,340.1502894517754L446.16696093749994,340.15827005760315L450.67369791666664,340.1624533272392L455.1804348958333,340.16537020849864L459.68717187499993,340.1660285712131L464.19390885416664,340.1664979413641L468.70064583333334,340.169521182938L473.2073828125,340.1702801681893L477.71411979166663,340.17040045352974L482.22085677083334,340.1732212708462L486.72759375,340.17293878069756L491.23433072916663,340.1757753347889L495.7410677083333,340.17463801546864L500.2478046875,340.17607012901556L504.7545416666666,340.1771613553138L509.2612786458333,340.1764556052254L513.768015625,340.1790125965004L518.2747526041667,340.178903276194L522.7814895833333,340.18050185920646L527.2882265625,340.18098740102084L531.7949635416666,340.18140654069305L536.3017005208333,340.1799528580527L540.8084375,340.1816355447155L545.3151744791667,340.1832625080689L549.8219114583333,340.18300600293657L554.3286484375,340.1838455405354L558.8353854166667,340.1839906437409L563.3421223958334,340.1845479791113L567.848859375,340.1845360592134L572.3555963541667,340.1849597265388L576.8623333333333,340.18572689302215L581.3690703125,340.18516985674506L585.8758072916665,340.185392896951L590.3825442708333,340.1840674496875L594.8892812500001,340.1852269139417L599.3960182291667,340.1864732175181L603.9027552083334,340.18406997307204L608.4094921875,340.1849080126261L612.9162291666667,340.1873329894637L617.4229661458332,340.1877263478123L621.929703125,340.18779960245615L626.4364401041666,340.18735864874344L630.9431770833334,340.1886072204438L635.4499140624999,340.18912307897006L639.9566510416666,340.1889519572291L644.4633880208332,340.18928688409915L648.9701249999999,340.1894647272736L653.4768619791666,340.18942697405464L657.9835989583332,340.1898486805143L662.4903359375,340.1899466421524L666.9970729166666,340.1898726423538L671.5038098958333,340.1903986240697L676.0105468749999,340.19019769742727L680.5172838541666,340.1908738145069L685.0240208333332,340.19040323380165L689.5307578124999,340.1909352884859L694.0374947916666,340.1914566136291L698.5442317708333,340.1912223200392L703.05096875,340.19167001495305L707.5577057291666,340.19164537886445L712.0644427083333,340.19135127263826L716.5711796874999,340.1920404845022L721.0779166666666,340.191873324028L725.5846536458332,340.19198255022314L730.091390625,340.19264377108317L734.5981276041666,340.1922957713451L739.1048645833333,340.1923214190221L743.6116015624999,340.1924289331662L748.1183385416666,340.1927861553762L752.6250755208332,340.19283439404865L757.1318124999999,340.1927391285472L761.6385494791667,340.19264163961395L766.1452864583333,340.1929185870831L770.6520234375,340.19261542812893L775.1587604166666,340.1929666386074L779.6654973958333,340.19312194944484L784.1722343749999,340.19306428718596L788.6789713541666,340.19350631501305L793.1857083333332,340.193236294604L797.6924453125,340.1937403118733L802.1991822916666,340.1935180958927L806.7059192708333,340.1937267409462L811.21265625,340.1934767718182L815.7193932291666,158.85715610861178L820.2261302083333,237.09747790581878L824.7328671874999,306.2668264079034L829.2396041666667,325.50595456635915L833.7463411458333,328.1873096312709L838.253078125,331.82569184911773L842.7598151041666,336.0224659791436L847.2665520833333,338.74614162684634L851.7732890624999,339.39138329176683L856.2800260416666,338.87199380109655L860.7867630208332,338.85354633372265L865.2935,339.163691222997L869.8002369791667,339.60166551988556L874.3069739583333,340.0066106108774L878.8137109375,340.1006140487704L883.3204479166666,340.11703204803285L887.8271848958333,340.1234681156255L892.3339218749999,340.1349594094124L896.8406588541667,340.14001897417785L901.3473958333333,340.1451754589118L905.8541328125,340.1471874386621L910.3608697916666,340.1526278247836L914.8676067708333,340.1536598340537L919.3743437499999,340.1594035316841L923.8810807291666,340.15873539171406L928.3878177083333,340.16330877866227L932.8945546875,340.16263380767714L937.4012916666667,340.16446516259964L941.9080286458333,340.1678377846395L946.414765625,340.1653823991275L950.9215026041666,340.1677340113099L955.4282395833333,340.169945094351L959.9349765624999,340.1727998037472L964.4417135416667,340.1727967870306L968.9484505208333,340.17291766196297L973.4551875,340.17103801551104L977.9619244791667,340.1738155571265L982.4686614583333,340.17557927227955L986.9753984375,340.16743699794876" style="fill: none;" fill="none"></path></g></g></g></g></g></g><g transform="translate(61, 377)" clip-path="url(#clip_1)"><clipPath id="clip_1"><rect width="1081" height="21"></rect></clipPath><g><g><line x1="0" y1="0" x2="0" y2="5" style="visibility: inherit;" fill="rgb(0, 0, 0)" stroke="rgb(204, 204, 204)" stroke-width="1px"></line><line x1="90.13473958333333" y1="0" x2="90.13473958333333" y2="5" style="visibility: inherit;" fill="rgb(0, 0, 0)" stroke="rgb(204, 204, 204)" stroke-width="1px"></line><line x1="180.26947916666666" y1="0" x2="180.26947916666666" y2="5" style="visibility: inherit;" fill="rgb(0, 0, 0)" stroke="rgb(204, 204, 204)" stroke-width="1px"></line><line x1="270.40421875" y1="0" x2="270.40421875" y2="5" style="visibility: inherit;" fill="rgb(0, 0, 0)" stroke="rgb(204, 204, 204)" stroke-width="1px"></line><line x1="360.5389583333333" y1="0" x2="360.5389583333333" y2="5" style="visibility: inherit;" fill="rgb(0, 0, 0)" stroke="rgb(204, 204, 204)" stroke-width="1px"></line><line x1="450.67369791666664" y1="0" x2="450.67369791666664" y2="5" style="visibility: inherit;" fill="rgb(0, 0, 0)" stroke="rgb(204, 204, 204)" stroke-width="1px"></line><line x1="540.8084375" y1="0" x2="540.8084375" y2="5" style="visibility: inherit;" fill="rgb(0, 0, 0)" stroke="rgb(204, 204, 204)" stroke-width="1px"></line><line x1="630.9431770833334" y1="0" x2="630.9431770833334" y2="5" style="visibility: inherit;" fill="rgb(0, 0, 0)" stroke="rgb(204, 204, 204)" stroke-width="1px"></line><line x1="721.0779166666666" y1="0" x2="721.0779166666666" y2="5" style="visibility: inherit;" fill="rgb(0, 0, 0)" stroke="rgb(204, 204, 204)" stroke-width="1px"></line><line x1="811.21265625" y1="0" x2="811.21265625" y2="5" style="visibility: inherit;" fill="rgb(0, 0, 0)" stroke="rgb(204, 204, 204)" stroke-width="1px"></line><line x1="901.3473958333333" y1="0" x2="901.3473958333333" y2="5" style="visibility: inherit;" fill="rgb(0, 0, 0)" stroke="rgb(204, 204, 204)" stroke-width="1px"></line><line x1="991.4821354166666" y1="0" x2="991.4821354166666" y2="5" style="visibility: inherit;" fill="rgb(0, 0, 0)" stroke="rgb(204, 204, 204)" stroke-width="1px"></line><line x1="1081.616875" y1="0" x2="1081.616875" y2="5" style="visibility: inherit;" fill="rgb(0, 0, 0)" stroke="rgb(204, 204, 204)" stroke-width="1px"></line></g><g transform="translate(0, 8)"><text x="0" y="0" dx="0em" dy="0.95em" style="text-anchor: middle; visibility: hidden; font-family: Roboto, sans-serif; font-size: 12px; font-weight: 200;" fill="rgb(50, 49, 63)" stroke="none" stroke-width="1px">-20</text><text x="90.13473958333333" y="0" dx="0em" dy="0.95em" style="text-anchor: middle; visibility: inherit; font-family: Roboto, sans-serif; font-size: 12px; font-weight: 200;" fill="rgb(50, 49, 63)" stroke="none" stroke-width="1px">0</text><text x="180.26947916666666" y="0" dx="0em" dy="0.95em" style="text-anchor: middle; visibility: inherit; font-family: Roboto, sans-serif; font-size: 12px; font-weight: 200;" fill="rgb(50, 49, 63)" stroke="none" stroke-width="1px">20</text><text x="270.40421875" y="0" dx="0em" dy="0.95em" style="text-anchor: middle; visibility: inherit; font-family: Roboto, sans-serif; font-size: 12px; font-weight: 200;" fill="rgb(50, 49, 63)" stroke="none" stroke-width="1px">40</text><text x="360.5389583333333" y="0" dx="0em" dy="0.95em" style="text-anchor: middle; visibility: inherit; font-family: Roboto, sans-serif; font-size: 12px; font-weight: 200;" fill="rgb(50, 49, 63)" stroke="none" stroke-width="1px">60</text><text x="450.67369791666664" y="0" dx="0em" dy="0.95em" style="text-anchor: middle; visibility: inherit; font-family: Roboto, sans-serif; font-size: 12px; font-weight: 200;" fill="rgb(50, 49, 63)" stroke="none" stroke-width="1px">80</text><text x="540.8084375" y="0" dx="0em" dy="0.95em" style="text-anchor: middle; visibility: inherit; font-family: Roboto, sans-serif; font-size: 12px; font-weight: 200;" fill="rgb(50, 49, 63)" stroke="none" stroke-width="1px">100</text><text x="630.9431770833334" y="0" dx="0em" dy="0.95em" style="text-anchor: middle; visibility: inherit; font-family: Roboto, sans-serif; font-size: 12px; font-weight: 200;" fill="rgb(50, 49, 63)" stroke="none" stroke-width="1px">120</text><text x="721.0779166666666" y="0" dx="0em" dy="0.95em" style="text-anchor: middle; visibility: inherit; font-family: Roboto, sans-serif; font-size: 12px; font-weight: 200;" fill="rgb(50, 49, 63)" stroke="none" stroke-width="1px">140</text><text x="811.21265625" y="0" dx="0em" dy="0.95em" style="text-anchor: middle; visibility: inherit; font-family: Roboto, sans-serif; font-size: 12px; font-weight: 200;" fill="rgb(50, 49, 63)" stroke="none" stroke-width="1px">160</text><text x="901.3473958333333" y="0" dx="0em" dy="0.95em" style="text-anchor: middle; visibility: inherit; font-family: Roboto, sans-serif; font-size: 12px; font-weight: 200;" fill="rgb(50, 49, 63)" stroke="none" stroke-width="1px">180</text><text x="991.4821354166666" y="0" dx="0em" dy="0.95em" style="text-anchor: middle; visibility: inherit; font-family: Roboto, sans-serif; font-size: 12px; font-weight: 200;" fill="rgb(50, 49, 63)" stroke="none" stroke-width="1px">200</text><text x="1081.616875" y="0" dx="0em" dy="0.95em" style="text-anchor: middle; visibility: hidden; font-family: Roboto, sans-serif; font-size: 12px; font-weight: 200;" fill="rgb(50, 49, 63)" stroke="none" stroke-width="1px">220</text></g><line x1="0" y1="0" x2="1081.616875" y2="0" fill="rgb(0, 0, 0)" stroke="rgb(204, 204, 204)" stroke-width="1px"></line></g></g></g></g></svg>