<svg viewBox="0 0 1143.567138671875 399.99578857421875" xmlns="http://www.w3.org/2000/svg"><g><g><g><g><g><line x1="72.34375" y1="377.996" x2="67.34375" y2="377.996" style="visibility: inherit;" fill="rgb(0, 0, 0)" stroke="rgb(204, 204, 204)" stroke-width="1px"></line><line x1="72.34375" y1="348.9193846153846" x2="67.34375" y2="348.9193846153846" style="visibility: inherit;" fill="rgb(0, 0, 0)" stroke="rgb(204, 204, 204)" stroke-width="1px"></line><line x1="72.34375" y1="319.8427692307692" x2="67.34375" y2="319.8427692307692" style="visibility: inherit;" fill="rgb(0, 0, 0)" stroke="rgb(204, 204, 204)" stroke-width="1px"></line><line x1="72.34375" y1="290.7661538461538" x2="67.34375" y2="290.7661538461538" style="visibility: inherit;" fill="rgb(0, 0, 0)" stroke="rgb(204, 204, 204)" stroke-width="1px"></line><line x1="72.34375" y1="261.68953846153846" x2="67.34375" y2="261.68953846153846" style="visibility: inherit;" fill="rgb(0, 0, 0)" stroke="rgb(204, 204, 204)" stroke-width="1px"></line><line x1="72.34375" y1="232.61292307692307" x2="67.34375" y2="232.61292307692307" style="visibility: inherit;" fill="rgb(0, 0, 0)" stroke="rgb(204, 204, 204)" stroke-width="1px"></line><line x1="72.34375" y1="203.53630769230762" x2="67.34375" y2="203.53630769230762" style="visibility: inherit;" fill="rgb(0, 0, 0)" stroke="rgb(204, 204, 204)" stroke-width="1px"></line><line x1="72.34375" y1="174.4596923076923" x2="67.34375" y2="174.4596923076923" style="visibility: inherit;" fill="rgb(0, 0, 0)" stroke="rgb(204, 204, 204)" stroke-width="1px"></line><line x1="72.34375" y1="145.3830769230769" x2="67.34375" y2="145.3830769230769" style="visibility: inherit;" fill="rgb(0, 0, 0)" stroke="rgb(204, 204, 204)" stroke-width="1px"></line><line x1="72.34375" y1="116.30646153846149" x2="67.34375" y2="116.30646153846149" style="visibility: inherit;" fill="rgb(0, 0, 0)" stroke="rgb(204, 204, 204)" stroke-width="1px"></line><line x1="72.34375" y1="87.22984615384614" x2="67.34375" y2="87.22984615384614" style="visibility: inherit;" fill="rgb(0, 0, 0)" stroke="rgb(204, 204, 204)" stroke-width="1px"></line><line x1="72.34375" y1="58.153230769230724" x2="67.34375" y2="58.153230769230724" style="visibility: inherit;" fill="rgb(0, 0, 0)" stroke="rgb(204, 204, 204)" stroke-width="1px"></line><line x1="72.34375" y1="29.076615384615323" x2="67.34375" y2="29.076615384615323" style="visibility: inherit;" fill="rgb(0, 0, 0)" stroke="rgb(204, 204, 204)" stroke-width="1px"></line></g><g transform="translate(62.34375, 0)"><text x="0" y="377.996" dx="0em" dy="0.3em" style="text-anchor: end; visibility: hidden; font-family: Roboto, sans-serif; font-size: 12px; font-weight: 200;" fill="rgb(50, 49, 63)" stroke="none" stroke-width="1px">-1e-4</text><text x="0" y="348.9193846153846" dx="0em" dy="0.3em" style="text-anchor: end; visibility: inherit; font-family: Roboto, sans-serif; font-size: 12px; font-weight: 200;" fill="rgb(50, 49, 63)" stroke="none" stroke-width="1px">0</text><text x="0" y="319.8427692307692" dx="0em" dy="0.3em" style="text-anchor: end; visibility: inherit; font-family: Roboto, sans-serif; font-size: 12px; font-weight: 200;" fill="rgb(50, 49, 63)" stroke="none" stroke-width="1px">1e-4</text><text x="0" y="290.7661538461538" dx="0em" dy="0.3em" style="text-anchor: end; visibility: inherit; font-family: Roboto, sans-serif; font-size: 12px; font-weight: 200;" fill="rgb(50, 49, 63)" stroke="none" stroke-width="1px">2e-4</text><text x="0" y="261.68953846153846" dx="0em" dy="0.3em" style="text-anchor: end; visibility: inherit; font-family: Roboto, sans-serif; font-size: 12px; font-weight: 200;" fill="rgb(50, 49, 63)" stroke="none" stroke-width="1px">3e-4</text><text x="0" y="232.61292307692307" dx="0em" dy="0.3em" style="text-anchor: end; visibility: inherit; font-family: Roboto, sans-serif; font-size: 12px; font-weight: 200;" fill="rgb(50, 49, 63)" stroke="none" stroke-width="1px">4e-4</text><text x="0" y="203.53630769230762" dx="0em" dy="0.3em" style="text-anchor: end; visibility: inherit; font-family: Roboto, sans-serif; font-size: 12px; font-weight: 200;" fill="rgb(50, 49, 63)" stroke="none" stroke-width="1px">5e-4</text><text x="0" y="174.4596923076923" dx="0em" dy="0.3em" style="text-anchor: end; visibility: inherit; font-family: Roboto, sans-serif; font-size: 12px; font-weight: 200;" fill="rgb(50, 49, 63)" stroke="none" stroke-width="1px">6e-4</text><text x="0" y="145.3830769230769" dx="0em" dy="0.3em" style="text-anchor: end; visibility: inherit; font-family: Roboto, sans-serif; font-size: 12px; font-weight: 200;" fill="rgb(50, 49, 63)" stroke="none" stroke-width="1px">7e-4</text><text x="0" y="116.30646153846149" dx="0em" dy="0.3em" style="text-anchor: end; visibility: inherit; font-family: Roboto, sans-serif; font-size: 12px; font-weight: 200;" fill="rgb(50, 49, 63)" stroke="none" stroke-width="1px">8e-4</text><text x="0" y="87.22984615384614" dx="0em" dy="0.3em" style="text-anchor: end; visibility: inherit; font-family: Roboto, sans-serif; font-size: 12px; font-weight: 200;" fill="rgb(50, 49, 63)" stroke="none" stroke-width="1px">9e-4</text><text x="0" y="58.153230769230724" dx="0em" dy="0.3em" style="text-anchor: end; visibility: inherit; font-family: Roboto, sans-serif; font-size: 12px; font-weight: 200;" fill="rgb(50, 49, 63)" stroke="none" stroke-width="1px">1e-3</text><text x="0" y="29.076615384615323" dx="0em" dy="0.3em" style="text-anchor: end; visibility: inherit; font-family: Roboto, sans-serif; font-size: 12px; font-weight: 200;" fill="rgb(50, 49, 63)" stroke="none" stroke-width="1px">1.1e-3</text></g><line x1="72.34375" y1="0" x2="72.34375" y2="377.996" fill="rgb(0, 0, 0)" stroke="rgb(204, 204, 204)" stroke-width="1px"></line></g></g><g transform="translate(72, 0)" clip-path="url(#clip_0)"><clipPath id="clip_0"><rect width="1071" height="377"></rect></clipPath><g><g><g><line x1="0" y1="0" x2="0" y2="377.996" fill="rgb(0, 0, 0)" stroke="rgb(60, 60, 60)" stroke-width="1px" opacity="0.25"></line><line x1="89.26885416666666" y1="0" x2="89.26885416666666" y2="377.996" fill="rgb(0, 0, 0)" stroke="rgb(60, 60, 60)" stroke-width="1px" opacity="0.25"></line><line x1="178.5377083333333" y1="0" x2="178.5377083333333" y2="377.996" fill="rgb(0, 0, 0)" stroke="rgb(60, 60, 60)" stroke-width="1px" opacity="0.25"></line><line x1="267.8065625" y1="0" x2="267.8065625" y2="377.996" fill="rgb(0, 0, 0)" stroke="rgb(60, 60, 60)" stroke-width="1px" opacity="0.25"></line><line x1="357.0754166666666" y1="0" x2="357.0754166666666" y2="377.996" fill="rgb(0, 0, 0)" stroke="rgb(60, 60, 60)" stroke-width="1px" opacity="0.25"></line><line x1="446.3442708333333" y1="0" x2="446.3442708333333" y2="377.996" fill="rgb(0, 0, 0)" stroke="rgb(60, 60, 60)" stroke-width="1px" opacity="0.25"></line><line x1="535.613125" y1="0" x2="535.613125" y2="377.996" fill="rgb(0, 0, 0)" stroke="rgb(60, 60, 60)" stroke-width="1px" opacity="0.25"></line><line x1="624.8819791666667" y1="0" x2="624.8819791666667" y2="377.996" fill="rgb(0, 0, 0)" stroke="rgb(60, 60, 60)" stroke-width="1px" opacity="0.25"></line><line x1="714.1508333333333" y1="0" x2="714.1508333333333" y2="377.996" fill="rgb(0, 0, 0)" stroke="rgb(60, 60, 60)" stroke-width="1px" opacity="0.25"></line><line x1="803.4196875" y1="0" x2="803.4196875" y2="377.996" fill="rgb(0, 0, 0)" stroke="rgb(60, 60, 60)" stroke-width="1px" opacity="0.25"></line><line x1="892.6885416666667" y1="0" x2="892.6885416666667" y2="377.996" fill="rgb(0, 0, 0)" stroke="rgb(60, 60, 60)" stroke-width="1px" opacity="0.25"></line><line x1="981.9573958333332" y1="0" x2="981.9573958333332" y2="377.996" fill="rgb(0, 0, 0)" stroke="rgb(60, 60, 60)" stroke-width="1px" opacity="0.25"></line><line x1="1071.22625" y1="0" x2="1071.22625" y2="377.996" fill="rgb(0, 0, 0)" stroke="rgb(60, 60, 60)" stroke-width="1px" opacity="0.25"></line></g><g><line x1="0" y1="377.996" x2="1071.22625" y2="377.996" fill="rgb(0, 0, 0)" stroke="rgb(60, 60, 60)" stroke-width="1px" opacity="0.25"></line><line x1="0" y1="348.9193846153846" x2="1071.22625" y2="348.9193846153846" fill="rgb(0, 0, 0)" stroke="rgb(60, 60, 60)" stroke-width="1px" opacity="0.25"></line><line x1="0" y1="319.8427692307692" x2="1071.22625" y2="319.8427692307692" fill="rgb(0, 0, 0)" stroke="rgb(60, 60, 60)" stroke-width="1px" opacity="0.25"></line><line x1="0" y1="290.7661538461538" x2="1071.22625" y2="290.7661538461538" fill="rgb(0, 0, 0)" stroke="rgb(60, 60, 60)" stroke-width="1px" opacity="0.25"></line><line x1="0" y1="261.68953846153846" x2="1071.22625" y2="261.68953846153846" fill="rgb(0, 0, 0)" stroke="rgb(60, 60, 60)" stroke-width="1px" opacity="0.25"></line><line x1="0" y1="232.61292307692307" x2="1071.22625" y2="232.61292307692307" fill="rgb(0, 0, 0)" stroke="rgb(60, 60, 60)" stroke-width="1px" opacity="0.25"></line><line x1="0" y1="203.53630769230762" x2="1071.22625" y2="203.53630769230762" fill="rgb(0, 0, 0)" stroke="rgb(60, 60, 60)" stroke-width="1px" opacity="0.25"></line><line x1="0" y1="174.4596923076923" x2="1071.22625" y2="174.4596923076923" fill="rgb(0, 0, 0)" stroke="rgb(60, 60, 60)" stroke-width="1px" opacity="0.25"></line><line x1="0" y1="145.3830769230769" x2="1071.22625" y2="145.3830769230769" fill="rgb(0, 0, 0)" stroke="rgb(60, 60, 60)" stroke-width="1px" opacity="0.25"></line><line x1="0" y1="116.30646153846149" x2="1071.22625" y2="116.30646153846149" fill="rgb(0, 0, 0)" stroke="rgb(60, 60, 60)" stroke-width="1px" opacity="0.25"></line><line x1="0" y1="87.22984615384614" x2="1071.22625" y2="87.22984615384614" fill="rgb(0, 0, 0)" stroke="rgb(60, 60, 60)" stroke-width="1px" opacity="0.25"></line><line x1="0" y1="58.153230769230724" x2="1071.22625" y2="58.153230769230724" fill="rgb(0, 0, 0)" stroke="rgb(60, 60, 60)" stroke-width="1px" opacity="0.25"></line><line x1="0" y1="29.076615384615323" x2="1071.22625" y2="29.076615384615323" fill="rgb(0, 0, 0)" stroke="rgb(60, 60, 60)" stroke-width="1px" opacity="0.25"></line></g></g></g><g><g><line x1="0" y1="348.9193846153846" x2="1071.22625" y2="348.9193846153846" fill="rgb(0, 0, 0)" stroke="rgb(153, 153, 153)" stroke-width="1.5px"></line></g></g><g><g><line x1="89.26885416666666" y1="0" x2="89.26885416666666" y2="377.996" fill="rgb(0, 0, 0)" stroke="rgb(153, 153, 153)" stroke-width="1.5px"></line></g></g><g><g><g><g><g><path stroke="rgb(255, 112, 67)" stroke-width="2px" d="M103.55187083333333,-217.0341299111419L104.444559375,5.521265152730598L105.33724791666666,65.55276417667389L106.22993645833333,252.51824641019593L107.122625,229.29203983720086L108.01531354166666,310.97163312084814L108.90800208333333,326.395352763035L109.80069062499999,336.25825113218684L110.69337916666666,339.89738417725835L111.58606770833333,315.4903923110202L112.47875624999999,-706.494170714854L115.15682187499999,-163.45381287095296L116.04951041666666,173.26377640345405L116.94219895833332,-372.81475546365397L117.8348875,-404.10955576036633L118.72757604166667,55.5264852533724L119.62026458333332,115.02899910047134L120.512953125,263.72300885153487L121.40564166666665,270.48416040883956L122.29833020833333,336.4749744804852L123.19101875,343.5745880130178L124.08370729166666,345.133303427437L124.97639583333333,345.9311015168688L125.86908437499999,245.42860952879L126.76177291666666,58.38799802955007L127.65446145833333,70.0007755133071L128.54715,289.0085341543316L129.43983854166666,31.49348108359024L130.33252708333333,-188.47624188278672L132.11790416666668,-1675.340533134997L133.01059270833332,140.4534602316704L133.90328125,269.51615392357235L134.79596979166664,185.40460819908256L135.68865833333334,290.85901332747426L136.581346875,-1046.7463050656274L137.47403541666665,-196.78321320123334L138.36672395833335,283.79714160948583L139.2594125,339.24099531966385L140.15210104166664,344.7441886462717L141.0447895833333,345.69297911665615L141.937478125,346.75838753104347L142.83016666666666,346.7090338370888L143.7228552083333,346.2151094778866L144.61554375,347.0079602315478L145.50823229166667,347.4839097732395L146.40092083333332,347.7067277748324L147.29360937500002,347.842010619342L148.18629791666666,347.9839480244938L149.0789864583333,347.9677084635843L149.971675,348.02691160808274L150.86436354166668,348.22065997915735L151.75705208333332,348.25808848623655L152.64974062499996,348.2497686160914L153.54242916666666,348.35404248398095L154.4351177083333,348.30930073673363L155.32780624999998,348.4189120376076L156.22049479166668,348.398943132788L157.11318333333332,348.4606770003188L158.00587187499997,348.49529020281193L158.89856041666667,348.50317343249446L159.79124895833334,348.52955862825723L160.68393749999998,348.5630929727916L161.57662604166669,348.5840498307874L162.46931458333333,348.60043490546155L163.36200312499997,346.8553250854783L164.25469166666664,-1693.6831089512912L166.04006875,-31.12878440797278L166.93275729166663,221.89228952129426L167.82544583333333,323.0019416257684L168.718134375,343.1416157402168L169.61082291666665,345.397077240008L170.50351145833335,346.4947561249463L171.3962,347.18525959709405L172.28888854166664,347.47643892070664L173.1815770833333,346.9642406507313L174.074265625,346.7576318643787L174.96695416666665,347.7515772194547L175.8596427083333,341.80259768190405L176.75233125,340.7255863794155L177.64501979166664,275.93253001975097L178.5377083333333,-36.231244594972914L179.430396875,-141.9689415530339L180.32308541666666,115.00313797904377L181.2157739583333,-280.37289063471667L182.1084625,199.04761911344409L183.00115104166667,311.5565590513564L183.89383958333332,343.2119653316394L184.78652812499996,346.4618426435483L185.67921666666666,346.5794434170033L186.5719052083333,347.5011652859983L187.46459374999998,347.6927895263405L188.35728229166668,347.9310158555117L189.24997083333332,348.02419649709515L190.14265937499997,348.1301263526153L191.03534791666667,348.24952353679777L191.92803645833334,348.2902749277122L192.82072499999998,348.290264680264L193.71341354166668,348.1888223475962L194.60610208333333,348.30321375249713L195.49879062499997,348.4290912245896L196.39147916666664,348.41715413745163L197.28416770833334,348.50675399006775L198.17685625,348.5198164123006L199.06954479166663,348.5273941358014L199.96223333333333,348.56750258198133L200.854921875,348.57733385156854L201.74761041666665,348.5721152559271L202.64029895833335,348.6098322121452L203.5329875,348.6542312483624L204.42567604166663,348.6414772577926L205.31836458333333,348.37027285524334L206.211053125,348.67318920935986L207.10374166666665,348.6869247897712L207.9964302083333,348.68040134688164L208.88911875,348.70832542838707L209.78180729166664,348.7209086832473L210.6744958333333,-355.7808742502813L211.567184375,-1316.8137253364944L212.45987291666665,106.39226463418797L213.3525614583333,258.18536928972713L214.24525,293.2176601517048L215.13793854166667,337.09926330573177L216.03062708333331,345.1474070895768L216.92331562500001,347.0509287735794L217.81600416666666,347.59055199169165L218.7086927083333,347.9029733498669L219.60138124999997,348.0471263194342L220.49406979166667,348.05349672825446L221.38675833333332,348.1608906466172L222.27944687499996,348.2972340689602L223.17213541666666,348.31269931946053L224.06482395833333,348.28353256957826L224.95751249999998,348.41947505224596L225.85020104166668,348.48213674357146L226.74288958333332,348.5174824072176L227.63557812499997,348.53961795315155L228.52826666666667,348.494377684077L229.42095520833334,348.60898689683677L230.31364374999998,348.5845437908474L231.20633229166663,348.56498266835405L232.09902083333333,348.62096173425175L232.99170937499997,348.6530937154986L233.88439791666664,348.66924660283007L234.77708645833334,348.6974162429452L235.669775,348.6774712378194L236.56246354166663,348.69217163200784L237.45515208333333,348.74716700898995L238.347840625,348.7262529092982L239.24052916666665,348.7515845021036L240.1332177083333,348.7623996920003L241.02590625,348.7534276709455L241.91859479166664,348.76328036100506L242.8112833333333,348.7759593799216L243.703971875,348.78338905258795L244.59666041666665,29.878582679053896L245.4893489583333,-977.9557220683328L246.3820375,7.616185236539395L247.27472604166667,277.23260989046923L248.1674145833333,334.729826910225L249.060103125,345.927752783019L249.95279166666666,347.4753897142351L250.8454802083333,347.9504603554332L251.73816874999997,347.8692601708331L252.63085729166667,348.1739989179167L253.52354583333332,348.2668737227555L254.41623437499996,348.4273681657576L255.30892291666666,348.51407800658467L256.20161145833333,348.2370152370628L257.0943,345.17664048092877L257.9869885416667,347.7092717864912L258.8796770833333,348.249343380047L259.77236562499996,348.48924133247147L260.66505416666666,348.1715029700957L261.5577427083333,348.35333243498883L262.45043124999995,348.6217075501437L263.34311979166665,348.61014432958393L264.23580833333335,348.6741210494931L265.128496875,348.7225649518564L266.02118541666664,348.747380883151L266.91387395833334,348.7653047113426L267.8065625,348.7792565294393L268.6992510416667,348.7776221110343L269.59193958333327,348.8055979256251L270.484628125,348.81250500322494L271.3773166666667,348.82804631623594L272.2700052083333,348.82258364125346L273.16269375,348.8368786910167L274.05538229166666,348.8176904103567L274.9480708333333,348.81097900116913L275.840759375,348.8267651951361L276.7334479166667,348.8161473264659L277.6261364583333,348.82755203387717L278.518825,348.8484461262527L279.41151354166664,348.86186894875993L280.3042020833333,348.8577496935775L281.196890625,348.86497174798467L282.0895791666666,348.84404254983497L282.9822677083333,348.8573803805025L283.87495625,348.8594422001386L284.7676447916666,348.8729415603405L285.6603333333333,348.87694571767213L286.553021875,348.86600836414385L287.4457104166666,348.87912682504304L288.3383989583333,348.88294509449054L289.2310875,348.884740922601L290.12377604166664,348.88702182896094L291.01646458333335,348.88597049035906L291.909153125,348.88753557320723L292.80184166666663,348.88478228427704L293.69453020833333,-195.79510849496145L294.58721875000003,-757.9996405050124L295.4799072916666,211.90403220092932L296.3725958333333,316.2887592329964L297.265284375,293.5967083686495L298.1579729166666,338.330808242824L299.0506614583333,346.74741813357934L299.94335,347.7354551405805L300.83603854166665,347.9799526436057L301.72872708333335,348.15748069252845L302.62141562499994,348.32881782825604L303.51410416666664,348.4274603597352L304.40679270833334,348.4550703900093L305.29948124999993,348.5285890213189L306.19216979166663,348.42385742305726L307.08485833333333,348.60763433284194L307.977546875,348.5932763687051L308.8702354166666,348.6319694439497L309.7629239583333,348.67710175119885L310.65561249999996,348.69106877518647L311.54830104166666,348.68379877263857L312.44098958333336,348.7184326518377L313.33367812499995,348.7297047126432L314.22636666666665,348.7372526689597L315.11905520833335,348.7203501477354L316.01174374999994,348.75635977991294L316.90443229166664,348.79010467645173L317.79712083333334,348.7943453597634L318.689809375,348.7851977602532L319.5824979166667,348.7787429670026L320.4751864583333,348.79873847386716L321.36787499999997,348.80521294387114L322.26056354166667,348.82822845636383L323.15325208333337,348.8211463292091L324.04594062499996,348.81153982582873L324.93862916666666,348.8427560075044L325.8313177083333,348.84013750350846L326.72400624999995,348.84659241245606L327.61669479166665,348.85029136111245L328.5093833333333,348.8487031884495L329.402071875,348.8411171017088L330.2947604166667,348.85857679487316L331.1874489583333,348.8646948024327L332.0801375,348.86768427645L332.9728260416667,348.8704230598694L333.86551458333327,348.87077849756895L334.75820312499997,348.8809834106045L335.65089166666667,348.8847495688854L336.5435802083333,348.87958870811093L337.43626875,348.88271818375733L338.32895729166665,348.8895923455618L339.2216458333333,348.8913596729569L340.114334375,348.8926790071217L341.0070229166667,348.89397278671254L341.8997114583333,348.8967703545359L342.7924,348.8963925687219L343.6850885416667,348.89124953148286L344.5777770833333,348.8975061874299L345.470465625,348.8968546645896L346.3631541666666,348.8983897901799L347.2558427083333,348.9027597648845L348.14853125,348.9020312663536L349.0412197916666,348.9045730962976L349.9339083333333,348.9036393926163L350.826596875,348.90610354752266L351.7192854166666,348.9060070366009L352.6119739583333,348.9061662821527L353.5046625,348.90750949225196L354.39735104166664,348.90874790463215L355.2900395833333,348.90922360832604L356.182728125,348.90855656452715L357.0754166666666,348.9098345380489L357.9681052083333,348.91075474185345L358.86079375,348.9102461714322L359.7534822916666,348.910926444976L360.6461708333333,348.9103687792576L361.538859375,348.91180167725497L362.4315479166666,348.9126818617786L363.3242364583333,348.9128008644029L364.216925,348.91266438843314L365.10961354166665,348.91319852169244L366.00230208333335,348.91179011581943L366.894990625,348.9131024973178L367.78767916666663,348.9142589295959L368.68036770833334,348.9146416717865L369.5730562499999,348.91321491451055L370.4657447916666,348.91411301295784L371.3584333333333,348.91508904960176L372.25112187499997,348.91574602388823L373.1438104166666,348.91466637464464L374.0364989583333,348.9002545943601L374.92918749999995,348.9129310570961L375.82187604166666,348.91461401090737L376.71456458333336,348.9151921110912L377.60725312499994,348.91557904006686L378.49994166666664,348.9156008600554L379.39263020833334,348.9161547767263L380.28531874999993,348.9163926223751L381.17800729166663,348.91615462539045L382.07069583333333,348.9162363208987L382.963384375,348.9164890661513L383.8560729166667,348.91673668458077L384.7487614583333,348.91650816700223L385.64144999999996,348.9169515160828L386.53413854166666,348.91662509431177L387.42682708333336,348.91666462756206L388.31951562499995,348.9168400611379L389.21220416666665,348.91704854919055L390.10489270833335,348.91722562809133L390.99758124999994,348.9173769768067L391.89026979166664,348.90838449417L392.7829583333333,-1590.7524607060873L393.675646875,133.7813247529967L394.5683354166667,332.26285702158555L395.46102395833327,344.6704358442424L396.3537125,346.25302186285893L397.2464010416667,347.4563056600403L398.13908958333326,347.7761763841634L399.03177812499996,347.8273518099595L399.92446666666666,347.2586889764354L400.8171552083333,347.6602482587065L401.70984375,348.0365009717796L402.60253229166665,348.27298384639124L403.4952208333333,348.2361964990071L404.387909375,348.39741583327304L405.2805979166667,348.36412015511314L406.1732864583333,348.47695841048454L407.065975,348.49123148608265L407.9586635416667,348.49581404575315L408.85135208333327,348.58204546297395L409.74404062499997,348.54110694043266L410.63672916666667,348.5794928566812L411.5294177083333,348.6288415921932L412.42210625,348.54884121849705L413.3147947916666,348.6127352811667L414.2074833333333,348.6306881493043L415.100171875,348.6618886870934L415.9928604166666,348.66177457679913L416.8855489583333,348.7156034636121L417.7782375,348.7177596589406L418.67092604166663,348.7348600881404L419.5636145833333,348.7150408456491L420.456303125,348.75297807241935L421.3489916666666,348.7472935153909L422.2416802083333,348.75383057746967L423.13436875,348.7660664273074L424.0270572916666,348.787235151295L424.9197458333333,348.78591497419495L425.812434375,348.77079564118435L426.7051229166666,348.7851049629984L427.5978114583333,348.7986555769696L428.4905,348.8145478650818L429.38318854166664,348.4969693628981L430.27587708333334,268.6962395930768L431.168565625,-203.1799818961202L432.06125416666663,181.83753362311964L432.95394270833333,286.2951685385831L433.84663125000003,321.6248199849334L434.7393197916666,343.21513767715487L435.6320083333333,347.58547626531197L436.52469687499996,348.24533847894895L437.4173854166666,348.1992816865898L438.3100739583333,348.2818715573923L439.20276249999995,348.494657307188L440.09545104166665,348.4838315723365L440.98813958333335,348.61619518330144L441.88082812499994,348.6717824661147L442.77351666666664,348.60822504864683L443.66620520833334,348.6006538041778L444.5588937499999,348.658609933398L445.4515822916666,348.49677793395426L446.3442708333333,348.5846816024977L447.23695937499997,348.6911357637471L448.12964791666667,348.7330733463762L449.0223364583333,348.7687937030077L449.91502499999996,348.6772141756226L450.80771354166666,348.73970448664085L451.70040208333336,348.789473656772L452.59309062499995,348.79201027208705L453.48577916666665,348.7981820043731L454.37846770833335,348.7856117323687L455.27115624999993,348.80565768312346L456.16384479166663,348.81334066609827L457.05653333333333,348.8205411843361L457.949221875,348.81483173592534L458.8419104166667,348.83502945634655L459.73459895833327,348.8317022173458L460.62728749999997,348.8191949010353L461.51997604166667,-51.59600028793632L462.41266458333325,50.20403628606116L463.30535312499995,313.3886790285118L464.19804166666665,320.8061750157645L465.0907302083333,346.0607704786863L465.98341874999994,348.037367773673L466.87610729166664,348.2884783186471L467.7687958333333,348.2435477539025L468.661484375,348.5246852393953L469.5541729166667,348.5411010894703L470.4468614583333,348.5559861691205L471.33955,302.4988155138749L472.2322385416667,325.47087267765744L473.12492708333326,345.0872446517008L474.01761562499996,340.9418125611943L474.91030416666666,347.70040886770346L475.8029927083333,348.23323412701114L476.69568125,348.5476059712561L477.58836979166665,348.6482650352615L478.4810583333333,343.23449173508186L479.373746875,343.72339524133673L480.2664354166666,261.3102830035861L481.1591239583333,246.41781434821166L482.0518125,316.89191530775713L482.9445010416666,332.58029784434416L483.83718958333327,335.27531272651424L484.72987812499997,347.6134799628788L485.6225666666666,348.54344501143873L486.5152552083333,348.66094089730285L487.40794375,348.6861166297266L488.3006322916666,348.7415480521582L489.1933208333333,348.7485403653877L490.086009375,348.7514565908105L490.9786979166666,348.7718034116032L491.8713864583333,348.78511397083594L492.764075,348.79652202519605L493.65676354166663,348.80374328625237L494.54945208333334,348.80362439932503L495.442140625,348.8229650529286L496.3348291666666,348.79769054832667L497.2275177083333,348.7903169969674L498.12020625,348.8325369215869L499.0128947916666,348.8338495618541L499.9055833333333,348.83815930800824L500.798271875,348.8428599612553L501.6909604166666,348.85341299002334L502.5836489583333,348.8497354948956L503.47633749999994,348.85285326861725L504.36902604166664,348.84124549231797L505.26171458333334,348.86253040914573L506.15440312499993,348.87143782582444L507.04709166666663,348.86975573612506L507.93978020833333,348.8481813784698L508.8324687499999,348.87526322716536L509.7251572916666,348.87513924957017L510.6178458333333,348.8800468516866L511.51053437499996,348.8819445799262L512.4032229166667,348.8823861705674L513.2959114583333,348.88892845553914L514.1886,348.88044717982064L515.0812885416666,348.88434549506115L515.9739770833334,348.8845337753939L516.866665625,348.8845615137486L517.7593541666666,348.8912651257851L518.6520427083333,348.8913727322554L519.5447312499999,348.8923449836965L520.4374197916667,348.895113763628L521.3301083333333,348.8956280656991L522.222796875,348.88672635536153L523.1154854166666,348.89692535545413L524.0081739583334,348.8939924428057L524.9008624999999,348.8972696345917L525.7935510416667,348.9000880237423L526.6862395833333,348.9007454202711L527.578928125,348.89997966110946L528.4716166666667,348.90137829110284L529.3643052083332,348.90193441143987L530.25699375,348.90383448460966L531.1496822916666,348.90480205342146L532.0423708333333,348.90289455188474L532.9350593749999,348.90564408892664L533.8277479166667,348.90400501061856L534.7204364583333,348.906330695848L535.613125,348.9060760436609L536.5058135416666,348.90603056751047L537.3985020833334,348.9079981622735L538.2911906249999,348.90727346108326L539.1838791666665,348.906547246535L540.0765677083333,348.9081541992996L540.96925625,348.90766933798193L541.8619447916667,348.9081567281053L542.7546333333333,348.9100577723035L543.6473218749999,348.9106006701267L544.5400104166666,348.9090529036066L545.4326989583333,348.9108329638693L546.3253875,348.91016975253336L547.2180760416667,348.91171201105016L548.1107645833333,348.91123646695615L549.003453125,348.91233450840656L549.8961416666666,348.91232307506414L550.7888302083333,348.9111125998929L551.68151875,348.91272865811436L552.5742072916667,348.91157846469355L553.4668958333334,348.9130167699759L554.3595843749999,348.9130817653459L555.2522729166666,348.9140604875547L556.1449614583333,348.913664433495L557.03765,348.91348312493926L557.9303385416666,348.91262157847865L558.8230270833333,348.9137406483745L559.7157156249999,348.9119420425032L560.6084041666666,348.913989484205L561.5010927083333,348.9145777476468L562.39378125,348.90913608044957L563.2864697916667,348.9142063473773L564.1791583333332,348.90441927817454L565.0718468749999,348.91480653690667L565.9645354166666,348.91502559780537L566.8572239583333,348.91503882135214L567.7499125,348.91571703507617L568.6426010416667,348.91561502389857L569.5352895833332,348.91608903733163L570.427978125,348.91578260789817L571.3206666666666,348.916388273666L572.2133552083333,348.9164996160129L573.10604375,348.9163939900789L573.9987322916667,348.91619362354214L574.8914208333332,348.9167807682353L575.784109375,348.9170559220333L576.6767979166666,348.91718289483777L577.5694864583334,348.91697754274185L578.462175,348.91697921208424L579.3548635416666,348.91692887381913L580.2475520833333,348.91753447825204L581.1402406249999,348.91738478596653L582.0329291666667,348.91737366252676L582.9256177083333,348.9173289749495L583.81830625,348.91746378248075L584.7109947916666,348.91768251501173L585.6036833333333,348.9173030025234L586.4963718749999,348.9171900205331L587.3890604166667,348.9174774663622L588.2817489583333,348.91787673953587L589.1744375000001,348.91805500626776L590.0671260416666,348.91802732459934L590.9598145833332,348.91793390121205L591.852503125,348.91682343511803L592.7451916666666,348.9163082185758L593.6378802083333,348.91744214275224L594.53056875,348.91824546547446L595.4232572916666,348.9179850550376L596.3159458333332,348.9181339914189L597.208634375,348.9182451655145L598.1013229166666,348.918135967694L598.9940114583334,348.9179966780663L599.8867,348.918385979476L600.7793885416665,348.9183647678651L601.6720770833333,348.91845217442756L602.564765625,348.91858320792545L603.4574541666667,348.9185875712904L604.3501427083334,348.9182505924267L605.2428312499999,348.91856304959623L606.1355197916666,348.91869754425494L607.0282083333333,348.9183775892487L607.9208968749999,348.9186821996826L608.8135854166667,348.9186937846836L609.7062739583333,348.91880044666095L610.5989624999999,348.91876403987663L611.4916510416666,348.9188288805536L612.3843395833333,348.91874192457664L613.277028125,348.9189510394397L614.1697166666667,348.91878886314487L615.0624052083333,348.91884964177257L615.95509375,348.9188148894811L616.8477822916666,348.91882226187187L617.7404708333332,348.9188720574522L618.633159375,348.91891583627216L619.5258479166666,348.91898383608395L620.4185364583334,348.9189776679233L621.3112249999999,348.9189934644047L622.2039135416666,348.9188254215878L623.0966020833333,348.91897104885425L623.989290625,348.9189326857125L624.8819791666667,348.91896864155615L625.7746677083333,348.91907485385184L626.6673562499999,348.918942013234L627.5600447916667,348.919014376088L628.4527333333333,348.9188305544799L629.3454218749999,348.91902024328795L630.2381104166667,348.9190521370178L631.1307989583332,348.91910388924606L632.0234874999999,348.9190674822358L632.9161760416666,348.9191124647049L633.8088645833333,348.91908312841446L634.701553125,348.9190617656614L635.5942416666667,348.9190751556195L636.4869302083332,348.919114871664L637.37961875,348.91915609286696L638.2723072916666,348.9191076505283L639.1649958333334,348.91914796905905L640.057684375,348.9191353317932L640.9503729166667,348.91910644691154L641.8430614583333,348.9191395446133L642.7357499999999,348.9191735441963L643.6284385416666,348.91918437610167L644.5211270833333,348.91918242034143L645.413815625,348.91919099555804L646.3065041666667,348.9191747478131L647.1991927083333,348.91908267844224L648.0918812499999,348.91919641152685L648.9845697916667,348.91921130538447L649.8772583333333,348.91918437632756L650.769946875,348.9192316150979L651.6626354166666,348.91917324376834L652.5553239583332,348.91921897791275L653.4480124999999,348.9192325177701L654.3407010416666,348.91922288946546L655.2333895833333,348.91915940520994L656.126078125,348.9192125090335L657.0187666666666,348.91926034966866L657.9114552083332,348.9192382345866L658.80414375,348.9191756518412L659.6968322916666,348.9190149845302L660.5895208333334,348.9192060399929L661.482209375,348.91921356225066L662.3748979166666,348.919212208089L663.2675864583333,348.91927163285357L664.160275,348.91926095143674L665.0529635416666,348.91921250980823L665.9456520833334,348.9192302619693L666.838340625,348.9192523764703L667.7310291666665,348.91929134086354L668.6237177083333,348.91927419043833L669.5164062499999,348.91929073911166L670.4090947916667,348.9192561376637L671.3017833333333,348.9191491770661L672.1944718749999,348.9193063851531L673.0871604166666,348.91928833205566L673.9798489583333,348.91927719932687L674.8725375,348.91932127896234L675.7652260416667,348.9192987125683L676.6579145833333,348.9192972081684L677.550603125,348.91931059756166L678.4432916666666,348.9193181196741L679.3359802083332,348.9193185710022L680.22866875,348.919316013482L681.1213572916666,348.91929284534416L682.0140458333334,348.9193133055057L682.9067343749999,348.91931646481004L683.7994229166666,348.9193051816574L684.6921114583333,348.9193053321862L685.5848,348.9193020223934L686.4774885416666,348.91930578341737L687.3701770833334,348.9193390312121L688.2628656249999,348.9192999162739L689.1555541666665,348.9193349692597L690.0482427083333,348.9193399338843L690.94093125,348.91932127899463L691.8336197916667,348.9193345179357L692.7263083333332,348.9193379781241L693.6189968749999,348.91930849151476L694.5116854166666,348.9193418896365L695.4043739583333,348.91931947369454L696.2970625,348.9193409869723L697.1897510416667,348.91934324361654L698.0824395833332,348.91934580114884L698.975128125,348.91933888077205L699.8678166666666,348.91934219052047L700.7605052083333,348.91934610202884L701.65319375,348.91935527903973L702.5458822916667,348.9193390312484L703.4385708333332,348.91934610202884L704.331259375,348.91934459759665L705.2239479166666,348.91935091620127L706.1166364583333,348.919347907341L707.009325,348.9193611463063L707.9020135416666,348.9193415887484L708.7947020833333,348.91935196930547L709.6873906249999,348.9193533232916L710.5800791666666,348.9193385800293L711.4727677083333,348.9193453498248L712.36545625,348.91933903135737L713.2581447916667,348.91935467726967L714.1508333333333,348.9193113506009L715.0435218749999,348.91929705820456L715.9362104166667,348.91933933211624L716.8288989583333,348.919357686128L717.7215875,348.9193477569171L718.6142760416666,348.9193596418822L719.5069645833332,348.9193629516204L720.399653125,348.9193637038345L721.2923416666666,348.91936280118045L722.1850302083333,348.9193548277379L723.07771875,348.9193641551626L723.9704072916666,348.9193560312921L724.8630958333332,348.919356783482L725.755784375,348.919368217119L726.6484729166666,348.91936159763833L727.5411614583334,348.91936505781865L728.43385,348.91936761535095L729.3265385416665,348.91936355339453L730.2192270833333,348.91936159763634L731.1119156249999,348.9193637038345L732.0046041666667,348.9193629516225L732.8972927083333,348.91936776579297L733.78998125,348.91937107553326L734.6826697916666,348.9193585887881L735.5753583333333,348.9193644560486L736.4680468749999,348.91937212863337L737.3607354166667,348.9193670135789L738.2534239583333,348.91936024365424L739.1461124999998,348.919368217119L740.0388010416666,348.919368217119L740.9314895833332,348.91936776579297L741.824178125,348.91936596048487L742.7168666666666,348.91937077464723L743.6095552083333,348.91936776580707L744.5022437499999,348.91937242952145L745.3949322916666,348.91935467737255L746.2876208333332,348.9193638542765L747.180309375,348.91936716402495L748.0729979166666,348.91935979233426L748.9656864583334,348.91936626137687L749.8583749999999,348.91936234986656L750.7510635416666,348.9193661109228L751.6437520833333,348.9193658100388L752.536440625,348.91937303128844L753.4291291666667,348.91937378350354L754.3218177083334,348.9193737835015L755.2145062499999,348.9193749870456L756.1071947916666,348.919364606529L756.9998833333333,348.9193710755383L757.8925718749999,-115.57858107636987L758.7852604166667,-143.04194114482976L759.6779489583332,227.78957299656716L760.5706374999999,335.37319846741497L761.4633260416666,347.7568585559243L762.3560145833333,348.29137656145105L763.248703125,348.49144588914425L764.1413916666667,348.52706539105156L765.0340802083332,348.67245631847516L765.92676875,348.67635177021504L766.8194572916666,348.6424603186387L767.7121458333334,348.74008526198253L768.604834375,348.68390288340674L769.4975229166666,348.7112814535765L770.3902114583333,348.7508795768356L771.2828999999999,348.7575458559307L772.1755885416666,348.76835233549644L773.0682770833333,348.76853540120027L773.960965625,348.77377179765097L774.8536541666667,348.7939765012123L775.7463427083333,348.7824172391426L776.6390312499999,348.8155256699787L777.5317197916667,348.8174966922652L778.4244083333333,348.8274802934757L779.317096875,348.81355143296855L780.2097854166667,348.8401412967171L781.1024739583332,348.8367728117373L781.9951624999999,348.84431286760184L782.8878510416666,348.7573853676692L783.7805395833333,348.720848702619L784.673228125,348.8268454805872L785.5659166666666,348.8397177300151L786.4586052083332,348.85237072123954L787.35129375,348.85505085867806L788.2439822916666,348.86005535289655L789.1366708333334,348.8690219527207L790.029359375,348.85315193214814L790.9220479166665,348.8659385451388L791.8147364583333,348.8694355157646L792.707425,348.8738573268554L793.6001135416666,348.87327434622114L794.4928020833333,348.8810016494095L795.385490625,348.88303994536705L796.2781791666665,348.8842428015812L797.1708677083333,348.8818767236381L798.0635562499999,348.8726132163981L798.9562447916667,348.8613676502047L799.8489333333333,348.8828157163249L800.741621875,348.88808055151037L801.6343104166666,348.8925192750227L802.5269989583333,348.8948282709605L803.4196875,348.8566591254299L804.3123760416667,348.76238270107007L805.2050645833333,-11.011336810353296L806.0977531249999,100.64457962246095L806.9904416666666,330.92235222381896L807.8831302083332,332.05822645552536L808.77581875,347.62756458459864L809.6685072916666,348.5913476997832L810.5611958333334,348.6917565607709L811.4538843749999,348.7195857046271L812.3465729166666,348.69679192542714L813.2392614583333,348.69153766205466L814.13195,348.7172491211539L815.0246385416666,348.59980174538737L815.9173270833334,348.78856705511197L816.8100156249999,348.7963065064849L817.7027041666665,348.7959705885213L818.5953927083333,348.82067231861686L819.4880812499999,348.82549699077947L820.3807697916667,348.8332637218512L821.2734583333333,348.84348866699514L822.1661468749999,348.8517079427344L823.0588354166666,348.8638091088727L823.9515239583333,348.8572079795824L824.8442125,348.853572341975L825.7369010416667,348.86250693505167L826.6295895833332,348.85874612569074L827.522278125,348.8653127690122L828.4149666666666,348.85733543221954L829.3076552083332,348.8561321628019L830.20034375,348.8715841618641L831.0930322916666,348.87553166485606L831.9857208333332,348.87850558175944L832.8784093749999,348.8758060196217L833.7710979166666,348.8760993610907L834.6637864583333,348.8870378777871L835.556475,348.87472147598197L836.4491635416666,348.88137342930975L837.3418520833333,348.88995481392L838.2345406249999,348.8882335835137L839.1272291666666,348.88942205611204L840.0199177083333,348.8948889602329L840.91260625,348.8910097287986L841.8052947916667,348.8952264070496L842.6979833333332,348.8963278445168L843.5906718749999,348.8950526342938L844.4833604166666,348.8981782031006L845.3760489583333,348.8952129985942L846.2687375,348.9008907294999L847.1614260416667,348.896314859595L848.0541145833332,348.90058321721483L848.946803125,348.90114907675974L849.8394916666666,348.89992706236274L850.7321802083333,348.9021461204143L851.62486875,348.9039917137281L852.5175572916665,348.90426884728765L853.4102458333332,348.902129937297L854.302934375,348.9050294145466L855.1956229166666,348.9054429765575L856.0883114583334,348.90530966262793L856.981,348.90617002061185L857.8736885416665,348.90004849669L858.7663770833333,348.7960512706478L859.6590656249999,348.8957592929507L860.5517541666667,348.90594393215366L861.4444427083333,348.90645140190395L862.33713125,348.9080567328446L863.2298197916666,348.9090469896307L864.1225083333333,348.9081476386601L865.0151968749999,348.90906836051863L865.9078854166667,348.90927580729834L866.8005739583333,348.9022708169837L867.6932625000001,348.9114214473419L868.5859510416666,348.91127127419077L869.4786395833332,348.9126298699245L870.371328125,348.91106265442943L871.2640166666666,348.9120766094726L872.1567052083333,348.9122290485288L873.0493937499999,348.91249345593525L873.9420822916666,348.9145291471609L874.8347708333332,348.91441163361884L875.727459375,348.9139385744278L876.6201479166666,348.9129848329565L877.5128364583334,348.91496451392356L878.4055249999999,348.9132009967817L879.2982135416665,348.91516368165344L880.1909020833333,348.9123361777489L881.0835906249999,348.9153123497107L881.9762791666667,348.9151719604449L882.8689677083333,348.914110244494L883.7616562499999,348.91528241233823L884.6543447916666,348.91591212371225L885.5470333333333,348.91589994169664L886.4397218749999,348.9155025250982L887.3324104166667,348.9159760883976L888.2250989583333,348.91611372572766L889.1177874999998,348.91628912779674L890.0104760416666,348.91577132744106L890.9031645833333,348.9164311740087L891.795853125,348.9164322315516L892.6885416666667,348.9168653231121L893.5812302083332,348.91595060897504L894.4739187499999,348.9169477665188L895.3666072916666,348.9171804933503L896.2592958333333,348.91692144106196L897.151984375,348.91725631478266L898.0446729166666,348.9172105929052L898.9373614583333,348.9171096423695L899.8300499999999,348.91723691552124L900.7227385416666,348.91667972756954L901.6154270833333,348.91723195888636L902.508115625,348.9174807737984L903.4008041666667,348.9175976787691L904.2934927083332,348.9179498498363L905.1861812499999,348.91767711289174L906.0788697916666,348.91798625513565L906.9715583333333,348.91782558454815L907.8642468749999,348.91801544189804L908.7569354166667,348.917624006292L909.6496239583332,348.91775216912265L910.5423124999999,348.9178648714258L911.4350010416666,348.9182186876888L912.3276895833333,348.91777027570254L913.220378125,348.9180844938939L914.1130666666667,348.91783567678675L915.0057552083332,348.91811895119685L915.89844375,348.9179109016564L916.7911322916666,348.9182805206312L917.6838208333334,348.91814241935106L918.576509375,348.9147694622175L919.4691979166665,348.9168641152665L920.3618864583333,348.91837243982843L921.2545749999999,348.9183268598606L922.1472635416666,348.9058911195741L923.0399520833333,-84.00794010097533L923.932640625,98.10888651159863L924.8253291666665,268.3597488302091L925.7180177083333,335.7416168410504L926.6107062499999,348.5090639962882L927.5033947916667,348.5190085497626L928.3960833333333,348.6736522287375L929.288771875,348.71784565486485L930.1814604166666,348.7042300852945L931.0741489583332,348.75082152999994L931.9668374999999,348.7623978408484L932.8595260416666,348.74715043126326L933.7522145833333,348.7655049002018L934.644903125,348.8268574552263L935.5375916666666,348.8122409165677L936.4302802083332,348.8191611918892L937.32296875,348.8323609464561L938.2156572916666,348.83582433602885L939.1083458333334,348.84149181948635L940.0010343749999,348.85246712576134L940.8937229166665,348.83932670722515L941.7864114583333,348.8612113972797L942.6791,348.8453980558391L943.5717885416666,348.8494327158573L944.4644770833333,348.8623920644629L945.3571656249999,348.86937831186424L946.2498541666665,348.86943801564615L947.1425427083333,348.86223618342103L948.0352312499999,348.8741351979833L948.9279197916667,348.87808268031506L949.8206083333333,348.8807454218839L950.7132968749999,348.8677492981617L951.6059854166666,348.880616948634L952.4986739583333,348.88603604303734L953.3913625,348.8813992297398L954.2840510416667,348.8800867010376L955.1767395833333,348.88439853800173L956.069428125,348.88862433358923L956.9621166666666,348.8299222438559L957.8548052083332,348.8831310567513L958.74749375,348.87651753135435L959.6401822916666,348.8891091804448L960.5328708333332,348.89465555393974L961.4255593749999,348.8919570681973L962.3182479166666,348.89799901944417L963.2109364583333,348.89501943752003L964.103625,348.8991851595084L964.9963135416666,348.9007081410462L965.8890020833333,348.8407313348681L966.7816906249999,348.8887675995265L967.6743791666665,348.88541160362416L968.5670677083333,348.90096188728444L969.4597562499999,348.8996661904291L970.3524447916667,348.9038341292546L971.2451333333332,348.88187195940105L972.1378218749999,348.90414507526117L973.0305104166666,348.90602870189645L973.9231989583333,348.90473080266617L974.8158875,348.9086144109591L975.7085760416667,348.90351815765973L976.6012645833332,348.9070777410205L977.493953125,348.89069021295023L978.3866416666666,-34.16012080483367L979.2793302083332,262.23180547707267L980.17201875,299.3751415429116L981.0647072916667,346.30056156014285" style="fill: none;" fill="none"></path></g></g></g></g></g></g><g transform="translate(72, 377)" clip-path="url(#clip_1)"><clipPath id="clip_1"><rect width="1071" height="21"></rect></clipPath><g><g><line x1="0" y1="0" x2="0" y2="5" style="visibility: inherit;" fill="rgb(0, 0, 0)" stroke="rgb(204, 204, 204)" stroke-width="1px"></line><line x1="89.26885416666666" y1="0" x2="89.26885416666666" y2="5" style="visibility: inherit;" fill="rgb(0, 0, 0)" stroke="rgb(204, 204, 204)" stroke-width="1px"></line><line x1="178.5377083333333" y1="0" x2="178.5377083333333" y2="5" style="visibility: inherit;" fill="rgb(0, 0, 0)" stroke="rgb(204, 204, 204)" stroke-width="1px"></line><line x1="267.8065625" y1="0" x2="267.8065625" y2="5" style="visibility: inherit;" fill="rgb(0, 0, 0)" stroke="rgb(204, 204, 204)" stroke-width="1px"></line><line x1="357.0754166666666" y1="0" x2="357.0754166666666" y2="5" style="visibility: inherit;" fill="rgb(0, 0, 0)" stroke="rgb(204, 204, 204)" stroke-width="1px"></line><line x1="446.3442708333333" y1="0" x2="446.3442708333333" y2="5" style="visibility: inherit;" fill="rgb(0, 0, 0)" stroke="rgb(204, 204, 204)" stroke-width="1px"></line><line x1="535.613125" y1="0" x2="535.613125" y2="5" style="visibility: inherit;" fill="rgb(0, 0, 0)" stroke="rgb(204, 204, 204)" stroke-width="1px"></line><line x1="624.8819791666667" y1="0" x2="624.8819791666667" y2="5" style="visibility: inherit;" fill="rgb(0, 0, 0)" stroke="rgb(204, 204, 204)" stroke-width="1px"></line><line x1="714.1508333333333" y1="0" x2="714.1508333333333" y2="5" style="visibility: inherit;" fill="rgb(0, 0, 0)" stroke="rgb(204, 204, 204)" stroke-width="1px"></line><line x1="803.4196875" y1="0" x2="803.4196875" y2="5" style="visibility: inherit;" fill="rgb(0, 0, 0)" stroke="rgb(204, 204, 204)" stroke-width="1px"></line><line x1="892.6885416666667" y1="0" x2="892.6885416666667" y2="5" style="visibility: inherit;" fill="rgb(0, 0, 0)" stroke="rgb(204, 204, 204)" stroke-width="1px"></line><line x1="981.9573958333332" y1="0" x2="981.9573958333332" y2="5" style="visibility: inherit;" fill="rgb(0, 0, 0)" stroke="rgb(204, 204, 204)" stroke-width="1px"></line><line x1="1071.22625" y1="0" x2="1071.22625" y2="5" style="visibility: inherit;" fill="rgb(0, 0, 0)" stroke="rgb(204, 204, 204)" stroke-width="1px"></line></g><g transform="translate(0, 8)"><text x="0" y="0" dx="0em" dy="0.95em" style="text-anchor: middle; visibility: hidden; font-family: Roboto, sans-serif; font-size: 12px; font-weight: 200;" fill="rgb(50, 49, 63)" stroke="none" stroke-width="1px">-100</text><text x="89.26885416666666" y="0" dx="0em" dy="0.95em" style="text-anchor: middle; visibility: inherit; font-family: Roboto, sans-serif; font-size: 12px; font-weight: 200;" fill="rgb(50, 49, 63)" stroke="none" stroke-width="1px">0</text><text x="178.5377083333333" y="0" dx="0em" dy="0.95em" style="text-anchor: middle; visibility: inherit; font-family: Roboto, sans-serif; font-size: 12px; font-weight: 200;" fill="rgb(50, 49, 63)" stroke="none" stroke-width="1px">100</text><text x="267.8065625" y="0" dx="0em" dy="0.95em" style="text-anchor: middle; visibility: inherit; font-family: Roboto, sans-serif; font-size: 12px; font-weight: 200;" fill="rgb(50, 49, 63)" stroke="none" stroke-width="1px">200</text><text x="357.0754166666666" y="0" dx="0em" dy="0.95em" style="text-anchor: middle; visibility: inherit; font-family: Roboto, sans-serif; font-size: 12px; font-weight: 200;" fill="rgb(50, 49, 63)" stroke="none" stroke-width="1px">300</text><text x="446.3442708333333" y="0" dx="0em" dy="0.95em" style="text-anchor: middle; visibility: inherit; font-family: Roboto, sans-serif; font-size: 12px; font-weight: 200;" fill="rgb(50, 49, 63)" stroke="none" stroke-width="1px">400</text><text x="535.613125" y="0" dx="0em" dy="0.95em" style="text-anchor: middle; visibility: inherit; font-family: Roboto, sans-serif; font-size: 12px; font-weight: 200;" fill="rgb(50, 49, 63)" stroke="none" stroke-width="1px">500</text><text x="624.8819791666667" y="0" dx="0em" dy="0.95em" style="text-anchor: middle; visibility: inherit; font-family: Roboto, sans-serif; font-size: 12px; font-weight: 200;" fill="rgb(50, 49, 63)" stroke="none" stroke-width="1px">600</text><text x="714.1508333333333" y="0" dx="0em" dy="0.95em" style="text-anchor: middle; visibility: inherit; font-family: Roboto, sans-serif; font-size: 12px; font-weight: 200;" fill="rgb(50, 49, 63)" stroke="none" stroke-width="1px">700</text><text x="803.4196875" y="0" dx="0em" dy="0.95em" style="text-anchor: middle; visibility: inherit; font-family: Roboto, sans-serif; font-size: 12px; font-weight: 200;" fill="rgb(50, 49, 63)" stroke="none" stroke-width="1px">800</text><text x="892.6885416666667" y="0" dx="0em" dy="0.95em" style="text-anchor: middle; visibility: inherit; font-family: Roboto, sans-serif; font-size: 12px; font-weight: 200;" fill="rgb(50, 49, 63)" stroke="none" stroke-width="1px">900</text><text x="981.9573958333332" y="0" dx="0em" dy="0.95em" style="text-anchor: middle; visibility: inherit; font-family: Roboto, sans-serif; font-size: 12px; font-weight: 200;" fill="rgb(50, 49, 63)" stroke="none" stroke-width="1px">1k</text><text x="1071.22625" y="0" dx="0em" dy="0.95em" style="text-anchor: middle; visibility: hidden; font-family: Roboto, sans-serif; font-size: 12px; font-weight: 200;" fill="rgb(50, 49, 63)" stroke="none" stroke-width="1px">1.1k</text></g><line x1="0" y1="0" x2="1071.22625" y2="0" fill="rgb(0, 0, 0)" stroke="rgb(204, 204, 204)" stroke-width="1px"></line></g></g></g></g></svg>