<svg xmlns="http://www.w3.org/2000/svg" id="export" class="canvas" preserveAspectRatio="xMidYMid meet" style="position: absolute; margin: 0px;" width="264" height="1002"><rect id="background" fill="#fff" pointer-events="all" width="264" height="1002"/><g id="origin" transform="translate(11.962916564941407, 11.962916564941407) scale(1)"><g id="clusters" class="clusters"/><g id="edge-paths" class="edge-paths"><defs><marker id="arrowhead-vee" viewBox="0 0 10 10" refX="9" refY="5" markerUnits="strokeWidth" markerWidth="8" markerHeight="6" orient="auto" style="fill: rgb(0, 0, 0);"><path d="M 0 0 L 10 5 L 0 10 L 4 5 z" style="stroke-width: 1px;"/></marker><marker id="arrowhead-vee-select" viewBox="0 0 10 10" refX="9" refY="5" markerUnits="strokeWidth" markerWidth="8" markerHeight="6" orient="auto" style="fill: rgb(238, 0, 0);"><path d="M 0 0 L 10 5 L 0 10 L 4 5 z" style="stroke-width: 1px;"/></marker></defs><path id="edge-input.1" class="edge-path" d="M133.96007569913104,22.65234375L140.8000630826092,26.262343724568684C147.64005046608736,29.87234369913737,161.32002523304368,37.09234364827474,168.16001261652184,49.043463389078774C175,60.99458312988281,175,77.67682266235352,175,92.4157288869222C175,107.15463511149089,175,119.95020802815755,175,129.90235646565756C175,139.85450490315756,175,146.96322886149088,175,154.07195281982422C175,161.18067677815756,175,168.28940073649088,175,175.45376269022623C175,182.61812464396158,175,189.83812459309897,175,197.05812454223633C175,204.2781244913737,175,211.49812444051108,175,221.5059108734131C175,231.5136973063151,175,244.30927022298178,175,257.10484313964844C175,269.9004160563151,175,282.69598897298175,175,292.64813741048175C175,302.60028584798175,175,309.7090098063151,175,316.81773376464844C175,323.92645772298175,175,331.0351816813151,175,336.25621032714844C175,341.47723897298175,175,344.8105723063151,175,346.47723897298175L175,348.14390563964844" style="stroke: rgb(0, 0, 0); stroke-width: 1px; fill: none; marker-end: url(&quot;#arrowhead-vee&quot;);"/><path id="edge-input.1" class="edge-path" d="M91.03992430086895,22.65234375L84.19993691739079,26.262343724568684C77.35994953391263,29.87234369913737,63.67997476695632,37.09234364827474,56.83998738347816,44.31234359741211C50,51.53234354654948,50,58.75234349568685,50,62.36234347025553L50,65.97234344482422" style="stroke: rgb(0, 0, 0); stroke-width: 1px; fill: none; marker-end: url(&quot;#arrowhead-vee&quot;);"/><path id="edge-13" class="edge-path" d="M175,370.79624938964844L175,372.4629160563151C175,374.12958272298175,175,377.4629160563151,175,381.97398376464844C175,386.48505147298175,175,392.1738535563151,175,395.01825459798175L175,397.86265563964844" style="stroke: rgb(0, 0, 0); stroke-width: 1px; fill: none; marker-end: url(&quot;#arrowhead-vee&quot;);"/><path id="edge-15" class="edge-path" d="M175,440.50328063964844L175,443.3476816813151C175,446.19208272298175,175,451.8808848063151,175,456.39195251464844C175,460.90302022298175,175,464.2363535563151,175,465.90302022298175L175,467.56968688964844" style="stroke: rgb(0, 0, 0); stroke-width: 1px; fill: none; marker-end: url(&quot;#arrowhead-vee&quot;);"/><path id="edge-16" class="edge-path" d="M50,122.74578094482422L50,124.41244761149089C50,126.07911427815755,50,129.41244761149088,50,132.74578094482422C50,136.07911427815756,50,139.41244761149088,50,141.07911427815756L50,142.74578094482422" style="stroke: rgb(0, 0, 0); stroke-width: 1px; fill: none; marker-end: url(&quot;#arrowhead-vee&quot;);"/><path id="edge-17" class="edge-path" d="M50,165.39812469482422L50,167.06479136149088C50,168.73145802815756,50,172.06479136149088,50,175.45376269022623C50,178.84273401896158,50,182.28734334309897,50,184.00964800516763L50,185.73195266723633" style="stroke: rgb(0, 0, 0); stroke-width: 1px; fill: none; marker-end: url(&quot;#arrowhead-vee&quot;);"/><path id="edge-18" class="edge-path" d="M50,208.38429641723633L50,210.10660107930502C50,211.8289057413737,50,215.27351506551108,50,218.66248639424643C50,222.05145772298178,50,225.3847910563151,50,227.05145772298178L50,228.71812438964844" style="stroke: rgb(0, 0, 0); stroke-width: 1px; fill: none; marker-end: url(&quot;#arrowhead-vee&quot;);"/><path id="edge-19" class="edge-path" d="M50,285.49156188964844L50,287.1582285563151C50,288.82489522298175,50,292.1582285563151,50,295.49156188964844C50,298.82489522298175,50,302.1582285563151,50,303.82489522298175L50,305.49156188964844" style="stroke: rgb(0, 0, 0); stroke-width: 1px; fill: none; marker-end: url(&quot;#arrowhead-vee&quot;);"/><path id="edge-20" class="edge-path" d="M50,328.14390563964844L50,329.8105723063151C50,331.47723897298175,50,334.8105723063151,50,338.14390563964844C50,341.47723897298175,50,344.8105723063151,50,346.47723897298175L50,348.14390563964844" style="stroke: rgb(0, 0, 0); stroke-width: 1px; fill: none; marker-end: url(&quot;#arrowhead-vee&quot;);"/><path id="edge-21" class="edge-path" d="M50,370.79624938964844L50,372.4629160563151C50,374.12958272298175,50,377.4629160563151,50,380.79624938964844C50,384.12958272298175,50,387.4629160563151,50,389.12958272298175L50,390.79624938964844" style="stroke: rgb(0, 0, 0); stroke-width: 1px; fill: none; marker-end: url(&quot;#arrowhead-vee&quot;);"/><path id="edge-22" class="edge-path" d="M50,447.56968688964844L50,449.2363535563151C50,450.90302022298175,50,454.2363535563151,50,457.56968688964844C50,460.90302022298175,50,464.2363535563151,50,465.90302022298175L50,467.56968688964844" style="stroke: rgb(0, 0, 0); stroke-width: 1px; fill: none; marker-end: url(&quot;#arrowhead-vee&quot;);"/><path id="edge-23" class="edge-path" d="M50,490.22203063964844L50,491.8886973063151C50,493.55536397298175,50,496.8886973063151,50,501.8935801188151C50,506.8984629313151,50,513.5748952229818,50,516.9131113688151L50,520.2513275146484" style="stroke: rgb(0, 0, 0); stroke-width: 1px; fill: none; marker-end: url(&quot;#arrowhead-vee&quot;);"/><path id="edge-24" class="edge-path" d="M50,542.9036712646484L50,546.2418874104818C50,549.5801035563151,50,556.2565358479818,55.856770833333336,561.5931920166016C61.713541666666664,566.9298481852214,73.42708333333333,570.9267282307943,79.28385416666667,572.9251682535808L85.140625,574.9236082763672" style="stroke: rgb(0, 0, 0); stroke-width: 1px; fill: none; marker-end: url(&quot;#arrowhead-vee&quot;);"/><path id="edge-26" class="edge-path" d="M175,490.22203063964844L175,491.8886973063151C175,493.55536397298175,175,496.8886973063151,175,500.22203063964844C175,503.55536397298175,175,506.8886973063151,175,508.55536397298175L175,510.22203063964844" style="stroke: rgb(0, 0, 0); stroke-width: 1px; fill: none; marker-end: url(&quot;#arrowhead-vee&quot;);"/><path id="edge-28" class="edge-path" d="M175,552.9329681396484L175,554.5996348063151C175,556.2663014729818,175,559.5996348063151,169.14322916666666,563.2647414957682C163.28645833333334,566.9298481852214,151.57291666666666,570.9267282307943,145.71614583333334,572.9251682535808L139.859375,574.9236082763672" style="stroke: rgb(0, 0, 0); stroke-width: 1px; fill: none; marker-end: url(&quot;#arrowhead-vee&quot;);"/><path id="edge-29" class="edge-path" d="M112.5,595.5853118896484L112.5,597.2519785563151C112.5,598.9186452229818,112.5,602.2519785563151,112.5,605.5853118896484C112.5,608.9186452229818,112.5,612.2519785563151,112.5,613.9186452229818L112.5,615.5853118896484" style="stroke: rgb(0, 0, 0); stroke-width: 1px; fill: none; marker-end: url(&quot;#arrowhead-vee&quot;);"/><path id="edge-30" class="edge-path" d="M112.5,672.3587493896484L112.5,674.0254160563151C112.5,675.6920827229818,112.5,679.0254160563151,112.5,682.3587493896484C112.5,685.6920827229818,112.5,689.0254160563151,112.5,690.6920827229818L112.5,692.3587493896484" style="stroke: rgb(0, 0, 0); stroke-width: 1px; fill: none; marker-end: url(&quot;#arrowhead-vee&quot;);"/><path id="edge-31" class="edge-path" d="M112.5,715.0110931396484L112.5,716.6777598063151C112.5,718.3444264729818,112.5,721.6777598063151,112.5,725.0110931396484C112.5,728.3444264729818,112.5,731.6777598063151,112.5,733.3444264729818L112.5,735.0110931396484" style="stroke: rgb(0, 0, 0); stroke-width: 1px; fill: none; marker-end: url(&quot;#arrowhead-vee&quot;);"/><path id="edge-32" class="edge-path" d="M112.5,791.7845306396484L112.5,793.4511973063151C112.5,795.1178639729818,112.5,798.4511973063151,112.5,801.7845306396484C112.5,805.1178639729818,112.5,808.4511973063151,112.5,810.1178639729818L112.5,811.7845306396484" style="stroke: rgb(0, 0, 0); stroke-width: 1px; fill: none; marker-end: url(&quot;#arrowhead-vee&quot;);"/><path id="edge-33" class="edge-path" d="M112.5,834.4368743896484L112.5,836.1035410563151C112.5,837.7702077229818,112.5,841.1035410563151,112.5,844.4368743896484C112.5,847.7702077229818,112.5,851.1035410563151,112.5,852.7702077229818L112.5,854.4368743896484" style="stroke: rgb(0, 0, 0); stroke-width: 1px; fill: none; marker-end: url(&quot;#arrowhead-vee&quot;);"/><path id="edge-34" class="edge-path" d="M112.5,911.2103118896484L112.5,914.8203118642172C112.5,918.4303118387858,112.5,925.6503117879232,112.5,932.8703117370605C112.5,940.0903116861979,112.5,947.3103116353353,112.5,950.9203116099039L112.5,954.5303115844727" style="stroke: rgb(0, 0, 0); stroke-width: 1px; fill: none; marker-end: url(&quot;#arrowhead-vee&quot;);"/></g><g id="edge-labels" class="edge-labels"><g style="opacity: 1;" class="edge-label" id="edge-label-edge-input.1" transform="translate(209.12916564941406,197.05812454223633)"><g transform="translate(-29.129165649414062,-6.659999847412109)"><text style="font-family: -apple-system, BlinkMacSystemFont, &quot;Segoe WPC&quot;, &quot;Segoe UI&quot;, &quot;Ubuntu&quot;, &quot;Droid Sans&quot;, sans-serif, &quot;PingFang SC&quot;; font-size: 10px;"><tspan xml:space="preserve" dy="1em" x="1">64×1×28×28</tspan></text></g></g><g style="opacity: 1;" class="edge-label" id="edge-label-edge-input.1" transform="translate(84.12916564941406,44.31234359741211)"><g transform="translate(-29.129165649414062,-6.659999847412109)"><text style="font-family: -apple-system, BlinkMacSystemFont, &quot;Segoe WPC&quot;, &quot;Segoe UI&quot;, &quot;Ubuntu&quot;, &quot;Droid Sans&quot;, sans-serif, &quot;PingFang SC&quot;; font-size: 10px;"><tspan xml:space="preserve" dy="1em" x="1">64×1×28×28</tspan></text></g></g><g style="opacity: 1;" class="edge-label" id="edge-label-edge-34" transform="translate(131.70208263397217,932.8703117370605)"><g transform="translate(-14.202082633972168,-6.659999847412109)"><text style="font-family: -apple-system, BlinkMacSystemFont, &quot;Segoe WPC&quot;, &quot;Segoe UI&quot;, &quot;Ubuntu&quot;, &quot;Droid Sans&quot;, sans-serif, &quot;PingFang SC&quot;; font-size: 10px;"><tspan xml:space="preserve" dy="1em" x="1">64×10</tspan></text></g></g></g><g id="nodes" class="nodes"><g id="node-name-Shape_0" class="node graph-node" style="opacity: 1;" transform="translate(175,359.47007751464844)"><g transform="translate(-21.94140625,-11.326171875)"><g class="node-item node-item-type" transform="translate(0,0)"><path d="M5,0h33.88424873352051a5,5 0 0 1 5,5v12.651999473571777a5,5 0 0 1 -5,5h-33.88424873352051a5,5 0 0 1 -5,-5v-12.651999473571777a5,5 0 0 1 5,-5z" style="stroke: rgb(0, 0, 0); fill: rgb(0, 0, 0); stroke-width: 0px;"/><text x="6" y="15.880000114440918" style="font-family: -apple-system, BlinkMacSystemFont, &quot;Segoe WPC&quot;, &quot;Segoe UI&quot;, &quot;Ubuntu&quot;, &quot;Droid Sans&quot;, sans-serif, &quot;PingFang SC&quot;; font-size: 11px; text-rendering: geometricprecision; fill: rgb(255, 255, 255);">Shape</text><title>Shape_0</title></g><path class="node border" d="M5,0h33.88424873352051a5,5 0 0 1 5,5v12.651999473571777a5,5 0 0 1 -5,5h-33.88424873352051a5,5 0 0 1 -5,-5v-12.651999473571777a5,5 0 0 1 5,-5z" style="stroke: rgb(51, 51, 51); fill: none; stroke-width: 1px;"/></g></g><g id="node-name-Gather_2" class="node graph-node" style="opacity: 1;" transform="translate(175,419.18296813964844)"><g transform="translate(-50,-21.3203125)"><g class="node-item node-item-type node-item-type-transform" transform="translate(0,0)"><path d="M5,0h90a5,5 0 0 1 5,5v17.651999473571777a0,0 0 0 1 0,0h-100a0,0 0 0 1 0,0v-17.651999473571777a5,5 0 0 1 5,-5z" style="stroke: rgb(0, 0, 0); fill: rgb(51, 85, 68); stroke-width: 0px;"/><text x="6" y="15.880000114440918" style="font-family: -apple-system, BlinkMacSystemFont, &quot;Segoe WPC&quot;, &quot;Segoe UI&quot;, &quot;Ubuntu&quot;, &quot;Droid Sans&quot;, sans-serif, &quot;PingFang SC&quot;; font-size: 11px; text-rendering: geometricprecision; fill: rgb(255, 255, 255);">Gather</text><title>Gather_2</title></g><g class="node-attribute" transform="translate(0,22.651999473571777)"><path d="M0,0h100a0,0 0 0 1 0,0v14.98799991607666a5,5 0 0 1 -5,5h-90a5,5 0 0 1 -5,-5v-14.98799991607666a0,0 0 0 1 0,0z" style="stroke: rgb(0, 0, 0); fill: rgb(255, 255, 255); stroke-width: 0px;"/><text id="initializer-14" xml:space="preserve" x="6" y="13.720000267028809" style="font-family: -apple-system, BlinkMacSystemFont, &quot;Segoe WPC&quot;, &quot;Segoe UI&quot;, &quot;Ubuntu&quot;, &quot;Droid Sans&quot;, sans-serif, &quot;PingFang SC&quot;; font-size: 9px; font-weight: normal; text-rendering: geometricprecision;"><title>int64</title><tspan>indices</tspan><tspan> = 0</tspan></text><line class="node" x1="0" x2="100" y1="0" y2="0" style="stroke: rgb(51, 51, 51); fill: none; stroke-width: 1px;"/></g><path class="node border" d="M5,0h90a5,5 0 0 1 5,5v32.63999938964844a5,5 0 0 1 -5,5h-90a5,5 0 0 1 -5,-5v-32.63999938964844a5,5 0 0 1 5,-5z" style="stroke: rgb(51, 51, 51); fill: none; stroke-width: 1px;"/></g></g><g id="node-name-Conv_3" class="node graph-node" style="opacity: 1;" transform="translate(50,94.35906219482422)"><g transform="translate(-50,-28.38671875)"><g class="node-item node-item-type node-item-type-layer" transform="translate(0,0)"><path d="M5,0h90a5,5 0 0 1 5,5v17.651999473571777a0,0 0 0 1 0,0h-100a0,0 0 0 1 0,0v-17.651999473571777a5,5 0 0 1 5,-5z" style="stroke: rgb(0, 0, 0); fill: rgb(51, 85, 136); stroke-width: 0px;"/><text x="6" y="15.880000114440918" style="font-family: -apple-system, BlinkMacSystemFont, &quot;Segoe WPC&quot;, &quot;Segoe UI&quot;, &quot;Ubuntu&quot;, &quot;Droid Sans&quot;, sans-serif, &quot;PingFang SC&quot;; font-size: 11px; text-rendering: geometricprecision; fill: rgb(255, 255, 255);">Conv</text><title>Conv_3</title></g><g class="node-attribute" transform="translate(0,22.651999473571777)"><path d="M0,0h100a0,0 0 0 1 0,0v29.1200008392334a5,5 0 0 1 -5,5h-90a5,5 0 0 1 -5,-5v-29.1200008392334a0,0 0 0 1 0,0z" style="stroke: rgb(0, 0, 0); fill: rgb(255, 255, 255); stroke-width: 0px;"/><text id="initializer-conv1.weight" xml:space="preserve" x="6" y="13.720000267028809" style="font-family: -apple-system, BlinkMacSystemFont, &quot;Segoe WPC&quot;, &quot;Segoe UI&quot;, &quot;Ubuntu&quot;, &quot;Droid Sans&quot;, sans-serif, &quot;PingFang SC&quot;; font-size: 9px; font-weight: normal; text-rendering: geometricprecision;"><title>float32[10,1,5,5]</title><tspan style="font-weight: bold;">W</tspan><tspan>〈10×1×5×5〉</tspan></text><text id="initializer-conv1.bias" xml:space="preserve" x="6" y="27.780000686645508" style="font-family: -apple-system, BlinkMacSystemFont, &quot;Segoe WPC&quot;, &quot;Segoe UI&quot;, &quot;Ubuntu&quot;, &quot;Droid Sans&quot;, sans-serif, &quot;PingFang SC&quot;; font-size: 9px; font-weight: normal; text-rendering: geometricprecision;"><title>float32[10]</title><tspan style="font-weight: bold;">B</tspan><tspan>〈10〉</tspan></text><line class="node" x1="0" x2="100" y1="0" y2="0" style="stroke: rgb(51, 51, 51); fill: none; stroke-width: 1px;"/></g><path class="node border" d="M5,0h90a5,5 0 0 1 5,5v46.772000312805176a5,5 0 0 1 -5,5h-90a5,5 0 0 1 -5,-5v-46.772000312805176a5,5 0 0 1 5,-5z" style="stroke: rgb(51, 51, 51); fill: none; stroke-width: 1px;"/></g></g><g id="node-name-MaxPool_4" class="node graph-node" style="opacity: 1;" transform="translate(50,154.07195281982422)"><g transform="translate(-27.9140625,-11.326171875)"><g class="node-item node-item-type node-item-type-pool" transform="translate(0,0)"><path d="M5,0h45.82841873168945a5,5 0 0 1 5,5v12.651999473571777a5,5 0 0 1 -5,5h-45.82841873168945a5,5 0 0 1 -5,-5v-12.651999473571777a5,5 0 0 1 5,-5z" style="stroke: rgb(0, 0, 0); fill: rgb(51, 85, 51); stroke-width: 0px;"/><text x="6" y="15.880000114440918" style="font-family: -apple-system, BlinkMacSystemFont, &quot;Segoe WPC&quot;, &quot;Segoe UI&quot;, &quot;Ubuntu&quot;, &quot;Droid Sans&quot;, sans-serif, &quot;PingFang SC&quot;; font-size: 11px; text-rendering: geometricprecision; fill: rgb(255, 255, 255);">MaxPool</text><title>MaxPool_4</title></g><path class="node border" d="M5,0h45.82841873168945a5,5 0 0 1 5,5v12.651999473571777a5,5 0 0 1 -5,5h-45.82841873168945a5,5 0 0 1 -5,-5v-12.651999473571777a5,5 0 0 1 5,-5z" style="stroke: rgb(51, 51, 51); fill: none; stroke-width: 1px;"/></g></g><g id="node-name-Relu_5" class="node graph-node" style="opacity: 1;" transform="translate(50,197.05812454223633)"><g transform="translate(-17.44921875,-11.326171875)"><g class="node-item node-item-type node-item-type-activation" transform="translate(0,0)"><path d="M5,0h24.89816665649414a5,5 0 0 1 5,5v12.651999473571777a5,5 0 0 1 -5,5h-24.89816665649414a5,5 0 0 1 -5,-5v-12.651999473571777a5,5 0 0 1 5,-5z" style="stroke: rgb(0, 0, 0); fill: rgb(75, 27, 22); stroke-width: 0px;"/><text x="6" y="15.880000114440918" style="font-family: -apple-system, BlinkMacSystemFont, &quot;Segoe WPC&quot;, &quot;Segoe UI&quot;, &quot;Ubuntu&quot;, &quot;Droid Sans&quot;, sans-serif, &quot;PingFang SC&quot;; font-size: 11px; text-rendering: geometricprecision; fill: rgb(255, 255, 255);">Relu</text><title>Relu_5</title></g><path class="node border" d="M5,0h24.89816665649414a5,5 0 0 1 5,5v12.651999473571777a5,5 0 0 1 -5,5h-24.89816665649414a5,5 0 0 1 -5,-5v-12.651999473571777a5,5 0 0 1 5,-5z" style="stroke: rgb(51, 51, 51); fill: none; stroke-width: 1px;"/></g></g><g id="node-name-Conv_6" class="node graph-node" style="opacity: 1;" transform="translate(50,257.10484313964844)"><g transform="translate(-50,-28.38671875)"><g class="node-item node-item-type node-item-type-layer" transform="translate(0,0)"><path d="M5,0h90a5,5 0 0 1 5,5v17.651999473571777a0,0 0 0 1 0,0h-100a0,0 0 0 1 0,0v-17.651999473571777a5,5 0 0 1 5,-5z" style="stroke: rgb(0, 0, 0); fill: rgb(51, 85, 136); stroke-width: 0px;"/><text x="6" y="15.880000114440918" style="font-family: -apple-system, BlinkMacSystemFont, &quot;Segoe WPC&quot;, &quot;Segoe UI&quot;, &quot;Ubuntu&quot;, &quot;Droid Sans&quot;, sans-serif, &quot;PingFang SC&quot;; font-size: 11px; text-rendering: geometricprecision; fill: rgb(255, 255, 255);">Conv</text><title>Conv_6</title></g><g class="node-attribute" transform="translate(0,22.651999473571777)"><path d="M0,0h100a0,0 0 0 1 0,0v29.1200008392334a5,5 0 0 1 -5,5h-90a5,5 0 0 1 -5,-5v-29.1200008392334a0,0 0 0 1 0,0z" style="stroke: rgb(0, 0, 0); fill: rgb(255, 255, 255); stroke-width: 0px;"/><text id="initializer-conv2.weight" xml:space="preserve" x="6" y="13.720000267028809" style="font-family: -apple-system, BlinkMacSystemFont, &quot;Segoe WPC&quot;, &quot;Segoe UI&quot;, &quot;Ubuntu&quot;, &quot;Droid Sans&quot;, sans-serif, &quot;PingFang SC&quot;; font-size: 9px; font-weight: normal; text-rendering: geometricprecision;"><title>float32[20,10,5,5]</title><tspan style="font-weight: bold;">W</tspan><tspan>〈20×10×5×5〉</tspan></text><text id="initializer-conv2.bias" xml:space="preserve" x="6" y="27.780000686645508" style="font-family: -apple-system, BlinkMacSystemFont, &quot;Segoe WPC&quot;, &quot;Segoe UI&quot;, &quot;Ubuntu&quot;, &quot;Droid Sans&quot;, sans-serif, &quot;PingFang SC&quot;; font-size: 9px; font-weight: normal; text-rendering: geometricprecision;"><title>float32[20]</title><tspan style="font-weight: bold;">B</tspan><tspan>〈20〉</tspan></text><line class="node" x1="0" x2="100" y1="0" y2="0" style="stroke: rgb(51, 51, 51); fill: none; stroke-width: 1px;"/></g><path class="node border" d="M5,0h90a5,5 0 0 1 5,5v46.772000312805176a5,5 0 0 1 -5,5h-90a5,5 0 0 1 -5,-5v-46.772000312805176a5,5 0 0 1 5,-5z" style="stroke: rgb(51, 51, 51); fill: none; stroke-width: 1px;"/></g></g><g id="node-name-MaxPool_7" class="node graph-node" style="opacity: 1;" transform="translate(50,316.81773376464844)"><g transform="translate(-27.9140625,-11.326171875)"><g class="node-item node-item-type node-item-type-pool" transform="translate(0,0)"><path d="M5,0h45.82841873168945a5,5 0 0 1 5,5v12.651999473571777a5,5 0 0 1 -5,5h-45.82841873168945a5,5 0 0 1 -5,-5v-12.651999473571777a5,5 0 0 1 5,-5z" style="stroke: rgb(0, 0, 0); fill: rgb(51, 85, 51); stroke-width: 0px;"/><text x="6" y="15.880000114440918" style="font-family: -apple-system, BlinkMacSystemFont, &quot;Segoe WPC&quot;, &quot;Segoe UI&quot;, &quot;Ubuntu&quot;, &quot;Droid Sans&quot;, sans-serif, &quot;PingFang SC&quot;; font-size: 11px; text-rendering: geometricprecision; fill: rgb(255, 255, 255);">MaxPool</text><title>MaxPool_7</title></g><path class="node border" d="M5,0h45.82841873168945a5,5 0 0 1 5,5v12.651999473571777a5,5 0 0 1 -5,5h-45.82841873168945a5,5 0 0 1 -5,-5v-12.651999473571777a5,5 0 0 1 5,-5z" style="stroke: rgb(51, 51, 51); fill: none; stroke-width: 1px;"/></g></g><g id="node-name-Relu_8" class="node graph-node" style="opacity: 1;" transform="translate(50,359.47007751464844)"><g transform="translate(-17.44921875,-11.326171875)"><g class="node-item node-item-type node-item-type-activation" transform="translate(0,0)"><path d="M5,0h24.89816665649414a5,5 0 0 1 5,5v12.651999473571777a5,5 0 0 1 -5,5h-24.89816665649414a5,5 0 0 1 -5,-5v-12.651999473571777a5,5 0 0 1 5,-5z" style="stroke: rgb(0, 0, 0); fill: rgb(75, 27, 22); stroke-width: 0px;"/><text x="6" y="15.880000114440918" style="font-family: -apple-system, BlinkMacSystemFont, &quot;Segoe WPC&quot;, &quot;Segoe UI&quot;, &quot;Ubuntu&quot;, &quot;Droid Sans&quot;, sans-serif, &quot;PingFang SC&quot;; font-size: 11px; text-rendering: geometricprecision; fill: rgb(255, 255, 255);">Relu</text><title>Relu_8</title></g><path class="node border" d="M5,0h24.89816665649414a5,5 0 0 1 5,5v12.651999473571777a5,5 0 0 1 -5,5h-24.89816665649414a5,5 0 0 1 -5,-5v-12.651999473571777a5,5 0 0 1 5,-5z" style="stroke: rgb(51, 51, 51); fill: none; stroke-width: 1px;"/></g></g><g id="node-name-Conv_9" class="node graph-node" style="opacity: 1;" transform="translate(50,419.18296813964844)"><g transform="translate(-50,-28.38671875)"><g class="node-item node-item-type node-item-type-layer" transform="translate(0,0)"><path d="M5,0h90a5,5 0 0 1 5,5v17.651999473571777a0,0 0 0 1 0,0h-100a0,0 0 0 1 0,0v-17.651999473571777a5,5 0 0 1 5,-5z" style="stroke: rgb(0, 0, 0); fill: rgb(51, 85, 136); stroke-width: 0px;"/><text x="6" y="15.880000114440918" style="font-family: -apple-system, BlinkMacSystemFont, &quot;Segoe WPC&quot;, &quot;Segoe UI&quot;, &quot;Ubuntu&quot;, &quot;Droid Sans&quot;, sans-serif, &quot;PingFang SC&quot;; font-size: 11px; text-rendering: geometricprecision; fill: rgb(255, 255, 255);">Conv</text><title>Conv_9</title></g><g class="node-attribute" transform="translate(0,22.651999473571777)"><path d="M0,0h100a0,0 0 0 1 0,0v29.1200008392334a5,5 0 0 1 -5,5h-90a5,5 0 0 1 -5,-5v-29.1200008392334a0,0 0 0 1 0,0z" style="stroke: rgb(0, 0, 0); fill: rgb(255, 255, 255); stroke-width: 0px;"/><text id="initializer-conv3.weight" xml:space="preserve" x="6" y="13.720000267028809" style="font-family: -apple-system, BlinkMacSystemFont, &quot;Segoe WPC&quot;, &quot;Segoe UI&quot;, &quot;Ubuntu&quot;, &quot;Droid Sans&quot;, sans-serif, &quot;PingFang SC&quot;; font-size: 9px; font-weight: normal; text-rendering: geometricprecision;"><title>float32[30,20,6,6]</title><tspan style="font-weight: bold;">W</tspan><tspan>〈30×20×6×6〉</tspan></text><text id="initializer-conv3.bias" xml:space="preserve" x="6" y="27.780000686645508" style="font-family: -apple-system, BlinkMacSystemFont, &quot;Segoe WPC&quot;, &quot;Segoe UI&quot;, &quot;Ubuntu&quot;, &quot;Droid Sans&quot;, sans-serif, &quot;PingFang SC&quot;; font-size: 9px; font-weight: normal; text-rendering: geometricprecision;"><title>float32[30]</title><tspan style="font-weight: bold;">B</tspan><tspan>〈30〉</tspan></text><line class="node" x1="0" x2="100" y1="0" y2="0" style="stroke: rgb(51, 51, 51); fill: none; stroke-width: 1px;"/></g><path class="node border" d="M5,0h90a5,5 0 0 1 5,5v46.772000312805176a5,5 0 0 1 -5,5h-90a5,5 0 0 1 -5,-5v-46.772000312805176a5,5 0 0 1 5,-5z" style="stroke: rgb(51, 51, 51); fill: none; stroke-width: 1px;"/></g></g><g id="node-name-MaxPool_10" class="node graph-node" style="opacity: 1;" transform="translate(50,478.89585876464844)"><g transform="translate(-27.9140625,-11.326171875)"><g class="node-item node-item-type node-item-type-pool" transform="translate(0,0)"><path d="M5,0h45.82841873168945a5,5 0 0 1 5,5v12.651999473571777a5,5 0 0 1 -5,5h-45.82841873168945a5,5 0 0 1 -5,-5v-12.651999473571777a5,5 0 0 1 5,-5z" style="stroke: rgb(0, 0, 0); fill: rgb(51, 85, 51); stroke-width: 0px;"/><text x="6" y="15.880000114440918" style="font-family: -apple-system, BlinkMacSystemFont, &quot;Segoe WPC&quot;, &quot;Segoe UI&quot;, &quot;Ubuntu&quot;, &quot;Droid Sans&quot;, sans-serif, &quot;PingFang SC&quot;; font-size: 11px; text-rendering: geometricprecision; fill: rgb(255, 255, 255);">MaxPool</text><title>MaxPool_10</title></g><path class="node border" d="M5,0h45.82841873168945a5,5 0 0 1 5,5v12.651999473571777a5,5 0 0 1 -5,5h-45.82841873168945a5,5 0 0 1 -5,-5v-12.651999473571777a5,5 0 0 1 5,-5z" style="stroke: rgb(51, 51, 51); fill: none; stroke-width: 1px;"/></g></g><g id="node-name-Relu_11" class="node graph-node" style="opacity: 1;" transform="translate(50,531.5774993896484)"><g transform="translate(-17.44921875,-11.326171875)"><g class="node-item node-item-type node-item-type-activation" transform="translate(0,0)"><path d="M5,0h24.89816665649414a5,5 0 0 1 5,5v12.651999473571777a5,5 0 0 1 -5,5h-24.89816665649414a5,5 0 0 1 -5,-5v-12.651999473571777a5,5 0 0 1 5,-5z" style="stroke: rgb(0, 0, 0); fill: rgb(75, 27, 22); stroke-width: 0px;"/><text x="6" y="15.880000114440918" style="font-family: -apple-system, BlinkMacSystemFont, &quot;Segoe WPC&quot;, &quot;Segoe UI&quot;, &quot;Ubuntu&quot;, &quot;Droid Sans&quot;, sans-serif, &quot;PingFang SC&quot;; font-size: 11px; text-rendering: geometricprecision; fill: rgb(255, 255, 255);">Relu</text><title>Relu_11</title></g><path class="node border" d="M5,0h24.89816665649414a5,5 0 0 1 5,5v12.651999473571777a5,5 0 0 1 -5,5h-24.89816665649414a5,5 0 0 1 -5,-5v-12.651999473571777a5,5 0 0 1 5,-5z" style="stroke: rgb(51, 51, 51); fill: none; stroke-width: 1px;"/></g></g><g id="node-name-Unsqueeze_12" class="node graph-node" style="opacity: 1;" transform="translate(175,478.89585876464844)"><g transform="translate(-33.69140625,-11.326171875)"><g class="node-item node-item-type node-item-type-transform" transform="translate(0,0)"><path d="M5,0h57.382083892822266a5,5 0 0 1 5,5v12.651999473571777a5,5 0 0 1 -5,5h-57.382083892822266a5,5 0 0 1 -5,-5v-12.651999473571777a5,5 0 0 1 5,-5z" style="stroke: rgb(0, 0, 0); fill: rgb(51, 85, 68); stroke-width: 0px;"/><text x="6" y="15.880000114440918" style="font-family: -apple-system, BlinkMacSystemFont, &quot;Segoe WPC&quot;, &quot;Segoe UI&quot;, &quot;Ubuntu&quot;, &quot;Droid Sans&quot;, sans-serif, &quot;PingFang SC&quot;; font-size: 11px; text-rendering: geometricprecision; fill: rgb(255, 255, 255);">Unsqueeze</text><title>Unsqueeze_12</title></g><path class="node border" d="M5,0h57.382083892822266a5,5 0 0 1 5,5v12.651999473571777a5,5 0 0 1 -5,5h-57.382083892822266a5,5 0 0 1 -5,-5v-12.651999473571777a5,5 0 0 1 5,-5z" style="stroke: rgb(51, 51, 51); fill: none; stroke-width: 1px;"/></g></g><g id="node-name-Concat_13" class="node graph-node" style="opacity: 1;" transform="translate(175,531.5774993896484)"><g transform="translate(-50,-21.35546875)"><g class="node-item node-item-type node-item-type-tensor" transform="translate(0,0)"><path d="M5,0h90a5,5 0 0 1 5,5v17.651999473571777a0,0 0 0 1 0,0h-100a0,0 0 0 1 0,0v-17.651999473571777a5,5 0 0 1 5,-5z" style="stroke: rgb(0, 0, 0); fill: rgb(89, 66, 59); stroke-width: 0px;"/><text x="6" y="15.880000114440918" style="font-family: -apple-system, BlinkMacSystemFont, &quot;Segoe WPC&quot;, &quot;Segoe UI&quot;, &quot;Ubuntu&quot;, &quot;Droid Sans&quot;, sans-serif, &quot;PingFang SC&quot;; font-size: 11px; text-rendering: geometricprecision; fill: rgb(255, 255, 255);">Concat</text><title>Concat_13</title></g><g class="node-attribute" transform="translate(0,22.651999473571777)"><path d="M0,0h100a0,0 0 0 1 0,0v15.0600004196167a5,5 0 0 1 -5,5h-90a5,5 0 0 1 -5,-5v-15.0600004196167a0,0 0 0 1 0,0z" style="stroke: rgb(0, 0, 0); fill: rgb(255, 255, 255); stroke-width: 0px;"/><text xml:space="preserve" x="6" y="13.720000267028809" style="font-family: -apple-system, BlinkMacSystemFont, &quot;Segoe WPC&quot;, &quot;Segoe UI&quot;, &quot;Ubuntu&quot;, &quot;Droid Sans&quot;, sans-serif, &quot;PingFang SC&quot;; font-size: 9px; font-weight: normal; text-rendering: geometricprecision;"><tspan style="font-weight: bold;">〈…〉</tspan><tspan/></text><line class="node" x1="0" x2="100" y1="0" y2="0" style="stroke: rgb(51, 51, 51); fill: none; stroke-width: 1px;"/></g><path class="node border" d="M5,0h90a5,5 0 0 1 5,5v32.71199989318848a5,5 0 0 1 -5,5h-90a5,5 0 0 1 -5,-5v-32.71199989318848a5,5 0 0 1 5,-5z" style="stroke: rgb(51, 51, 51); fill: none; stroke-width: 1px;"/></g></g><g id="node-name-Reshape_14" class="node graph-node" style="opacity: 1;" transform="translate(112.5,584.2591400146484)"><g transform="translate(-27.359375,-11.326171875)"><g class="node-item node-item-type node-item-type-shape" transform="translate(0,0)"><path d="M5,0h44.71741485595703a5,5 0 0 1 5,5v12.651999473571777a5,5 0 0 1 -5,5h-44.71741485595703a5,5 0 0 1 -5,-5v-12.651999473571777a5,5 0 0 1 5,-5z" style="stroke: rgb(0, 0, 0); fill: rgb(108, 79, 71); stroke-width: 0px;"/><text x="6" y="15.880000114440918" style="font-family: -apple-system, BlinkMacSystemFont, &quot;Segoe WPC&quot;, &quot;Segoe UI&quot;, &quot;Ubuntu&quot;, &quot;Droid Sans&quot;, sans-serif, &quot;PingFang SC&quot;; font-size: 11px; text-rendering: geometricprecision; fill: rgb(255, 255, 255);">Reshape</text><title>Reshape_14</title></g><path class="node border" d="M5,0h44.71741485595703a5,5 0 0 1 5,5v12.651999473571777a5,5 0 0 1 -5,5h-44.71741485595703a5,5 0 0 1 -5,-5v-12.651999473571777a5,5 0 0 1 5,-5z" style="stroke: rgb(51, 51, 51); fill: none; stroke-width: 1px;"/></g></g><g id="node-name-Gemm_15" class="node graph-node" style="opacity: 1;" transform="translate(112.5,643.9720306396484)"><g transform="translate(-50,-28.38671875)"><g class="node-item node-item-type node-item-type-layer" transform="translate(0,0)"><path d="M5,0h90a5,5 0 0 1 5,5v17.651999473571777a0,0 0 0 1 0,0h-100a0,0 0 0 1 0,0v-17.651999473571777a5,5 0 0 1 5,-5z" style="stroke: rgb(0, 0, 0); fill: rgb(51, 85, 136); stroke-width: 0px;"/><text x="6" y="15.880000114440918" style="font-family: -apple-system, BlinkMacSystemFont, &quot;Segoe WPC&quot;, &quot;Segoe UI&quot;, &quot;Ubuntu&quot;, &quot;Droid Sans&quot;, sans-serif, &quot;PingFang SC&quot;; font-size: 11px; text-rendering: geometricprecision; fill: rgb(255, 255, 255);">Gemm</text><title>Gemm_15</title></g><g class="node-attribute" transform="translate(0,22.651999473571777)"><path d="M0,0h100a0,0 0 0 1 0,0v29.1200008392334a5,5 0 0 1 -5,5h-90a5,5 0 0 1 -5,-5v-29.1200008392334a0,0 0 0 1 0,0z" style="stroke: rgb(0, 0, 0); fill: rgb(255, 255, 255); stroke-width: 0px;"/><text id="initializer-fc1.weight" xml:space="preserve" x="6" y="13.720000267028809" style="font-family: -apple-system, BlinkMacSystemFont, &quot;Segoe WPC&quot;, &quot;Segoe UI&quot;, &quot;Ubuntu&quot;, &quot;Droid Sans&quot;, sans-serif, &quot;PingFang SC&quot;; font-size: 9px; font-weight: normal; text-rendering: geometricprecision;"><title>float32[60,120]</title><tspan style="font-weight: bold;">B</tspan><tspan>〈60×120〉</tspan></text><text id="initializer-fc1.bias" xml:space="preserve" x="6" y="27.780000686645508" style="font-family: -apple-system, BlinkMacSystemFont, &quot;Segoe WPC&quot;, &quot;Segoe UI&quot;, &quot;Ubuntu&quot;, &quot;Droid Sans&quot;, sans-serif, &quot;PingFang SC&quot;; font-size: 9px; font-weight: normal; text-rendering: geometricprecision;"><title>float32[60]</title><tspan style="font-weight: bold;">C</tspan><tspan>〈60〉</tspan></text><line class="node" x1="0" x2="100" y1="0" y2="0" style="stroke: rgb(51, 51, 51); fill: none; stroke-width: 1px;"/></g><path class="node border" d="M5,0h90a5,5 0 0 1 5,5v46.772000312805176a5,5 0 0 1 -5,5h-90a5,5 0 0 1 -5,-5v-46.772000312805176a5,5 0 0 1 5,-5z" style="stroke: rgb(51, 51, 51); fill: none; stroke-width: 1px;"/></g></g><g id="node-name-Relu_16" class="node graph-node" style="opacity: 1;" transform="translate(112.5,703.6849212646484)"><g transform="translate(-17.44921875,-11.326171875)"><g class="node-item node-item-type node-item-type-activation" transform="translate(0,0)"><path d="M5,0h24.89816665649414a5,5 0 0 1 5,5v12.651999473571777a5,5 0 0 1 -5,5h-24.89816665649414a5,5 0 0 1 -5,-5v-12.651999473571777a5,5 0 0 1 5,-5z" style="stroke: rgb(0, 0, 0); fill: rgb(75, 27, 22); stroke-width: 0px;"/><text x="6" y="15.880000114440918" style="font-family: -apple-system, BlinkMacSystemFont, &quot;Segoe WPC&quot;, &quot;Segoe UI&quot;, &quot;Ubuntu&quot;, &quot;Droid Sans&quot;, sans-serif, &quot;PingFang SC&quot;; font-size: 11px; text-rendering: geometricprecision; fill: rgb(255, 255, 255);">Relu</text><title>Relu_16</title></g><path class="node border" d="M5,0h24.89816665649414a5,5 0 0 1 5,5v12.651999473571777a5,5 0 0 1 -5,5h-24.89816665649414a5,5 0 0 1 -5,-5v-12.651999473571777a5,5 0 0 1 5,-5z" style="stroke: rgb(51, 51, 51); fill: none; stroke-width: 1px;"/></g></g><g id="node-name-Gemm_17" class="node graph-node" style="opacity: 1;" transform="translate(112.5,763.3978118896484)"><g transform="translate(-50,-28.38671875)"><g class="node-item node-item-type node-item-type-layer" transform="translate(0,0)"><path d="M5,0h90a5,5 0 0 1 5,5v17.651999473571777a0,0 0 0 1 0,0h-100a0,0 0 0 1 0,0v-17.651999473571777a5,5 0 0 1 5,-5z" style="stroke: rgb(0, 0, 0); fill: rgb(51, 85, 136); stroke-width: 0px;"/><text x="6" y="15.880000114440918" style="font-family: -apple-system, BlinkMacSystemFont, &quot;Segoe WPC&quot;, &quot;Segoe UI&quot;, &quot;Ubuntu&quot;, &quot;Droid Sans&quot;, sans-serif, &quot;PingFang SC&quot;; font-size: 11px; text-rendering: geometricprecision; fill: rgb(255, 255, 255);">Gemm</text><title>Gemm_17</title></g><g class="node-attribute" transform="translate(0,22.651999473571777)"><path d="M0,0h100a0,0 0 0 1 0,0v29.1200008392334a5,5 0 0 1 -5,5h-90a5,5 0 0 1 -5,-5v-29.1200008392334a0,0 0 0 1 0,0z" style="stroke: rgb(0, 0, 0); fill: rgb(255, 255, 255); stroke-width: 0px;"/><text id="initializer-fc2.weight" xml:space="preserve" x="6" y="13.720000267028809" style="font-family: -apple-system, BlinkMacSystemFont, &quot;Segoe WPC&quot;, &quot;Segoe UI&quot;, &quot;Ubuntu&quot;, &quot;Droid Sans&quot;, sans-serif, &quot;PingFang SC&quot;; font-size: 9px; font-weight: normal; text-rendering: geometricprecision;"><title>float32[20,60]</title><tspan style="font-weight: bold;">B</tspan><tspan>〈20×60〉</tspan></text><text id="initializer-fc2.bias" xml:space="preserve" x="6" y="27.780000686645508" style="font-family: -apple-system, BlinkMacSystemFont, &quot;Segoe WPC&quot;, &quot;Segoe UI&quot;, &quot;Ubuntu&quot;, &quot;Droid Sans&quot;, sans-serif, &quot;PingFang SC&quot;; font-size: 9px; font-weight: normal; text-rendering: geometricprecision;"><title>float32[20]</title><tspan style="font-weight: bold;">C</tspan><tspan>〈20〉</tspan></text><line class="node" x1="0" x2="100" y1="0" y2="0" style="stroke: rgb(51, 51, 51); fill: none; stroke-width: 1px;"/></g><path class="node border" d="M5,0h90a5,5 0 0 1 5,5v46.772000312805176a5,5 0 0 1 -5,5h-90a5,5 0 0 1 -5,-5v-46.772000312805176a5,5 0 0 1 5,-5z" style="stroke: rgb(51, 51, 51); fill: none; stroke-width: 1px;"/></g></g><g id="node-name-Relu_18" class="node graph-node" style="opacity: 1;" transform="translate(112.5,823.1107025146484)"><g transform="translate(-17.44921875,-11.326171875)"><g class="node-item node-item-type node-item-type-activation" transform="translate(0,0)"><path d="M5,0h24.89816665649414a5,5 0 0 1 5,5v12.651999473571777a5,5 0 0 1 -5,5h-24.89816665649414a5,5 0 0 1 -5,-5v-12.651999473571777a5,5 0 0 1 5,-5z" style="stroke: rgb(0, 0, 0); fill: rgb(75, 27, 22); stroke-width: 0px;"/><text x="6" y="15.880000114440918" style="font-family: -apple-system, BlinkMacSystemFont, &quot;Segoe WPC&quot;, &quot;Segoe UI&quot;, &quot;Ubuntu&quot;, &quot;Droid Sans&quot;, sans-serif, &quot;PingFang SC&quot;; font-size: 11px; text-rendering: geometricprecision; fill: rgb(255, 255, 255);">Relu</text><title>Relu_18</title></g><path class="node border" d="M5,0h24.89816665649414a5,5 0 0 1 5,5v12.651999473571777a5,5 0 0 1 -5,5h-24.89816665649414a5,5 0 0 1 -5,-5v-12.651999473571777a5,5 0 0 1 5,-5z" style="stroke: rgb(51, 51, 51); fill: none; stroke-width: 1px;"/></g></g><g id="node-name-Gemm_19" class="node graph-node" style="opacity: 1;" transform="translate(112.5,882.8235931396484)"><g transform="translate(-50,-28.38671875)"><g class="node-item node-item-type node-item-type-layer" transform="translate(0,0)"><path d="M5,0h90a5,5 0 0 1 5,5v17.651999473571777a0,0 0 0 1 0,0h-100a0,0 0 0 1 0,0v-17.651999473571777a5,5 0 0 1 5,-5z" style="stroke: rgb(0, 0, 0); fill: rgb(51, 85, 136); stroke-width: 0px;"/><text x="6" y="15.880000114440918" style="font-family: -apple-system, BlinkMacSystemFont, &quot;Segoe WPC&quot;, &quot;Segoe UI&quot;, &quot;Ubuntu&quot;, &quot;Droid Sans&quot;, sans-serif, &quot;PingFang SC&quot;; font-size: 11px; text-rendering: geometricprecision; fill: rgb(255, 255, 255);">Gemm</text><title>Gemm_19</title></g><g class="node-attribute" transform="translate(0,22.651999473571777)"><path d="M0,0h100a0,0 0 0 1 0,0v29.1200008392334a5,5 0 0 1 -5,5h-90a5,5 0 0 1 -5,-5v-29.1200008392334a0,0 0 0 1 0,0z" style="stroke: rgb(0, 0, 0); fill: rgb(255, 255, 255); stroke-width: 0px;"/><text id="initializer-fc3.weight" xml:space="preserve" x="6" y="13.720000267028809" style="font-family: -apple-system, BlinkMacSystemFont, &quot;Segoe WPC&quot;, &quot;Segoe UI&quot;, &quot;Ubuntu&quot;, &quot;Droid Sans&quot;, sans-serif, &quot;PingFang SC&quot;; font-size: 9px; font-weight: normal; text-rendering: geometricprecision;"><title>float32[10,20]</title><tspan style="font-weight: bold;">B</tspan><tspan>〈10×20〉</tspan></text><text id="initializer-fc3.bias" xml:space="preserve" x="6" y="27.780000686645508" style="font-family: -apple-system, BlinkMacSystemFont, &quot;Segoe WPC&quot;, &quot;Segoe UI&quot;, &quot;Ubuntu&quot;, &quot;Droid Sans&quot;, sans-serif, &quot;PingFang SC&quot;; font-size: 9px; font-weight: normal; text-rendering: geometricprecision;"><title>float32[10]</title><tspan style="font-weight: bold;">C</tspan><tspan>〈10〉</tspan></text><line class="node" x1="0" x2="100" y1="0" y2="0" style="stroke: rgb(51, 51, 51); fill: none; stroke-width: 1px;"/></g><path class="node border" d="M5,0h90a5,5 0 0 1 5,5v46.772000312805176a5,5 0 0 1 -5,5h-90a5,5 0 0 1 -5,-5v-46.772000312805176a5,5 0 0 1 5,-5z" style="stroke: rgb(51, 51, 51); fill: none; stroke-width: 1px;"/></g></g><g id="input-name-input.1" class="node graph-input" style="opacity: 1;" transform="matrix(1, 0, 0, 1, 112.5, 11.3262)"><g transform="translate(-23.8125,-11.326171875)"><g class="node-item graph-item-input" transform="translate(0,0)"><path d="M5,0h37.62333297729492a5,5 0 0 1 5,5v12.651999473571777a5,5 0 0 1 -5,5h-37.62333297729492a5,5 0 0 1 -5,-5v-12.651999473571777a5,5 0 0 1 5,-5z" style="stroke: rgb(0, 0, 0); fill: rgb(238, 238, 238); stroke-width: 0px;"/><text x="6" y="15.880000114440918" style="font-family: -apple-system, BlinkMacSystemFont, &quot;Segoe WPC&quot;, &quot;Segoe UI&quot;, &quot;Ubuntu&quot;, &quot;Droid Sans&quot;, sans-serif, &quot;PingFang SC&quot;; font-size: 11px; text-rendering: geometricprecision;">input.1</text><title>float32[64,1,28,28]</title></g><path class="node border" d="M5,0h37.62333297729492a5,5 0 0 1 5,5v12.651999473571777a5,5 0 0 1 -5,5h-37.62333297729492a5,5 0 0 1 -5,-5v-12.651999473571777a5,5 0 0 1 5,-5z" style="stroke: rgb(51, 51, 51); fill: none; stroke-width: 1px;"/></g></g><g class="node" style="opacity: 1;" transform="translate(112.5,965.8564834594727)"><g transform="translate(-12.9296875,-11.326171875)"><g class="node-item graph-item-output" transform="translate(0,0)"><path d="M5,0h15.859833717346191a5,5 0 0 1 5,5v12.651999473571777a5,5 0 0 1 -5,5h-15.859833717346191a5,5 0 0 1 -5,-5v-12.651999473571777a5,5 0 0 1 5,-5z" style="stroke: rgb(0, 0, 0); fill: rgb(238, 238, 238); stroke-width: 0px;"/><text x="6" y="15.880000114440918" style="font-family: -apple-system, BlinkMacSystemFont, &quot;Segoe WPC&quot;, &quot;Segoe UI&quot;, &quot;Ubuntu&quot;, &quot;Droid Sans&quot;, sans-serif, &quot;PingFang SC&quot;; font-size: 11px; text-rendering: geometricprecision;">34</text><title>float32[64,10]</title></g><path class="node border" d="M5,0h15.859833717346191a5,5 0 0 1 5,5v12.651999473571777a5,5 0 0 1 -5,5h-15.859833717346191a5,5 0 0 1 -5,-5v-12.651999473571777a5,5 0 0 1 5,-5z" style="stroke: rgb(51, 51, 51); fill: none; stroke-width: 1px;"/></g></g></g></g></svg>