<svg viewBox="0 0 1143.567138671875 399.99578857421875" xmlns="http://www.w3.org/2000/svg"><g><g><g><g><g><line x1="51.5625" y1="377.996" x2="46.5625" y2="377.996" style="visibility: inherit;" fill="rgb(0, 0, 0)" stroke="rgb(204, 204, 204)" stroke-width="1px"></line><line x1="51.5625" y1="343.6327272727272" x2="46.5625" y2="343.6327272727272" style="visibility: inherit;" fill="rgb(0, 0, 0)" stroke="rgb(204, 204, 204)" stroke-width="1px"></line><line x1="51.5625" y1="309.26945454545444" x2="46.5625" y2="309.26945454545444" style="visibility: inherit;" fill="rgb(0, 0, 0)" stroke="rgb(204, 204, 204)" stroke-width="1px"></line><line x1="51.5625" y1="274.9061818181817" x2="46.5625" y2="274.9061818181817" style="visibility: inherit;" fill="rgb(0, 0, 0)" stroke="rgb(204, 204, 204)" stroke-width="1px"></line><line x1="51.5625" y1="240.54290909090895" x2="46.5625" y2="240.54290909090895" style="visibility: inherit;" fill="rgb(0, 0, 0)" stroke="rgb(204, 204, 204)" stroke-width="1px"></line><line x1="51.5625" y1="206.17963636363618" x2="46.5625" y2="206.17963636363618" style="visibility: inherit;" fill="rgb(0, 0, 0)" stroke="rgb(204, 204, 204)" stroke-width="1px"></line><line x1="51.5625" y1="171.81636363636343" x2="46.5625" y2="171.81636363636343" style="visibility: inherit;" fill="rgb(0, 0, 0)" stroke="rgb(204, 204, 204)" stroke-width="1px"></line><line x1="51.5625" y1="137.45309090909066" x2="46.5625" y2="137.45309090909066" style="visibility: inherit;" fill="rgb(0, 0, 0)" stroke="rgb(204, 204, 204)" stroke-width="1px"></line><line x1="51.5625" y1="103.08981818181792" x2="46.5625" y2="103.08981818181792" style="visibility: inherit;" fill="rgb(0, 0, 0)" stroke="rgb(204, 204, 204)" stroke-width="1px"></line><line x1="51.5625" y1="68.72654545454513" x2="46.5625" y2="68.72654545454513" style="visibility: inherit;" fill="rgb(0, 0, 0)" stroke="rgb(204, 204, 204)" stroke-width="1px"></line><line x1="51.5625" y1="34.36327272727236" x2="46.5625" y2="34.36327272727236" style="visibility: inherit;" fill="rgb(0, 0, 0)" stroke="rgb(204, 204, 204)" stroke-width="1px"></line><line x1="51.5625" y1="0" x2="46.5625" y2="0" style="visibility: inherit;" fill="rgb(0, 0, 0)" stroke="rgb(204, 204, 204)" stroke-width="1px"></line></g><g transform="translate(41.5625, 0)"><text x="0" y="377.996" dx="0em" dy="0.3em" style="text-anchor: end; visibility: hidden; font-family: Roboto, sans-serif; font-size: 12px; font-weight: 200;" fill="rgb(50, 49, 63)" stroke="none" stroke-width="1px">0.83</text><text x="0" y="343.6327272727272" dx="0em" dy="0.3em" style="text-anchor: end; visibility: inherit; font-family: Roboto, sans-serif; font-size: 12px; font-weight: 200;" fill="rgb(50, 49, 63)" stroke="none" stroke-width="1px">0.84</text><text x="0" y="309.26945454545444" dx="0em" dy="0.3em" style="text-anchor: end; visibility: inherit; font-family: Roboto, sans-serif; font-size: 12px; font-weight: 200;" fill="rgb(50, 49, 63)" stroke="none" stroke-width="1px">0.85</text><text x="0" y="274.9061818181817" dx="0em" dy="0.3em" style="text-anchor: end; visibility: inherit; font-family: Roboto, sans-serif; font-size: 12px; font-weight: 200;" fill="rgb(50, 49, 63)" stroke="none" stroke-width="1px">0.86</text><text x="0" y="240.54290909090895" dx="0em" dy="0.3em" style="text-anchor: end; visibility: inherit; font-family: Roboto, sans-serif; font-size: 12px; font-weight: 200;" fill="rgb(50, 49, 63)" stroke="none" stroke-width="1px">0.87</text><text x="0" y="206.17963636363618" dx="0em" dy="0.3em" style="text-anchor: end; visibility: inherit; font-family: Roboto, sans-serif; font-size: 12px; font-weight: 200;" fill="rgb(50, 49, 63)" stroke="none" stroke-width="1px">0.88</text><text x="0" y="171.81636363636343" dx="0em" dy="0.3em" style="text-anchor: end; visibility: inherit; font-family: Roboto, sans-serif; font-size: 12px; font-weight: 200;" fill="rgb(50, 49, 63)" stroke="none" stroke-width="1px">0.89</text><text x="0" y="137.45309090909066" dx="0em" dy="0.3em" style="text-anchor: end; visibility: inherit; font-family: Roboto, sans-serif; font-size: 12px; font-weight: 200;" fill="rgb(50, 49, 63)" stroke="none" stroke-width="1px">0.9</text><text x="0" y="103.08981818181792" dx="0em" dy="0.3em" style="text-anchor: end; visibility: inherit; font-family: Roboto, sans-serif; font-size: 12px; font-weight: 200;" fill="rgb(50, 49, 63)" stroke="none" stroke-width="1px">0.91</text><text x="0" y="68.72654545454513" dx="0em" dy="0.3em" style="text-anchor: end; visibility: inherit; font-family: Roboto, sans-serif; font-size: 12px; font-weight: 200;" fill="rgb(50, 49, 63)" stroke="none" stroke-width="1px">0.92</text><text x="0" y="34.36327272727236" dx="0em" dy="0.3em" style="text-anchor: end; visibility: inherit; font-family: Roboto, sans-serif; font-size: 12px; font-weight: 200;" fill="rgb(50, 49, 63)" stroke="none" stroke-width="1px">0.93</text><text x="0" y="0" dx="0em" dy="0.3em" style="text-anchor: end; visibility: hidden; font-family: Roboto, sans-serif; font-size: 12px; font-weight: 200;" fill="rgb(50, 49, 63)" stroke="none" stroke-width="1px">0.94</text></g><line x1="51.5625" y1="0" x2="51.5625" y2="377.996" fill="rgb(0, 0, 0)" stroke="rgb(204, 204, 204)" stroke-width="1px"></line></g></g><g transform="translate(51, 0)" clip-path="url(#clip_0)"><clipPath id="clip_0"><rect width="1092" height="377"></rect></clipPath><g><g><g><line x1="0" y1="0" x2="0" y2="377.996" fill="rgb(0, 0, 0)" stroke="rgb(60, 60, 60)" stroke-width="1px" opacity="0.25"></line><line x1="91.00062499999999" y1="0" x2="91.00062499999999" y2="377.996" fill="rgb(0, 0, 0)" stroke="rgb(60, 60, 60)" stroke-width="1px" opacity="0.25"></line><line x1="182.00124999999997" y1="0" x2="182.00124999999997" y2="377.996" fill="rgb(0, 0, 0)" stroke="rgb(60, 60, 60)" stroke-width="1px" opacity="0.25"></line><line x1="273.001875" y1="0" x2="273.001875" y2="377.996" fill="rgb(0, 0, 0)" stroke="rgb(60, 60, 60)" stroke-width="1px" opacity="0.25"></line><line x1="364.00249999999994" y1="0" x2="364.00249999999994" y2="377.996" fill="rgb(0, 0, 0)" stroke="rgb(60, 60, 60)" stroke-width="1px" opacity="0.25"></line><line x1="455.003125" y1="0" x2="455.003125" y2="377.996" fill="rgb(0, 0, 0)" stroke="rgb(60, 60, 60)" stroke-width="1px" opacity="0.25"></line><line x1="546.00375" y1="0" x2="546.00375" y2="377.996" fill="rgb(0, 0, 0)" stroke="rgb(60, 60, 60)" stroke-width="1px" opacity="0.25"></line><line x1="637.004375" y1="0" x2="637.004375" y2="377.996" fill="rgb(0, 0, 0)" stroke="rgb(60, 60, 60)" stroke-width="1px" opacity="0.25"></line><line x1="728.0049999999999" y1="0" x2="728.0049999999999" y2="377.996" fill="rgb(0, 0, 0)" stroke="rgb(60, 60, 60)" stroke-width="1px" opacity="0.25"></line><line x1="819.005625" y1="0" x2="819.005625" y2="377.996" fill="rgb(0, 0, 0)" stroke="rgb(60, 60, 60)" stroke-width="1px" opacity="0.25"></line><line x1="910.00625" y1="0" x2="910.00625" y2="377.996" fill="rgb(0, 0, 0)" stroke="rgb(60, 60, 60)" stroke-width="1px" opacity="0.25"></line><line x1="1001.0068749999999" y1="0" x2="1001.0068749999999" y2="377.996" fill="rgb(0, 0, 0)" stroke="rgb(60, 60, 60)" stroke-width="1px" opacity="0.25"></line><line x1="1092.0075" y1="0" x2="1092.0075" y2="377.996" fill="rgb(0, 0, 0)" stroke="rgb(60, 60, 60)" stroke-width="1px" opacity="0.25"></line></g><g><line x1="0" y1="377.996" x2="1092.0075" y2="377.996" fill="rgb(0, 0, 0)" stroke="rgb(60, 60, 60)" stroke-width="1px" opacity="0.25"></line><line x1="0" y1="343.6327272727272" x2="1092.0075" y2="343.6327272727272" fill="rgb(0, 0, 0)" stroke="rgb(60, 60, 60)" stroke-width="1px" opacity="0.25"></line><line x1="0" y1="309.26945454545444" x2="1092.0075" y2="309.26945454545444" fill="rgb(0, 0, 0)" stroke="rgb(60, 60, 60)" stroke-width="1px" opacity="0.25"></line><line x1="0" y1="274.9061818181817" x2="1092.0075" y2="274.9061818181817" fill="rgb(0, 0, 0)" stroke="rgb(60, 60, 60)" stroke-width="1px" opacity="0.25"></line><line x1="0" y1="240.54290909090895" x2="1092.0075" y2="240.54290909090895" fill="rgb(0, 0, 0)" stroke="rgb(60, 60, 60)" stroke-width="1px" opacity="0.25"></line><line x1="0" y1="206.17963636363618" x2="1092.0075" y2="206.17963636363618" fill="rgb(0, 0, 0)" stroke="rgb(60, 60, 60)" stroke-width="1px" opacity="0.25"></line><line x1="0" y1="171.81636363636343" x2="1092.0075" y2="171.81636363636343" fill="rgb(0, 0, 0)" stroke="rgb(60, 60, 60)" stroke-width="1px" opacity="0.25"></line><line x1="0" y1="137.45309090909066" x2="1092.0075" y2="137.45309090909066" fill="rgb(0, 0, 0)" stroke="rgb(60, 60, 60)" stroke-width="1px" opacity="0.25"></line><line x1="0" y1="103.08981818181792" x2="1092.0075" y2="103.08981818181792" fill="rgb(0, 0, 0)" stroke="rgb(60, 60, 60)" stroke-width="1px" opacity="0.25"></line><line x1="0" y1="68.72654545454513" x2="1092.0075" y2="68.72654545454513" fill="rgb(0, 0, 0)" stroke="rgb(60, 60, 60)" stroke-width="1px" opacity="0.25"></line><line x1="0" y1="34.36327272727236" x2="1092.0075" y2="34.36327272727236" fill="rgb(0, 0, 0)" stroke="rgb(60, 60, 60)" stroke-width="1px" opacity="0.25"></line><line x1="0" y1="0" x2="1092.0075" y2="0" fill="rgb(0, 0, 0)" stroke="rgb(60, 60, 60)" stroke-width="1px" opacity="0.25"></line></g></g></g><g><g><line x1="0" y1="3230.1476363636366" x2="1092.0075" y2="3230.1476363636366" fill="rgb(0, 0, 0)" stroke="rgb(153, 153, 153)" stroke-width="1.5px"></line></g></g><g><g><line x1="91.00062499999999" y1="0" x2="91.00062499999999" y2="377.996" fill="rgb(0, 0, 0)" stroke="rgb(153, 153, 153)" stroke-width="1.5px"></line></g></g><g><g><g><g><g><path stroke="rgb(255, 112, 67)" stroke-width="2px" d="M106.47073125,517.2579968321538L107.3807375,345.4411825894441L108.29074374999999,390.65604746549764L109.20075,327.35527760323595L110.11075625,273.09756264461157L111.02076249999999,300.22631771339053L111.93076874999998,291.1834676308197L112.840775,300.2267273555234L113.75078125,327.35548242430235L114.66078749999998,969.4062359505565L117.39080625,408.74195245170574L118.30081249999999,245.96860275476612L119.21081874999999,562.4724520660745L120.120825,372.56993765822307L121.03083125,291.1834676308197L121.94083749999999,291.18387727295254L122.85084375,273.09756264461157L123.76084999999999,200.753942699779L124.67085624999999,191.7106829750753L125.5808625,173.62498280993356L126.49086874999999,182.66783289250444L127.400875,155.53907782372545L128.31088125,309.26957743809425L129.2208875,245.96839793369972L130.13089374999998,273.09756264461157L131.0409,191.71109261720812L131.95090625,408.74195245170574L133.77091875,1005.5778411019064L134.680925,354.48423749308137L135.59093124999998,173.62477798886718L136.5009375,128.41011793388L137.41094374999997,164.5819279062963L138.32095,164.5821327273627L139.23095625,345.4413874105105L140.14096249999997,218.84025732811997L141.05096875,209.79699760341626L141.960975,164.5819279062963L142.87098125,155.53928264479188L143.78098749999998,146.49622774115457L144.69099375,137.45337765858372L145.601,164.5821327273627L146.51100624999998,128.41011793388L147.4210125,119.3672678513092L148.33101875,146.49622774115457L149.24102499999998,110.32421294767188L150.15103125000002,119.3672678513092L151.0610375,101.28136286510102L151.97104374999998,110.32462258980472L152.88105000000002,110.32421294767188L153.79105625,119.3672678513092L154.70106249999998,101.28136286510102L155.61106875,110.32421294767188L156.521075,101.28095322296818L157.43108124999998,110.32421294767188L158.3410875,110.32421294767188L159.25109375,101.28136286510102L160.1611,119.36706303024275L161.07110624999999,101.28136286510102L161.9811125,110.32421294767188L162.89111875,110.32421294767188L163.80112499999998,101.28136286510102L164.71113125,110.32421294767188L165.6211375,101.28136286510102L166.53114374999998,119.3672678513092L167.44114999999996,3230.1476363636366L168.35115625,472.0425174929011L169.26116249999998,255.0118624794698L170.17116875,236.9259574932617L171.081175,200.753942699779L171.99118124999998,182.66783289250444L172.9011875,146.49581809902173L173.81119375,155.53907782372545L174.72119999999998,164.5819279062963L175.63120625,155.53907782372545L176.54121249999997,164.5819279062963L177.45121875,164.5821327273627L178.361225,173.62477798886718L179.27123124999997,191.7106829750753L180.1812375,191.7106829750753L181.09124375,255.01145283733698L182.00124999999997,300.22631771339053L182.91125625,435.8711171626176L183.8212625,218.83984768598714L184.73126874999997,273.09756264461157L185.641275,200.753942699779L186.55128125,173.62498280993356L187.4612875,146.49622774115457L188.37129374999998,164.5821327273627L189.2813,137.45296801645088L190.19130625,146.49622774115457L191.10131249999998,146.49581809902173L192.01131875,146.49622774115457L192.921325,146.49622774115457L193.83133124999998,146.49622774115457L194.7413375,146.49622774115457L195.65134375,146.49622774115457L196.56134999999998,146.49581809902173L197.47135625,146.49622774115457L198.3813625,146.49622774115457L199.29136874999998,146.49622774115457L200.20137499999998,146.49622774115457L201.11138125,137.45337765858372L202.02138749999997,128.41011793388L202.93139374999998,128.41011793388L203.8414,128.41011793388L204.75140625,137.45296801645088L205.66141249999998,119.3672678513092L206.57141875,128.41011793388L207.481425,119.3672678513092L208.39143124999998,119.36706303024275L209.3014375,128.41011793388L210.21144375,119.3672678513092L211.12144999999998,110.32462258980472L212.03145624999996,137.45296801645088L212.9414625,119.36706303024275L213.85146874999998,119.3672678513092L214.761475,2380.1087194696556L215.67148125,354.4844423141478L216.58148749999998,209.79699760341626L217.49149375,137.45296801645088L218.4015,119.3672678513092L219.31150624999998,119.36706303024275L220.2215125,110.32421294767188L221.13151875,110.32462258980472L222.04152499999998,110.32421294767188L222.95153125,119.3672678513092L223.86153749999997,110.32421294767188L224.77154375,101.28136286510102L225.68155,110.32421294767188L226.59155624999997,110.32421294767188L227.5015625,92.23851278253015L228.41156875,110.32421294767188L229.32157499999997,110.32421294767188L230.23158125,119.36706303024275L231.14158749999999,110.32462258980472L232.05159374999997,119.36706303024275L232.9616,101.28136286510102L233.87160624999999,101.28136286510102L234.7816125,92.23851278253015L235.69161874999998,101.28136286510102L236.60162499999998,92.23810314039731L237.51163125,74.1521981541892L238.42163749999997,101.28136286510102L239.33164374999998,92.23851278253015L240.24165,92.23810314039731L241.15165624999997,92.23810314039731L242.0616625,83.1954578788929L242.97166875,92.23810314039731L243.88167499999997,119.36706303024275L244.79168124999998,92.23851278253015L245.7016875,101.28136286510102L246.61169374999997,92.23851278253015L247.52169999999998,92.23810314039731L248.43170625,92.23810314039731L249.34171249999997,1439.640175234101L250.25171874999998,490.1286273001756L251.161725,191.7106829750753L252.07173125,137.45296801645088L252.98173749999998,83.19504823676004L253.89174375,83.1954578788929L254.80175,83.1954578788929L255.71175624999998,83.1954578788929L256.6217625,65.10934807161833L257.53176874999997,65.10934807161833L258.441775,56.06649798904746L259.35178125,56.06649798904746L260.26178749999997,56.06649798904746L261.17179375,56.06608834691462L262.0818,74.15260779632203L262.99180624999997,65.10934807161833L263.9018125,65.10934807161833L264.81181875,65.10934807161833L265.721825,83.1954578788929L266.63183125,56.06649798904746L267.5418375,83.1954578788929L268.45184374999997,56.06649798904746L269.36185,92.23851278253015L270.27185625,101.28136286510102L271.18186249999997,83.1954578788929L272.09186875,92.23810314039731L273.001875,65.10975771375116L273.91188125,65.10934807161833L274.82188749999995,83.1954578788929L275.73189375,83.1954578788929L276.6419,47.02344308541019L277.55190624999994,74.1521981541892L278.4619125,92.23851278253015L279.37191875,47.02344308541019L280.28192499999994,56.06649798904746L281.19193125,101.28095322296818L282.1019375,56.06608834691462L283.01194375,28.93733327813563L283.92195,65.10934807161833L284.83195624999996,83.19566269995933L285.7419625,56.06649798904746L286.65196875,56.06649798904746L287.56197499999996,37.980593002839335L288.47198125,47.02344308541019L289.3819875,74.1521981541892L290.29199374999996,74.15260779632203L291.202,74.1521981541892L292.11200625,56.06649798904746L293.02201249999996,65.10934807161833L293.93201875,83.1954578788929L294.842025,65.10934807161833L295.75203124999996,65.10934807161833L296.6620375,65.10934807161833L297.57204375,74.15260779632203L298.48204999999996,65.10934807161833L299.39205625,1032.7068009917518L300.30206250000003,282.14041272718237L301.21206874999996,155.53907782372545L302.122075,209.79658796128342L303.03208125000003,92.23851278253015L303.94208749999996,182.66783289250444L304.85209375,155.53907782372545L305.76210000000003,137.45296801645088L306.67210624999996,146.49622774115457L307.5821125,119.3672678513092L308.49211875,128.41011793388L309.40212499999996,128.41011793388L310.31213125,128.41011793388L311.2221375,119.3672678513092L312.13214374999995,128.41052757601284L313.04215,110.32421294767188L313.95215625,110.32421294767188L314.86216249999995,101.28136286510102L315.77216875,110.32421294767188L316.682175,128.41011793388L317.59218124999995,92.23851278253015L318.5021875,101.28136286510102L319.41219375,110.32462258980472L320.3222,110.32421294767188L321.23220625,110.32421294767188L322.14221249999997,83.1954578788929L323.05221875,110.32421294767188L323.962225,92.23810314039731L324.87223124999997,74.1521981541892L325.7822375,92.23851278253015L326.69224375,92.23810314039731L327.60224999999997,101.28136286510102L328.51225625,83.1954578788929L329.4222625,92.23810314039731L330.33226874999997,74.15260779632203L331.242275,101.28136286510102L332.15228124999993,83.1954578788929L333.06228749999997,74.15260779632203L333.97229375,83.1954578788929L334.88229999999993,83.1954578788929L335.79230624999997,92.23851278253015L336.7023125,83.19504823676004L337.61231874999993,83.1954578788929L338.52232499999997,83.19566269995933L339.43233125,83.19566269995933L340.3423375,92.23810314039731L341.25234374999997,74.15260779632203L342.16235,74.15260779632203L343.07235625,74.15260779632203L343.98236249999997,83.1954578788929L344.89236875,83.1954578788929L345.802375,83.1954578788929L346.71238124999996,74.1521981541892L347.6223875,83.1954578788929L348.53239375,74.1521981541892L349.44239999999996,83.1954578788929L350.35240625,92.23810314039731L351.2624125,74.1521981541892L352.17241874999996,83.19504823676004L353.08242499999994,83.19566269995933L353.99243125,92.23851278253015L354.9024375,83.1954578788929L355.81244374999994,83.1954578788929L356.72245,83.1954578788929L357.63245625,83.1954578788929L358.54246249999994,92.23810314039731L359.45246875,74.15260779632203L360.362475,83.1954578788929L361.27248124999994,74.1521981541892L362.1824875,83.1954578788929L363.09249375,83.1954578788929L364.00249999999994,83.19504823676004L364.91250625,101.28136286510102L365.8225125,83.1954578788929L366.73251874999994,92.23810314039731L367.642525,83.1954578788929L368.55253125,92.23851278253015L369.46253749999994,92.23810314039731L370.37254375,83.19504823676004L371.28255,92.23810314039731L372.19255624999994,92.23851278253015L373.1025625,92.23851278253015L374.01256875,74.1521981541892L374.922575,83.1954578788929L375.83258125,92.23810314039731L376.74258749999996,83.1954578788929L377.65259375,92.23851278253015L378.5626,74.15260779632203L379.47260624999996,83.19566269995933L380.3826125,83.1954578788929L381.29261875,92.23810314039731L382.20262499999995,65.10934807161833L383.11263125,83.19504823676004L384.0226375,74.1521981541892L384.93264374999995,74.15260779632203L385.84265,83.1954578788929L386.75265625,83.19504823676004L387.66266249999995,83.1954578788929L388.57266875,83.1954578788929L389.482675,74.15260779632203L390.39268124999995,83.19566269995933L391.3026875,74.1521981541892L392.21269375,74.15260779632203L393.12269999999995,83.1954578788929L394.03270625,92.23810314039731L394.9427125,83.19566269995933L395.85271874999995,74.15260779632203L396.762725,74.1521981541892L397.67273125,83.1954578788929L398.58273749999995,83.1954578788929L399.49274375,92.23810314039731L400.40274999999997,318.3126323417315L401.31275624999995,164.5819279062963L402.2227625,164.5821327273627L403.13276874999997,137.45337765858372L404.04277499999995,128.41011793388L404.95278125,137.45337765858372L405.86278749999997,137.45296801645088L406.77279374999995,119.36706303024275L407.6828,146.49622774115457L408.59280624999997,128.41011793388L409.5028125,146.49622774115457L410.41281875,146.49622774115457L411.32282499999997,146.49622774115457L412.23283125,128.41011793388L413.1428375,146.49622774115457L414.05284374999997,137.45296801645088L414.96285,137.45296801645088L415.87285625,110.32462258980472L416.78286249999996,110.32421294767188L417.69286875,128.4099131128136L418.602875,119.36706303024275L419.51288124999996,110.32421294767188L420.4228875,119.36706303024275L421.3328937499999,119.36706303024275L422.24289999999996,101.28136286510102L423.15290625,101.28136286510102L424.0629124999999,110.32421294767188L424.97291874999996,101.28136286510102L425.882925,110.32421294767188L426.7929312499999,101.28136286510102L427.70293749999996,119.3672678513092L428.61294375,137.45296801645088L429.52295,119.36706303024275L430.43295624999996,110.32421294767188L431.3429625,119.36706303024275L432.25296875,119.36706303024275L433.16297499999996,119.3672678513092L434.07298125,110.32421294767188L434.9829875,101.28136286510102L435.89299374999996,119.3672678513092L436.803,137.45296801645088L437.71300625,101.28136286510102L438.62301249999996,273.09756264461157L439.53301875,336.39853732793966L440.443025,191.71109261720812L441.35303124999996,218.84025732811997L442.2630375,110.32421294767188L443.17304375,128.41011793388L444.08304999999996,137.45296801645088L444.99305624999994,128.41052757601284L445.9030625,128.41011793388L446.81306875,137.45296801645088L447.72307499999994,128.41052757601284L448.63308125,128.41011793388L449.5430875,128.41011793388L450.45309374999994,137.45337765858372L451.3631,137.45296801645088L452.27310625,128.41011793388L453.18311249999994,110.32421294767188L454.09311875,137.45296801645088L455.003125,119.36706303024275L455.91313124999994,119.36706303024275L456.8231375,119.36706303024275L457.73314375,119.36706303024275L458.64314999999993,101.28095322296818L459.55315625,110.32421294767188L460.4631625,83.1954578788929L461.37316874999993,101.28136286510102L462.28317499999997,92.23810314039731L463.19318125,92.23851278253015L464.10318749999993,74.1521981541892L465.01319374999997,92.23851278253015L465.9232,83.1954578788929L466.83320625,92.23810314039731L467.74321249999997,83.1954578788929L468.65321874999995,92.23851278253015L469.563225,83.1954578788929L470.47323124999997,806.632476611484L471.38323749999995,200.75353305764617L472.29324375,146.49622774115457L473.20324999999997,119.36706303024275L474.11325624999995,119.36706303024275L475.0232625,119.36706303024275L475.93326874999997,110.32421294767188L476.84327499999995,101.28136286510102L477.75328125,92.23810314039731L478.66328749999997,92.23810314039731L479.57329374999995,101.28136286510102L480.4833,146.49581809902173L481.39330625,164.5819279062963L482.30331249999995,128.4099131128136L483.21331875,101.28136286510102L484.123325,83.19566269995933L485.03333124999995,37.980593002839335L485.9433375,37.980593002839335L486.85334375,65.10934807161833L487.76334999999995,128.41011793388L488.67335625,101.28136286510102L489.58336249999996,381.6131973829267L490.49336874999995,255.01145283733698L491.403375,137.45296801645088L492.31338124999996,173.62498280993356L493.22338749999994,110.32421294767188L494.13339375,92.23810314039731L495.04339999999996,92.23810314039731L495.95340624999994,92.23810314039731L496.8634125,83.1954578788929L497.77341874999996,83.1954578788929L498.68342499999994,83.1954578788929L499.59343125,74.1521981541892L500.50343749999996,83.1954578788929L501.41344375,74.1521981541892L502.32345,83.19504823676004L503.23345624999996,83.1954578788929L504.1434625,83.19504823676004L505.05346875,83.19504823676004L505.96347499999996,83.1954578788929L506.87348125,65.10934807161833L507.7834875,83.1954578788929L508.69349374999996,65.10934807161833L509.6035,83.1954578788929L510.51350625,83.1954578788929L511.42351249999996,74.15260779632203L512.3335187499999,83.19566269995933L513.243525,92.23851278253015L514.15353125,83.19566269995933L515.0635374999999,83.1954578788929L515.97354375,83.1954578788929L516.88355,83.1954578788929L517.7935562499999,92.23851278253015L518.7035625,101.28095322296818L519.61356875,74.15260779632203L520.5235749999999,101.28136286510102L521.43358125,101.28136286510102L522.3435875,92.23851278253015L523.2535937499999,83.19504823676004L524.1636,92.23851278253015L525.07360625,92.23810314039731L525.9836124999999,92.23810314039731L526.89361875,92.23851278253015L527.803625,83.19566269995933L528.71363125,92.23810314039731L529.6236375,101.28136286510102L530.53364375,101.28136286510102L531.44365,92.23810314039731L532.35365625,92.23851278253015L533.2636625,101.28136286510102L534.17366875,101.28095322296818L535.083675,83.19504823676004L535.99368125,101.28136286510102L536.9036874999999,92.23810314039731L537.81369375,101.28095322296818L538.7237,92.23851278253015L539.6337062499999,92.23851278253015L540.5437125,92.23851278253015L541.45371875,92.23810314039731L542.3637249999999,92.23810314039731L543.27373125,92.23851278253015L544.1837375,92.23851278253015L545.0937437499999,83.1954578788929L546.00375,92.23810314039731L546.91375625,83.1954578788929L547.8237625,92.23810314039731L548.7337687499999,83.1954578788929L549.6437749999999,83.1954578788929L550.5537812499999,101.28136286510102L551.4637875,92.23810314039731L552.37379375,92.23851278253015L553.2838,74.1521981541892L554.19380625,92.23810314039731L555.1038124999999,92.23810314039731L556.0138187499999,92.23810314039731L556.923825,92.23810314039731L557.83383125,83.1954578788929L558.7438375,92.23851278253015L559.65384375,83.1954578788929L560.5638499999999,83.19504823676004L561.4738562499999,83.1954578788929L562.3838625,83.1954578788929L563.29386875,83.1954578788929L564.203875,92.23810314039731L565.11388125,74.15260779632203L566.0238875,74.15260779632203L566.9338937499999,83.1954578788929L567.8439,92.23810314039731L568.75390625,92.23810314039731L569.6639124999999,92.23810314039731L570.57391875,92.23810314039731L571.483925,65.10934807161833L572.3939312499999,92.23810314039731L573.3039375,65.10934807161833L574.21394375,65.10934807161833L575.1239499999999,74.1521981541892L576.03395625,65.10975771375116L576.9439625,65.10934807161833L577.8539687499999,74.15260779632203L578.763975,65.10975771375116L579.67398125,65.10934807161833L580.5839874999999,56.06649798904746L581.49399375,74.15260779632203L582.404,65.10975771375116L583.31400625,65.10934807161833L584.2240125,56.06608834691462L585.13401875,65.10934807161833L586.0440249999999,65.10934807161833L586.95403125,65.10975771375116L587.8640375,56.06649798904746L588.77404375,65.10934807161833L589.68405,65.10934807161833L590.59405625,56.06649798904746L591.5040624999999,56.06649798904746L592.41406875,56.06649798904746L593.324075,65.10934807161833L594.23408125,74.15260779632203L595.1440875,65.10934807161833L596.0540937499999,74.1521981541892L596.9640999999999,65.10975771375116L597.87410625,65.10934807161833L598.7841125,65.10934807161833L599.69411875,65.10934807161833L600.6041250000001,56.06649798904746L601.5141312499999,65.10934807161833L602.4241374999999,65.10934807161833L603.33414375,74.1521981541892L604.24415,65.10934807161833L605.15415625,65.10934807161833L606.0641625000001,65.10975771375116L606.9741687499999,65.10934807161833L607.8841749999999,56.06608834691462L608.79418125,65.10934807161833L609.7041875,65.10934807161833L610.61419375,56.06649798904746L611.5242000000001,65.10934807161833L612.4342062499999,56.06608834691462L613.3442124999999,56.06649798904746L614.25421875,65.10934807161833L615.164225,65.10934807161833L616.07423125,56.06649798904746L616.9842375,65.10934807161833L617.8942437499999,74.1521981541892L618.8042499999999,56.06649798904746L619.71425625,56.06649798904746L620.6242625,56.06608834691462L621.53426875,74.15260779632203L622.444275,65.10975771375116L623.35428125,65.10975771375116L624.2642874999999,65.10934807161833L625.17429375,65.10934807161833L626.0843,65.10934807161833L626.99430625,56.06649798904746L627.9043125,65.10934807161833L628.81431875,56.06608834691462L629.7243249999999,65.10934807161833L630.63433125,56.06608834691462L631.5443375,56.06649798904746L632.45434375,74.15260779632203L633.36435,56.06649798904746L634.27435625,56.06649798904746L635.1843624999999,56.06649798904746L636.09436875,56.06649798904746L637.004375,56.06649798904746L637.9143812499999,47.02364790647664L638.8243875,56.06649798904746L639.73439375,56.06649798904746L640.6444,56.06649798904746L641.5544062499999,65.10934807161833L642.4644125,56.06649798904746L643.3744187499999,56.06649798904746L644.2844249999999,56.06649798904746L645.19443125,56.06649798904746L646.1044375,56.06649798904746L647.0144437499999,56.06608834691462L647.92445,56.06608834691462L648.8344562499999,47.02344308541019L649.7444624999999,56.06649798904746L650.65446875,65.10934807161833L651.564475,56.06649798904746L652.4744812499999,56.06649798904746L653.3844875,65.10934807161833L654.2944937499999,56.06690763118034L655.2044999999999,56.06649798904746L656.11450625,56.06608834691462L657.0245125,56.06649798904746L657.93451875,56.06649798904746L658.844525,56.06649798904746L659.7545312499999,47.02344308541019L660.6645374999999,56.06649798904746L661.57454375,47.02364790647664L662.48455,47.02364790647664L663.39455625,47.02364790647664L664.3045624999999,56.06649798904746L665.2145687499999,65.10934807161833L666.1245749999999,56.06649798904746L667.03458125,56.06649798904746L667.9445875,65.10934807161833L668.85459375,65.10934807161833L669.7645999999999,56.06649798904746L670.6746062499999,65.10934807161833L671.5846124999999,56.06649798904746L672.49461875,47.02364790647664L673.404625,65.10934807161833L674.31463125,47.02344308541019L675.2246374999999,56.06649798904746L676.1346437499999,47.02344308541019L677.0446499999999,47.02344308541019L677.95465625,47.02344308541019L678.8646625,47.02364790647664L679.77466875,47.02344308541019L680.684675,47.02344308541019L681.5946812499999,56.06649798904746L682.5046874999999,47.02364790647664L683.41469375,56.06608834691462L684.3247,56.06649798904746L685.2347062499999,56.06649798904746L686.1447125,47.02364790647664L687.0547187499999,56.06649798904746L687.9647249999999,47.02344308541019L688.87473125,56.06649798904746L689.7847375,56.06649798904746L690.6947437499999,56.06608834691462L691.60475,56.06649798904746L692.51475625,56.06649798904746L693.4247624999999,56.06649798904746L694.33476875,56.06649798904746L695.244775,56.06608834691462L696.1547812499999,56.06649798904746L697.0647875,47.02364790647664L697.97479375,56.06649798904746L698.8847999999999,56.06608834691462L699.79480625,47.02364790647664L700.7048125,47.02344308541019L701.6148187499999,47.02344308541019L702.524825,47.02344308541019L703.43483125,47.02364790647664L704.3448374999999,56.06649798904746L705.25484375,37.980593002839335L706.1648499999999,47.02364790647664L707.0748562499999,47.02344308541019L707.9848625,56.06649798904746L708.89486875,47.02344308541019L709.804875,47.02344308541019L710.71488125,47.02344308541019L711.6248874999999,47.02344308541019L712.5348937499999,56.06649798904746L713.4449,56.06649798904746L714.35490625,65.10934807161833L715.2649125,47.02344308541019L716.17491875,65.10934807161833L717.0849249999999,47.02344308541019L717.9949312499999,56.06649798904746L718.9049375,56.06649798904746L719.81494375,56.06649798904746L720.72495,56.06649798904746L721.63495625,56.06649798904746L722.5449624999999,56.06649798904746L723.4549687499999,47.02364790647664L724.364975,56.06649798904746L725.27498125,56.06690763118034L726.1849875,56.06649798904746L727.0949937500001,56.06649798904746L728.0049999999999,65.10934807161833L728.9150062499999,65.10934807161833L729.8250125,65.10893842948548L730.73501875,65.10934807161833L731.645025,65.10934807161833L732.55503125,65.10934807161833L733.4650374999999,65.10934807161833L734.3750437499999,65.10934807161833L735.28505,65.10934807161833L736.19505625,47.02364790647664L737.1050625,65.10934807161833L738.01506875,65.10934807161833L738.9250749999999,56.06608834691462L739.8350812499999,65.10934807161833L740.7450875,56.06608834691462L741.65509375,65.10934807161833L742.5651,56.06649798904746L743.47510625,56.06649798904746L744.3851124999999,56.06649798904746L745.2951187499999,65.10975771375116L746.205125,65.10893842948548L747.11513125,65.10934807161833L748.0251375,65.10975771375116L748.93514375,56.06649798904746L749.84515,65.10975771375116L750.7551562499999,56.06649798904746L751.6651625,65.10893842948548L752.57516875,65.10975771375116L753.4851749999999,65.10934807161833L754.39518125,65.10934807161833L755.3051875,65.10934807161833L756.2151937499999,65.10934807161833L757.1252,56.06649798904746L758.03520625,65.10893842948548L758.9452124999999,65.10934807161833L759.85521875,47.02364790647664L760.765225,37.980593002839335L761.6752312499999,56.06649798904746L762.5852375,47.02344308541019L763.49524375,56.06649798904746L764.4052499999999,65.10934807161833L765.31525625,65.10934807161833L766.2252625,56.06649798904746L767.13526875,65.10975771375116L768.045275,65.10934807161833L768.95528125,56.06649798904746L769.8652874999999,56.06649798904746L770.77529375,56.06649798904746L771.6853,56.06649798904746L772.59530625,743.3319115702888L773.5053125,327.35527760323595L774.4153187499999,182.66783289250444L775.3253249999999,137.45337765858372L776.23533125,128.41011793388L777.1453375,110.32421294767188L778.05534375,119.36706303024275L778.96535,119.3672678513092L779.8753562499999,119.36706303024275L780.7853624999999,137.45296801645088L781.69536875,110.32421294767188L782.605375,128.41011793388L783.51538125,137.45337765858372L784.4253875,137.45296801645088L785.3353937499999,128.41011793388L786.2453999999999,128.4099131128136L787.1554062499999,128.41011793388L788.0654125,110.32421294767188L788.97541875,119.3672678513092L789.885425,128.4099131128136L790.7954312499999,119.36706303024275L791.7054374999999,119.3672678513092L792.6154437499999,119.36706303024275L793.52545,146.49622774115457L794.43545625,137.45296801645088L795.3454625,119.36706303024275L796.2554687499999,101.28136286510102L797.1654749999999,110.32421294767188L798.0754812499999,110.32421294767188L798.9854875,128.41011793388L799.89549375,128.4099131128136L800.8054999999999,101.28095322296818L801.7155062499999,110.32380330553904L802.6255124999999,110.32421294767188L803.5355187499999,128.41011793388L804.445525,110.32421294767188L805.35553125,110.32421294767188L806.2655374999999,101.28095322296818L807.17554375,110.32421294767188L808.0855499999999,101.28136286510102L808.9955562499999,101.28136286510102L809.9055625,92.23851278253015L810.81556875,110.32421294767188L811.7255749999999,101.28136286510102L812.63558125,92.23810314039731L813.5455874999999,110.32421294767188L814.4555937499999,119.3672678513092L815.3656,128.41011793388L816.27560625,101.28136286510102L817.1856124999999,128.41011793388L818.09561875,119.36706303024275L819.005625,146.49581809902173L819.9156312499999,110.32421294767188L820.8256375,472.0429271350339L821.7356437499999,137.45337765858372L822.6456499999999,146.49622774115457L823.55565625,164.5821327273627L824.4656625,137.45296801645088L825.3756687499999,119.36706303024275L826.285675,119.36706303024275L827.1956812499999,137.45296801645088L828.1056874999999,119.36706303024275L829.01569375,128.41011793388L829.9257,137.45296801645088L830.8357062499999,128.41011793388L831.7457125,119.36706303024275L832.6557187499999,119.36706303024275L833.5657249999999,137.45296801645088L834.47573125,146.49622774115457L835.3857375,137.45337765858372L836.29574375,128.41011793388L837.20575,128.41052757601284L838.1157562499999,119.3672678513092L839.0257624999999,119.3672678513092L839.93576875,137.45296801645088L840.845775,119.3672678513092L841.75578125,119.36706303024275L842.6657874999999,128.4099131128136L843.5757937499999,128.41011793388L844.4857999999999,119.36706303024275L845.39580625,119.36706303024275L846.3058125,128.41011793388L847.21581875,119.36706303024275L848.1258249999998,119.36706303024275L849.0358312499999,128.41011793388L849.9458374999999,119.36706303024275L850.85584375,119.3672678513092L851.76585,119.36706303024275L852.67585625,119.36706303024275L853.5858624999998,119.3672678513092L854.4958687499999,119.36706303024275L855.4058749999999,110.32421294767188L856.31588125,119.36706303024275L857.2258875,119.3672678513092L858.13589375,119.3672678513092L859.0459,110.32421294767188L859.9559062499999,128.41011793388L860.8659124999999,110.32421294767188L861.77591875,110.32421294767188L862.685925,119.3672678513092L863.59593125,101.28095322296818L864.5059375,119.36706303024275L865.4159437499999,110.32421294767188L866.3259499999999,128.41011793388L867.23595625,101.28136286510102L868.1459625,101.28136286510102L869.0559687499999,110.32421294767188L869.965975,110.32462258980472L870.8759812499999,119.3672678513092L871.7859874999999,128.41011793388L872.69599375,119.3672678513092L873.606,110.32421294767188L874.5160062499999,110.32421294767188L875.4260125,101.28136286510102L876.33601875,110.32421294767188L877.2460249999999,92.23851278253015L878.15603125,92.23810314039731L879.0660375,83.19504823676004L879.9760437499999,92.23810314039731L880.88605,92.23851278253015L881.79605625,92.23851278253015L882.7060624999999,101.28095322296818L883.61606875,92.23810314039731L884.526075,83.1954578788929L885.4360812499999,83.19566269995933L886.3460875,92.23851278253015L887.25609375,74.15260779632203L888.1660999999999,83.1954578788929L889.07610625,83.1954578788929L889.9861124999999,83.1954578788929L890.8961187499999,92.23851278253015L891.806125,83.1954578788929L892.71613125,74.15260779632203L893.6261375,83.1954578788929L894.53614375,83.1954578788929L895.4461499999999,83.1954578788929L896.3561562499999,92.23810314039731L897.2661625,101.28136286510102L898.17616875,92.23851278253015L899.086175,92.23851278253015L899.99618125,83.1954578788929L900.9061874999999,83.19504823676004L901.8161937499999,74.15260779632203L902.7262,92.23810314039731L903.63620625,92.23810314039731L904.5462125,92.23851278253015L905.45621875,92.23810314039731L906.3662249999999,83.1954578788929L907.2762312499999,83.1954578788929L908.1862375,92.23851278253015L909.09624375,92.23810314039731L910.00625,83.1954578788929L910.9162562499998,101.28136286510102L911.8262624999999,92.23810314039731L912.7362687499999,92.23851278253015L913.646275,83.1954578788929L914.55628125,92.23851278253015L915.4662875,101.28136286510102L916.37629375,83.1954578788929L917.2862999999999,92.23810314039731L918.1963062499999,92.23851278253015L919.1063125,92.23851278253015L920.01631875,92.23851278253015L920.926325,83.19504823676004L921.83633125,92.23810314039731L922.7463374999999,92.23810314039731L923.6563437499999,92.23851278253015L924.5663499999999,92.23810314039731L925.47635625,92.23851278253015L926.3863625,83.1954578788929L927.2963687499999,92.23851278253015L928.2063749999999,101.28136286510102L929.1163812499999,92.23810314039731L930.0263874999999,74.1521981541892L930.93639375,74.15260779632203L931.8464,74.15260779632203L932.7564062499999,83.19504823676004L933.6664125,74.15260779632203L934.5764187499999,74.1521981541892L935.4864249999999,74.15260779632203L936.39643125,83.1954578788929L937.3064374999999,74.1521981541892L938.2164437499999,83.19504823676004L939.12645,74.1521981541892L940.0364562499999,119.3672678513092L940.9464624999999,417.7852121764095L941.85646875,155.53907782372545L942.7664749999999,146.49622774115457L943.6764812499999,65.10934807161833L944.5864875,56.06690763118034L945.4964937499999,47.02344308541019L946.4064999999999,37.980593002839335L947.31650625,47.02344308541019L948.2265124999999,47.02344308541019L949.1365187499999,37.98018336070649L950.046525,37.980593002839335L950.95653125,28.93733327813563L951.8665374999999,10.851633112993943L952.77654375,10.851633112993943L953.6865499999999,1.8087830304230792L954.5965562499999,10.851428291927501L955.5065625,10.851633112993943L956.41656875,10.851428291927501L957.3265749999999,10.851633112993943L958.2365812499999,10.851633112993943L959.1465874999999,10.851428291927501L960.0565937499999,10.851633112993943L960.9666,10.851633112993943L961.87660625,19.894483195564764L962.7866125,19.894483195564764L963.6966187499999,19.894483195564764L964.6066249999999,19.894483195564764L965.5166312499999,19.894483195564764L966.4266375,19.894483195564764L967.33664375,19.894892837697647L968.24665,19.894892837697647L969.1566562499999,19.894483195564764L970.0666624999999,19.894483195564764L970.9766687499999,28.93774292026847L971.886675,10.851633112993943L972.79668125,19.894892837697647L973.7066875,19.894892837697647L974.6166937499999,28.93733327813563L975.5266999999999,37.980593002839335L976.4367062499999,1.8085782093566374L977.3467125,28.93774292026847L978.25671875,19.894483195564764L979.1667249999999,19.894483195564764L980.0767312499999,28.93774292026847L980.9867374999999,19.894483195564764L981.8967437499999,19.894483195564764L982.80675,19.894483195564764L983.71675625,19.894892837697647L984.6267624999999,28.93774292026847L985.53676875,28.93733327813563L986.4467749999999,19.894483195564764L987.3567812499999,19.894483195564764L988.2667875,19.894483195564764L989.17679375,19.894483195564764L990.0867999999999,19.894483195564764L990.99680625,19.894483195564764L991.9068124999999,19.894483195564764L992.8168187499999,19.894483195564764L993.726825,19.894892837697647L994.63683125,28.93774292026847L995.5468374999999,28.93774292026847L996.45684375,28.93774292026847L997.3668499999999,354.4844423141478L998.2768562499999,200.753942699779L999.1868625,182.66783289250444L1000.09686875,182.66783289250444" style="fill: none;" fill="none"></path></g></g></g></g></g></g><g transform="translate(51, 377)" clip-path="url(#clip_1)"><clipPath id="clip_1"><rect width="1092" height="21"></rect></clipPath><g><g><line x1="0" y1="0" x2="0" y2="5" style="visibility: inherit;" fill="rgb(0, 0, 0)" stroke="rgb(204, 204, 204)" stroke-width="1px"></line><line x1="91.00062499999999" y1="0" x2="91.00062499999999" y2="5" style="visibility: inherit;" fill="rgb(0, 0, 0)" stroke="rgb(204, 204, 204)" stroke-width="1px"></line><line x1="182.00124999999997" y1="0" x2="182.00124999999997" y2="5" style="visibility: inherit;" fill="rgb(0, 0, 0)" stroke="rgb(204, 204, 204)" stroke-width="1px"></line><line x1="273.001875" y1="0" x2="273.001875" y2="5" style="visibility: inherit;" fill="rgb(0, 0, 0)" stroke="rgb(204, 204, 204)" stroke-width="1px"></line><line x1="364.00249999999994" y1="0" x2="364.00249999999994" y2="5" style="visibility: inherit;" fill="rgb(0, 0, 0)" stroke="rgb(204, 204, 204)" stroke-width="1px"></line><line x1="455.003125" y1="0" x2="455.003125" y2="5" style="visibility: inherit;" fill="rgb(0, 0, 0)" stroke="rgb(204, 204, 204)" stroke-width="1px"></line><line x1="546.00375" y1="0" x2="546.00375" y2="5" style="visibility: inherit;" fill="rgb(0, 0, 0)" stroke="rgb(204, 204, 204)" stroke-width="1px"></line><line x1="637.004375" y1="0" x2="637.004375" y2="5" style="visibility: inherit;" fill="rgb(0, 0, 0)" stroke="rgb(204, 204, 204)" stroke-width="1px"></line><line x1="728.0049999999999" y1="0" x2="728.0049999999999" y2="5" style="visibility: inherit;" fill="rgb(0, 0, 0)" stroke="rgb(204, 204, 204)" stroke-width="1px"></line><line x1="819.005625" y1="0" x2="819.005625" y2="5" style="visibility: inherit;" fill="rgb(0, 0, 0)" stroke="rgb(204, 204, 204)" stroke-width="1px"></line><line x1="910.00625" y1="0" x2="910.00625" y2="5" style="visibility: inherit;" fill="rgb(0, 0, 0)" stroke="rgb(204, 204, 204)" stroke-width="1px"></line><line x1="1001.0068749999999" y1="0" x2="1001.0068749999999" y2="5" style="visibility: inherit;" fill="rgb(0, 0, 0)" stroke="rgb(204, 204, 204)" stroke-width="1px"></line><line x1="1092.0075" y1="0" x2="1092.0075" y2="5" style="visibility: inherit;" fill="rgb(0, 0, 0)" stroke="rgb(204, 204, 204)" stroke-width="1px"></line></g><g transform="translate(0, 8)"><text x="0" y="0" dx="0em" dy="0.95em" style="text-anchor: middle; visibility: hidden; font-family: Roboto, sans-serif; font-size: 12px; font-weight: 200;" fill="rgb(50, 49, 63)" stroke="none" stroke-width="1px">-100</text><text x="91.00062499999999" y="0" dx="0em" dy="0.95em" style="text-anchor: middle; visibility: inherit; font-family: Roboto, sans-serif; font-size: 12px; font-weight: 200;" fill="rgb(50, 49, 63)" stroke="none" stroke-width="1px">0</text><text x="182.00124999999997" y="0" dx="0em" dy="0.95em" style="text-anchor: middle; visibility: inherit; font-family: Roboto, sans-serif; font-size: 12px; font-weight: 200;" fill="rgb(50, 49, 63)" stroke="none" stroke-width="1px">100</text><text x="273.001875" y="0" dx="0em" dy="0.95em" style="text-anchor: middle; visibility: inherit; font-family: Roboto, sans-serif; font-size: 12px; font-weight: 200;" fill="rgb(50, 49, 63)" stroke="none" stroke-width="1px">200</text><text x="364.00249999999994" y="0" dx="0em" dy="0.95em" style="text-anchor: middle; visibility: inherit; font-family: Roboto, sans-serif; font-size: 12px; font-weight: 200;" fill="rgb(50, 49, 63)" stroke="none" stroke-width="1px">300</text><text x="455.003125" y="0" dx="0em" dy="0.95em" style="text-anchor: middle; visibility: inherit; font-family: Roboto, sans-serif; font-size: 12px; font-weight: 200;" fill="rgb(50, 49, 63)" stroke="none" stroke-width="1px">400</text><text x="546.00375" y="0" dx="0em" dy="0.95em" style="text-anchor: middle; visibility: inherit; font-family: Roboto, sans-serif; font-size: 12px; font-weight: 200;" fill="rgb(50, 49, 63)" stroke="none" stroke-width="1px">500</text><text x="637.004375" y="0" dx="0em" dy="0.95em" style="text-anchor: middle; visibility: inherit; font-family: Roboto, sans-serif; font-size: 12px; font-weight: 200;" fill="rgb(50, 49, 63)" stroke="none" stroke-width="1px">600</text><text x="728.0049999999999" y="0" dx="0em" dy="0.95em" style="text-anchor: middle; visibility: inherit; font-family: Roboto, sans-serif; font-size: 12px; font-weight: 200;" fill="rgb(50, 49, 63)" stroke="none" stroke-width="1px">700</text><text x="819.005625" y="0" dx="0em" dy="0.95em" style="text-anchor: middle; visibility: inherit; font-family: Roboto, sans-serif; font-size: 12px; font-weight: 200;" fill="rgb(50, 49, 63)" stroke="none" stroke-width="1px">800</text><text x="910.00625" y="0" dx="0em" dy="0.95em" style="text-anchor: middle; visibility: inherit; font-family: Roboto, sans-serif; font-size: 12px; font-weight: 200;" fill="rgb(50, 49, 63)" stroke="none" stroke-width="1px">900</text><text x="1001.0068749999999" y="0" dx="0em" dy="0.95em" style="text-anchor: middle; visibility: inherit; font-family: Roboto, sans-serif; font-size: 12px; font-weight: 200;" fill="rgb(50, 49, 63)" stroke="none" stroke-width="1px">1k</text><text x="1092.0075" y="0" dx="0em" dy="0.95em" style="text-anchor: middle; visibility: hidden; font-family: Roboto, sans-serif; font-size: 12px; font-weight: 200;" fill="rgb(50, 49, 63)" stroke="none" stroke-width="1px">1.1k</text></g><line x1="0" y1="0" x2="1092.0075" y2="0" fill="rgb(0, 0, 0)" stroke="rgb(204, 204, 204)" stroke-width="1px"></line></g></g></g></g></svg>