<svg viewBox="0 0 1143.567138671875 399.99578857421875" xmlns="http://www.w3.org/2000/svg"><g><g><g><g><g><line x1="61.953125" y1="377.996" x2="56.953125" y2="377.996" style="visibility: inherit;" fill="rgb(0, 0, 0)" stroke="rgb(204, 204, 204)" stroke-width="1px"></line><line x1="61.953125" y1="343.63272727273073" x2="56.953125" y2="343.63272727273073" style="visibility: inherit;" fill="rgb(0, 0, 0)" stroke="rgb(204, 204, 204)" stroke-width="1px"></line><line x1="61.953125" y1="309.2694545454615" x2="56.953125" y2="309.2694545454615" style="visibility: inherit;" fill="rgb(0, 0, 0)" stroke="rgb(204, 204, 204)" stroke-width="1px"></line><line x1="61.953125" y1="274.90618181817314" x2="56.953125" y2="274.90618181817314" style="visibility: inherit;" fill="rgb(0, 0, 0)" stroke="rgb(204, 204, 204)" stroke-width="1px"></line><line x1="61.953125" y1="240.54290909090386" x2="56.953125" y2="240.54290909090386" style="visibility: inherit;" fill="rgb(0, 0, 0)" stroke="rgb(204, 204, 204)" stroke-width="1px"></line><line x1="61.953125" y1="206.17963636363461" x2="56.953125" y2="206.17963636363461" style="visibility: inherit;" fill="rgb(0, 0, 0)" stroke="rgb(204, 204, 204)" stroke-width="1px"></line><line x1="61.953125" y1="171.81636363636537" x2="56.953125" y2="171.81636363636537" style="visibility: inherit;" fill="rgb(0, 0, 0)" stroke="rgb(204, 204, 204)" stroke-width="1px"></line><line x1="61.953125" y1="137.45309090909612" x2="56.953125" y2="137.45309090909612" style="visibility: inherit;" fill="rgb(0, 0, 0)" stroke="rgb(204, 204, 204)" stroke-width="1px"></line><line x1="61.953125" y1="103.08981818180776" x2="56.953125" y2="103.08981818180776" style="visibility: inherit;" fill="rgb(0, 0, 0)" stroke="rgb(204, 204, 204)" stroke-width="1px"></line><line x1="61.953125" y1="68.72654545453851" x2="56.953125" y2="68.72654545453851" style="visibility: inherit;" fill="rgb(0, 0, 0)" stroke="rgb(204, 204, 204)" stroke-width="1px"></line><line x1="61.953125" y1="34.363272727269255" x2="56.953125" y2="34.363272727269255" style="visibility: inherit;" fill="rgb(0, 0, 0)" stroke="rgb(204, 204, 204)" stroke-width="1px"></line><line x1="61.953125" y1="0" x2="56.953125" y2="0" style="visibility: inherit;" fill="rgb(0, 0, 0)" stroke="rgb(204, 204, 204)" stroke-width="1px"></line></g><g transform="translate(51.953125, 0)"><text x="0" y="377.996" dx="0em" dy="0.3em" style="text-anchor: end; visibility: hidden; font-family: Roboto, sans-serif; font-size: 12px; font-weight: 200;" fill="rgb(50, 49, 63)" stroke="none" stroke-width="1px">0.998</text><text x="0" y="343.63272727273073" dx="0em" dy="0.3em" style="text-anchor: end; visibility: inherit; font-family: Roboto, sans-serif; font-size: 12px; font-weight: 200;" fill="rgb(50, 49, 63)" stroke="none" stroke-width="1px">0.998</text><text x="0" y="309.2694545454615" dx="0em" dy="0.3em" style="text-anchor: end; visibility: inherit; font-family: Roboto, sans-serif; font-size: 12px; font-weight: 200;" fill="rgb(50, 49, 63)" stroke="none" stroke-width="1px">0.998</text><text x="0" y="274.90618181817314" dx="0em" dy="0.3em" style="text-anchor: end; visibility: inherit; font-family: Roboto, sans-serif; font-size: 12px; font-weight: 200;" fill="rgb(50, 49, 63)" stroke="none" stroke-width="1px">0.999</text><text x="0" y="240.54290909090386" dx="0em" dy="0.3em" style="text-anchor: end; visibility: inherit; font-family: Roboto, sans-serif; font-size: 12px; font-weight: 200;" fill="rgb(50, 49, 63)" stroke="none" stroke-width="1px">0.999</text><text x="0" y="206.17963636363461" dx="0em" dy="0.3em" style="text-anchor: end; visibility: inherit; font-family: Roboto, sans-serif; font-size: 12px; font-weight: 200;" fill="rgb(50, 49, 63)" stroke="none" stroke-width="1px">0.999</text><text x="0" y="171.81636363636537" dx="0em" dy="0.3em" style="text-anchor: end; visibility: inherit; font-family: Roboto, sans-serif; font-size: 12px; font-weight: 200;" fill="rgb(50, 49, 63)" stroke="none" stroke-width="1px">0.999</text><text x="0" y="137.45309090909612" dx="0em" dy="0.3em" style="text-anchor: end; visibility: inherit; font-family: Roboto, sans-serif; font-size: 12px; font-weight: 200;" fill="rgb(50, 49, 63)" stroke="none" stroke-width="1px">0.999</text><text x="0" y="103.08981818180776" dx="0em" dy="0.3em" style="text-anchor: end; visibility: inherit; font-family: Roboto, sans-serif; font-size: 12px; font-weight: 200;" fill="rgb(50, 49, 63)" stroke="none" stroke-width="1px">1</text><text x="0" y="68.72654545453851" dx="0em" dy="0.3em" style="text-anchor: end; visibility: inherit; font-family: Roboto, sans-serif; font-size: 12px; font-weight: 200;" fill="rgb(50, 49, 63)" stroke="none" stroke-width="1px">1</text><text x="0" y="34.363272727269255" dx="0em" dy="0.3em" style="text-anchor: end; visibility: inherit; font-family: Roboto, sans-serif; font-size: 12px; font-weight: 200;" fill="rgb(50, 49, 63)" stroke="none" stroke-width="1px">1</text><text x="0" y="0" dx="0em" dy="0.3em" style="text-anchor: end; visibility: hidden; font-family: Roboto, sans-serif; font-size: 12px; font-weight: 200;" fill="rgb(50, 49, 63)" stroke="none" stroke-width="1px">1</text></g><line x1="61.953125" y1="0" x2="61.953125" y2="377.996" fill="rgb(0, 0, 0)" stroke="rgb(204, 204, 204)" stroke-width="1px"></line></g></g><g transform="translate(61, 0)" clip-path="url(#clip_0)"><clipPath id="clip_0"><rect width="1081" height="377"></rect></clipPath><g><g><g><line x1="0" y1="0" x2="0" y2="377.996" fill="rgb(0, 0, 0)" stroke="rgb(60, 60, 60)" stroke-width="1px" opacity="0.25"></line><line x1="90.13473958333333" y1="0" x2="90.13473958333333" y2="377.996" fill="rgb(0, 0, 0)" stroke="rgb(60, 60, 60)" stroke-width="1px" opacity="0.25"></line><line x1="180.26947916666666" y1="0" x2="180.26947916666666" y2="377.996" fill="rgb(0, 0, 0)" stroke="rgb(60, 60, 60)" stroke-width="1px" opacity="0.25"></line><line x1="270.40421875" y1="0" x2="270.40421875" y2="377.996" fill="rgb(0, 0, 0)" stroke="rgb(60, 60, 60)" stroke-width="1px" opacity="0.25"></line><line x1="360.5389583333333" y1="0" x2="360.5389583333333" y2="377.996" fill="rgb(0, 0, 0)" stroke="rgb(60, 60, 60)" stroke-width="1px" opacity="0.25"></line><line x1="450.67369791666664" y1="0" x2="450.67369791666664" y2="377.996" fill="rgb(0, 0, 0)" stroke="rgb(60, 60, 60)" stroke-width="1px" opacity="0.25"></line><line x1="540.8084375" y1="0" x2="540.8084375" y2="377.996" fill="rgb(0, 0, 0)" stroke="rgb(60, 60, 60)" stroke-width="1px" opacity="0.25"></line><line x1="630.9431770833334" y1="0" x2="630.9431770833334" y2="377.996" fill="rgb(0, 0, 0)" stroke="rgb(60, 60, 60)" stroke-width="1px" opacity="0.25"></line><line x1="721.0779166666666" y1="0" x2="721.0779166666666" y2="377.996" fill="rgb(0, 0, 0)" stroke="rgb(60, 60, 60)" stroke-width="1px" opacity="0.25"></line><line x1="811.21265625" y1="0" x2="811.21265625" y2="377.996" fill="rgb(0, 0, 0)" stroke="rgb(60, 60, 60)" stroke-width="1px" opacity="0.25"></line><line x1="901.3473958333333" y1="0" x2="901.3473958333333" y2="377.996" fill="rgb(0, 0, 0)" stroke="rgb(60, 60, 60)" stroke-width="1px" opacity="0.25"></line><line x1="991.4821354166666" y1="0" x2="991.4821354166666" y2="377.996" fill="rgb(0, 0, 0)" stroke="rgb(60, 60, 60)" stroke-width="1px" opacity="0.25"></line><line x1="1081.616875" y1="0" x2="1081.616875" y2="377.996" fill="rgb(0, 0, 0)" stroke="rgb(60, 60, 60)" stroke-width="1px" opacity="0.25"></line></g><g><line x1="0" y1="377.996" x2="1081.616875" y2="377.996" fill="rgb(0, 0, 0)" stroke="rgb(60, 60, 60)" stroke-width="1px" opacity="0.25"></line><line x1="0" y1="343.63272727273073" x2="1081.616875" y2="343.63272727273073" fill="rgb(0, 0, 0)" stroke="rgb(60, 60, 60)" stroke-width="1px" opacity="0.25"></line><line x1="0" y1="309.2694545454615" x2="1081.616875" y2="309.2694545454615" fill="rgb(0, 0, 0)" stroke="rgb(60, 60, 60)" stroke-width="1px" opacity="0.25"></line><line x1="0" y1="274.90618181817314" x2="1081.616875" y2="274.90618181817314" fill="rgb(0, 0, 0)" stroke="rgb(60, 60, 60)" stroke-width="1px" opacity="0.25"></line><line x1="0" y1="240.54290909090386" x2="1081.616875" y2="240.54290909090386" fill="rgb(0, 0, 0)" stroke="rgb(60, 60, 60)" stroke-width="1px" opacity="0.25"></line><line x1="0" y1="206.17963636363461" x2="1081.616875" y2="206.17963636363461" fill="rgb(0, 0, 0)" stroke="rgb(60, 60, 60)" stroke-width="1px" opacity="0.25"></line><line x1="0" y1="171.81636363636537" x2="1081.616875" y2="171.81636363636537" fill="rgb(0, 0, 0)" stroke="rgb(60, 60, 60)" stroke-width="1px" opacity="0.25"></line><line x1="0" y1="137.45309090909612" x2="1081.616875" y2="137.45309090909612" fill="rgb(0, 0, 0)" stroke="rgb(60, 60, 60)" stroke-width="1px" opacity="0.25"></line><line x1="0" y1="103.08981818180776" x2="1081.616875" y2="103.08981818180776" fill="rgb(0, 0, 0)" stroke="rgb(60, 60, 60)" stroke-width="1px" opacity="0.25"></line><line x1="0" y1="68.72654545453851" x2="1081.616875" y2="68.72654545453851" fill="rgb(0, 0, 0)" stroke="rgb(60, 60, 60)" stroke-width="1px" opacity="0.25"></line><line x1="0" y1="34.363272727269255" x2="1081.616875" y2="34.363272727269255" fill="rgb(0, 0, 0)" stroke="rgb(60, 60, 60)" stroke-width="1px" opacity="0.25"></line><line x1="0" y1="0" x2="1081.616875" y2="0" fill="rgb(0, 0, 0)" stroke="rgb(60, 60, 60)" stroke-width="1px" opacity="0.25"></line></g></g></g><g><g><line x1="0" y1="171850.72690909248" x2="1081.616875" y2="171850.72690909248" fill="rgb(0, 0, 0)" stroke="rgb(153, 153, 153)" stroke-width="1.5px"></line></g></g><g><g><line x1="90.13473958333333" y1="0" x2="90.13473958333333" y2="377.996" fill="rgb(0, 0, 0)" stroke="rgb(153, 153, 153)" stroke-width="1.5px"></line></g></g><g><g><g><g><g><path stroke="rgb(255, 112, 67)" stroke-width="2px" d="M105.45764531249999,678.6893834804213L106.35899270833332,356.52632810384523L107.26034010416666,141.75095785279456L108.1616875,34.363272727269255L109.06303489583333,356.52632810384523L109.96438229166667,2718.9837134921545L112.66842447916666,786.0565864993044L113.56977187499999,356.52632810384523L114.47111927083333,34.363272727269255L115.37246666666667,34.363272727269255L116.2738140625,34.363272727269255L117.17516145833333,1108.2196418758804L120.78055104166666,678.6791424271001L121.6818984375,34.363272727269255L122.58324583333332,34.363272727269255L123.48459322916666,34.363272727269255L124.385940625,34.363272727269255L125.28728802083332,249.13864297831992L126.18863541666666,2396.8308991688996L130.69537239583332,571.2812162482536L131.59671979166666,249.13864297831992L132.4980671875,1645.1375853968646L133.39941458333334,463.9037721760494L134.30076197916665,141.75095785279456L135.202109375,34.363272727269255L136.1034567708333,34.363272727269255L137.00480416666667,141.75095785279456L137.90615156249999,4437.145711287276L139.70884635416667,1322.995012126931L140.61019375,34.363272727269255L141.51154114583332,571.2914573015747L142.41288854166663,1322.995012126931L143.3142359375,34.363272727269255L144.2155833333333,141.75095785279456L145.11693072916665,34.363272727269255L146.018278125,34.363272727269255L146.91962552083334,34.363272727269255L147.82097291666665,34.363272727269255L148.72232031250002,249.13864297831992L149.62366770833333,1000.831956750355L150.52501510416664,34.363272727269255L151.4263625,34.363272727269255L152.32770989583332,34.363272727269255L153.22905729166666,34.363272727269255L154.13040468749998,141.75095785279456L155.03175208333334,34.363272727269255L155.93309947916666,34.363272727269255L156.83444687499997,34.363272727269255L157.73579427083334,34.363272727269255L158.63714166666665,34.363272727269255L159.5384890625,34.363272727269255L160.43983645833333,34.363272727269255L161.34118385416667,34.363272727269255L162.24253124999998,34.363272727269255L163.14387864583333,463.9140132293706L164.04522604166667,356.52632810384523L164.94657343749998,571.2812162482536L165.84792083333332,356.52632810384523L166.74926822916666,678.6689013737789L167.650615625,34.363272727269255L168.5519630208333,34.363272727269255L169.45331041666665,249.13864297831992L170.3546578125,571.2914573015747L173.0587,1000.831956750355L173.96004739583333,141.75095785279456L174.86139479166664,34.363272727269255L175.7627421875,141.75095785279456L176.66408958333332,34.363272727269255L177.56543697916663,356.52632810384523L178.466784375,34.363272727269255L179.36813177083332,34.363272727269255L180.26947916666666,34.363272727269255L181.1708265625,34.363272727269255L182.07217395833334,34.363272727269255L182.97352135416665,34.363272727269255L183.87486875,34.363272727269255L184.77621614583333,34.363272727269255L185.67756354166664,34.363272727269255L186.57891093749998,34.363272727269255L187.48025833333332,34.363272727269255L188.38160572916667,34.363272727269255L189.28295312499998,34.363272727269255L190.18430052083332,34.363272727269255L191.08564791666666,34.363272727269255L191.98699531249997,34.363272727269255L192.88834270833334,34.363272727269255L193.78969010416665,34.363272727269255L194.6910375,34.363272727269255L195.59238489583333,34.363272727269255L196.49373229166665,34.363272727269255L197.3950796875,34.363272727269255L198.2964270833333,34.363272727269255L199.19777447916667,34.363272727269255L200.09912187499998,34.363272727269255L201.00046927083332,34.363272727269255L201.90181666666666,34.363272727269255L202.8031640625,34.363272727269255L203.70451145833331,34.363272727269255L204.60585885416666,34.363272727269255L205.50720625,34.363272727269255L206.4085536458333,34.363272727269255L207.30990104166668,34.363272727269255L208.2112484375,141.75095785279456L209.11259583333333,34.363272727269255L210.01394322916664,34.363272727269255L210.91529062499998,34.363272727269255L211.81663802083332,34.363272727269255L212.71798541666664,34.363272727269255L213.6193328125,34.363272727269255L214.52068020833332,34.363272727269255L215.42202760416666,34.363272727269255L216.323375,34.363272727269255L217.2247223958333,34.363272727269255L218.12606979166665,34.363272727269255L219.0274171875,34.363272727269255L219.92876458333333,34.363272727269255L220.83011197916665,34.363272727269255L221.731459375,34.363272727269255L222.63280677083333,34.363272727269255L223.53415416666664,34.363272727269255L224.43550156249998,34.363272727269255L225.33684895833332,34.363272727269255L226.23819635416666,34.363272727269255L227.13954374999997,34.363272727269255L228.04089114583334,34.363272727269255L228.94223854166665,34.363272727269255L229.84358593749997,34.363272727269255L230.74493333333334,34.363272727269255L231.64628072916665,34.363272727269255L232.547628125,34.363272727269255L233.4489755208333,34.363272727269255L234.35032291666667,34.363272727269255L235.25167031249998,34.363272727269255L236.15301770833332,34.363272727269255L237.05436510416666,34.363272727269255L237.95571249999998,34.363272727269255L238.85705989583332,34.363272727269255L239.75840729166666,34.363272727269255L240.6597546875,34.363272727269255L241.5611020833333,34.363272727269255L242.46244947916665,34.363272727269255L243.363796875,34.363272727269255L244.2651442708333,34.363272727269255L245.16649166666664,34.363272727269255L246.06783906249998,34.363272727269255L246.96918645833333,34.363272727269255L247.87053385416664,34.363272727269255L248.77188125,34.363272727269255L249.67322864583332,34.363272727269255L250.57457604166663,34.363272727269255L251.4759234375,34.363272727269255L252.3772708333333,34.363272727269255L253.27861822916665,34.363272727269255L254.17996562499997,356.5160870505241L255.08131302083333,34.363272727269255L255.98266041666665,34.363272727269255L256.8840078125,34.363272727269255L257.7853552083333,34.363272727269255L258.68670260416667,34.363272727269255L259.58804999999995,34.363272727269255L260.48939739583335,34.363272727269255L261.39074479166663,34.363272727269255L262.2920921875,34.363272727269255L263.1934395833333,34.363272727269255L264.09478697916666,34.363272727269255L264.996134375,34.363272727269255L265.8974817708333,34.363272727269255L266.7988291666667,34.363272727269255L267.70017656249996,34.363272727269255L268.6015239583333,34.363272727269255L269.50287135416664,141.75095785279456L270.40421875,34.363272727269255L271.3055661458333,34.363272727269255L272.2069135416666,34.363272727269255L273.1082609375,34.363272727269255L274.00960833333335,34.363272727269255L274.91095572916663,34.363272727269255L275.81230312499997,34.363272727269255L276.71365052083337,34.363272727269255L277.61499791666665,34.363272727269255L278.5163453125,34.363272727269255L279.41769270833333,34.363272727269255L280.3190401041666,34.363272727269255L281.2203875,34.363272727269255L282.1217348958333,34.363272727269255L283.02308229166664,141.75095785279456L283.9244296875,34.363272727269255L284.82577708333326,34.363272727269255L285.72712447916666,34.363272727269255L286.628471875,141.75095785279456L287.5298192708333,34.363272727269255L288.4311666666666,34.363272727269255L289.3325140625,34.363272727269255L290.2338614583333,34.363272727269255L291.13520885416665,34.363272727269255L292.03655625,34.363272727269255L292.9379036458333,34.363272727269255L293.83925104166667,34.363272727269255L294.7405984375,34.363272727269255L295.6419458333333,141.75095785279456L296.54329322916664,34.363272727269255L297.44464062500003,34.363272727269255L298.3459880208333,34.363272727269255L299.24733541666666,34.363272727269255L300.1486828125,34.363272727269255L301.0500302083333,34.363272727269255L301.9513776041667,34.363272727269255L302.852725,34.363272727269255L303.7540723958333,34.363272727269255L304.65541979166665,34.363272727269255L305.55676718749993,34.363272727269255L306.4581145833333,34.363272727269255L307.35946197916667,34.363272727269255L308.26080937499995,34.363272727269255L309.1621567708333,34.363272727269255L310.0635041666667,34.363272727269255L310.9648515625,34.363272727269255L311.8661989583333,34.363272727269255L312.76754635416665,34.363272727269255L313.66889374999994,34.363272727269255L314.57024114583334,34.363272727269255L315.4715885416667,34.363272727269255L316.37293593749996,34.363272727269255L317.2742833333333,34.363272727269255L318.1756307291667,34.363272727269255L319.076978125,34.363272727269255L319.9783255208333,34.363272727269255L320.87967291666666,34.363272727269255L321.78102031249995,34.363272727269255L322.68236770833335,34.363272727269255L323.5837151041667,34.363272727269255L324.48506249999997,34.363272727269255L325.3864098958333,34.363272727269255L326.28775729166665,34.363272727269255L327.1891046875,34.363272727269255L328.09045208333333,34.363272727269255L328.9917994791666,34.363272727269255L329.89314687499996,34.363272727269255L330.79449427083335,34.363272727269255L331.69584166666664,34.363272727269255L332.5971890625,34.363272727269255L333.4985364583333,34.363272727269255L334.3998838541666,34.363272727269255L335.30123125,34.363272727269255L336.20257864583334,34.363272727269255L337.1039260416666,34.363272727269255L338.00527343749997,34.363272727269255L338.9066208333333,34.363272727269255L339.80796822916665,34.363272727269255L340.709315625,34.363272727269255L341.61066302083333,34.363272727269255L342.5120104166666,34.363272727269255L343.4133578125,34.363272727269255L344.31470520833335,34.363272727269255L345.21605260416663,34.363272727269255L346.1174,34.363272727269255L347.0187473958333,34.363272727269255L347.92009479166666,34.363272727269255L348.8214421875,34.363272727269255L349.7227895833333,34.363272727269255L350.6241369791666,34.363272727269255L351.525484375,34.363272727269255L352.4268317708333,34.363272727269255L353.32817916666664,34.363272727269255L354.2295265625,34.363272727269255L355.13087395833327,34.363272727269255L356.03222135416667,34.363272727269255L356.93356875,34.363272727269255L357.8349161458333,34.363272727269255L358.73626354166663,34.363272727269255L359.63761093749997,34.363272727269255L360.5389583333333,34.363272727269255L361.44030572916665,34.363272727269255L362.341653125,34.363272727269255L363.2430005208333,34.363272727269255L364.1443479166667,34.363272727269255L365.0456953125,34.363272727269255L365.9470427083333,34.363272727269255L366.84839010416664,34.363272727269255L367.7497375,34.363272727269255L368.6510848958333,34.363272727269255L369.55243229166666,34.363272727269255L370.4537796875,34.363272727269255L371.3551270833333,34.363272727269255L372.2564744791666,34.363272727269255L373.15782187499997,34.363272727269255L374.0591692708333,34.363272727269255L374.96051666666665,34.363272727269255L375.86186406249993,34.363272727269255L376.76321145833333,34.363272727269255L377.66455885416667,34.363272727269255L378.56590624999995,34.363272727269255L379.4672536458333,34.363272727269255L380.36860104166664,34.363272727269255L381.2699484375,34.363272727269255L382.1712958333333,34.363272727269255L383.07264322916666,34.363272727269255L383.97399062499994,34.363272727269255L384.87533802083334,34.363272727269255L385.7766854166667,34.363272727269255L386.67803281249996,34.363272727269255L387.5793802083333,34.363272727269255L388.48072760416665,34.363272727269255L389.382075,34.363272727269255L390.2834223958333,34.363272727269255L391.18476979166667,34.363272727269255L392.08611718749995,34.363272727269255L392.9874645833333,34.363272727269255L393.8888119791667,34.363272727269255L394.790159375,34.363272727269255L395.6915067708333,34.363272727269255L396.5928541666666,34.363272727269255L397.4942015625,34.363272727269255L398.39554895833334,34.363272727269255L399.2968963541666,34.363272727269255L400.19824374999996,34.363272727269255L401.0995911458333,34.363272727269255L402.00093854166664,34.363272727269255L402.9022859375,34.363272727269255L403.8036333333333,34.363272727269255L404.7049807291666,34.363272727269255L405.606328125,34.363272727269255L406.50767552083335,34.363272727269255L407.40902291666663,34.363272727269255L408.31037031249997,34.363272727269255L409.2117177083333,34.363272727269255L410.11306510416665,34.363272727269255L411.0144125,34.363272727269255L411.91575989583333,34.363272727269255L412.8171072916666,34.363272727269255L413.71845468749996,34.363272727269255L414.61980208333335,34.363272727269255L415.52114947916664,34.363272727269255L416.422496875,34.363272727269255L417.32384427083326,34.363272727269255L418.22519166666666,34.363272727269255L419.1265390625,34.363272727269255L420.0278864583333,34.363272727269255L420.9292338541666,34.363272727269255L421.83058124999997,34.363272727269255L422.7319286458333,34.363272727269255L423.63327604166665,34.363272727269255L424.5346234375,34.363272727269255L425.4359708333333,34.363272727269255L426.3373182291666,34.363272727269255L427.238665625,34.363272727269255L428.1400130208333,34.363272727269255L429.04136041666663,34.363272727269255L429.9427078125,34.363272727269255L430.8440552083333,34.363272727269255L431.74540260416666,34.363272727269255L432.64675,34.363272727269255L433.5480973958333,34.363272727269255L434.4494447916666,34.363272727269255L435.3507921875,34.363272727269255L436.2521395833333,34.363272727269255L437.15348697916664,34.363272727269255L438.054834375,34.363272727269255L438.9561817708333,34.363272727269255L439.85752916666667,34.363272727269255L440.75887656249995,34.363272727269255L441.6602239583333,34.363272727269255L442.56157135416663,34.363272727269255L443.46291875,34.363272727269255L444.3642661458333,34.363272727269255L445.26561354166665,34.363272727269255L446.16696093749994,34.363272727269255L447.0683083333333,34.363272727269255L447.9696557291667,34.363272727269255L448.87100312499996,34.363272727269255L449.7723505208333,34.363272727269255L450.67369791666664,34.363272727269255L451.5750453125,34.363272727269255L452.4763927083333,34.363272727269255L453.37774010416666,34.363272727269255L454.27908749999995,34.363272727269255L455.1804348958333,34.363272727269255L456.0817822916667,34.363272727269255L456.98312968749997,34.363272727269255L457.8844770833333,34.363272727269255L458.78582447916665,34.363272727269255L459.68717187499993,34.363272727269255L460.58851927083333,34.363272727269255L461.48986666666667,34.363272727269255L462.39121406249996,34.363272727269255L463.2925614583333,34.363272727269255L464.19390885416664,34.363272727269255L465.09525625,34.363272727269255L465.9966036458333,34.363272727269255L466.8979510416666,34.363272727269255L467.79929843749994,34.363272727269255L468.70064583333334,34.363272727269255L469.6019932291666,34.363272727269255L470.50334062499996,34.363272727269255L471.4046880208333,34.363272727269255L472.30603541666665,34.363272727269255L473.2073828125,34.363272727269255L474.1087302083333,34.363272727269255L475.0100776041666,34.363272727269255L475.91142499999995,34.363272727269255L476.81277239583335,34.363272727269255L477.71411979166663,34.363272727269255L478.6154671875,34.363272727269255L479.5168145833333,34.363272727269255L480.4181619791666,34.363272727269255L481.319509375,34.363272727269255L482.22085677083334,34.363272727269255L483.1222041666666,34.363272727269255L484.02355156249996,34.363272727269255L484.9248989583333,34.363272727269255L485.82624635416664,34.363272727269255L486.72759375,34.363272727269255L487.62894114583327,34.363272727269255L488.5302885416666,34.363272727269255L489.4316359375,34.363272727269255L490.3329833333333,34.363272727269255L491.23433072916663,34.363272727269255L492.13567812499997,34.363272727269255L493.03702552083325,34.363272727269255L493.93837291666665,34.363272727269255L494.8397203125,34.363272727269255L495.7410677083333,34.363272727269255L496.6424151041666,34.363272727269255L497.5437625,34.363272727269255L498.4451098958333,34.363272727269255L499.34645729166664,34.363272727269255L500.2478046875,34.363272727269255L501.14915208333326,34.363272727269255L502.05049947916666,34.363272727269255L502.951846875,34.363272727269255L503.8531942708333,34.363272727269255L504.7545416666666,34.363272727269255L505.6558890625,34.363272727269255L506.5572364583333,34.363272727269255L507.45858385416665,34.363272727269255L508.35993124999993,34.363272727269255L509.2612786458333,34.363272727269255L510.16262604166667,34.363272727269255L511.06397343749995,34.363272727269255L511.9653208333333,34.363272727269255L512.8666682291666,34.363272727269255L513.768015625,34.363272727269255L514.6693630208333,34.363272727269255L515.5707104166667,34.363272727269255L516.4720578125,34.363272727269255L517.3734052083333,34.363272727269255L518.2747526041667,34.363272727269255L519.1760999999999,34.363272727269255L520.0774473958334,34.363272727269255L520.9787947916667,34.363272727269255L521.8801421874999,34.363272727269255L522.7814895833333,34.363272727269255L523.6828369791666,34.363272727269255L524.584184375,34.363272727269255L525.4855317708333,34.363272727269255L526.3868791666666,34.363272727269255L527.2882265625,34.363272727269255L528.1895739583333,34.363272727269255L529.0909213541667,34.363272727269255L529.99226875,34.363272727269255L530.8936161458333,34.363272727269255L531.7949635416666,34.363272727269255L532.6963109375,34.363272727269255L533.5976583333334,34.363272727269255L534.4990057291666,34.363272727269255L535.4003531249999,34.363272727269255L536.3017005208333,34.363272727269255L537.2030479166666,34.363272727269255L538.1043953125,34.363272727269255L539.0057427083333,34.363272727269255L539.9070901041666,34.363272727269255L540.8084375,34.363272727269255L541.7097848958333,34.363272727269255L542.6111322916666,34.363272727269255L543.5124796874999,34.363272727269255L544.4138270833332,34.363272727269255L545.3151744791667,34.363272727269255L546.216521875,34.363272727269255L547.1178692708334,34.363272727269255L548.0192166666667,34.363272727269255L548.9205640624999,34.363272727269255L549.8219114583333,34.363272727269255L550.7232588541666,34.363272727269255L551.6246062499999,34.363272727269255L552.5259536458333,34.363272727269255L553.4273010416667,34.363272727269255L554.3286484375,34.363272727269255L555.2299958333333,34.363272727269255L556.1313432291666,34.363272727269255L557.032690625,34.363272727269255L557.9340380208333,34.363272727269255L558.8353854166667,34.363272727269255L559.7367328124999,34.363272727269255L560.6380802083332,34.363272727269255L561.5394276041666,34.363272727269255L562.440775,34.363272727269255L563.3421223958334,34.363272727269255L564.2434697916666,34.363272727269255L565.1448171874999,34.363272727269255L566.0461645833333,34.363272727269255L566.9475119791666,34.363272727269255L567.848859375,34.363272727269255L568.7502067708333,34.363272727269255L569.6515541666665,34.363272727269255L570.5529015625,34.363272727269255L571.4542489583333,34.363272727269255L572.3555963541667,34.363272727269255L573.25694375,34.363272727269255L574.1582911458333,34.363272727269255L575.0596385416666,34.363272727269255L575.9609859374999,34.363272727269255L576.8623333333333,34.363272727269255L577.7636807291666,34.363272727269255L578.665028125,34.363272727269255L579.5663755208334,34.363272727269255L580.4677229166666,34.363272727269255L581.3690703125,34.363272727269255L582.2704177083333,34.363272727269255L583.1717651041666,34.363272727269255L584.0731125,34.363272727269255L584.9744598958333,34.363272727269255L585.8758072916665,34.363272727269255L586.7771546875,34.363272727269255L587.6785020833333,34.363272727269255L588.5798494791667,34.363272727269255L589.481196875,34.363272727269255L590.3825442708333,34.363272727269255L591.2838916666666,34.363272727269255L592.1852390624999,34.363272727269255L593.0865864583333,34.363272727269255L593.9879338541666,34.363272727269255L594.8892812500001,34.363272727269255L595.7906286458333,34.363272727269255L596.6919760416666,34.363272727269255L597.5933234375,34.363272727269255L598.4946708333333,34.363272727269255L599.3960182291667,34.363272727269255L600.297365625,34.363272727269255L601.1987130208332,34.363272727269255L602.1000604166666,34.363272727269255L603.0014078124999,34.363272727269255L603.9027552083334,34.363272727269255L604.8041026041667,34.363272727269255L605.70545,34.363272727269255L606.6067973958333,34.363272727269255L607.5081447916666,34.363272727269255L608.4094921875,34.363272727269255L609.3108395833333,34.363272727269255L610.2121869791666,34.363272727269255L611.1135343749999,34.363272727269255L612.0148817708333,34.363272727269255L612.9162291666667,34.363272727269255L613.8175765625,34.363272727269255L614.7189239583333,34.363272727269255L615.6202713541667,34.363272727269255L616.5216187499999,34.363272727269255L617.4229661458332,34.363272727269255L618.3243135416666,34.363272727269255L619.2256609374999,34.363272727269255L620.1270083333334,34.363272727269255L621.0283557291667,34.363272727269255L621.929703125,34.363272727269255L622.8310505208333,34.363272727269255L623.7323979166666,34.363272727269255L624.6337453125,34.363272727269255L625.5350927083333,34.363272727269255L626.4364401041666,34.363272727269255L627.3377874999999,34.363272727269255L628.2391348958332,34.363272727269255L629.1404822916667,34.363272727269255L630.0418296875,34.363272727269255L630.9431770833334,34.363272727269255L631.8445244791666,34.363272727269255L632.7458718749999,34.363272727269255L633.6472192708333,34.363272727269255L634.5485666666666,34.363272727269255L635.4499140624999,34.363272727269255L636.3512614583334,34.363272727269255L637.2526088541666,34.363272727269255L638.15395625,34.363272727269255L639.0553036458333,34.363272727269255L639.9566510416666,34.363272727269255L640.8579984375,34.363272727269255L641.7593458333333,34.363272727269255L642.6606932291666,34.363272727269255L643.5620406249999,34.363272727269255L644.4633880208332,34.363272727269255L645.3647354166667,34.363272727269255L646.2660828125,34.363272727269255L647.1674302083334,34.363272727269255L648.0687776041666,34.363272727269255L648.9701249999999,34.363272727269255L649.8714723958333,34.363272727269255L650.7728197916666,34.363272727269255L651.6741671875,34.363272727269255L652.5755145833333,34.363272727269255L653.4768619791666,34.363272727269255L654.378209375,34.363272727269255L655.2795567708333,34.363272727269255L656.1809041666667,34.363272727269255L657.0822515625,34.363272727269255L657.9835989583332,34.363272727269255L658.8849463541666,34.363272727269255L659.7862937499999,34.363272727269255L660.6876411458333,34.363272727269255L661.5889885416667,34.363272727269255L662.4903359375,34.363272727269255L663.3916833333333,34.363272727269255L664.2930307291666,34.363272727269255L665.194378125,34.363272727269255L666.0957255208333,34.363272727269255L666.9970729166666,34.363272727269255L667.8984203125,34.363272727269255L668.7997677083332,34.363272727269255L669.7011151041665,34.363272727269255L670.6024625,34.363272727269255L671.5038098958333,34.363272727269255L672.4051572916667,34.363272727269255L673.3065046875,34.363272727269255L674.2078520833333,34.363272727269255L675.1091994791666,34.363272727269255L676.0105468749999,34.363272727269255L676.9118942708333,34.363272727269255L677.8132416666666,34.363272727269255L678.7145890625,34.363272727269255L679.6159364583333,34.363272727269255L680.5172838541666,34.363272727269255L681.41863125,34.363272727269255L682.3199786458333,34.363272727269255L683.2213260416667,34.363272727269255L684.1226734374999,34.363272727269255L685.0240208333332,34.363272727269255L685.9253682291666,34.363272727269255L686.826715625,34.363272727269255L687.7280630208334,34.363272727269255L688.6294104166667,34.363272727269255L689.5307578124999,34.363272727269255L690.4321052083333,34.363272727269255L691.3334526041666,34.363272727269255L692.2348,34.363272727269255L693.1361473958333,34.363272727269255L694.0374947916666,34.363272727269255L694.9388421875,34.363272727269255L695.8401895833333,34.363272727269255L696.7415369791667,34.363272727269255L697.642884375,34.363272727269255L698.5442317708333,34.363272727269255L699.4455791666666,34.363272727269255L700.3469265624999,34.363272727269255L701.2482739583332,34.363272727269255L702.1496213541666,34.363272727269255L703.05096875,34.363272727269255L703.9523161458334,34.363272727269255L704.8536635416666,34.363272727269255L705.7550109375,34.363272727269255L706.6563583333333,34.363272727269255L707.5577057291666,34.363272727269255L708.459053125,34.363272727269255L709.3604005208333,34.363272727269255L710.2617479166665,34.363272727269255L711.1630953124999,34.363272727269255L712.0644427083333,34.363272727269255L712.9657901041667,34.363272727269255L713.8671375,34.363272727269255L714.7684848958334,34.363272727269255L715.6698322916666,34.363272727269255L716.5711796874999,34.363272727269255L717.4725270833333,34.363272727269255L718.3738744791666,34.363272727269255L719.2752218749999,34.363272727269255L720.1765692708334,34.363272727269255L721.0779166666666,34.363272727269255L721.9792640625,34.363272727269255L722.8806114583333,34.363272727269255L723.7819588541666,34.363272727269255L724.68330625,34.363272727269255L725.5846536458332,34.363272727269255L726.4860010416666,34.363272727269255L727.3873484374999,34.363272727269255L728.2886958333333,34.363272727269255L729.1900432291667,34.363272727269255L730.091390625,34.363272727269255L730.9927380208333,34.363272727269255L731.8940854166666,34.363272727269255L732.7954328124999,34.363272727269255L733.6967802083333,34.363272727269255L734.5981276041666,34.363272727269255L735.499475,34.363272727269255L736.4008223958332,34.363272727269255L737.3021697916666,34.363272727269255L738.2035171875,34.363272727269255L739.1048645833333,34.363272727269255L740.0062119791667,34.363272727269255L740.907559375,34.363272727269255L741.8089067708332,34.363272727269255L742.7102541666666,34.363272727269255L743.6116015624999,34.363272727269255L744.5129489583333,34.363272727269255L745.4142963541667,34.363272727269255L746.3156437499999,34.363272727269255L747.2169911458333,34.363272727269255L748.1183385416666,34.363272727269255L749.0196859375,34.363272727269255L749.9210333333333,34.363272727269255L750.8223807291666,34.363272727269255L751.7237281249999,34.363272727269255L752.6250755208332,34.363272727269255L753.5264229166667,34.363272727269255L754.4277703125,34.363272727269255L755.3291177083333,34.363272727269255L756.2304651041667,34.363272727269255L757.1318124999999,34.363272727269255L758.0331598958333,34.363272727269255L758.9345072916666,34.363272727269255L759.8358546874999,34.363272727269255L760.7372020833333,34.363272727269255L761.6385494791667,34.363272727269255L762.539896875,34.363272727269255L763.4412442708333,34.363272727269255L764.3425916666666,34.363272727269255L765.2439390625,34.363272727269255L766.1452864583333,34.363272727269255L767.0466338541665,34.363272727269255L767.9479812499999,34.363272727269255L768.8493286458332,34.363272727269255L769.7506760416667,34.363272727269255L770.6520234375,34.363272727269255L771.5533708333334,34.363272727269255L772.4547182291666,34.363272727269255L773.3560656249999,34.363272727269255L774.2574130208333,34.363272727269255L775.1587604166666,34.363272727269255L776.0601078125,34.363272727269255L776.9614552083333,34.363272727269255L777.8628026041665,34.363272727269255L778.76415,34.363272727269255L779.6654973958333,34.363272727269255L780.5668447916667,34.363272727269255L781.4681921875,34.363272727269255L782.3695395833333,34.363272727269255L783.2708869791666,34.363272727269255L784.1722343749999,34.363272727269255L785.0735817708332,34.363272727269255L785.9749291666666,34.363272727269255L786.8762765625,34.363272727269255L787.7776239583334,34.363272727269255L788.6789713541666,34.363272727269255L789.58031875,34.363272727269255L790.4816661458333,34.363272727269255L791.3830135416666,34.363272727269255L792.2843609375,34.363272727269255L793.1857083333332,34.363272727269255L794.0870557291665,34.363272727269255L794.988403125,34.363272727269255L795.8897505208333,34.363272727269255L796.7910979166667,34.363272727269255L797.6924453125,34.363272727269255L798.5937927083332,34.363272727269255L799.4951401041666,34.363272727269255L800.3964874999999,34.363272727269255L801.2978348958333,34.363272727269255L802.1991822916666,34.363272727269255L803.1005296875,34.363272727269255L804.0018770833333,34.363272727269255L804.9032244791666,34.363272727269255L805.804571875,34.363272727269255L806.7059192708333,34.363272727269255L807.6072666666666,34.363272727269255L808.5086140625,34.363272727269255L809.4099614583332,34.363272727269255L810.3113088541666,34.363272727269255L811.21265625,34.363272727269255L812.1140036458333,34.363272727269255L813.0153510416667,34.363272727269255L813.9166984374999,34.363272727269255L814.8180458333333,34.363272727269255L815.7193932291666,34.363272727269255L816.6207406249999,34.363272727269255L817.5220880208333,34.363272727269255L818.4234354166666,34.363272727269255L819.3247828124998,34.363272727269255L820.2261302083333,34.363272727269255L821.1274776041666,34.363272727269255L822.028825,34.363272727269255L822.9301723958333,34.363272727269255L823.8315197916667,34.363272727269255L824.7328671874999,34.363272727269255L825.6342145833332,34.363272727269255L826.5355619791666,34.363272727269255L827.4369093749999,34.363272727269255L828.3382567708334,34.363272727269255L829.2396041666667,34.363272727269255L830.1409515624999,34.363272727269255L831.0422989583333,34.363272727269255L831.9436463541666,34.363272727269255L832.84499375,34.363272727269255L833.7463411458333,34.363272727269255L834.6476885416665,34.363272727269255L835.5490359374999,34.363272727269255L836.4503833333333,34.363272727269255L837.3517307291667,34.363272727269255L838.253078125,34.363272727269255L839.1544255208333,34.363272727269255L840.0557729166666,34.363272727269255L840.9571203124999,34.363272727269255L841.8584677083333,34.363272727269255L842.7598151041666,34.363272727269255L843.6611624999999,34.363272727269255L844.5625098958334,34.363272727269255L845.4638572916666,34.363272727269255L846.3652046875,34.363272727269255L847.2665520833333,34.363272727269255L848.1678994791666,34.363272727269255L849.069246875,34.363272727269255L849.9705942708333,34.363272727269255L850.8719416666665,34.363272727269255L851.7732890624999,34.363272727269255L852.6746364583332,34.363272727269255L853.5759838541667,34.363272727269255L854.47733125,34.363272727269255L855.3786786458334,34.363272727269255L856.2800260416666,34.363272727269255L857.1813734374999,34.363272727269255L858.0827208333333,34.363272727269255L858.9840682291666,34.363272727269255L859.885415625,34.363272727269255L860.7867630208332,34.363272727269255L861.6881104166666,34.363272727269255L862.5894578125,34.363272727269255L863.4908052083333,34.363272727269255L864.3921526041667,34.363272727269255L865.2935,34.363272727269255L866.1948473958332,34.363272727269255L867.0961947916666,34.363272727269255L867.9975421874999,34.363272727269255L868.8988895833332,34.363272727269255L869.8002369791667,34.363272727269255L870.701584375,34.363272727269255L871.6029317708333,34.363272727269255L872.5042791666666,34.363272727269255L873.4056265625,34.363272727269255L874.3069739583333,34.363272727269255L875.2083213541666,34.363272727269255L876.10966875,34.363272727269255L877.0110161458332,34.363272727269255L877.9123635416667,34.363272727269255L878.8137109375,34.363272727269255L879.7150583333333,34.363272727269255L880.6164057291667,34.363272727269255L881.5177531249999,34.363272727269255L882.4191005208332,34.363272727269255L883.3204479166666,34.363272727269255L884.2217953124999,34.363272727269255L885.1231427083333,34.363272727269255L886.0244901041667,34.363272727269255L886.9258375,34.363272727269255L887.8271848958333,34.363272727269255L888.7285322916666,34.363272727269255L889.6298796875,34.363272727269255L890.5312270833333,34.363272727269255L891.4325744791666,34.363272727269255L892.3339218749999,34.363272727269255L893.2352692708332,34.363272727269255L894.1366166666666,34.363272727269255L895.0379640625,34.363272727269255L895.9393114583333,34.363272727269255L896.8406588541667,34.363272727269255L897.7420062499999,34.363272727269255L898.6433536458333,34.363272727269255L899.5447010416666,34.363272727269255L900.4460484374999,34.363272727269255L901.3473958333333,34.363272727269255L902.2487432291665,34.363272727269255L903.150090625,34.363272727269255L904.0514380208333,34.363272727269255L904.9527854166666,34.363272727269255L905.8541328125,34.363272727269255L906.7554802083333,34.363272727269255L907.6568276041666,34.363272727269255L908.5581749999999,34.363272727269255L909.4595223958332,34.363272727269255L910.3608697916666,34.363272727269255L911.2622171875,34.363272727269255L912.1635645833334,34.363272727269255L913.0649119791666,34.363272727269255L913.9662593749999,34.363272727269255L914.8676067708333,34.363272727269255L915.7689541666666,34.363272727269255L916.6703015625,34.363272727269255L917.5716489583333,34.363272727269255L918.4729963541665,34.363272727269255L919.3743437499999,34.363272727269255L920.2756911458333,34.363272727269255L921.1770385416667,34.363272727269255L922.0783859375,34.363272727269255L922.9797333333333,34.363272727269255L923.8810807291666,34.363272727269255L924.7824281249999,34.363272727269255L925.6837755208333,34.363272727269255L926.5851229166666,34.363272727269255L927.4864703124999,34.363272727269255L928.3878177083333,34.363272727269255L929.2891651041666,34.363272727269255L930.1905125,34.363272727269255L931.0918598958333,34.363272727269255L931.9932072916666,34.363272727269255L932.8945546875,34.363272727269255L933.7959020833332,34.363272727269255L934.6972494791665,34.363272727269255L935.5985968749999,34.363272727269255L936.4999442708333,34.363272727269255L937.4012916666667,34.363272727269255L938.3026390625,34.363272727269255L939.2039864583332,34.363272727269255L940.1053338541666,34.363272727269255L941.0066812499999,34.363272727269255L941.9080286458333,34.363272727269255L942.8093760416666,34.363272727269255L943.7107234375,34.363272727269255L944.6120708333333,34.363272727269255L945.5134182291666,34.363272727269255L946.414765625,34.363272727269255L947.3161130208333,34.363272727269255L948.2174604166667,34.363272727269255L949.1188078124999,34.363272727269255L950.0201552083332,34.363272727269255L950.9215026041666,34.363272727269255L951.8228499999999,34.363272727269255L952.7241973958334,34.363272727269255L953.6255447916667,34.363272727269255L954.5268921874999,34.363272727269255L955.4282395833333,34.363272727269255L956.3295869791666,34.363272727269255L957.230934375,34.363272727269255L958.1322817708333,34.363272727269255L959.0336291666666,34.363272727269255L959.9349765624999,34.363272727269255L960.8363239583332,34.363272727269255L961.7376713541667,34.363272727269255L962.63901875,34.363272727269255L963.5403661458333,34.363272727269255L964.4417135416667,34.363272727269255L965.3430609374999,34.363272727269255L966.2444083333332,34.363272727269255L967.1457557291666,34.363272727269255L968.0471031249999,34.363272727269255L968.9484505208333,34.363272727269255L969.8497979166666,34.363272727269255L970.7511453125,34.363272727269255L971.6524927083333,34.363272727269255L972.5538401041666,34.363272727269255L973.4551875,34.363272727269255L974.3565348958333,34.363272727269255L975.2578822916665,34.363272727269255L976.1592296874999,34.363272727269255L977.0605770833332,34.363272727269255L977.9619244791667,34.363272727269255L978.863271875,34.363272727269255L979.7646192708334,34.363272727269255L980.6659666666666,34.363272727269255L981.5673140624999,34.363272727269255L982.4686614583333,34.363272727269255L983.3700088541666,34.363272727269255L984.2713562499999,34.363272727269255L985.1727036458333,34.363272727269255L986.0740510416665,34.363272727269255L986.9753984375,34.363272727269255L987.8767458333333,34.363272727269255L988.7780932291666,34.363272727269255L989.679440625,34.363272727269255L990.5807880208333,34.363272727269255" style="fill: none;" fill="none"></path></g></g></g></g></g></g><g transform="translate(61, 377)" clip-path="url(#clip_1)"><clipPath id="clip_1"><rect width="1081" height="21"></rect></clipPath><g><g><line x1="0" y1="0" x2="0" y2="5" style="visibility: inherit;" fill="rgb(0, 0, 0)" stroke="rgb(204, 204, 204)" stroke-width="1px"></line><line x1="90.13473958333333" y1="0" x2="90.13473958333333" y2="5" style="visibility: inherit;" fill="rgb(0, 0, 0)" stroke="rgb(204, 204, 204)" stroke-width="1px"></line><line x1="180.26947916666666" y1="0" x2="180.26947916666666" y2="5" style="visibility: inherit;" fill="rgb(0, 0, 0)" stroke="rgb(204, 204, 204)" stroke-width="1px"></line><line x1="270.40421875" y1="0" x2="270.40421875" y2="5" style="visibility: inherit;" fill="rgb(0, 0, 0)" stroke="rgb(204, 204, 204)" stroke-width="1px"></line><line x1="360.5389583333333" y1="0" x2="360.5389583333333" y2="5" style="visibility: inherit;" fill="rgb(0, 0, 0)" stroke="rgb(204, 204, 204)" stroke-width="1px"></line><line x1="450.67369791666664" y1="0" x2="450.67369791666664" y2="5" style="visibility: inherit;" fill="rgb(0, 0, 0)" stroke="rgb(204, 204, 204)" stroke-width="1px"></line><line x1="540.8084375" y1="0" x2="540.8084375" y2="5" style="visibility: inherit;" fill="rgb(0, 0, 0)" stroke="rgb(204, 204, 204)" stroke-width="1px"></line><line x1="630.9431770833334" y1="0" x2="630.9431770833334" y2="5" style="visibility: inherit;" fill="rgb(0, 0, 0)" stroke="rgb(204, 204, 204)" stroke-width="1px"></line><line x1="721.0779166666666" y1="0" x2="721.0779166666666" y2="5" style="visibility: inherit;" fill="rgb(0, 0, 0)" stroke="rgb(204, 204, 204)" stroke-width="1px"></line><line x1="811.21265625" y1="0" x2="811.21265625" y2="5" style="visibility: inherit;" fill="rgb(0, 0, 0)" stroke="rgb(204, 204, 204)" stroke-width="1px"></line><line x1="901.3473958333333" y1="0" x2="901.3473958333333" y2="5" style="visibility: inherit;" fill="rgb(0, 0, 0)" stroke="rgb(204, 204, 204)" stroke-width="1px"></line><line x1="991.4821354166666" y1="0" x2="991.4821354166666" y2="5" style="visibility: inherit;" fill="rgb(0, 0, 0)" stroke="rgb(204, 204, 204)" stroke-width="1px"></line><line x1="1081.616875" y1="0" x2="1081.616875" y2="5" style="visibility: inherit;" fill="rgb(0, 0, 0)" stroke="rgb(204, 204, 204)" stroke-width="1px"></line></g><g transform="translate(0, 8)"><text x="0" y="0" dx="0em" dy="0.95em" style="text-anchor: middle; visibility: hidden; font-family: Roboto, sans-serif; font-size: 12px; font-weight: 200;" fill="rgb(50, 49, 63)" stroke="none" stroke-width="1px">-100</text><text x="90.13473958333333" y="0" dx="0em" dy="0.95em" style="text-anchor: middle; visibility: inherit; font-family: Roboto, sans-serif; font-size: 12px; font-weight: 200;" fill="rgb(50, 49, 63)" stroke="none" stroke-width="1px">0</text><text x="180.26947916666666" y="0" dx="0em" dy="0.95em" style="text-anchor: middle; visibility: inherit; font-family: Roboto, sans-serif; font-size: 12px; font-weight: 200;" fill="rgb(50, 49, 63)" stroke="none" stroke-width="1px">100</text><text x="270.40421875" y="0" dx="0em" dy="0.95em" style="text-anchor: middle; visibility: inherit; font-family: Roboto, sans-serif; font-size: 12px; font-weight: 200;" fill="rgb(50, 49, 63)" stroke="none" stroke-width="1px">200</text><text x="360.5389583333333" y="0" dx="0em" dy="0.95em" style="text-anchor: middle; visibility: inherit; font-family: Roboto, sans-serif; font-size: 12px; font-weight: 200;" fill="rgb(50, 49, 63)" stroke="none" stroke-width="1px">300</text><text x="450.67369791666664" y="0" dx="0em" dy="0.95em" style="text-anchor: middle; visibility: inherit; font-family: Roboto, sans-serif; font-size: 12px; font-weight: 200;" fill="rgb(50, 49, 63)" stroke="none" stroke-width="1px">400</text><text x="540.8084375" y="0" dx="0em" dy="0.95em" style="text-anchor: middle; visibility: inherit; font-family: Roboto, sans-serif; font-size: 12px; font-weight: 200;" fill="rgb(50, 49, 63)" stroke="none" stroke-width="1px">500</text><text x="630.9431770833334" y="0" dx="0em" dy="0.95em" style="text-anchor: middle; visibility: inherit; font-family: Roboto, sans-serif; font-size: 12px; font-weight: 200;" fill="rgb(50, 49, 63)" stroke="none" stroke-width="1px">600</text><text x="721.0779166666666" y="0" dx="0em" dy="0.95em" style="text-anchor: middle; visibility: inherit; font-family: Roboto, sans-serif; font-size: 12px; font-weight: 200;" fill="rgb(50, 49, 63)" stroke="none" stroke-width="1px">700</text><text x="811.21265625" y="0" dx="0em" dy="0.95em" style="text-anchor: middle; visibility: inherit; font-family: Roboto, sans-serif; font-size: 12px; font-weight: 200;" fill="rgb(50, 49, 63)" stroke="none" stroke-width="1px">800</text><text x="901.3473958333333" y="0" dx="0em" dy="0.95em" style="text-anchor: middle; visibility: inherit; font-family: Roboto, sans-serif; font-size: 12px; font-weight: 200;" fill="rgb(50, 49, 63)" stroke="none" stroke-width="1px">900</text><text x="991.4821354166666" y="0" dx="0em" dy="0.95em" style="text-anchor: middle; visibility: inherit; font-family: Roboto, sans-serif; font-size: 12px; font-weight: 200;" fill="rgb(50, 49, 63)" stroke="none" stroke-width="1px">1k</text><text x="1081.616875" y="0" dx="0em" dy="0.95em" style="text-anchor: middle; visibility: hidden; font-family: Roboto, sans-serif; font-size: 12px; font-weight: 200;" fill="rgb(50, 49, 63)" stroke="none" stroke-width="1px">1.1k</text></g><line x1="0" y1="0" x2="1081.616875" y2="0" fill="rgb(0, 0, 0)" stroke="rgb(204, 204, 204)" stroke-width="1px"></line></g></g></g></g></svg>