<svg viewBox="0 0 1143.567138671875 399.99578857421875" xmlns="http://www.w3.org/2000/svg"><g><g><g><g><g><line x1="53.1875" y1="376.996" x2="48.1875" y2="376.996" style="visibility: inherit;" fill="rgb(0, 0, 0)" stroke="rgb(204, 204, 204)" stroke-width="1px"></line><line x1="53.1875" y1="335.1075555555555" x2="48.1875" y2="335.1075555555555" style="visibility: inherit;" fill="rgb(0, 0, 0)" stroke="rgb(204, 204, 204)" stroke-width="1px"></line><line x1="53.1875" y1="293.2191111111111" x2="48.1875" y2="293.2191111111111" style="visibility: inherit;" fill="rgb(0, 0, 0)" stroke="rgb(204, 204, 204)" stroke-width="1px"></line><line x1="53.1875" y1="251.33066666666664" x2="48.1875" y2="251.33066666666664" style="visibility: inherit;" fill="rgb(0, 0, 0)" stroke="rgb(204, 204, 204)" stroke-width="1px"></line><line x1="53.1875" y1="209.44222222222223" x2="48.1875" y2="209.44222222222223" style="visibility: inherit;" fill="rgb(0, 0, 0)" stroke="rgb(204, 204, 204)" stroke-width="1px"></line><line x1="53.1875" y1="167.55377777777775" x2="48.1875" y2="167.55377777777775" style="visibility: inherit;" fill="rgb(0, 0, 0)" stroke="rgb(204, 204, 204)" stroke-width="1px"></line><line x1="53.1875" y1="125.66533333333334" x2="48.1875" y2="125.66533333333334" style="visibility: inherit;" fill="rgb(0, 0, 0)" stroke="rgb(204, 204, 204)" stroke-width="1px"></line><line x1="53.1875" y1="83.77688888888892" x2="48.1875" y2="83.77688888888892" style="visibility: inherit;" fill="rgb(0, 0, 0)" stroke="rgb(204, 204, 204)" stroke-width="1px"></line><line x1="53.1875" y1="41.88844444444446" x2="48.1875" y2="41.88844444444446" style="visibility: inherit;" fill="rgb(0, 0, 0)" stroke="rgb(204, 204, 204)" stroke-width="1px"></line><line x1="53.1875" y1="0" x2="48.1875" y2="0" style="visibility: inherit;" fill="rgb(0, 0, 0)" stroke="rgb(204, 204, 204)" stroke-width="1px"></line></g><g transform="translate(43.1875, 0)"><text x="0" y="376.996" dx="0em" dy="0.3em" style="text-anchor: end; visibility: hidden; font-family: Roboto, sans-serif; font-size: 12px; font-weight: 200;" fill="rgb(50, 49, 63)" stroke="none" stroke-width="1px">-0.1</text><text x="0" y="335.1075555555555" dx="0em" dy="0.3em" style="text-anchor: end; visibility: inherit; font-family: Roboto, sans-serif; font-size: 12px; font-weight: 200;" fill="rgb(50, 49, 63)" stroke="none" stroke-width="1px">0</text><text x="0" y="293.2191111111111" dx="0em" dy="0.3em" style="text-anchor: end; visibility: inherit; font-family: Roboto, sans-serif; font-size: 12px; font-weight: 200;" fill="rgb(50, 49, 63)" stroke="none" stroke-width="1px">0.1</text><text x="0" y="251.33066666666664" dx="0em" dy="0.3em" style="text-anchor: end; visibility: inherit; font-family: Roboto, sans-serif; font-size: 12px; font-weight: 200;" fill="rgb(50, 49, 63)" stroke="none" stroke-width="1px">0.2</text><text x="0" y="209.44222222222223" dx="0em" dy="0.3em" style="text-anchor: end; visibility: inherit; font-family: Roboto, sans-serif; font-size: 12px; font-weight: 200;" fill="rgb(50, 49, 63)" stroke="none" stroke-width="1px">0.3</text><text x="0" y="167.55377777777775" dx="0em" dy="0.3em" style="text-anchor: end; visibility: inherit; font-family: Roboto, sans-serif; font-size: 12px; font-weight: 200;" fill="rgb(50, 49, 63)" stroke="none" stroke-width="1px">0.4</text><text x="0" y="125.66533333333334" dx="0em" dy="0.3em" style="text-anchor: end; visibility: inherit; font-family: Roboto, sans-serif; font-size: 12px; font-weight: 200;" fill="rgb(50, 49, 63)" stroke="none" stroke-width="1px">0.5</text><text x="0" y="83.77688888888892" dx="0em" dy="0.3em" style="text-anchor: end; visibility: inherit; font-family: Roboto, sans-serif; font-size: 12px; font-weight: 200;" fill="rgb(50, 49, 63)" stroke="none" stroke-width="1px">0.6</text><text x="0" y="41.88844444444446" dx="0em" dy="0.3em" style="text-anchor: end; visibility: inherit; font-family: Roboto, sans-serif; font-size: 12px; font-weight: 200;" fill="rgb(50, 49, 63)" stroke="none" stroke-width="1px">0.7</text><text x="0" y="0" dx="0em" dy="0.3em" style="text-anchor: end; visibility: hidden; font-family: Roboto, sans-serif; font-size: 12px; font-weight: 200;" fill="rgb(50, 49, 63)" stroke="none" stroke-width="1px">0.8</text></g><line x1="53.1875" y1="0" x2="53.1875" y2="376.996" fill="rgb(0, 0, 0)" stroke="rgb(204, 204, 204)" stroke-width="1px"></line></g></g><g transform="translate(53, 0)" clip-path="url(#clip_0)"><clipPath id="clip_0"><rect width="1090" height="376"></rect></clipPath><g><g><g><line x1="0" y1="0" x2="0" y2="376.996" fill="rgb(0, 0, 0)" stroke="rgb(60, 60, 60)" stroke-width="1px" opacity="0.25"></line><line x1="90.86520833333333" y1="0" x2="90.86520833333333" y2="376.996" fill="rgb(0, 0, 0)" stroke="rgb(60, 60, 60)" stroke-width="1px" opacity="0.25"></line><line x1="181.73041666666666" y1="0" x2="181.73041666666666" y2="376.996" fill="rgb(0, 0, 0)" stroke="rgb(60, 60, 60)" stroke-width="1px" opacity="0.25"></line><line x1="272.595625" y1="0" x2="272.595625" y2="376.996" fill="rgb(0, 0, 0)" stroke="rgb(60, 60, 60)" stroke-width="1px" opacity="0.25"></line><line x1="363.4608333333333" y1="0" x2="363.4608333333333" y2="376.996" fill="rgb(0, 0, 0)" stroke="rgb(60, 60, 60)" stroke-width="1px" opacity="0.25"></line><line x1="454.32604166666664" y1="0" x2="454.32604166666664" y2="376.996" fill="rgb(0, 0, 0)" stroke="rgb(60, 60, 60)" stroke-width="1px" opacity="0.25"></line><line x1="545.19125" y1="0" x2="545.19125" y2="376.996" fill="rgb(0, 0, 0)" stroke="rgb(60, 60, 60)" stroke-width="1px" opacity="0.25"></line><line x1="636.0564583333334" y1="0" x2="636.0564583333334" y2="376.996" fill="rgb(0, 0, 0)" stroke="rgb(60, 60, 60)" stroke-width="1px" opacity="0.25"></line><line x1="726.9216666666666" y1="0" x2="726.9216666666666" y2="376.996" fill="rgb(0, 0, 0)" stroke="rgb(60, 60, 60)" stroke-width="1px" opacity="0.25"></line><line x1="817.786875" y1="0" x2="817.786875" y2="376.996" fill="rgb(0, 0, 0)" stroke="rgb(60, 60, 60)" stroke-width="1px" opacity="0.25"></line><line x1="908.6520833333333" y1="0" x2="908.6520833333333" y2="376.996" fill="rgb(0, 0, 0)" stroke="rgb(60, 60, 60)" stroke-width="1px" opacity="0.25"></line><line x1="999.5172916666666" y1="0" x2="999.5172916666666" y2="376.996" fill="rgb(0, 0, 0)" stroke="rgb(60, 60, 60)" stroke-width="1px" opacity="0.25"></line><line x1="1090.3825" y1="0" x2="1090.3825" y2="376.996" fill="rgb(0, 0, 0)" stroke="rgb(60, 60, 60)" stroke-width="1px" opacity="0.25"></line></g><g><line x1="0" y1="376.996" x2="1090.3825" y2="376.996" fill="rgb(0, 0, 0)" stroke="rgb(60, 60, 60)" stroke-width="1px" opacity="0.25"></line><line x1="0" y1="335.1075555555555" x2="1090.3825" y2="335.1075555555555" fill="rgb(0, 0, 0)" stroke="rgb(60, 60, 60)" stroke-width="1px" opacity="0.25"></line><line x1="0" y1="293.2191111111111" x2="1090.3825" y2="293.2191111111111" fill="rgb(0, 0, 0)" stroke="rgb(60, 60, 60)" stroke-width="1px" opacity="0.25"></line><line x1="0" y1="251.33066666666664" x2="1090.3825" y2="251.33066666666664" fill="rgb(0, 0, 0)" stroke="rgb(60, 60, 60)" stroke-width="1px" opacity="0.25"></line><line x1="0" y1="209.44222222222223" x2="1090.3825" y2="209.44222222222223" fill="rgb(0, 0, 0)" stroke="rgb(60, 60, 60)" stroke-width="1px" opacity="0.25"></line><line x1="0" y1="167.55377777777775" x2="1090.3825" y2="167.55377777777775" fill="rgb(0, 0, 0)" stroke="rgb(60, 60, 60)" stroke-width="1px" opacity="0.25"></line><line x1="0" y1="125.66533333333334" x2="1090.3825" y2="125.66533333333334" fill="rgb(0, 0, 0)" stroke="rgb(60, 60, 60)" stroke-width="1px" opacity="0.25"></line><line x1="0" y1="83.77688888888892" x2="1090.3825" y2="83.77688888888892" fill="rgb(0, 0, 0)" stroke="rgb(60, 60, 60)" stroke-width="1px" opacity="0.25"></line><line x1="0" y1="41.88844444444446" x2="1090.3825" y2="41.88844444444446" fill="rgb(0, 0, 0)" stroke="rgb(60, 60, 60)" stroke-width="1px" opacity="0.25"></line><line x1="0" y1="0" x2="1090.3825" y2="0" fill="rgb(0, 0, 0)" stroke="rgb(60, 60, 60)" stroke-width="1px" opacity="0.25"></line></g></g></g><g><g><line x1="0" y1="335.1075555555555" x2="1090.3825" y2="335.1075555555555" fill="rgb(0, 0, 0)" stroke="rgb(153, 153, 153)" stroke-width="1.5px"></line></g></g><g><g><line x1="90.86520833333333" y1="0" x2="90.86520833333333" y2="376.996" fill="rgb(0, 0, 0)" stroke="rgb(153, 153, 153)" stroke-width="1.5px"></line></g></g><g><g><g><g><g><path stroke="rgb(255, 112, 67)" stroke-width="2px" d="M90.86520833333333,335.1075555555555L99.95172916666665,335.1075555555555L109.03825,335.1075555555555L118.12477083333333,335.1075555555555L127.21129166666667,335.1075555555555L136.2978125,335.1075555555555L145.38433333333333,335.1075555555555L154.47085416666664,332.87350501405405L163.55737499999998,320.58622732838325L172.64389583333332,296.0116739076243L181.73041666666666,247.97959555531872L190.81693749999997,198.8304855928686L199.9034583333333,158.61758481852215L208.98997916666667,144.09624878901906L218.0765,108.35142452033362L227.16302083333332,100.53226566796832L236.24954166666666,92.71310681560306L245.3360625,80.42582152265973L254.42258333333334,81.54284064907498L263.50910416666665,65.90449797688593L272.595625,67.02149213584265L281.6821458333333,61.43639650376639L290.76866666666666,62.55339066272315L299.8551875,56.968295030646885L308.9417083333333,51.38314946365356L318.0282291666667,56.968270063188356L327.11474999999996,50.26613033723831L336.20127083333335,46.91507295799255L345.28779166666664,53.6172126839426L354.3743125,48.032042149490785L363.4608333333333,52.50016859006882L372.54735416666665,50.26613033723831L381.63387499999993,48.03209208440781L390.7203958333333,41.329927390999266L399.8069166666666,43.563965643829775L408.8934375,44.681009737703555L417.97995833333334,42.44692154995603L427.0664791666666,40.212908264584016L436.153,41.329952358457795L445.2395208333333,36.86185088533826L454.32604166666664,44.681009737703555L463.4125625,43.56401557874679L472.4990833333333,33.510743571175475L481.5856041666666,41.329927390999266L490.672125,36.861800950421234L499.7586458333333,36.861800950421234L508.84516666666667,37.97884504429502L517.9316875,39.09586417071027L527.0182083333333,37.97884504429502L536.1047291666666,37.97884504429502L545.19125,39.095889138168765L554.2777708333333,39.095889138168765L563.3642916666666,37.97884504429502L572.4508125,33.510743571175475L581.5373333333333,39.09586417071027L590.6238541666665,34.62778766504926L599.710375,36.861800950421234L608.7968958333333,34.62776269759073L617.8834166666666,33.51076853863401L626.9699374999999,35.74480679146451L636.0564583333334,36.86185088533826L645.1429791666667,34.62778766504926L654.2294999999999,30.15968619192972L663.3160208333333,31.276680350886483L672.4025416666667,34.62778766504926L681.4890624999999,32.393724444760224L690.5755833333333,29.042667065514465L699.6621041666667,33.51076853863401L708.748625,31.276680350886483L717.8351458333333,31.276680350886483L726.9216666666666,31.276680350886483L736.0081875,34.62778766504926L745.0947083333333,33.51076853863401L754.1812291666666,27.925622971640724L763.2677499999999,32.393724444760224L772.3542708333333,31.276680350886483L781.4407916666667,30.15968619192972L790.5273124999999,31.276730285803502L799.6138333333332,32.393724444760224L808.7003541666667,31.276680350886483L817.786875,30.15968619192972L826.8733958333332,32.393724444760224L835.9599166666667,29.042667065514465L845.0464375,29.042667065514465L854.1329583333332,31.276680350886483L863.2194791666666,30.15968619192972L872.306,30.15968619192972L881.3925208333333,27.925622971640724L890.4790416666666,31.276680350886483L899.5655624999999,29.042667065514465L908.6520833333333,31.276730285803502L917.7386041666666,31.276680350886483L926.825125,32.393724444760224L935.9116458333332,33.510743571175475L944.9981666666666,29.042667065514465L954.0846875,29.042667065514465L963.1712083333332,29.042667065514465L972.2577291666666,29.04264209805598L981.34425,31.276680350886483L990.4307708333332,30.15968619192972L999.5172916666666,25.691559751351686L1008.6038125,26.80860384522547L1017.6903333333333,29.042667065514465L1026.7768541666667,23.457546465979714L1035.863375,26.80860384522547L1044.9498958333334,26.80857887776694" style="fill: none;" fill="none"></path></g></g></g></g></g></g><g transform="translate(53, 376)" clip-path="url(#clip_1)"><clipPath id="clip_1"><rect width="1090" height="22"></rect></clipPath><g><g><line x1="0" y1="0" x2="0" y2="5" style="visibility: inherit;" fill="rgb(0, 0, 0)" stroke="rgb(204, 204, 204)" stroke-width="1px"></line><line x1="90.86520833333333" y1="0" x2="90.86520833333333" y2="5" style="visibility: inherit;" fill="rgb(0, 0, 0)" stroke="rgb(204, 204, 204)" stroke-width="1px"></line><line x1="181.73041666666666" y1="0" x2="181.73041666666666" y2="5" style="visibility: inherit;" fill="rgb(0, 0, 0)" stroke="rgb(204, 204, 204)" stroke-width="1px"></line><line x1="272.595625" y1="0" x2="272.595625" y2="5" style="visibility: inherit;" fill="rgb(0, 0, 0)" stroke="rgb(204, 204, 204)" stroke-width="1px"></line><line x1="363.4608333333333" y1="0" x2="363.4608333333333" y2="5" style="visibility: inherit;" fill="rgb(0, 0, 0)" stroke="rgb(204, 204, 204)" stroke-width="1px"></line><line x1="454.32604166666664" y1="0" x2="454.32604166666664" y2="5" style="visibility: inherit;" fill="rgb(0, 0, 0)" stroke="rgb(204, 204, 204)" stroke-width="1px"></line><line x1="545.19125" y1="0" x2="545.19125" y2="5" style="visibility: inherit;" fill="rgb(0, 0, 0)" stroke="rgb(204, 204, 204)" stroke-width="1px"></line><line x1="636.0564583333334" y1="0" x2="636.0564583333334" y2="5" style="visibility: inherit;" fill="rgb(0, 0, 0)" stroke="rgb(204, 204, 204)" stroke-width="1px"></line><line x1="726.9216666666666" y1="0" x2="726.9216666666666" y2="5" style="visibility: inherit;" fill="rgb(0, 0, 0)" stroke="rgb(204, 204, 204)" stroke-width="1px"></line><line x1="817.786875" y1="0" x2="817.786875" y2="5" style="visibility: inherit;" fill="rgb(0, 0, 0)" stroke="rgb(204, 204, 204)" stroke-width="1px"></line><line x1="908.6520833333333" y1="0" x2="908.6520833333333" y2="5" style="visibility: inherit;" fill="rgb(0, 0, 0)" stroke="rgb(204, 204, 204)" stroke-width="1px"></line><line x1="999.5172916666666" y1="0" x2="999.5172916666666" y2="5" style="visibility: inherit;" fill="rgb(0, 0, 0)" stroke="rgb(204, 204, 204)" stroke-width="1px"></line><line x1="1090.3825" y1="0" x2="1090.3825" y2="5" style="visibility: inherit;" fill="rgb(0, 0, 0)" stroke="rgb(204, 204, 204)" stroke-width="1px"></line></g><g transform="translate(0, 8)"><text x="0" y="0" dx="0em" dy="0.95em" style="text-anchor: middle; visibility: hidden; font-family: Roboto, sans-serif; font-size: 12px; font-weight: 200;" fill="rgb(50, 49, 63)" stroke="none" stroke-width="1px">-10</text><text x="90.86520833333333" y="0" dx="0em" dy="0.95em" style="text-anchor: middle; visibility: inherit; font-family: Roboto, sans-serif; font-size: 12px; font-weight: 200;" fill="rgb(50, 49, 63)" stroke="none" stroke-width="1px">0</text><text x="181.73041666666666" y="0" dx="0em" dy="0.95em" style="text-anchor: middle; visibility: inherit; font-family: Roboto, sans-serif; font-size: 12px; font-weight: 200;" fill="rgb(50, 49, 63)" stroke="none" stroke-width="1px">10</text><text x="272.595625" y="0" dx="0em" dy="0.95em" style="text-anchor: middle; visibility: inherit; font-family: Roboto, sans-serif; font-size: 12px; font-weight: 200;" fill="rgb(50, 49, 63)" stroke="none" stroke-width="1px">20</text><text x="363.4608333333333" y="0" dx="0em" dy="0.95em" style="text-anchor: middle; visibility: inherit; font-family: Roboto, sans-serif; font-size: 12px; font-weight: 200;" fill="rgb(50, 49, 63)" stroke="none" stroke-width="1px">30</text><text x="454.32604166666664" y="0" dx="0em" dy="0.95em" style="text-anchor: middle; visibility: inherit; font-family: Roboto, sans-serif; font-size: 12px; font-weight: 200;" fill="rgb(50, 49, 63)" stroke="none" stroke-width="1px">40</text><text x="545.19125" y="0" dx="0em" dy="0.95em" style="text-anchor: middle; visibility: inherit; font-family: Roboto, sans-serif; font-size: 12px; font-weight: 200;" fill="rgb(50, 49, 63)" stroke="none" stroke-width="1px">50</text><text x="636.0564583333334" y="0" dx="0em" dy="0.95em" style="text-anchor: middle; visibility: inherit; font-family: Roboto, sans-serif; font-size: 12px; font-weight: 200;" fill="rgb(50, 49, 63)" stroke="none" stroke-width="1px">60</text><text x="726.9216666666666" y="0" dx="0em" dy="0.95em" style="text-anchor: middle; visibility: inherit; font-family: Roboto, sans-serif; font-size: 12px; font-weight: 200;" fill="rgb(50, 49, 63)" stroke="none" stroke-width="1px">70</text><text x="817.786875" y="0" dx="0em" dy="0.95em" style="text-anchor: middle; visibility: inherit; font-family: Roboto, sans-serif; font-size: 12px; font-weight: 200;" fill="rgb(50, 49, 63)" stroke="none" stroke-width="1px">80</text><text x="908.6520833333333" y="0" dx="0em" dy="0.95em" style="text-anchor: middle; visibility: inherit; font-family: Roboto, sans-serif; font-size: 12px; font-weight: 200;" fill="rgb(50, 49, 63)" stroke="none" stroke-width="1px">90</text><text x="999.5172916666666" y="0" dx="0em" dy="0.95em" style="text-anchor: middle; visibility: inherit; font-family: Roboto, sans-serif; font-size: 12px; font-weight: 200;" fill="rgb(50, 49, 63)" stroke="none" stroke-width="1px">100</text><text x="1090.3825" y="0" dx="0em" dy="0.95em" style="text-anchor: middle; visibility: hidden; font-family: Roboto, sans-serif; font-size: 12px; font-weight: 200;" fill="rgb(50, 49, 63)" stroke="none" stroke-width="1px">110</text></g><line x1="0" y1="0" x2="1090.3825" y2="0" fill="rgb(0, 0, 0)" stroke="rgb(204, 204, 204)" stroke-width="1px"></line></g></g></g></g></svg>