<svg viewBox="0 0 1143.567138671875 399.99578857421875" xmlns="http://www.w3.org/2000/svg"><g><g><g><g><g><line x1="63.984375" y1="376.996" x2="58.984375" y2="376.996" style="visibility: inherit;" fill="rgb(0, 0, 0)" stroke="rgb(204, 204, 204)" stroke-width="1px"></line><line x1="63.984375" y1="339.2964" x2="58.984375" y2="339.2964" style="visibility: inherit;" fill="rgb(0, 0, 0)" stroke="rgb(204, 204, 204)" stroke-width="1px"></line><line x1="63.984375" y1="301.5968" x2="58.984375" y2="301.5968" style="visibility: inherit;" fill="rgb(0, 0, 0)" stroke="rgb(204, 204, 204)" stroke-width="1px"></line><line x1="63.984375" y1="263.8972" x2="58.984375" y2="263.8972" style="visibility: inherit;" fill="rgb(0, 0, 0)" stroke="rgb(204, 204, 204)" stroke-width="1px"></line><line x1="63.984375" y1="226.1976" x2="58.984375" y2="226.1976" style="visibility: inherit;" fill="rgb(0, 0, 0)" stroke="rgb(204, 204, 204)" stroke-width="1px"></line><line x1="63.984375" y1="188.49799999999996" x2="58.984375" y2="188.49799999999996" style="visibility: inherit;" fill="rgb(0, 0, 0)" stroke="rgb(204, 204, 204)" stroke-width="1px"></line><line x1="63.984375" y1="150.79839999999996" x2="58.984375" y2="150.79839999999996" style="visibility: inherit;" fill="rgb(0, 0, 0)" stroke="rgb(204, 204, 204)" stroke-width="1px"></line><line x1="63.984375" y1="113.09880000000001" x2="58.984375" y2="113.09880000000001" style="visibility: inherit;" fill="rgb(0, 0, 0)" stroke="rgb(204, 204, 204)" stroke-width="1px"></line><line x1="63.984375" y1="75.39919999999998" x2="58.984375" y2="75.39919999999998" style="visibility: inherit;" fill="rgb(0, 0, 0)" stroke="rgb(204, 204, 204)" stroke-width="1px"></line><line x1="63.984375" y1="37.69959999999999" x2="58.984375" y2="37.69959999999999" style="visibility: inherit;" fill="rgb(0, 0, 0)" stroke="rgb(204, 204, 204)" stroke-width="1px"></line><line x1="63.984375" y1="0" x2="58.984375" y2="0" style="visibility: inherit;" fill="rgb(0, 0, 0)" stroke="rgb(204, 204, 204)" stroke-width="1px"></line></g><g transform="translate(53.984375, 0)"><text x="0" y="376.996" dx="0em" dy="0.3em" style="text-anchor: end; visibility: hidden; font-family: Roboto, sans-serif; font-size: 12px; font-weight: 200;" fill="rgb(50, 49, 63)" stroke="none" stroke-width="1px">-0.01</text><text x="0" y="339.2964" dx="0em" dy="0.3em" style="text-anchor: end; visibility: inherit; font-family: Roboto, sans-serif; font-size: 12px; font-weight: 200;" fill="rgb(50, 49, 63)" stroke="none" stroke-width="1px">0</text><text x="0" y="301.5968" dx="0em" dy="0.3em" style="text-anchor: end; visibility: inherit; font-family: Roboto, sans-serif; font-size: 12px; font-weight: 200;" fill="rgb(50, 49, 63)" stroke="none" stroke-width="1px">0.01</text><text x="0" y="263.8972" dx="0em" dy="0.3em" style="text-anchor: end; visibility: inherit; font-family: Roboto, sans-serif; font-size: 12px; font-weight: 200;" fill="rgb(50, 49, 63)" stroke="none" stroke-width="1px">0.02</text><text x="0" y="226.1976" dx="0em" dy="0.3em" style="text-anchor: end; visibility: inherit; font-family: Roboto, sans-serif; font-size: 12px; font-weight: 200;" fill="rgb(50, 49, 63)" stroke="none" stroke-width="1px">0.03</text><text x="0" y="188.49799999999996" dx="0em" dy="0.3em" style="text-anchor: end; visibility: inherit; font-family: Roboto, sans-serif; font-size: 12px; font-weight: 200;" fill="rgb(50, 49, 63)" stroke="none" stroke-width="1px">0.04</text><text x="0" y="150.79839999999996" dx="0em" dy="0.3em" style="text-anchor: end; visibility: inherit; font-family: Roboto, sans-serif; font-size: 12px; font-weight: 200;" fill="rgb(50, 49, 63)" stroke="none" stroke-width="1px">0.05</text><text x="0" y="113.09880000000001" dx="0em" dy="0.3em" style="text-anchor: end; visibility: inherit; font-family: Roboto, sans-serif; font-size: 12px; font-weight: 200;" fill="rgb(50, 49, 63)" stroke="none" stroke-width="1px">0.06</text><text x="0" y="75.39919999999998" dx="0em" dy="0.3em" style="text-anchor: end; visibility: inherit; font-family: Roboto, sans-serif; font-size: 12px; font-weight: 200;" fill="rgb(50, 49, 63)" stroke="none" stroke-width="1px">0.07</text><text x="0" y="37.69959999999999" dx="0em" dy="0.3em" style="text-anchor: end; visibility: inherit; font-family: Roboto, sans-serif; font-size: 12px; font-weight: 200;" fill="rgb(50, 49, 63)" stroke="none" stroke-width="1px">0.08</text><text x="0" y="0" dx="0em" dy="0.3em" style="text-anchor: end; visibility: hidden; font-family: Roboto, sans-serif; font-size: 12px; font-weight: 200;" fill="rgb(50, 49, 63)" stroke="none" stroke-width="1px">0.09</text></g><line x1="63.984375" y1="0" x2="63.984375" y2="376.996" fill="rgb(0, 0, 0)" stroke="rgb(204, 204, 204)" stroke-width="1px"></line></g></g><g transform="translate(63, 0)" clip-path="url(#clip_0)"><clipPath id="clip_0"><rect width="1079" height="376"></rect></clipPath><g><g><g><line x1="0" y1="0" x2="0" y2="376.996" fill="rgb(0, 0, 0)" stroke="rgb(60, 60, 60)" stroke-width="1px" opacity="0.25"></line><line x1="89.96546874999999" y1="0" x2="89.96546874999999" y2="376.996" fill="rgb(0, 0, 0)" stroke="rgb(60, 60, 60)" stroke-width="1px" opacity="0.25"></line><line x1="179.93093749999997" y1="0" x2="179.93093749999997" y2="376.996" fill="rgb(0, 0, 0)" stroke="rgb(60, 60, 60)" stroke-width="1px" opacity="0.25"></line><line x1="269.89640625" y1="0" x2="269.89640625" y2="376.996" fill="rgb(0, 0, 0)" stroke="rgb(60, 60, 60)" stroke-width="1px" opacity="0.25"></line><line x1="359.86187499999994" y1="0" x2="359.86187499999994" y2="376.996" fill="rgb(0, 0, 0)" stroke="rgb(60, 60, 60)" stroke-width="1px" opacity="0.25"></line><line x1="449.82734375" y1="0" x2="449.82734375" y2="376.996" fill="rgb(0, 0, 0)" stroke="rgb(60, 60, 60)" stroke-width="1px" opacity="0.25"></line><line x1="539.7928125" y1="0" x2="539.7928125" y2="376.996" fill="rgb(0, 0, 0)" stroke="rgb(60, 60, 60)" stroke-width="1px" opacity="0.25"></line><line x1="629.75828125" y1="0" x2="629.75828125" y2="376.996" fill="rgb(0, 0, 0)" stroke="rgb(60, 60, 60)" stroke-width="1px" opacity="0.25"></line><line x1="719.7237499999999" y1="0" x2="719.7237499999999" y2="376.996" fill="rgb(0, 0, 0)" stroke="rgb(60, 60, 60)" stroke-width="1px" opacity="0.25"></line><line x1="809.68921875" y1="0" x2="809.68921875" y2="376.996" fill="rgb(0, 0, 0)" stroke="rgb(60, 60, 60)" stroke-width="1px" opacity="0.25"></line><line x1="899.6546875" y1="0" x2="899.6546875" y2="376.996" fill="rgb(0, 0, 0)" stroke="rgb(60, 60, 60)" stroke-width="1px" opacity="0.25"></line><line x1="989.6201562499999" y1="0" x2="989.6201562499999" y2="376.996" fill="rgb(0, 0, 0)" stroke="rgb(60, 60, 60)" stroke-width="1px" opacity="0.25"></line><line x1="1079.585625" y1="0" x2="1079.585625" y2="376.996" fill="rgb(0, 0, 0)" stroke="rgb(60, 60, 60)" stroke-width="1px" opacity="0.25"></line></g><g><line x1="0" y1="376.996" x2="1079.585625" y2="376.996" fill="rgb(0, 0, 0)" stroke="rgb(60, 60, 60)" stroke-width="1px" opacity="0.25"></line><line x1="0" y1="339.2964" x2="1079.585625" y2="339.2964" fill="rgb(0, 0, 0)" stroke="rgb(60, 60, 60)" stroke-width="1px" opacity="0.25"></line><line x1="0" y1="301.5968" x2="1079.585625" y2="301.5968" fill="rgb(0, 0, 0)" stroke="rgb(60, 60, 60)" stroke-width="1px" opacity="0.25"></line><line x1="0" y1="263.8972" x2="1079.585625" y2="263.8972" fill="rgb(0, 0, 0)" stroke="rgb(60, 60, 60)" stroke-width="1px" opacity="0.25"></line><line x1="0" y1="226.1976" x2="1079.585625" y2="226.1976" fill="rgb(0, 0, 0)" stroke="rgb(60, 60, 60)" stroke-width="1px" opacity="0.25"></line><line x1="0" y1="188.49799999999996" x2="1079.585625" y2="188.49799999999996" fill="rgb(0, 0, 0)" stroke="rgb(60, 60, 60)" stroke-width="1px" opacity="0.25"></line><line x1="0" y1="150.79839999999996" x2="1079.585625" y2="150.79839999999996" fill="rgb(0, 0, 0)" stroke="rgb(60, 60, 60)" stroke-width="1px" opacity="0.25"></line><line x1="0" y1="113.09880000000001" x2="1079.585625" y2="113.09880000000001" fill="rgb(0, 0, 0)" stroke="rgb(60, 60, 60)" stroke-width="1px" opacity="0.25"></line><line x1="0" y1="75.39919999999998" x2="1079.585625" y2="75.39919999999998" fill="rgb(0, 0, 0)" stroke="rgb(60, 60, 60)" stroke-width="1px" opacity="0.25"></line><line x1="0" y1="37.69959999999999" x2="1079.585625" y2="37.69959999999999" fill="rgb(0, 0, 0)" stroke="rgb(60, 60, 60)" stroke-width="1px" opacity="0.25"></line><line x1="0" y1="0" x2="1079.585625" y2="0" fill="rgb(0, 0, 0)" stroke="rgb(60, 60, 60)" stroke-width="1px" opacity="0.25"></line></g></g></g><g><g><line x1="0" y1="339.2964" x2="1079.585625" y2="339.2964" fill="rgb(0, 0, 0)" stroke="rgb(153, 153, 153)" stroke-width="1.5px"></line></g></g><g><g><line x1="89.96546874999999" y1="0" x2="89.96546874999999" y2="376.996" fill="rgb(0, 0, 0)" stroke="rgb(153, 153, 153)" stroke-width="1.5px"></line></g></g><g><g><g><g><g><path stroke="rgb(255, 112, 67)" stroke-width="2px" d="M125.95165625,-12.994208670115503L130.4499296875,19.590206611597544L134.948203125,75.82659183129073L139.4464765625,119.72134540318847L143.94475,141.5196079443335L148.44302343750002,177.1483694216549L152.94129687499998,205.2613095024168L157.4395703125,241.42942426040167L161.93784374999998,241.78447556465264L166.4361171875,271.96701041414735L170.934390625,298.2055524871811L175.4326640625,281.91019894655193L179.93093749999997,308.2256224563285L184.4292109375,325.77766903557216L188.92748437499998,326.6217497572709L193.4257578125,329.36171610568056L197.92403124999998,334.8496017670339L202.4223046875,333.0483257404888L206.920578125,334.5157852862483L211.41885156249998,334.90317554484454L215.917125,333.5899932412278L220.4153984375,335.16345969061234L224.913671875,316.5947445888757L229.41194531249997,335.70282701547126L233.91021874999998,335.4521332996465L238.40849218749997,333.15398066146633L242.906765625,336.46999140937913L247.40503906249998,334.7557215872673L251.9033125,324.9599843791533L256.4015859375,322.6033587333687L260.899859375,336.7077616126962L265.39813281249997,305.8910734079718L269.89640625,321.3449496696271L274.39467968749994,323.1985921120584L278.892953125,327.48817918268367L283.3912265625,338.35179180529303L287.8895,338.69786129797563L292.38777343749996,338.9612435329055L296.88604687500003,339.0435079012818L301.3843203125,339.0314170559538L305.88259374999996,338.9849745749553L310.3808671875,339.1718216640505L314.879140625,339.1906531197156L319.3774140625,339.191243003353L323.87568749999997,339.1610294953472L328.37396093749993,339.2184360081474L332.872234375,339.2324542752881L337.37050781249997,339.1884910336612L341.86878125,339.2279361863054L346.3670546875,339.2264792244665L350.865328125,339.2024084130075L355.3636015625,339.23559918757826L359.86187499999994,339.0386618858222L364.3601484375,332.2515787850261L368.858421875,334.4461414378356L373.3566953125,332.616129670831L377.85496874999995,337.19728016313735L382.3532421875,331.5410618727594L386.851515625,338.9705930719811L391.34978906249995,339.16024551654033L395.84806249999997,339.0945892047125L400.3463359375,339.1518643411965L404.844609375,339.15675597286116L409.34288281249997,339.1393503321914L413.84115625,339.2387616551127L418.3394296875,339.2282531407546L422.83770312499996,339.23561506958833L427.3359765625,339.2526577315815L431.83425,339.25786501133837L436.33252343749996,339.24996300501533L440.830796875,339.2638644303476L445.32907031249994,339.2559459968419L449.82734375,339.24750477021917L454.3256171875,339.2599305915519L458.82389062499993,339.2421401584431L463.32216406249995,339.27533851057046L467.82043749999997,339.27484574995043L472.3187109375,339.26150199506804L476.81698437499995,339.2775294890596L481.3152578125,339.2794097585833L485.81353125,339.27775240980293L490.31180468749994,339.27704655526185L494.81007812499996,339.2808134255122L499.3083515625,339.2832339165331L503.806625,339.27788038307625L508.30489843749996,339.2673465919094L512.803171875,339.28062220535685L517.3014453124999,339.28003433782953L521.79971875,339.283759126925L526.2979921875,339.27203631254935L530.7962656249999,339.2816766652183L535.2945390625,339.2738007603204L539.7928125,339.2824642793665L544.2910859374999,339.28267766730363L548.7893593749999,339.28574674316724L553.2876328125,339.2861302978244L557.78590625,339.2848687898006L562.2841796875,339.28682808278205L566.782453125,339.28862606466987L571.2807265624999,339.28322279964044L575.779,339.28981683826004L580.2772734375,339.2832202906463L584.7755468749999,339.2784246316505L589.2738203124999,339.28757135793785L593.7720937500001,339.28056313127416L598.2703671875,339.2822092671566L602.768640625,339.2857025387536L607.2669140625,339.28850293708973L611.7651874999999,339.2871811677755L616.2634609375,339.281519269767L620.761734375,339.2902214939265L625.2600078125,339.2908399044073L629.75828125,339.2882130766913L634.2565546874999,339.2907262101993L638.754828125,339.29084846858916L643.2531015625,339.2912594850315L647.7513749999999,339.2857612879614L652.2496484374999,339.28572933364524L656.7479218749999,339.2906942070233L661.2461953125,339.2909039021874L665.74446875,339.2895630835473L670.2427421875,339.2927119916271L674.7410156249999,339.2913211889721L679.2392890624999,339.2918131082605L683.7375625,339.29275353618124L688.2358359374999,339.2908344085357L692.734109375,339.29225199879625L697.2323828125,339.2941143089108L701.73065625,339.29250969829576L706.2289296875,339.29079948705754L710.727203125,339.2874067706653L715.2254765624999,339.2931633414146L719.7237499999999,339.29306198173725L724.2220234375,339.2919598479871L728.720296875,339.292445684229L733.2185703125,339.29102803782257L737.71684375,339.2926101180646L742.2151171874999,339.29290091751426L746.713390625,339.29392626035724L751.2116640625,339.29370046824283L755.7099374999999,339.2937087609099L760.2082109375,339.2939248719243L764.706484375,339.2912218514052L769.2047578125,339.29302735127493L773.70303125,339.2924977537864L778.2013046874999,339.292628107904L782.6995781249999,339.29389445304906L787.1978515624999,339.29425318499375L791.6961249999999,339.2944639960044L796.1943984375,339.29355411639455L800.692671875,339.2926045309024L805.1909453124999,339.2930622185359L809.68921875,339.29506332233603L814.1874921875,98.92243971928359L818.6857656249999,242.89917739882463L823.1840390624999,329.55196843213736L827.6823125,326.33479436776935L832.1805859375,334.39171403627245L836.678859375,337.44481569051845L841.1771328125,336.6471819757797L845.6754062499999,337.4769513331911L850.1736796874999,337.7798390943474L854.671953125,334.22954483406954L859.1702265624999,338.8685407614279L863.6685,339.034057145251L868.1667734375,339.244953924652L872.6650468749999,339.1050257837142L877.1633203125,339.18581936549685L881.66159375,339.23172460801817L886.1598671874999,339.2537587231265L890.6581406249999,339.2496215555143L895.1564140625,339.2492414501883L899.6546875,339.2547574210861L904.1529609375,339.2615369306899L908.651234375,339.27450286208517L913.1495078124999,339.2661097118018L917.6477812499999,339.26074427712365L922.1460546874999,339.25450447470325L926.6443281249999,339.2706473464232L931.1426015625,339.26167317584344L935.6408749999999,339.26777328377915L940.1391484375,339.25210021199695L944.637421875,339.27575604251143L949.1356953124999,339.265544480939L953.6339687499999,339.2842326179214L958.1322421874999,339.2484532540083L962.630515625,339.2713852067119L967.1287890625,339.2710911015103L971.6270625,339.2551286116396L976.1253359374999,339.2733491276603L980.6236093749999,339.2822878748773L985.1218828125,339.28137346523437" style="fill: none;" fill="none"></path></g></g></g></g></g></g><g transform="translate(63, 376)" clip-path="url(#clip_1)"><clipPath id="clip_1"><rect width="1079" height="22"></rect></clipPath><g><g><line x1="0" y1="0" x2="0" y2="5" style="visibility: inherit;" fill="rgb(0, 0, 0)" stroke="rgb(204, 204, 204)" stroke-width="1px"></line><line x1="89.96546874999999" y1="0" x2="89.96546874999999" y2="5" style="visibility: inherit;" fill="rgb(0, 0, 0)" stroke="rgb(204, 204, 204)" stroke-width="1px"></line><line x1="179.93093749999997" y1="0" x2="179.93093749999997" y2="5" style="visibility: inherit;" fill="rgb(0, 0, 0)" stroke="rgb(204, 204, 204)" stroke-width="1px"></line><line x1="269.89640625" y1="0" x2="269.89640625" y2="5" style="visibility: inherit;" fill="rgb(0, 0, 0)" stroke="rgb(204, 204, 204)" stroke-width="1px"></line><line x1="359.86187499999994" y1="0" x2="359.86187499999994" y2="5" style="visibility: inherit;" fill="rgb(0, 0, 0)" stroke="rgb(204, 204, 204)" stroke-width="1px"></line><line x1="449.82734375" y1="0" x2="449.82734375" y2="5" style="visibility: inherit;" fill="rgb(0, 0, 0)" stroke="rgb(204, 204, 204)" stroke-width="1px"></line><line x1="539.7928125" y1="0" x2="539.7928125" y2="5" style="visibility: inherit;" fill="rgb(0, 0, 0)" stroke="rgb(204, 204, 204)" stroke-width="1px"></line><line x1="629.75828125" y1="0" x2="629.75828125" y2="5" style="visibility: inherit;" fill="rgb(0, 0, 0)" stroke="rgb(204, 204, 204)" stroke-width="1px"></line><line x1="719.7237499999999" y1="0" x2="719.7237499999999" y2="5" style="visibility: inherit;" fill="rgb(0, 0, 0)" stroke="rgb(204, 204, 204)" stroke-width="1px"></line><line x1="809.68921875" y1="0" x2="809.68921875" y2="5" style="visibility: inherit;" fill="rgb(0, 0, 0)" stroke="rgb(204, 204, 204)" stroke-width="1px"></line><line x1="899.6546875" y1="0" x2="899.6546875" y2="5" style="visibility: inherit;" fill="rgb(0, 0, 0)" stroke="rgb(204, 204, 204)" stroke-width="1px"></line><line x1="989.6201562499999" y1="0" x2="989.6201562499999" y2="5" style="visibility: inherit;" fill="rgb(0, 0, 0)" stroke="rgb(204, 204, 204)" stroke-width="1px"></line><line x1="1079.585625" y1="0" x2="1079.585625" y2="5" style="visibility: inherit;" fill="rgb(0, 0, 0)" stroke="rgb(204, 204, 204)" stroke-width="1px"></line></g><g transform="translate(0, 8)"><text x="0" y="0" dx="0em" dy="0.95em" style="text-anchor: middle; visibility: hidden; font-family: Roboto, sans-serif; font-size: 12px; font-weight: 200;" fill="rgb(50, 49, 63)" stroke="none" stroke-width="1px">-20</text><text x="89.96546874999999" y="0" dx="0em" dy="0.95em" style="text-anchor: middle; visibility: inherit; font-family: Roboto, sans-serif; font-size: 12px; font-weight: 200;" fill="rgb(50, 49, 63)" stroke="none" stroke-width="1px">0</text><text x="179.93093749999997" y="0" dx="0em" dy="0.95em" style="text-anchor: middle; visibility: inherit; font-family: Roboto, sans-serif; font-size: 12px; font-weight: 200;" fill="rgb(50, 49, 63)" stroke="none" stroke-width="1px">20</text><text x="269.89640625" y="0" dx="0em" dy="0.95em" style="text-anchor: middle; visibility: inherit; font-family: Roboto, sans-serif; font-size: 12px; font-weight: 200;" fill="rgb(50, 49, 63)" stroke="none" stroke-width="1px">40</text><text x="359.86187499999994" y="0" dx="0em" dy="0.95em" style="text-anchor: middle; visibility: inherit; font-family: Roboto, sans-serif; font-size: 12px; font-weight: 200;" fill="rgb(50, 49, 63)" stroke="none" stroke-width="1px">60</text><text x="449.82734375" y="0" dx="0em" dy="0.95em" style="text-anchor: middle; visibility: inherit; font-family: Roboto, sans-serif; font-size: 12px; font-weight: 200;" fill="rgb(50, 49, 63)" stroke="none" stroke-width="1px">80</text><text x="539.7928125" y="0" dx="0em" dy="0.95em" style="text-anchor: middle; visibility: inherit; font-family: Roboto, sans-serif; font-size: 12px; font-weight: 200;" fill="rgb(50, 49, 63)" stroke="none" stroke-width="1px">100</text><text x="629.75828125" y="0" dx="0em" dy="0.95em" style="text-anchor: middle; visibility: inherit; font-family: Roboto, sans-serif; font-size: 12px; font-weight: 200;" fill="rgb(50, 49, 63)" stroke="none" stroke-width="1px">120</text><text x="719.7237499999999" y="0" dx="0em" dy="0.95em" style="text-anchor: middle; visibility: inherit; font-family: Roboto, sans-serif; font-size: 12px; font-weight: 200;" fill="rgb(50, 49, 63)" stroke="none" stroke-width="1px">140</text><text x="809.68921875" y="0" dx="0em" dy="0.95em" style="text-anchor: middle; visibility: inherit; font-family: Roboto, sans-serif; font-size: 12px; font-weight: 200;" fill="rgb(50, 49, 63)" stroke="none" stroke-width="1px">160</text><text x="899.6546875" y="0" dx="0em" dy="0.95em" style="text-anchor: middle; visibility: inherit; font-family: Roboto, sans-serif; font-size: 12px; font-weight: 200;" fill="rgb(50, 49, 63)" stroke="none" stroke-width="1px">180</text><text x="989.6201562499999" y="0" dx="0em" dy="0.95em" style="text-anchor: middle; visibility: inherit; font-family: Roboto, sans-serif; font-size: 12px; font-weight: 200;" fill="rgb(50, 49, 63)" stroke="none" stroke-width="1px">200</text><text x="1079.585625" y="0" dx="0em" dy="0.95em" style="text-anchor: middle; visibility: hidden; font-family: Roboto, sans-serif; font-size: 12px; font-weight: 200;" fill="rgb(50, 49, 63)" stroke="none" stroke-width="1px">220</text></g><line x1="0" y1="0" x2="1079.585625" y2="0" fill="rgb(0, 0, 0)" stroke="rgb(204, 204, 204)" stroke-width="1px"></line></g></g></g></g></svg>