<svg viewBox="0 0 1143.567138671875 399.99578857421875" xmlns="http://www.w3.org/2000/svg"><g><g><g><g><g><line x1="51.5625" y1="377.996" x2="46.5625" y2="377.996" style="visibility: inherit;" fill="rgb(0, 0, 0)" stroke="rgb(204, 204, 204)" stroke-width="1px"></line><line x1="51.5625" y1="346.4963333333333" x2="46.5625" y2="346.4963333333333" style="visibility: inherit;" fill="rgb(0, 0, 0)" stroke="rgb(204, 204, 204)" stroke-width="1px"></line><line x1="51.5625" y1="314.99666666666667" x2="46.5625" y2="314.99666666666667" style="visibility: inherit;" fill="rgb(0, 0, 0)" stroke="rgb(204, 204, 204)" stroke-width="1px"></line><line x1="51.5625" y1="283.49699999999996" x2="46.5625" y2="283.49699999999996" style="visibility: inherit;" fill="rgb(0, 0, 0)" stroke="rgb(204, 204, 204)" stroke-width="1px"></line><line x1="51.5625" y1="251.99733333333336" x2="46.5625" y2="251.99733333333336" style="visibility: inherit;" fill="rgb(0, 0, 0)" stroke="rgb(204, 204, 204)" stroke-width="1px"></line><line x1="51.5625" y1="220.49766666666667" x2="46.5625" y2="220.49766666666667" style="visibility: inherit;" fill="rgb(0, 0, 0)" stroke="rgb(204, 204, 204)" stroke-width="1px"></line><line x1="51.5625" y1="188.99800000000002" x2="46.5625" y2="188.99800000000002" style="visibility: inherit;" fill="rgb(0, 0, 0)" stroke="rgb(204, 204, 204)" stroke-width="1px"></line><line x1="51.5625" y1="157.49833333333336" x2="46.5625" y2="157.49833333333336" style="visibility: inherit;" fill="rgb(0, 0, 0)" stroke="rgb(204, 204, 204)" stroke-width="1px"></line><line x1="51.5625" y1="125.99866666666672" x2="46.5625" y2="125.99866666666672" style="visibility: inherit;" fill="rgb(0, 0, 0)" stroke="rgb(204, 204, 204)" stroke-width="1px"></line><line x1="51.5625" y1="94.49900000000004" x2="46.5625" y2="94.49900000000004" style="visibility: inherit;" fill="rgb(0, 0, 0)" stroke="rgb(204, 204, 204)" stroke-width="1px"></line><line x1="51.5625" y1="62.99933333333336" x2="46.5625" y2="62.99933333333336" style="visibility: inherit;" fill="rgb(0, 0, 0)" stroke="rgb(204, 204, 204)" stroke-width="1px"></line><line x1="51.5625" y1="31.49966666666668" x2="46.5625" y2="31.49966666666668" style="visibility: inherit;" fill="rgb(0, 0, 0)" stroke="rgb(204, 204, 204)" stroke-width="1px"></line><line x1="51.5625" y1="0" x2="46.5625" y2="0" style="visibility: inherit;" fill="rgb(0, 0, 0)" stroke="rgb(204, 204, 204)" stroke-width="1px"></line></g><g transform="translate(41.5625, 0)"><text x="0" y="377.996" dx="0em" dy="0.3em" style="text-anchor: end; visibility: hidden; font-family: Roboto, sans-serif; font-size: 12px; font-weight: 200;" fill="rgb(50, 49, 63)" stroke="none" stroke-width="1px">-0.1</text><text x="0" y="346.4963333333333" dx="0em" dy="0.3em" style="text-anchor: end; visibility: inherit; font-family: Roboto, sans-serif; font-size: 12px; font-weight: 200;" fill="rgb(50, 49, 63)" stroke="none" stroke-width="1px">0</text><text x="0" y="314.99666666666667" dx="0em" dy="0.3em" style="text-anchor: end; visibility: inherit; font-family: Roboto, sans-serif; font-size: 12px; font-weight: 200;" fill="rgb(50, 49, 63)" stroke="none" stroke-width="1px">0.1</text><text x="0" y="283.49699999999996" dx="0em" dy="0.3em" style="text-anchor: end; visibility: inherit; font-family: Roboto, sans-serif; font-size: 12px; font-weight: 200;" fill="rgb(50, 49, 63)" stroke="none" stroke-width="1px">0.2</text><text x="0" y="251.99733333333336" dx="0em" dy="0.3em" style="text-anchor: end; visibility: inherit; font-family: Roboto, sans-serif; font-size: 12px; font-weight: 200;" fill="rgb(50, 49, 63)" stroke="none" stroke-width="1px">0.3</text><text x="0" y="220.49766666666667" dx="0em" dy="0.3em" style="text-anchor: end; visibility: inherit; font-family: Roboto, sans-serif; font-size: 12px; font-weight: 200;" fill="rgb(50, 49, 63)" stroke="none" stroke-width="1px">0.4</text><text x="0" y="188.99800000000002" dx="0em" dy="0.3em" style="text-anchor: end; visibility: inherit; font-family: Roboto, sans-serif; font-size: 12px; font-weight: 200;" fill="rgb(50, 49, 63)" stroke="none" stroke-width="1px">0.5</text><text x="0" y="157.49833333333336" dx="0em" dy="0.3em" style="text-anchor: end; visibility: inherit; font-family: Roboto, sans-serif; font-size: 12px; font-weight: 200;" fill="rgb(50, 49, 63)" stroke="none" stroke-width="1px">0.6</text><text x="0" y="125.99866666666672" dx="0em" dy="0.3em" style="text-anchor: end; visibility: inherit; font-family: Roboto, sans-serif; font-size: 12px; font-weight: 200;" fill="rgb(50, 49, 63)" stroke="none" stroke-width="1px">0.7</text><text x="0" y="94.49900000000004" dx="0em" dy="0.3em" style="text-anchor: end; visibility: inherit; font-family: Roboto, sans-serif; font-size: 12px; font-weight: 200;" fill="rgb(50, 49, 63)" stroke="none" stroke-width="1px">0.8</text><text x="0" y="62.99933333333336" dx="0em" dy="0.3em" style="text-anchor: end; visibility: inherit; font-family: Roboto, sans-serif; font-size: 12px; font-weight: 200;" fill="rgb(50, 49, 63)" stroke="none" stroke-width="1px">0.9</text><text x="0" y="31.49966666666668" dx="0em" dy="0.3em" style="text-anchor: end; visibility: inherit; font-family: Roboto, sans-serif; font-size: 12px; font-weight: 200;" fill="rgb(50, 49, 63)" stroke="none" stroke-width="1px">1</text><text x="0" y="0" dx="0em" dy="0.3em" style="text-anchor: end; visibility: hidden; font-family: Roboto, sans-serif; font-size: 12px; font-weight: 200;" fill="rgb(50, 49, 63)" stroke="none" stroke-width="1px">1.1</text></g><line x1="51.5625" y1="0" x2="51.5625" y2="377.996" fill="rgb(0, 0, 0)" stroke="rgb(204, 204, 204)" stroke-width="1px"></line></g></g><g transform="translate(51, 0)" clip-path="url(#clip_0)"><clipPath id="clip_0"><rect width="1092" height="377"></rect></clipPath><g><g><g><line x1="0" y1="0" x2="0" y2="377.996" fill="rgb(0, 0, 0)" stroke="rgb(60, 60, 60)" stroke-width="1px" opacity="0.25"></line><line x1="91.00062499999999" y1="0" x2="91.00062499999999" y2="377.996" fill="rgb(0, 0, 0)" stroke="rgb(60, 60, 60)" stroke-width="1px" opacity="0.25"></line><line x1="182.00124999999997" y1="0" x2="182.00124999999997" y2="377.996" fill="rgb(0, 0, 0)" stroke="rgb(60, 60, 60)" stroke-width="1px" opacity="0.25"></line><line x1="273.001875" y1="0" x2="273.001875" y2="377.996" fill="rgb(0, 0, 0)" stroke="rgb(60, 60, 60)" stroke-width="1px" opacity="0.25"></line><line x1="364.00249999999994" y1="0" x2="364.00249999999994" y2="377.996" fill="rgb(0, 0, 0)" stroke="rgb(60, 60, 60)" stroke-width="1px" opacity="0.25"></line><line x1="455.003125" y1="0" x2="455.003125" y2="377.996" fill="rgb(0, 0, 0)" stroke="rgb(60, 60, 60)" stroke-width="1px" opacity="0.25"></line><line x1="546.00375" y1="0" x2="546.00375" y2="377.996" fill="rgb(0, 0, 0)" stroke="rgb(60, 60, 60)" stroke-width="1px" opacity="0.25"></line><line x1="637.004375" y1="0" x2="637.004375" y2="377.996" fill="rgb(0, 0, 0)" stroke="rgb(60, 60, 60)" stroke-width="1px" opacity="0.25"></line><line x1="728.0049999999999" y1="0" x2="728.0049999999999" y2="377.996" fill="rgb(0, 0, 0)" stroke="rgb(60, 60, 60)" stroke-width="1px" opacity="0.25"></line><line x1="819.005625" y1="0" x2="819.005625" y2="377.996" fill="rgb(0, 0, 0)" stroke="rgb(60, 60, 60)" stroke-width="1px" opacity="0.25"></line><line x1="910.00625" y1="0" x2="910.00625" y2="377.996" fill="rgb(0, 0, 0)" stroke="rgb(60, 60, 60)" stroke-width="1px" opacity="0.25"></line><line x1="1001.0068749999999" y1="0" x2="1001.0068749999999" y2="377.996" fill="rgb(0, 0, 0)" stroke="rgb(60, 60, 60)" stroke-width="1px" opacity="0.25"></line><line x1="1092.0075" y1="0" x2="1092.0075" y2="377.996" fill="rgb(0, 0, 0)" stroke="rgb(60, 60, 60)" stroke-width="1px" opacity="0.25"></line></g><g><line x1="0" y1="377.996" x2="1092.0075" y2="377.996" fill="rgb(0, 0, 0)" stroke="rgb(60, 60, 60)" stroke-width="1px" opacity="0.25"></line><line x1="0" y1="346.4963333333333" x2="1092.0075" y2="346.4963333333333" fill="rgb(0, 0, 0)" stroke="rgb(60, 60, 60)" stroke-width="1px" opacity="0.25"></line><line x1="0" y1="314.99666666666667" x2="1092.0075" y2="314.99666666666667" fill="rgb(0, 0, 0)" stroke="rgb(60, 60, 60)" stroke-width="1px" opacity="0.25"></line><line x1="0" y1="283.49699999999996" x2="1092.0075" y2="283.49699999999996" fill="rgb(0, 0, 0)" stroke="rgb(60, 60, 60)" stroke-width="1px" opacity="0.25"></line><line x1="0" y1="251.99733333333336" x2="1092.0075" y2="251.99733333333336" fill="rgb(0, 0, 0)" stroke="rgb(60, 60, 60)" stroke-width="1px" opacity="0.25"></line><line x1="0" y1="220.49766666666667" x2="1092.0075" y2="220.49766666666667" fill="rgb(0, 0, 0)" stroke="rgb(60, 60, 60)" stroke-width="1px" opacity="0.25"></line><line x1="0" y1="188.99800000000002" x2="1092.0075" y2="188.99800000000002" fill="rgb(0, 0, 0)" stroke="rgb(60, 60, 60)" stroke-width="1px" opacity="0.25"></line><line x1="0" y1="157.49833333333336" x2="1092.0075" y2="157.49833333333336" fill="rgb(0, 0, 0)" stroke="rgb(60, 60, 60)" stroke-width="1px" opacity="0.25"></line><line x1="0" y1="125.99866666666672" x2="1092.0075" y2="125.99866666666672" fill="rgb(0, 0, 0)" stroke="rgb(60, 60, 60)" stroke-width="1px" opacity="0.25"></line><line x1="0" y1="94.49900000000004" x2="1092.0075" y2="94.49900000000004" fill="rgb(0, 0, 0)" stroke="rgb(60, 60, 60)" stroke-width="1px" opacity="0.25"></line><line x1="0" y1="62.99933333333336" x2="1092.0075" y2="62.99933333333336" fill="rgb(0, 0, 0)" stroke="rgb(60, 60, 60)" stroke-width="1px" opacity="0.25"></line><line x1="0" y1="31.49966666666668" x2="1092.0075" y2="31.49966666666668" fill="rgb(0, 0, 0)" stroke="rgb(60, 60, 60)" stroke-width="1px" opacity="0.25"></line><line x1="0" y1="0" x2="1092.0075" y2="0" fill="rgb(0, 0, 0)" stroke="rgb(60, 60, 60)" stroke-width="1px" opacity="0.25"></line></g></g></g><g><g><line x1="0" y1="346.4963333333333" x2="1092.0075" y2="346.4963333333333" fill="rgb(0, 0, 0)" stroke="rgb(153, 153, 153)" stroke-width="1.5px"></line></g></g><g><g><line x1="91.00062499999999" y1="0" x2="91.00062499999999" y2="377.996" fill="rgb(0, 0, 0)" stroke="rgb(153, 153, 153)" stroke-width="1.5px"></line></g></g><g><g><g><g><g><path stroke="rgb(255, 112, 67)" stroke-width="2px" d="M91.00062499999999,346.4963333333333L95.55065624999999,346.4963333333333L100.10068749999999,346.4963333333333L104.65071875,346.4963333333333L109.20075,346.4963333333333L113.75078125,346.4963333333333L118.30081249999999,346.4963333333333L122.85084375,345.31509578639515L127.400875,342.95262039915536L131.95090625,339.4089086384314L136.5009375,327.2027871244947L141.05096875,301.6093088965913L145.601,272.4721215482354L150.15103125000002,248.45362984546028L154.70106249999998,207.89781013864282L159.25109375,176.39812657423815L163.80112499999998,129.54240770506863L168.35115625,103.5551511626244L172.9011875,72.44923183131222L177.45121875,69.69302301414814L182.00124999999997,58.27439534950256L186.55128125,39.76834944395225L191.10131249999998,37.799593991915394L195.65134375,32.68089365251862L200.20137499999998,33.074648497978856L204.75140625,31.49966666666668L209.3014375,31.893402736862527L213.85146874999998,32.287138807058376L218.4015,32.287138807058376L222.95153125,33.074648497978856L227.5015625,33.46840334343914L232.05159374999997,33.46840334343914L236.60162499999998,32.68089365251862L241.15165624999997,31.893402736862527L245.7016875,31.49966666666668L250.25171874999998,31.49966666666668L254.80175,36.22463093586765L259.35178125,39.76833066868786L263.9018125,33.46840334343914L268.45184374999997,50.00573134748142L273.001875,52.76194016464554L277.55190624999994,41.34331250000004L282.1019375,33.46840334343914L286.65196875,33.074648497978856L291.202,31.49966666666668L295.75203124999996,31.49966666666668L300.30206250000003,31.49966666666668L304.85209375,31.49966666666668L309.40212499999996,31.49966666666668L313.95215625,31.49966666666668L318.5021875,31.49966666666668L323.05221875,31.49966666666668L327.60224999999997,31.49966666666668L332.15228124999993,31.49966666666668L336.7023125,31.49966666666668L341.25234374999997,31.49966666666668L345.802375,31.49966666666668L350.35240625,31.49966666666668L354.9024375,31.49966666666668L359.45246875,31.49966666666668L364.00249999999994,31.893402736862527L368.55253125,34.2558754838308L373.1025625,37.012084300994914L377.65259375,38.980877303560604L382.20262499999995,33.862158188899386L386.75265625,32.287138807058376L391.3026875,31.49966666666668L395.85271874999995,31.49966666666668L400.40274999999997,31.49966666666668L404.95278125,31.49966666666668L409.5028125,31.49966666666668L414.05284374999997,31.49966666666668L418.602875,31.49966666666668L423.15290625,31.49966666666668L427.70293749999996,31.49966666666668L432.25296875,31.49966666666668L436.803,31.49966666666668L441.35303124999996,31.49966666666668L445.9030625,31.49966666666668L450.45309374999994,31.49966666666668L455.003125,31.49966666666668L459.55315625,31.49966666666668L464.10318749999993,31.49966666666668L468.65321874999995,31.49966666666668L473.20324999999997,31.49966666666668L477.75328125,31.49966666666668L482.30331249999995,31.49966666666668L486.85334375,31.49966666666668L491.403375,31.49966666666668L495.95340624999994,31.49966666666668L500.50343749999996,31.49966666666668L505.05346875,31.49966666666668L509.6035,31.49966666666668L514.15353125,31.49966666666668L518.7035625,31.49966666666668L523.2535937499999,31.49966666666668L527.803625,31.49966666666668L532.35365625,31.49966666666668L536.9036874999999,31.49966666666668L541.45371875,31.49966666666668L546.00375,31.49966666666668L550.5537812499999,31.49966666666668L555.1038124999999,31.49966666666668L559.65384375,31.49966666666668L564.203875,31.49966666666668L568.75390625,31.49966666666668L573.3039375,31.49966666666668L577.8539687499999,31.49966666666668L582.404,31.49966666666668L586.95403125,31.49966666666668L591.5040624999999,31.49966666666668L596.0540937499999,31.49966666666668L600.6041250000001,31.49966666666668L605.15415625,31.49966666666668L609.7041875,31.49966666666668L614.25421875,31.49966666666668L618.8042499999999,31.49966666666668L623.35428125,31.49966666666668L627.9043125,31.49966666666668L632.45434375,31.49966666666668L637.004375,31.49966666666668L641.5544062499999,31.49966666666668L646.1044375,31.49966666666668L650.65446875,31.49966666666668L655.2044999999999,31.49966666666668L659.7545312499999,31.49966666666668L664.3045624999999,31.49966666666668L668.85459375,31.49966666666668L673.404625,31.49966666666668L677.95465625,31.49966666666668L682.5046874999999,31.49966666666668L687.0547187499999,31.49966666666668L691.60475,31.49966666666668L696.1547812499999,31.49966666666668L700.7048125,31.49966666666668L705.25484375,31.49966666666668L709.804875,31.49966666666668L714.35490625,31.49966666666668L718.9049375,31.49966666666668L723.4549687499999,31.49966666666668L728.0049999999999,31.49966666666668L732.55503125,31.49966666666668L737.1050625,31.49966666666668L741.65509375,31.49966666666668L746.205125,31.49966666666668L750.7551562499999,31.49966666666668L755.3051875,31.49966666666668L759.85521875,31.49966666666668L764.4052499999999,31.49966666666668L768.95528125,31.49966666666668L773.5053125,31.49966666666668L778.05534375,31.49966666666668L782.605375,31.49966666666668L787.1554062499999,31.49966666666668L791.7054374999999,31.49966666666668L796.2554687499999,31.49966666666668L800.8054999999999,31.49966666666668L805.35553125,31.49966666666668L809.9055625,31.49966666666668L814.4555937499999,31.49966666666668L819.005625,31.49966666666668L823.55565625,166.9482355863651L828.1056874999999,144.89847117273018L832.6557187499999,56.69941351819038L837.20575,42.52455826111637L841.75578125,36.22463093586765L846.3058125,35.43712124494713L850.85584375,31.893402736862527L855.4058749999999,31.893402736862527L859.9559062499999,31.49966666666668L864.5059375,31.893402736862527L869.0559687499999,31.893402736862527L873.606,31.893402736862527L878.15603125,31.49966666666668L882.7060624999999,31.49966666666668L887.25609375,31.49966666666668L891.806125,31.49966666666668L896.3561562499999,31.49966666666668L900.9061874999999,31.49966666666668L905.45621875,31.49966666666668L910.00625,31.49966666666668L914.55628125,31.49966666666668L919.1063125,31.49966666666668L923.6563437499999,31.49966666666668L928.2063749999999,31.49966666666668L932.7564062499999,31.49966666666668L937.3064374999999,31.49966666666668L941.85646875,31.49966666666668L946.4064999999999,31.49966666666668L950.95653125,31.49966666666668L955.5065625,31.49966666666668L960.0565937499999,31.49966666666668L964.6066249999999,31.49966666666668L969.1566562499999,31.49966666666668L973.7066875,31.49966666666668L978.25671875,31.49966666666668L982.80675,31.49966666666668L987.3567812499999,31.49966666666668L991.9068124999999,31.49966666666668L996.45684375,31.49966666666668" style="fill: none;" fill="none"></path></g></g></g></g></g></g><g transform="translate(51, 377)" clip-path="url(#clip_1)"><clipPath id="clip_1"><rect width="1092" height="21"></rect></clipPath><g><g><line x1="0" y1="0" x2="0" y2="5" style="visibility: inherit;" fill="rgb(0, 0, 0)" stroke="rgb(204, 204, 204)" stroke-width="1px"></line><line x1="91.00062499999999" y1="0" x2="91.00062499999999" y2="5" style="visibility: inherit;" fill="rgb(0, 0, 0)" stroke="rgb(204, 204, 204)" stroke-width="1px"></line><line x1="182.00124999999997" y1="0" x2="182.00124999999997" y2="5" style="visibility: inherit;" fill="rgb(0, 0, 0)" stroke="rgb(204, 204, 204)" stroke-width="1px"></line><line x1="273.001875" y1="0" x2="273.001875" y2="5" style="visibility: inherit;" fill="rgb(0, 0, 0)" stroke="rgb(204, 204, 204)" stroke-width="1px"></line><line x1="364.00249999999994" y1="0" x2="364.00249999999994" y2="5" style="visibility: inherit;" fill="rgb(0, 0, 0)" stroke="rgb(204, 204, 204)" stroke-width="1px"></line><line x1="455.003125" y1="0" x2="455.003125" y2="5" style="visibility: inherit;" fill="rgb(0, 0, 0)" stroke="rgb(204, 204, 204)" stroke-width="1px"></line><line x1="546.00375" y1="0" x2="546.00375" y2="5" style="visibility: inherit;" fill="rgb(0, 0, 0)" stroke="rgb(204, 204, 204)" stroke-width="1px"></line><line x1="637.004375" y1="0" x2="637.004375" y2="5" style="visibility: inherit;" fill="rgb(0, 0, 0)" stroke="rgb(204, 204, 204)" stroke-width="1px"></line><line x1="728.0049999999999" y1="0" x2="728.0049999999999" y2="5" style="visibility: inherit;" fill="rgb(0, 0, 0)" stroke="rgb(204, 204, 204)" stroke-width="1px"></line><line x1="819.005625" y1="0" x2="819.005625" y2="5" style="visibility: inherit;" fill="rgb(0, 0, 0)" stroke="rgb(204, 204, 204)" stroke-width="1px"></line><line x1="910.00625" y1="0" x2="910.00625" y2="5" style="visibility: inherit;" fill="rgb(0, 0, 0)" stroke="rgb(204, 204, 204)" stroke-width="1px"></line><line x1="1001.0068749999999" y1="0" x2="1001.0068749999999" y2="5" style="visibility: inherit;" fill="rgb(0, 0, 0)" stroke="rgb(204, 204, 204)" stroke-width="1px"></line><line x1="1092.0075" y1="0" x2="1092.0075" y2="5" style="visibility: inherit;" fill="rgb(0, 0, 0)" stroke="rgb(204, 204, 204)" stroke-width="1px"></line></g><g transform="translate(0, 8)"><text x="0" y="0" dx="0em" dy="0.95em" style="text-anchor: middle; visibility: hidden; font-family: Roboto, sans-serif; font-size: 12px; font-weight: 200;" fill="rgb(50, 49, 63)" stroke="none" stroke-width="1px">-20</text><text x="91.00062499999999" y="0" dx="0em" dy="0.95em" style="text-anchor: middle; visibility: inherit; font-family: Roboto, sans-serif; font-size: 12px; font-weight: 200;" fill="rgb(50, 49, 63)" stroke="none" stroke-width="1px">0</text><text x="182.00124999999997" y="0" dx="0em" dy="0.95em" style="text-anchor: middle; visibility: inherit; font-family: Roboto, sans-serif; font-size: 12px; font-weight: 200;" fill="rgb(50, 49, 63)" stroke="none" stroke-width="1px">20</text><text x="273.001875" y="0" dx="0em" dy="0.95em" style="text-anchor: middle; visibility: inherit; font-family: Roboto, sans-serif; font-size: 12px; font-weight: 200;" fill="rgb(50, 49, 63)" stroke="none" stroke-width="1px">40</text><text x="364.00249999999994" y="0" dx="0em" dy="0.95em" style="text-anchor: middle; visibility: inherit; font-family: Roboto, sans-serif; font-size: 12px; font-weight: 200;" fill="rgb(50, 49, 63)" stroke="none" stroke-width="1px">60</text><text x="455.003125" y="0" dx="0em" dy="0.95em" style="text-anchor: middle; visibility: inherit; font-family: Roboto, sans-serif; font-size: 12px; font-weight: 200;" fill="rgb(50, 49, 63)" stroke="none" stroke-width="1px">80</text><text x="546.00375" y="0" dx="0em" dy="0.95em" style="text-anchor: middle; visibility: inherit; font-family: Roboto, sans-serif; font-size: 12px; font-weight: 200;" fill="rgb(50, 49, 63)" stroke="none" stroke-width="1px">100</text><text x="637.004375" y="0" dx="0em" dy="0.95em" style="text-anchor: middle; visibility: inherit; font-family: Roboto, sans-serif; font-size: 12px; font-weight: 200;" fill="rgb(50, 49, 63)" stroke="none" stroke-width="1px">120</text><text x="728.0049999999999" y="0" dx="0em" dy="0.95em" style="text-anchor: middle; visibility: inherit; font-family: Roboto, sans-serif; font-size: 12px; font-weight: 200;" fill="rgb(50, 49, 63)" stroke="none" stroke-width="1px">140</text><text x="819.005625" y="0" dx="0em" dy="0.95em" style="text-anchor: middle; visibility: inherit; font-family: Roboto, sans-serif; font-size: 12px; font-weight: 200;" fill="rgb(50, 49, 63)" stroke="none" stroke-width="1px">160</text><text x="910.00625" y="0" dx="0em" dy="0.95em" style="text-anchor: middle; visibility: inherit; font-family: Roboto, sans-serif; font-size: 12px; font-weight: 200;" fill="rgb(50, 49, 63)" stroke="none" stroke-width="1px">180</text><text x="1001.0068749999999" y="0" dx="0em" dy="0.95em" style="text-anchor: middle; visibility: inherit; font-family: Roboto, sans-serif; font-size: 12px; font-weight: 200;" fill="rgb(50, 49, 63)" stroke="none" stroke-width="1px">200</text><text x="1092.0075" y="0" dx="0em" dy="0.95em" style="text-anchor: middle; visibility: hidden; font-family: Roboto, sans-serif; font-size: 12px; font-weight: 200;" fill="rgb(50, 49, 63)" stroke="none" stroke-width="1px">220</text></g><line x1="0" y1="0" x2="1092.0075" y2="0" fill="rgb(0, 0, 0)" stroke="rgb(204, 204, 204)" stroke-width="1px"></line></g></g></g></g></svg>