<svg viewBox="0 0 1143.567138671875 399.99578857421875" xmlns="http://www.w3.org/2000/svg"><g><g><g><g><g><line x1="61.953125" y1="377.996" x2="56.953125" y2="377.996" style="visibility: inherit;" fill="rgb(0, 0, 0)" stroke="rgb(204, 204, 204)" stroke-width="1px"></line><line x1="61.953125" y1="340.1964" x2="56.953125" y2="340.1964" style="visibility: inherit;" fill="rgb(0, 0, 0)" stroke="rgb(204, 204, 204)" stroke-width="1px"></line><line x1="61.953125" y1="302.3968" x2="56.953125" y2="302.3968" style="visibility: inherit;" fill="rgb(0, 0, 0)" stroke="rgb(204, 204, 204)" stroke-width="1px"></line><line x1="61.953125" y1="264.5972" x2="56.953125" y2="264.5972" style="visibility: inherit;" fill="rgb(0, 0, 0)" stroke="rgb(204, 204, 204)" stroke-width="1px"></line><line x1="61.953125" y1="226.79760000000002" x2="56.953125" y2="226.79760000000002" style="visibility: inherit;" fill="rgb(0, 0, 0)" stroke="rgb(204, 204, 204)" stroke-width="1px"></line><line x1="61.953125" y1="188.998" x2="56.953125" y2="188.998" style="visibility: inherit;" fill="rgb(0, 0, 0)" stroke="rgb(204, 204, 204)" stroke-width="1px"></line><line x1="61.953125" y1="151.19839999999996" x2="56.953125" y2="151.19839999999996" style="visibility: inherit;" fill="rgb(0, 0, 0)" stroke="rgb(204, 204, 204)" stroke-width="1px"></line><line x1="61.953125" y1="113.39880000000001" x2="56.953125" y2="113.39880000000001" style="visibility: inherit;" fill="rgb(0, 0, 0)" stroke="rgb(204, 204, 204)" stroke-width="1px"></line><line x1="61.953125" y1="75.59919999999998" x2="56.953125" y2="75.59919999999998" style="visibility: inherit;" fill="rgb(0, 0, 0)" stroke="rgb(204, 204, 204)" stroke-width="1px"></line><line x1="61.953125" y1="37.79959999999999" x2="56.953125" y2="37.79959999999999" style="visibility: inherit;" fill="rgb(0, 0, 0)" stroke="rgb(204, 204, 204)" stroke-width="1px"></line><line x1="61.953125" y1="0" x2="56.953125" y2="0" style="visibility: inherit;" fill="rgb(0, 0, 0)" stroke="rgb(204, 204, 204)" stroke-width="1px"></line></g><g transform="translate(51.953125, 0)"><text x="0" y="377.996" dx="0em" dy="0.3em" style="text-anchor: end; visibility: hidden; font-family: Roboto, sans-serif; font-size: 12px; font-weight: 200;" fill="rgb(50, 49, 63)" stroke="none" stroke-width="1px">-1e-4</text><text x="0" y="340.1964" dx="0em" dy="0.3em" style="text-anchor: end; visibility: inherit; font-family: Roboto, sans-serif; font-size: 12px; font-weight: 200;" fill="rgb(50, 49, 63)" stroke="none" stroke-width="1px">0</text><text x="0" y="302.3968" dx="0em" dy="0.3em" style="text-anchor: end; visibility: inherit; font-family: Roboto, sans-serif; font-size: 12px; font-weight: 200;" fill="rgb(50, 49, 63)" stroke="none" stroke-width="1px">1e-4</text><text x="0" y="264.5972" dx="0em" dy="0.3em" style="text-anchor: end; visibility: inherit; font-family: Roboto, sans-serif; font-size: 12px; font-weight: 200;" fill="rgb(50, 49, 63)" stroke="none" stroke-width="1px">2e-4</text><text x="0" y="226.79760000000002" dx="0em" dy="0.3em" style="text-anchor: end; visibility: inherit; font-family: Roboto, sans-serif; font-size: 12px; font-weight: 200;" fill="rgb(50, 49, 63)" stroke="none" stroke-width="1px">3e-4</text><text x="0" y="188.998" dx="0em" dy="0.3em" style="text-anchor: end; visibility: inherit; font-family: Roboto, sans-serif; font-size: 12px; font-weight: 200;" fill="rgb(50, 49, 63)" stroke="none" stroke-width="1px">4e-4</text><text x="0" y="151.19839999999996" dx="0em" dy="0.3em" style="text-anchor: end; visibility: inherit; font-family: Roboto, sans-serif; font-size: 12px; font-weight: 200;" fill="rgb(50, 49, 63)" stroke="none" stroke-width="1px">5e-4</text><text x="0" y="113.39880000000001" dx="0em" dy="0.3em" style="text-anchor: end; visibility: inherit; font-family: Roboto, sans-serif; font-size: 12px; font-weight: 200;" fill="rgb(50, 49, 63)" stroke="none" stroke-width="1px">6e-4</text><text x="0" y="75.59919999999998" dx="0em" dy="0.3em" style="text-anchor: end; visibility: inherit; font-family: Roboto, sans-serif; font-size: 12px; font-weight: 200;" fill="rgb(50, 49, 63)" stroke="none" stroke-width="1px">7e-4</text><text x="0" y="37.79959999999999" dx="0em" dy="0.3em" style="text-anchor: end; visibility: inherit; font-family: Roboto, sans-serif; font-size: 12px; font-weight: 200;" fill="rgb(50, 49, 63)" stroke="none" stroke-width="1px">8e-4</text><text x="0" y="0" dx="0em" dy="0.3em" style="text-anchor: end; visibility: hidden; font-family: Roboto, sans-serif; font-size: 12px; font-weight: 200;" fill="rgb(50, 49, 63)" stroke="none" stroke-width="1px">9e-4</text></g><line x1="61.953125" y1="0" x2="61.953125" y2="377.996" fill="rgb(0, 0, 0)" stroke="rgb(204, 204, 204)" stroke-width="1px"></line></g></g><g transform="translate(61, 0)" clip-path="url(#clip_0)"><clipPath id="clip_0"><rect width="1081" height="377"></rect></clipPath><g><g><g><line x1="0" y1="0" x2="0" y2="377.996" fill="rgb(0, 0, 0)" stroke="rgb(60, 60, 60)" stroke-width="1px" opacity="0.25"></line><line x1="90.13473958333333" y1="0" x2="90.13473958333333" y2="377.996" fill="rgb(0, 0, 0)" stroke="rgb(60, 60, 60)" stroke-width="1px" opacity="0.25"></line><line x1="180.26947916666666" y1="0" x2="180.26947916666666" y2="377.996" fill="rgb(0, 0, 0)" stroke="rgb(60, 60, 60)" stroke-width="1px" opacity="0.25"></line><line x1="270.40421875" y1="0" x2="270.40421875" y2="377.996" fill="rgb(0, 0, 0)" stroke="rgb(60, 60, 60)" stroke-width="1px" opacity="0.25"></line><line x1="360.5389583333333" y1="0" x2="360.5389583333333" y2="377.996" fill="rgb(0, 0, 0)" stroke="rgb(60, 60, 60)" stroke-width="1px" opacity="0.25"></line><line x1="450.67369791666664" y1="0" x2="450.67369791666664" y2="377.996" fill="rgb(0, 0, 0)" stroke="rgb(60, 60, 60)" stroke-width="1px" opacity="0.25"></line><line x1="540.8084375" y1="0" x2="540.8084375" y2="377.996" fill="rgb(0, 0, 0)" stroke="rgb(60, 60, 60)" stroke-width="1px" opacity="0.25"></line><line x1="630.9431770833334" y1="0" x2="630.9431770833334" y2="377.996" fill="rgb(0, 0, 0)" stroke="rgb(60, 60, 60)" stroke-width="1px" opacity="0.25"></line><line x1="721.0779166666666" y1="0" x2="721.0779166666666" y2="377.996" fill="rgb(0, 0, 0)" stroke="rgb(60, 60, 60)" stroke-width="1px" opacity="0.25"></line><line x1="811.21265625" y1="0" x2="811.21265625" y2="377.996" fill="rgb(0, 0, 0)" stroke="rgb(60, 60, 60)" stroke-width="1px" opacity="0.25"></line><line x1="901.3473958333333" y1="0" x2="901.3473958333333" y2="377.996" fill="rgb(0, 0, 0)" stroke="rgb(60, 60, 60)" stroke-width="1px" opacity="0.25"></line><line x1="991.4821354166666" y1="0" x2="991.4821354166666" y2="377.996" fill="rgb(0, 0, 0)" stroke="rgb(60, 60, 60)" stroke-width="1px" opacity="0.25"></line><line x1="1081.616875" y1="0" x2="1081.616875" y2="377.996" fill="rgb(0, 0, 0)" stroke="rgb(60, 60, 60)" stroke-width="1px" opacity="0.25"></line></g><g><line x1="0" y1="377.996" x2="1081.616875" y2="377.996" fill="rgb(0, 0, 0)" stroke="rgb(60, 60, 60)" stroke-width="1px" opacity="0.25"></line><line x1="0" y1="340.1964" x2="1081.616875" y2="340.1964" fill="rgb(0, 0, 0)" stroke="rgb(60, 60, 60)" stroke-width="1px" opacity="0.25"></line><line x1="0" y1="302.3968" x2="1081.616875" y2="302.3968" fill="rgb(0, 0, 0)" stroke="rgb(60, 60, 60)" stroke-width="1px" opacity="0.25"></line><line x1="0" y1="264.5972" x2="1081.616875" y2="264.5972" fill="rgb(0, 0, 0)" stroke="rgb(60, 60, 60)" stroke-width="1px" opacity="0.25"></line><line x1="0" y1="226.79760000000002" x2="1081.616875" y2="226.79760000000002" fill="rgb(0, 0, 0)" stroke="rgb(60, 60, 60)" stroke-width="1px" opacity="0.25"></line><line x1="0" y1="188.998" x2="1081.616875" y2="188.998" fill="rgb(0, 0, 0)" stroke="rgb(60, 60, 60)" stroke-width="1px" opacity="0.25"></line><line x1="0" y1="151.19839999999996" x2="1081.616875" y2="151.19839999999996" fill="rgb(0, 0, 0)" stroke="rgb(60, 60, 60)" stroke-width="1px" opacity="0.25"></line><line x1="0" y1="113.39880000000001" x2="1081.616875" y2="113.39880000000001" fill="rgb(0, 0, 0)" stroke="rgb(60, 60, 60)" stroke-width="1px" opacity="0.25"></line><line x1="0" y1="75.59919999999998" x2="1081.616875" y2="75.59919999999998" fill="rgb(0, 0, 0)" stroke="rgb(60, 60, 60)" stroke-width="1px" opacity="0.25"></line><line x1="0" y1="37.79959999999999" x2="1081.616875" y2="37.79959999999999" fill="rgb(0, 0, 0)" stroke="rgb(60, 60, 60)" stroke-width="1px" opacity="0.25"></line><line x1="0" y1="0" x2="1081.616875" y2="0" fill="rgb(0, 0, 0)" stroke="rgb(60, 60, 60)" stroke-width="1px" opacity="0.25"></line></g></g></g><g><g><line x1="0" y1="340.1964" x2="1081.616875" y2="340.1964" fill="rgb(0, 0, 0)" stroke="rgb(153, 153, 153)" stroke-width="1.5px"></line></g></g><g><g><line x1="90.13473958333333" y1="0" x2="90.13473958333333" y2="377.996" fill="rgb(0, 0, 0)" stroke="rgb(153, 153, 153)" stroke-width="1.5px"></line></g></g><g><g><g><g><g><path stroke="rgb(255, 112, 67)" stroke-width="2px" d="M106.35899270833332,-4.948281101432103L107.26034010416666,199.12464437306264L108.1616875,197.29712540759576L109.06303489583333,96.6351330384925L109.96438229166667,-744.742405008307L112.66842447916666,-191.40186037660243L113.56977187499999,94.01576362897977L114.47111927083333,238.4334143906446L115.37246666666667,314.2384959065377L116.2738140625,158.5189839666556L117.17516145833333,-65.47446038924757L118.97785624999999,-199.80157631101685L119.87920364583333,28.692210917811476L120.78055104166666,-26.97399850843142L121.6818984375,215.62730971861967L122.58324583333332,287.85842339186564L123.48459322916666,244.57551112257278L124.385940625,221.74190362180454L125.28728802083332,152.09962571760045L126.18863541666666,-726.5016488952248L130.69537239583332,-84.01985983575362L131.59671979166666,49.499134968485315L132.4980671875,-404.51217137162223L133.39941458333334,-76.11519481871876L134.30076197916665,194.71660099340008L135.202109375,295.16486888033904L136.1034567708333,328.8812824583285L137.00480416666667,275.9037578208801L137.90615156249999,-1681.7115909250142L139.70884635416667,-243.01947739372628L140.61019375,136.74596255014987L141.51154114583332,193.13557338026217L142.41288854166663,-279.52717231285425L143.3142359375,212.6304364817763L144.2155833333333,275.3888608622794L145.11693072916665,317.426318533063L146.018278125,307.5912437179497L146.91962552083334,307.5845220266048L147.82097291666665,295.7066113500761L148.72232031250002,255.57193963618118L149.62366770833333,-21.227667482119458L150.52501510416664,-41.50581114624295L151.4263625,228.5390957321353L152.32770989583332,316.5278533733937L153.22905729166666,332.0573833792434L154.13040468749998,319.02221967598524L155.03175208333334,332.3436390089402L155.93309947916666,335.2803539333319L156.83444687499997,335.4508525633457L157.73579427083334,337.09988263947815L158.63714166666665,337.26870634722144L159.5384890625,337.712926880303L160.43983645833333,338.2228463425792L161.34118385416667,337.58171776007583L162.24253124999998,329.86279790995394L163.14387864583333,138.1194978221167L164.04522604166667,93.71002018240615L164.94657343749998,-228.49428743707614L165.84792083333332,-132.0334181653023L166.74926822916666,32.02793000590392L167.650615625,158.32110661441325L168.5519630208333,287.0129259300731L169.45331041666665,-51.38201094117615L173.0587,-274.87395771664234L173.96004739583333,149.73040003607386L174.86139479166664,295.6500600336141L175.7627421875,302.0010765035251L176.66408958333332,309.0071525981613L177.56543697916663,284.6605319797374L178.466784375,332.5466965189764L179.36813177083332,337.5729890498034L180.26947916666666,338.28155250567323L181.1708265625,338.11902110136106L182.07217395833334,338.12961020610527L182.97352135416665,335.12662137150545L183.87486875,333.50395585079167L184.77621614583333,338.3792318960233L185.67756354166664,337.54300563780015L186.57891093749998,337.9201025951581L187.48025833333332,334.3427453726537L188.38160572916667,338.2089314582692L189.28295312499998,338.226547191972L190.18430052083332,324.97393082622074L191.08564791666666,338.1533186758381L191.98699531249997,338.5059253955562L192.88834270833334,338.00045296879506L193.78969010416665,338.62050355524224L194.6910375,338.68276445895134L195.59238489583333,338.53342753672877L196.49373229166665,338.4370081197205L197.3950796875,329.471463597619L198.2964270833333,338.64631152216424L199.19777447916667,338.7729491565762L200.09912187499998,338.2747833719488L201.00046927083332,338.9065395060945L201.90181666666666,338.18767074029455L202.8031640625,339.0306489429742L203.70451145833331,339.0234078778978L204.60585885416666,338.81905850842776L205.50720625,338.9786391170548L206.4085536458333,339.04611309600585L207.30990104166668,338.7601912818929L208.2112484375,333.0506109104892L209.11259583333333,338.7569753417494L210.01394322916664,338.5009356948514L210.91529062499998,338.94722744877635L211.81663802083332,339.075154622071L212.71798541666664,339.0562765085289L213.6193328125,339.2142050566119L214.52068020833332,339.25489085063526L215.42202760416666,339.19991235219203L216.323375,339.21220130364526L217.2247223958333,339.2839085695643L218.12606979166665,339.1275245631543L219.0274171875,339.32514484989423L219.92876458333333,338.2680702752379L220.83011197916665,339.3578507841041L221.731459375,339.22211847990474L222.63280677083333,339.3941619953768L223.53415416666664,339.3060371736785L224.43550156249998,339.3521088810332L225.33684895833332,339.23643851526066L226.23819635416666,339.4144881328522L227.13954374999997,339.3801758615511L228.04089114583334,339.5186896901193L228.94223854166665,339.5449997985317L229.84358593749997,339.4706526048387L230.74493333333334,339.4019723690082L231.64628072916665,339.53165486737424L232.547628125,339.3059972945768L233.4489755208333,339.5036259181117L234.35032291666667,339.57660398661136L235.25167031249998,339.6188857182189L236.15301770833332,335.7902443457453L237.05436510416666,339.26281450154255L237.95571249999998,339.4943261803575L238.85705989583332,339.55163812192694L239.75840729166666,339.49019001275354L240.6597546875,339.65061762255954L241.5611020833333,339.37869174015503L242.46244947916665,339.5671786812547L243.363796875,339.6130170442968L244.2651442708333,339.67632675119074L245.16649166666664,339.711768314424L246.06783906249998,339.72682710154385L246.96918645833333,339.78419619742925L247.87053385416664,339.72621065142147L248.77188125,339.7367504659398L249.67322864583332,339.61303496410864L250.57457604166663,339.7414240560067L251.4759234375,339.84262887926997L252.3772708333333,339.8239966582061L253.27861822916665,339.7731351613331L254.17996562499997,292.96201881101223L255.08131302083333,321.71862725909085L255.98266041666665,331.2433525913868L256.8840078125,338.9236715337967L257.7853552083333,338.1126086449469L258.68670260416667,338.9770737763676L259.58804999999995,339.3398599805743L260.48939739583335,339.14624814517737L261.39074479166663,339.4710710775673L262.2920921875,339.4896677598196L263.1934395833333,339.4991174309636L264.09478697916666,339.4800018476846L264.996134375,339.2375630371709L265.8974817708333,339.4025856820892L266.7988291666667,335.25793878412077L267.70017656249996,338.68121570590773L268.6015239583333,338.7035220470527L269.50287135416664,329.5815374815276L270.40421875,338.69917041197476L271.3055661458333,338.29227482724417L272.2069135416666,339.2773659903916L273.1082609375,339.2156387275065L274.00960833333335,339.31661407404243L274.91095572916663,339.2060110185195L275.81230312499997,337.4248854575573L276.71365052083337,339.358507328194L277.61499791666665,339.46691024336377L278.5163453125,339.53152018945974L279.41769270833333,338.79928165401014L280.3190401041666,339.5360347358248L281.2203875,335.29266901247246L282.1217348958333,339.4688761799409L283.02308229166664,332.8756241626099L283.9244296875,339.4504418073513L284.82577708333326,339.4628215181394L285.72712447916666,339.4966079697335L286.628471875,325.999877097681L287.5298192708333,339.2449307871522L288.4311666666666,339.5024988178113L289.3325140625,339.5656661975665L290.2338614583333,339.3757368190456L291.13520885416665,339.49105807078575L292.03655625,339.65865308965493L292.9379036458333,339.69681214723386L293.83925104166667,339.6381026322326L294.7405984375,339.68976257060257L295.6419458333333,333.7224479483186L296.54329322916664,339.487893655473L297.44464062500003,339.6297137537878L298.3459880208333,339.55081703356944L299.24733541666666,339.5948577429678L300.1486828125,339.65880259331306L301.0500302083333,339.66811487923286L301.9513776041667,339.6776339520463L302.852725,339.5947126655462L303.7540723958333,339.72428072636075L304.65541979166665,339.7714850775548L305.55676718749993,339.7549967019915L306.4581145833333,339.76632589066793L307.35946197916667,338.5699927194357L308.26080937499995,339.805241705769L309.1621567708333,339.80303056428437L310.0635041666667,339.7559929919627L310.9648515625,339.75815673404094L311.8661989583333,339.7931561033558L312.76754635416665,339.79687268092874L313.66889374999994,339.86168253821114L314.57024114583334,339.8154839310857L315.4715885416667,339.8559508197815L316.37293593749996,339.77448688239264L317.2742833333333,339.7378757613671L318.1756307291667,339.85487064618263L319.076978125,339.80252730549154L319.9783255208333,339.7992329822861L320.87967291666666,339.8577042540334L321.78102031249995,339.8598122384237L322.68236770833335,339.7147526721548L323.5837151041667,339.78138403319025L324.48506249999997,339.8698143296669L325.3864098958333,336.8005769175426L326.28775729166665,339.86474420467465L327.1891046875,339.80652217731284L328.09045208333333,339.8583642789501L328.9917994791666,339.88166609357603L329.89314687499996,339.51843868383384L330.79449427083335,339.75898981191284L331.69584166666664,339.8509101958704L332.5971890625,339.896745013626L333.4985364583333,339.7668951132766L334.3998838541666,339.7449931496605L335.30123125,339.87207667368347L336.20257864583334,339.87218109848635L337.1039260416666,339.7466843157892L338.00527343749997,339.8351078439916L338.9066208333333,339.90258906392177L339.80796822916665,339.9280705206988L340.709315625,339.8835906684771L341.61066302083333,339.27393655954L342.5120104166666,339.90602227641233L343.4133578125,339.885654304556L344.31470520833335,339.93622644158944L345.21605260416663,339.95500739279436L346.1174,339.9128606184269L347.0187473958333,339.92083205549915L347.92009479166666,339.9578761956713L348.8214421875,339.74571178998093L349.7227895833333,339.96306101605404L350.6241369791666,339.9673449898759L351.525484375,339.94787199874276L352.4268317708333,339.9349129236779L353.32817916666664,339.97880228157186L354.2295265625,339.9550984529414L355.13087395833327,339.9522143301294L356.03222135416667,339.98062000368594L356.93356875,339.9813707449643L357.8349161458333,339.97406887285246L358.73626354166663,339.96512766025484L359.63761093749997,339.9830923360973L360.5389583333333,339.98365653084505L361.44030572916665,339.9934423596107L362.341653125,339.855181449634L363.2430005208333,339.9996965028669L364.1443479166667,339.9985599914423L365.0456953125,340.0058290320523L365.9470427083333,339.9869600717954L366.84839010416664,339.9874226779695L367.7497375,339.98830880621966L368.6510848958333,339.97288476864213L369.55243229166666,340.01850001498605L370.4537796875,339.9981191941519L371.3551270833333,339.96868564534424L372.2564744791666,340.0166766848733L373.15782187499997,339.77339600847444L374.0591692708333,339.9909484116949L374.96051666666665,339.982027869192L375.86186406249993,339.9395341509373L376.76321145833333,339.9978268261904L377.66455885416667,340.0114365580209L378.56590624999995,340.00286755753444L379.4672536458333,339.99804504394723L380.36860104166664,340.0034016710633L381.2699484375,339.9747370411848L382.1712958333333,339.9600109523464L383.07264322916666,339.97632590968254L383.97399062499994,339.93806612299335L384.87533802083334,340.0001782965614L385.7766854166667,339.9897695502113L386.67803281249996,340.0144989120551L387.5793802083333,339.961683124334L388.48072760416665,339.9574458408612L389.382075,339.9948603023251L390.2834223958333,339.9395953662178L391.18476979166667,340.01850055215067L392.08611718749995,340.01586137640714L392.9874645833333,339.9894705858682L393.8888119791667,339.99271559736115L394.790159375,339.92180793321467L395.6915067708333,340.0146243507381L396.5928541666666,340.021445954703L397.4942015625,340.01952560191586L398.39554895833334,339.9967598023815L399.2968963541666,339.9980816141148L400.19824374999996,339.8541428955502L401.0995911458333,340.0190055513569L402.00093854166664,339.99555032251436L402.9022859375,339.80634964003565L403.8036333333333,339.9100273543615L404.7049807291666,340.00286695591006L405.606328125,340.03616484553544L406.50767552083335,340.0109772392943L407.40902291666663,340.0157348848815L408.31037031249997,340.03295534062414L409.2117177083333,340.0133897315665L410.11306510416665,339.9920341288327L411.0144125,340.0095315573987L411.91575989583333,340.0225435002058L412.8171072916666,340.03066416161056L413.71845468749996,340.0074909549389L414.61980208333335,339.89401101758307L415.52114947916664,337.822957619149L416.422496875,340.031093023103L417.32384427083326,340.0195704121888L418.22519166666666,339.92394743842505L419.1265390625,340.00860142462255L420.0278864583333,340.0352377101379L420.9292338541666,340.00219300768634L421.83058124999997,340.0194247438861L422.7319286458333,339.9833042367981L423.63327604166665,339.87833017234215L424.5346234375,340.00256648750604L425.4359708333333,339.9712863386141L426.3373182291666,340.0238163332687L427.238665625,340.00458326134316L428.1400130208333,340.02942302126047L429.04136041666663,340.01911244711704L429.9427078125,339.9085667178028L430.8440552083333,339.8941157861713L431.74540260416666,340.01268084615566L432.64675,339.9791781464025L433.5480973958333,340.0273751993081L434.4494447916666,340.025589470719L435.3507921875,340.0183012855618L436.2521395833333,339.9629996503674L437.15348697916664,340.03042650923766L438.054834375,340.03185473328296L438.9561817708333,340.0235928083254L439.85752916666667,339.8295037558766L440.75887656249995,340.0347479771503L441.6602239583333,340.0243625222583L442.56157135416663,339.97630403633906L443.46291875,340.038218662245L444.3642661458333,340.04853864751266L445.26561354166665,340.0200791070876L446.16696093749994,340.0342221037268L447.0683083333333,340.03030053339006L447.9696557291667,340.04880386717406L448.87100312499996,340.0306989376483L449.7723505208333,340.02702194910813L450.67369791666664,340.00571416476913L451.5750453125,340.0283875505016L452.4763927083333,340.0390206167986L453.37774010416666,340.0480892878182L454.27908749999995,340.0313063526617L455.1804348958333,340.040113811268L456.0817822916667,340.02136574528134L456.98312968749997,340.0446852648533L457.8844770833333,340.03653946414414L458.78582447916665,340.012239339808L459.68717187499993,340.03751549226575L460.58851927083333,339.84288710504796L461.48986666666667,340.0374108955702L462.39121406249996,340.04608367626196L463.2925614583333,340.03012815726225L464.19390885416664,340.0079936550805L465.09525625,340.003587744889L465.9966036458333,340.0388594244383L466.8979510416666,340.0332034677072L467.79929843749994,340.01490715716926L468.70064583333334,340.0416462452503L469.6019932291666,340.03499468611875L470.50334062499996,338.6466943271618L471.4046880208333,340.04463073190067L472.30603541666665,340.0332737825565L473.2073828125,340.0217398589553L474.1087302083333,340.0245267442271L475.0100776041666,340.03226152805263L475.91142499999995,340.0453663466232L476.81277239583335,340.0362418534559L477.71411979166663,340.00622427778256L478.6154671875,340.0378129525479L479.5168145833333,340.0504429498208L480.4181619791666,339.9779455469699L481.319509375,340.0339930352446L482.22085677083334,340.0214633695801L483.1222041666666,340.03228207997114L484.02355156249996,340.0400235353813L484.9248989583333,340.02935195438073L485.82624635416664,340.0176829661065L486.72759375,340.0380653124882L487.62894114583327,340.0301918005269L488.5302885416666,340.0409622627914L489.4316359375,340.04359658256675L490.3329833333333,340.00525980944366L491.23433072916663,340.04124300651046L492.13567812499997,340.03000818691515L493.03702552083325,339.9521850224275L493.93837291666665,340.04373938241037L494.8397203125,339.6074873427389L495.7410677083333,340.02605247439493L496.6424151041666,339.9974319242455L497.5437625,339.984072811942L498.4451098958333,340.0031950775489L499.34645729166664,339.99710926019924L500.2478046875,339.9727009723944L501.14915208333326,340.0071119745534L502.05049947916666,339.9695216239051L502.951846875,340.0537094371554L503.8531942708333,340.03834674377794L504.7545416666666,340.05497135503316L505.6558890625,340.036043467817L506.5572364583333,340.0428594315534L507.45858385416665,340.03378354104126L508.35993124999993,340.04727867417085L509.2612786458333,340.03976441791L510.16262604166667,340.0168027574105L511.06397343749995,340.0414744922335L511.9653208333333,340.01600118961545L512.8666682291666,340.0439571596922L513.768015625,340.0271856661422L514.6693630208333,339.7150290326105L515.5707104166667,340.04314137852117L516.4720578125,340.0347621153232L517.3734052083333,340.0374792766268L518.2747526041667,340.0412701870404L519.1760999999999,339.98712354173375L520.0774473958334,340.03523474498917L520.9787947916667,340.02721343755326L521.8801421874999,340.01172808800555L522.7814895833333,340.0237524966248L523.6828369791666,340.0150847652805L524.584184375,340.0153971587392L525.4855317708333,340.0069830120705L526.3868791666666,340.01040898358195L527.2882265625,340.04459931851346L528.1895739583333,339.9738615917674L529.0909213541667,340.03822159516386L529.99226875,340.0295222463098L530.8936161458333,340.02685624456495L531.7949635416666,340.04456420943364L532.6963109375,340.04464603034916L533.5976583333334,340.031625417705L534.4990057291666,340.05390707076384L535.4003531249999,340.0267190849499L536.3017005208333,340.03756880048303L537.2030479166666,340.04280577955075L538.1043953125,340.0275255624296L539.0057427083333,340.0107399844232L539.9070901041666,340.04817290286354L540.8084375,340.04974464655305L541.7097848958333,340.02538134091384L542.6111322916666,340.02100339551265L543.5124796874999,340.01472361876057L544.4138270833332,340.0323541030039L545.3151744791667,340.03379213567524L546.216521875,340.0251920226138L547.1178692708334,340.03901111972806L548.0192166666667,340.0147641639464L548.9205640624999,340.0457625270199L549.8219114583333,340.0388111225953L550.7232588541666,340.04247640094667L551.6246062499999,340.03613611797135L552.5259536458333,340.032438846095L553.4273010416667,340.039324147041L554.3286484375,340.0438326234458L555.2299958333333,340.0400954724677L556.1313432291666,340.0207832547065L557.032690625,340.025292418682L557.9340380208333,340.02432657520166L558.8353854166667,340.03095039515205L559.7367328124999,340.0375892986851L560.6380802083332,340.0455169353539L561.5394276041666,340.04069730096904L562.440775,340.0500417845364L563.3421223958334,340.0322380109854L564.2434697916666,340.0275927080076L565.1448171874999,340.0422026940842L566.0461645833333,340.0365419243581L566.9475119791666,340.0447250902385L567.848859375,340.017873659548L568.7502067708333,339.9986640509732L569.6515541666665,340.0380061921497L570.5529015625,340.03765591784173L571.4542489583333,340.0343483374134L572.3555963541667,340.04698529633987L573.25694375,340.0436997826343L574.1582911458333,340.02980565436536L575.0596385416666,340.0266759613739L575.9609859374999,340.05044192920803L576.8623333333333,340.0566566338376L577.7636807291666,340.0511411241691L578.665028125,340.04902437325217L579.5663755208334,340.04972676971437L580.4677229166666,340.0419380545606L581.3690703125,340.01421464453614L582.2704177083333,339.97425114355264L583.1717651041666,340.02060018900266L584.0731125,340.0333741786247L584.9744598958333,340.01677071016906L585.8758072916665,340.0409671402462L586.7771546875,340.0436326585429L587.6785020833333,340.02325242858984L588.5798494791667,340.0256554882513L589.481196875,340.04131212885426L590.3825442708333,340.0455436216924L591.2838916666666,340.04798064090136L592.1852390624999,340.0307345086897L593.0865864583333,339.9633090357042L593.9879338541666,340.02546002478795L594.8892812500001,340.0425693626565L595.7906286458333,340.0438668408323L596.6919760416666,339.94965828598305L597.5933234375,340.03872546632437L598.4946708333333,340.0484304625574L599.3960182291667,340.01019663166284L600.297365625,340.03035665634997L601.1987130208332,340.03107233152167L602.1000604166666,340.04793796854364L603.0014078124999,340.0474937119131L603.9027552083334,340.0395529039677L604.8041026041667,340.05173601250345L605.70545,340.0398546830534L606.6067973958333,340.03696077310195L607.5081447916666,340.0354196907692L608.4094921875,340.04286317021916L609.3108395833333,339.9308842319719L610.2121869791666,340.0281694401777L611.1135343749999,340.0240707236913L612.0148817708333,340.01613543779825L612.9162291666667,340.0514433329865L613.8175765625,340.03938845638976L614.7189239583333,340.04889327285406L615.6202713541667,340.0494736792302L616.5216187499999,340.0353049953787L617.4229661458332,340.0480408570557L618.3243135416666,340.03326893733157L619.2256609374999,340.0407868785417L620.1270083333334,340.0328379916404L621.0283557291667,340.01482759234517L621.929703125,340.005686318155L622.8310505208333,340.03147997501145L623.7323979166666,340.03130713692207L624.6337453125,340.02236623587993L625.5350927083333,338.7891718720031L626.4364401041666,340.0166425641764L627.3377874999999,340.03985050391265L628.2391348958332,339.96665825713416L629.1404822916667,340.05428898406814L630.0418296875,340.0255312528171L630.9431770833334,340.03522178857844L631.8445244791666,340.0402150667996L632.7458718749999,340.0559261758954L633.6472192708333,340.034811695618L634.5485666666666,340.0332837523319L635.4499140624999,340.0457301467364L636.3512614583334,340.02349538814923L637.2526088541666,340.03839529271664L638.15395625,340.01483378048164L639.0553036458333,340.05091623482764L639.9566510416666,340.0217721640358L640.8579984375,340.05866003227555L641.7593458333333,340.0316901782721L642.6606932291666,339.9919151361252L643.5620406249999,340.0454897763105L644.4633880208332,340.0176294215368L645.3647354166667,340.04636148706214L646.2660828125,339.9364000317093L647.1674302083334,340.03375613490215L648.0687776041666,340.04520820535794L648.9701249999999,340.0284116477066L649.8714723958333,340.05175858416095L650.7728197916666,340.03270295919725L651.6741671875,340.01418864576834L652.5755145833333,340.01884208141854L653.4768619791666,340.00374577872134L654.378209375,339.95797254151825L655.2795567708333,340.0092100321414L656.1809041666667,340.0260347909355L657.0822515625,340.04245184178006L657.9835989583332,340.01589167249193L658.8849463541666,340.03081757582714L659.7862937499999,340.0392865670039L660.6876411458333,340.02158338290036L661.5889885416667,340.0281515955689L662.4903359375,340.0363840946483L663.3916833333333,340.03606582460867L664.2930307291666,340.0489177997908L665.194378125,340.0353453471852L666.0957255208333,340.0396486159604L666.9970729166666,340.0486733898869L667.8984203125,340.0208415478115L668.7997677083332,340.04918336323755L669.7011151041665,340.0360526640754L670.6024625,340.02134202409155L671.5038098958333,340.0316448952943L672.4051572916667,340.0476366406762L673.3065046875,340.03259597749076L674.2078520833333,340.03832498861067L675.1091994791666,340.04708861458363L676.0105468749999,340.01500318071743L676.9118942708333,339.16246260975566L677.8132416666666,340.05081593544907L678.7145890625,340.0447568044379L679.6159364583333,340.021943197252L680.5172838541666,340.01402122229837L681.41863125,340.0380129067075L682.3199786458333,340.0310499854733L683.2213260416667,340.0248089705205L684.1226734374999,340.03448866629975L685.0240208333332,340.03340422761374L685.9253682291666,340.01414066622414L686.826715625,340.02499672029984L687.7280630208334,340.04984059489817L688.6294104166667,340.0465290716815L689.5307578124999,339.9913881561426L690.4321052083333,340.03275036934696L691.3334526041666,340.04030409646435L692.2348,340.04477897859357L693.1361473958333,340.0485077068303L694.0374947916666,340.0469238554502L694.9388421875,340.045700527479L695.8401895833333,340.0481774257897L696.7415369791667,340.0421474091011L697.642884375,340.0496957645723L698.5442317708333,339.93419123226244L699.4455791666666,340.033018221115L700.3469265624999,340.0361176395083L701.2482739583332,339.95158453683774L702.1496213541666,340.0389535356804L703.05096875,340.0290934922503L703.9523161458334,340.04138285194864L704.8536635416666,340.03895399764195L705.7550109375,340.04738292708106L706.6563583333333,339.99404144857243L707.5577057291666,340.01394941413145L708.459053125,340.0327598771608L709.3604005208333,340.0254958321818L710.2617479166665,340.04652174475603L711.1630953124999,340.03400535780105L712.0644427083333,340.0410414193704L712.9657901041667,340.05511048067075L713.8671375,340.0334548822378L714.7684848958334,340.0246956932446L715.6698322916666,340.0305165595152L716.5711796874999,340.0164881186037L717.4725270833333,340.00282325219627L718.3738744791666,340.0453992425848L719.2752218749999,340.0388416872624L720.1765692708334,340.05713785813754L721.0779166666666,340.03608854667226L721.9792640625,340.03928220522715L722.8806114583333,340.0424740803955L723.7819588541666,340.0371779057862L724.68330625,340.0269988187994L725.5846536458332,340.0335065252447L726.4860010416666,340.0438046264256L727.3873484374999,340.02818690877126L728.2886958333333,340.05102474208167L729.1900432291667,340.04571608376654L730.091390625,340.03631439216673L730.9927380208333,340.0455923210372L731.8940854166666,340.0157914805463L732.7954328124999,340.0416455576796L733.6967802083333,340.0394434083308L734.5981276041666,340.03721444372394L735.499475,340.03902281917357L736.4008223958332,340.0511718177557L737.3021697916666,340.0255115173888L738.2035171875,340.01497086489366L739.1048645833333,340.04301070785476L740.0062119791667,340.0339497505192L740.907559375,340.02849042827035L741.8089067708332,340.03486187753714L742.7102541666666,340.0512315289753L743.6116015624999,340.01355752030844L744.5129489583333,340.04605140341135L745.4142963541667,340.0445698281756L746.3156437499999,340.00598962278826L747.2169911458333,340.04279021251995L748.1183385416666,340.03969251305347L749.0196859375,340.00011935885885L749.9210333333333,340.01850057363725L750.8223807291666,340.0120746236477L751.7237281249999,340.0383138048432L752.6250755208332,340.04443049841547L753.5264229166667,340.04008932730443L754.4277703125,340.0445319688129L755.3291177083333,340.02548500294296L756.2304651041667,340.03470676588034L757.1318124999999,340.0482760814445L758.0331598958333,340.03263670531254L758.9345072916666,340.04793652894244L759.8358546874999,340.0568707154268L760.7372020833333,338.8578238314878L761.6385494791667,340.0305929443247L762.539896875,339.99605678280835L763.4412442708333,340.0339873090697L764.3425916666666,340.03080312609876L765.2439390625,340.0420520301505L766.1452864583333,340.02668431965543L767.0466338541665,340.0460023710245L767.9479812499999,340.03481731435994L768.8493286458332,340.0437597839228L769.7506760416667,340.0400081080133L770.6520234375,340.0445792607864L771.5533708333334,339.907127052151L772.4547182291666,340.03897959890793L773.3560656249999,340.0085766505901L774.2574130208333,340.0438367058969L775.1587604166666,340.0195972167035L776.0601078125,339.8887679685551L776.9614552083333,339.95709803751055L777.8628026041665,340.0117831581228L778.76415,340.0365118431392L779.6654973958333,340.0563016861974L780.5668447916667,340.0286794242716L781.4681921875,340.0213319361399L782.3695395833333,339.9980336990304L783.2708869791666,339.8344324346801L784.1722343749999,340.04150310162134L785.0735817708332,340.05678390962356L785.9749291666666,340.0462546987349L786.8762765625,340.0307114965572L787.7776239583334,340.0359166969658L788.6789713541666,340.04042463620596L789.58031875,340.02691449469677L790.4816661458333,340.05113117588024L791.3830135416666,340.04492197181645L792.2843609375,340.02691981262655L793.1857083333332,340.0398071547275L794.0870557291665,340.03680096662634L794.988403125,340.0266776158409L795.8897505208333,340.04636190605055L796.7910979166667,340.02049438905834L797.6924453125,340.01583978238926L798.5937927083332,340.02381871827964L799.4951401041666,340.03757249617564L800.3964874999999,340.01004323893284L801.2978348958333,340.03304858165956L802.1991822916666,340.03066843744097L803.1005296875,340.0227717629411L804.0018770833333,340.0345813271974L804.9032244791666,340.0280823013324L805.804571875,340.0260899255125L806.7059192708333,340.01099569627075L807.6072666666666,340.0396630119723L808.5086140625,340.05037936027264L809.4099614583332,340.034270523746L810.3113088541666,340.0393608461281L811.21265625,340.03444612286154L812.1140036458333,340.00366251820464L813.0153510416667,340.0448117993521L813.9166984374999,340.02270723872647L814.8180458333333,340.0597471567847L815.7193932291666,340.0171511086691L816.6207406249999,340.04462445781786L817.5220880208333,339.9705553435073L818.4234354166666,339.8722321935854L819.3247828124998,340.0454487369332L820.2261302083333,340.0482747707628L821.1274776041666,339.82329022226594L822.028825,340.0525521911763L822.9301723958333,340.0401279064677L823.8315197916667,340.04028741213114L824.7328671874999,340.04392036391545L825.6342145833332,340.0440973918889L826.5355619791666,340.01758365511085L827.4369093749999,340.0495363770851L828.3382567708334,340.04112972923457L829.2396041666667,340.035033630554L830.1409515624999,340.0468436890017L831.0422989583333,340.0301483653954L831.9436463541666,340.0334884120536L832.84499375,340.0296565052359L833.7463411458333,340.0398310048368L834.6476885416665,340.0460803565846L835.5490359374999,340.0512000941015L836.4503833333333,340.04744792400055L837.3517307291667,340.0456866901183L838.253078125,340.04641345236786L839.1544255208333,340.0226497513684L840.0557729166666,340.0533708730363L840.9571203124999,340.04256741812054L841.8584677083333,340.0368334865727L842.7598151041666,340.0373958871906L843.6611624999999,340.0505371040361L844.5625098958334,340.0452514148803L845.4638572916666,340.05459562986533L846.3652046875,340.05138123675596L847.2665520833333,339.05764210992237L848.1678994791666,340.0283419774549L849.069246875,340.0350665909753L849.9705942708333,340.0476517779753L850.8719416666665,340.0281590084407L851.7732890624999,340.033227629372L852.6746364583332,340.0401543564538L853.5759838541667,340.02924108360236L854.47733125,339.9515125782647L855.3786786458334,340.05011339932406L856.2800260416666,340.0283496481657L857.1813734374999,340.028512161951L858.0827208333333,340.0386138864887L858.9840682291666,340.0382837021377L859.885415625,340.05398418611725L860.7867630208332,340.04559607044627L861.6881104166666,340.0489115042214L862.5894578125,340.03982079870894L863.4908052083333,340.03210141002154L864.3921526041667,340.0045472068536L865.2935,340.01623225635007L866.1948473958332,340.0158830348848L867.0961947916666,340.0208277749105L867.9975421874999,340.0566606195991L868.8988895833332,339.9818170428204L869.8002369791667,340.0231912240526L870.701584375,340.0500857890624L871.6029317708333,340.0414510181394L872.5042791666666,340.03082597708186L873.4056265625,340.04384752439245L874.3069739583333,340.00931069679194L875.2083213541666,340.0480419743581L876.10966875,340.0035577281298L877.0110161458332,340.0443360219014L877.9123635416667,340.0231166548595L878.8137109375,340.0531205006051L879.7150583333333,340.02297521941404L880.6164057291667,340.03395979549765L881.5177531249999,340.04639703661695L882.4191005208332,340.0105730121715L883.3204479166666,340.02855985142634L884.2217953124999,340.0309318629725L885.1231427083333,339.96829388044074L886.0244901041667,339.98979191774623L886.9258375,340.03983379809284L887.8271848958333,339.97862705847155L888.7285322916666,340.0442273320114L889.6298796875,340.0123704509494L890.5312270833333,340.02823936826843L891.4325744791666,340.00679246903513L892.3339218749999,339.95974907384897L893.2352692708332,339.96001673223776L894.1366166666666,340.04749820260935L895.0379640625,340.01208113408296L895.9393114583333,340.0311954281669L896.8406588541667,340.0414860412729L897.7420062499999,340.04241329484665L898.6433536458333,340.04744994373954L899.5447010416666,340.0439113073199L900.4460484374999,340.0355554752428L901.3473958333333,340.04788408018857L902.2487432291665,340.0083464433189L903.150090625,340.04044706820065L904.0514380208333,340.0394025086163L904.9527854166666,340.0370301103116L905.8541328125,340.03996833634454L906.7554802083333,340.0402333518834L907.6568276041666,340.03953945336553L908.5581749999999,340.0369268672709L909.4595223958332,340.0396227675987L910.3608697916666,340.04583320714113L911.2622171875,340.033270495109L912.1635645833334,340.04009956566216L913.0649119791666,340.0343702000136L913.9662593749999,340.0383874715997L914.8676067708333,340.0524342405682L915.7689541666666,340.0299434370914L916.6703015625,340.04118532577314L917.5716489583333,340.0416358242566L918.4729963541665,340.0444866106321L919.3743437499999,340.047663079919L920.2756911458333,340.04559178387257L921.1770385416667,340.041078687852L922.0783859375,340.03634161566987L922.9797333333333,340.0340690225523L923.8810807291666,340.01177853850703L924.7824281249999,340.03380570445364L925.6837755208333,340.04909220640087L926.5851229166666,340.0514624345605L927.4864703124999,340.0195902657933L928.3878177083333,340.0373063203612L929.2891651041666,340.03109604196817L930.1905125,339.9548304937404L931.0918598958333,340.03678452938885L931.9932072916666,340.00688215404074L932.8945546875,340.04470704150714L933.7959020833332,340.0397522994761L934.6972494791665,340.03816346320826L935.5985968749999,339.8532300809615L936.4999442708333,339.99194708667704L937.4012916666667,340.0102800640722L938.3026390625,340.0455574805397L939.2039864583332,340.0382813923298L940.1053338541666,339.98198551913305L941.0066812499999,340.0330220672137L941.9080286458333,340.0255120545534L942.8093760416666,340.03774128404376L943.7107234375,340.0420678872502L944.6120708333333,340.0409930208378L945.5134182291666,340.04247269451076L946.414765625,340.0526165757281L947.3161130208333,340.0480242908987L948.2174604166667,339.188879420549L949.1188078124999,340.03263724247716L950.0201552083332,340.0315613017355L950.9215026041666,340.0327898294602L951.8228499999999,340.03300463085003L952.7241973958334,340.036227274808L953.6255447916667,340.015778137377L954.5268921874999,340.01148099227856L955.4282395833333,340.04011087834914L956.3295869791666,340.0440848222367L957.230934375,340.0287160266691L958.1322817708333,339.95975811970123L959.0336291666666,340.03107793952034L959.9349765624999,340.06107427570447L960.8363239583332,340.0344835847224L961.7376713541667,340.046859567588L962.63901875,340.0396894512151L963.5403661458333,340.048766544976L964.4417135416667,340.02548815072765L965.3430609374999,340.0355700538907L966.2444083333332,340.0388956400772L967.1457557291666,340.03955271058845L968.0471031249999,340.0432134660137L968.9484505208333,339.9937808162969L969.8497979166666,340.05175875605363L970.7511453125,340.044031277667L971.6524927083333,340.03142912700815L972.5538401041666,339.48072177720013L973.4551875,339.93990750183747L974.3565348958333,340.0237728229342L975.2578822916665,340.048247815842L976.1592296874999,340.0261350903141L977.0605770833332,340.0061325300648L977.9619244791667,340.019675105574L978.863271875,340.0471767418118L979.7646192708334,340.03540316758534L980.6659666666666,340.03316101021534L981.5673140624999,340.0392078508999L982.4686614583333,340.0533695838412L983.3700088541666,340.0466436381525L984.2713562499999,340.03248857679586L985.1727036458333,340.04197454952515L986.0740510416665,340.0312536675554L986.9753984375,340.04872616093957L987.8767458333333,340.04657241012336L988.7780932291666,340.0356595884902L989.679440625,340.0184979307873L990.5807880208333,340.0379303337615" style="fill: none;" fill="none"></path></g></g></g></g></g></g><g transform="translate(61, 377)" clip-path="url(#clip_1)"><clipPath id="clip_1"><rect width="1081" height="21"></rect></clipPath><g><g><line x1="0" y1="0" x2="0" y2="5" style="visibility: inherit;" fill="rgb(0, 0, 0)" stroke="rgb(204, 204, 204)" stroke-width="1px"></line><line x1="90.13473958333333" y1="0" x2="90.13473958333333" y2="5" style="visibility: inherit;" fill="rgb(0, 0, 0)" stroke="rgb(204, 204, 204)" stroke-width="1px"></line><line x1="180.26947916666666" y1="0" x2="180.26947916666666" y2="5" style="visibility: inherit;" fill="rgb(0, 0, 0)" stroke="rgb(204, 204, 204)" stroke-width="1px"></line><line x1="270.40421875" y1="0" x2="270.40421875" y2="5" style="visibility: inherit;" fill="rgb(0, 0, 0)" stroke="rgb(204, 204, 204)" stroke-width="1px"></line><line x1="360.5389583333333" y1="0" x2="360.5389583333333" y2="5" style="visibility: inherit;" fill="rgb(0, 0, 0)" stroke="rgb(204, 204, 204)" stroke-width="1px"></line><line x1="450.67369791666664" y1="0" x2="450.67369791666664" y2="5" style="visibility: inherit;" fill="rgb(0, 0, 0)" stroke="rgb(204, 204, 204)" stroke-width="1px"></line><line x1="540.8084375" y1="0" x2="540.8084375" y2="5" style="visibility: inherit;" fill="rgb(0, 0, 0)" stroke="rgb(204, 204, 204)" stroke-width="1px"></line><line x1="630.9431770833334" y1="0" x2="630.9431770833334" y2="5" style="visibility: inherit;" fill="rgb(0, 0, 0)" stroke="rgb(204, 204, 204)" stroke-width="1px"></line><line x1="721.0779166666666" y1="0" x2="721.0779166666666" y2="5" style="visibility: inherit;" fill="rgb(0, 0, 0)" stroke="rgb(204, 204, 204)" stroke-width="1px"></line><line x1="811.21265625" y1="0" x2="811.21265625" y2="5" style="visibility: inherit;" fill="rgb(0, 0, 0)" stroke="rgb(204, 204, 204)" stroke-width="1px"></line><line x1="901.3473958333333" y1="0" x2="901.3473958333333" y2="5" style="visibility: inherit;" fill="rgb(0, 0, 0)" stroke="rgb(204, 204, 204)" stroke-width="1px"></line><line x1="991.4821354166666" y1="0" x2="991.4821354166666" y2="5" style="visibility: inherit;" fill="rgb(0, 0, 0)" stroke="rgb(204, 204, 204)" stroke-width="1px"></line><line x1="1081.616875" y1="0" x2="1081.616875" y2="5" style="visibility: inherit;" fill="rgb(0, 0, 0)" stroke="rgb(204, 204, 204)" stroke-width="1px"></line></g><g transform="translate(0, 8)"><text x="0" y="0" dx="0em" dy="0.95em" style="text-anchor: middle; visibility: hidden; font-family: Roboto, sans-serif; font-size: 12px; font-weight: 200;" fill="rgb(50, 49, 63)" stroke="none" stroke-width="1px">-100</text><text x="90.13473958333333" y="0" dx="0em" dy="0.95em" style="text-anchor: middle; visibility: inherit; font-family: Roboto, sans-serif; font-size: 12px; font-weight: 200;" fill="rgb(50, 49, 63)" stroke="none" stroke-width="1px">0</text><text x="180.26947916666666" y="0" dx="0em" dy="0.95em" style="text-anchor: middle; visibility: inherit; font-family: Roboto, sans-serif; font-size: 12px; font-weight: 200;" fill="rgb(50, 49, 63)" stroke="none" stroke-width="1px">100</text><text x="270.40421875" y="0" dx="0em" dy="0.95em" style="text-anchor: middle; visibility: inherit; font-family: Roboto, sans-serif; font-size: 12px; font-weight: 200;" fill="rgb(50, 49, 63)" stroke="none" stroke-width="1px">200</text><text x="360.5389583333333" y="0" dx="0em" dy="0.95em" style="text-anchor: middle; visibility: inherit; font-family: Roboto, sans-serif; font-size: 12px; font-weight: 200;" fill="rgb(50, 49, 63)" stroke="none" stroke-width="1px">300</text><text x="450.67369791666664" y="0" dx="0em" dy="0.95em" style="text-anchor: middle; visibility: inherit; font-family: Roboto, sans-serif; font-size: 12px; font-weight: 200;" fill="rgb(50, 49, 63)" stroke="none" stroke-width="1px">400</text><text x="540.8084375" y="0" dx="0em" dy="0.95em" style="text-anchor: middle; visibility: inherit; font-family: Roboto, sans-serif; font-size: 12px; font-weight: 200;" fill="rgb(50, 49, 63)" stroke="none" stroke-width="1px">500</text><text x="630.9431770833334" y="0" dx="0em" dy="0.95em" style="text-anchor: middle; visibility: inherit; font-family: Roboto, sans-serif; font-size: 12px; font-weight: 200;" fill="rgb(50, 49, 63)" stroke="none" stroke-width="1px">600</text><text x="721.0779166666666" y="0" dx="0em" dy="0.95em" style="text-anchor: middle; visibility: inherit; font-family: Roboto, sans-serif; font-size: 12px; font-weight: 200;" fill="rgb(50, 49, 63)" stroke="none" stroke-width="1px">700</text><text x="811.21265625" y="0" dx="0em" dy="0.95em" style="text-anchor: middle; visibility: inherit; font-family: Roboto, sans-serif; font-size: 12px; font-weight: 200;" fill="rgb(50, 49, 63)" stroke="none" stroke-width="1px">800</text><text x="901.3473958333333" y="0" dx="0em" dy="0.95em" style="text-anchor: middle; visibility: inherit; font-family: Roboto, sans-serif; font-size: 12px; font-weight: 200;" fill="rgb(50, 49, 63)" stroke="none" stroke-width="1px">900</text><text x="991.4821354166666" y="0" dx="0em" dy="0.95em" style="text-anchor: middle; visibility: inherit; font-family: Roboto, sans-serif; font-size: 12px; font-weight: 200;" fill="rgb(50, 49, 63)" stroke="none" stroke-width="1px">1k</text><text x="1081.616875" y="0" dx="0em" dy="0.95em" style="text-anchor: middle; visibility: hidden; font-family: Roboto, sans-serif; font-size: 12px; font-weight: 200;" fill="rgb(50, 49, 63)" stroke="none" stroke-width="1px">1.1k</text></g><line x1="0" y1="0" x2="1081.616875" y2="0" fill="rgb(0, 0, 0)" stroke="rgb(204, 204, 204)" stroke-width="1px"></line></g></g></g></g></svg>