<svg viewBox="0 0 1143.567138671875 399.99578857421875" xmlns="http://www.w3.org/2000/svg"><g><g><g><g><g><line x1="61.953125" y1="377.996" x2="56.953125" y2="377.996" style="visibility: inherit;" fill="rgb(0, 0, 0)" stroke="rgb(204, 204, 204)" stroke-width="1px"></line><line x1="61.953125" y1="330.74650000000395" x2="56.953125" y2="330.74650000000395" style="visibility: inherit;" fill="rgb(0, 0, 0)" stroke="rgb(204, 204, 204)" stroke-width="1px"></line><line x1="61.953125" y1="283.4969999999974" x2="56.953125" y2="283.4969999999974" style="visibility: inherit;" fill="rgb(0, 0, 0)" stroke="rgb(204, 204, 204)" stroke-width="1px"></line><line x1="61.953125" y1="236.24750000000134" x2="56.953125" y2="236.24750000000134" style="visibility: inherit;" fill="rgb(0, 0, 0)" stroke="rgb(204, 204, 204)" stroke-width="1px"></line><line x1="61.953125" y1="188.99799999999473" x2="56.953125" y2="188.99799999999473" style="visibility: inherit;" fill="rgb(0, 0, 0)" stroke="rgb(204, 204, 204)" stroke-width="1px"></line><line x1="61.953125" y1="141.7484999999987" x2="56.953125" y2="141.7484999999987" style="visibility: inherit;" fill="rgb(0, 0, 0)" stroke="rgb(204, 204, 204)" stroke-width="1px"></line><line x1="61.953125" y1="94.49899999999211" x2="56.953125" y2="94.49899999999211" style="visibility: inherit;" fill="rgb(0, 0, 0)" stroke="rgb(204, 204, 204)" stroke-width="1px"></line><line x1="61.953125" y1="47.249499999996054" x2="56.953125" y2="47.249499999996054" style="visibility: inherit;" fill="rgb(0, 0, 0)" stroke="rgb(204, 204, 204)" stroke-width="1px"></line><line x1="61.953125" y1="0" x2="56.953125" y2="0" style="visibility: inherit;" fill="rgb(0, 0, 0)" stroke="rgb(204, 204, 204)" stroke-width="1px"></line></g><g transform="translate(51.953125, 0)"><text x="0" y="377.996" dx="0em" dy="0.3em" style="text-anchor: end; visibility: hidden; font-family: Roboto, sans-serif; font-size: 12px; font-weight: 200;" fill="rgb(50, 49, 63)" stroke="none" stroke-width="1px">0.997</text><text x="0" y="330.74650000000395" dx="0em" dy="0.3em" style="text-anchor: end; visibility: inherit; font-family: Roboto, sans-serif; font-size: 12px; font-weight: 200;" fill="rgb(50, 49, 63)" stroke="none" stroke-width="1px">0.997</text><text x="0" y="283.4969999999974" dx="0em" dy="0.3em" style="text-anchor: end; visibility: inherit; font-family: Roboto, sans-serif; font-size: 12px; font-weight: 200;" fill="rgb(50, 49, 63)" stroke="none" stroke-width="1px">0.998</text><text x="0" y="236.24750000000134" dx="0em" dy="0.3em" style="text-anchor: end; visibility: inherit; font-family: Roboto, sans-serif; font-size: 12px; font-weight: 200;" fill="rgb(50, 49, 63)" stroke="none" stroke-width="1px">0.998</text><text x="0" y="188.99799999999473" dx="0em" dy="0.3em" style="text-anchor: end; visibility: inherit; font-family: Roboto, sans-serif; font-size: 12px; font-weight: 200;" fill="rgb(50, 49, 63)" stroke="none" stroke-width="1px">0.999</text><text x="0" y="141.7484999999987" dx="0em" dy="0.3em" style="text-anchor: end; visibility: inherit; font-family: Roboto, sans-serif; font-size: 12px; font-weight: 200;" fill="rgb(50, 49, 63)" stroke="none" stroke-width="1px">0.999</text><text x="0" y="94.49899999999211" dx="0em" dy="0.3em" style="text-anchor: end; visibility: inherit; font-family: Roboto, sans-serif; font-size: 12px; font-weight: 200;" fill="rgb(50, 49, 63)" stroke="none" stroke-width="1px">1</text><text x="0" y="47.249499999996054" dx="0em" dy="0.3em" style="text-anchor: end; visibility: inherit; font-family: Roboto, sans-serif; font-size: 12px; font-weight: 200;" fill="rgb(50, 49, 63)" stroke="none" stroke-width="1px">1</text><text x="0" y="0" dx="0em" dy="0.3em" style="text-anchor: end; visibility: hidden; font-family: Roboto, sans-serif; font-size: 12px; font-weight: 200;" fill="rgb(50, 49, 63)" stroke="none" stroke-width="1px">1</text></g><line x1="61.953125" y1="0" x2="61.953125" y2="377.996" fill="rgb(0, 0, 0)" stroke="rgb(204, 204, 204)" stroke-width="1px"></line></g></g><g transform="translate(61, 0)" clip-path="url(#clip_0)"><clipPath id="clip_0"><rect width="1081" height="377"></rect></clipPath><g><g><g><line x1="0" y1="0" x2="0" y2="377.996" fill="rgb(0, 0, 0)" stroke="rgb(60, 60, 60)" stroke-width="1px" opacity="0.25"></line><line x1="90.13473958333333" y1="0" x2="90.13473958333333" y2="377.996" fill="rgb(0, 0, 0)" stroke="rgb(60, 60, 60)" stroke-width="1px" opacity="0.25"></line><line x1="180.26947916666666" y1="0" x2="180.26947916666666" y2="377.996" fill="rgb(0, 0, 0)" stroke="rgb(60, 60, 60)" stroke-width="1px" opacity="0.25"></line><line x1="270.40421875" y1="0" x2="270.40421875" y2="377.996" fill="rgb(0, 0, 0)" stroke="rgb(60, 60, 60)" stroke-width="1px" opacity="0.25"></line><line x1="360.5389583333333" y1="0" x2="360.5389583333333" y2="377.996" fill="rgb(0, 0, 0)" stroke="rgb(60, 60, 60)" stroke-width="1px" opacity="0.25"></line><line x1="450.67369791666664" y1="0" x2="450.67369791666664" y2="377.996" fill="rgb(0, 0, 0)" stroke="rgb(60, 60, 60)" stroke-width="1px" opacity="0.25"></line><line x1="540.8084375" y1="0" x2="540.8084375" y2="377.996" fill="rgb(0, 0, 0)" stroke="rgb(60, 60, 60)" stroke-width="1px" opacity="0.25"></line><line x1="630.9431770833334" y1="0" x2="630.9431770833334" y2="377.996" fill="rgb(0, 0, 0)" stroke="rgb(60, 60, 60)" stroke-width="1px" opacity="0.25"></line><line x1="721.0779166666666" y1="0" x2="721.0779166666666" y2="377.996" fill="rgb(0, 0, 0)" stroke="rgb(60, 60, 60)" stroke-width="1px" opacity="0.25"></line><line x1="811.21265625" y1="0" x2="811.21265625" y2="377.996" fill="rgb(0, 0, 0)" stroke="rgb(60, 60, 60)" stroke-width="1px" opacity="0.25"></line><line x1="901.3473958333333" y1="0" x2="901.3473958333333" y2="377.996" fill="rgb(0, 0, 0)" stroke="rgb(60, 60, 60)" stroke-width="1px" opacity="0.25"></line><line x1="991.4821354166666" y1="0" x2="991.4821354166666" y2="377.996" fill="rgb(0, 0, 0)" stroke="rgb(60, 60, 60)" stroke-width="1px" opacity="0.25"></line><line x1="1081.616875" y1="0" x2="1081.616875" y2="377.996" fill="rgb(0, 0, 0)" stroke="rgb(60, 60, 60)" stroke-width="1px" opacity="0.25"></line></g><g><line x1="0" y1="377.996" x2="1081.616875" y2="377.996" fill="rgb(0, 0, 0)" stroke="rgb(60, 60, 60)" stroke-width="1px" opacity="0.25"></line><line x1="0" y1="330.74650000000395" x2="1081.616875" y2="330.74650000000395" fill="rgb(0, 0, 0)" stroke="rgb(60, 60, 60)" stroke-width="1px" opacity="0.25"></line><line x1="0" y1="283.4969999999974" x2="1081.616875" y2="283.4969999999974" fill="rgb(0, 0, 0)" stroke="rgb(60, 60, 60)" stroke-width="1px" opacity="0.25"></line><line x1="0" y1="236.24750000000134" x2="1081.616875" y2="236.24750000000134" fill="rgb(0, 0, 0)" stroke="rgb(60, 60, 60)" stroke-width="1px" opacity="0.25"></line><line x1="0" y1="188.99799999999473" x2="1081.616875" y2="188.99799999999473" fill="rgb(0, 0, 0)" stroke="rgb(60, 60, 60)" stroke-width="1px" opacity="0.25"></line><line x1="0" y1="141.7484999999987" x2="1081.616875" y2="141.7484999999987" fill="rgb(0, 0, 0)" stroke="rgb(60, 60, 60)" stroke-width="1px" opacity="0.25"></line><line x1="0" y1="94.49899999999211" x2="1081.616875" y2="94.49899999999211" fill="rgb(0, 0, 0)" stroke="rgb(60, 60, 60)" stroke-width="1px" opacity="0.25"></line><line x1="0" y1="47.249499999996054" x2="1081.616875" y2="47.249499999996054" fill="rgb(0, 0, 0)" stroke="rgb(60, 60, 60)" stroke-width="1px" opacity="0.25"></line><line x1="0" y1="0" x2="1081.616875" y2="0" fill="rgb(0, 0, 0)" stroke="rgb(60, 60, 60)" stroke-width="1px" opacity="0.25"></line></g></g></g><g><g><line x1="0" y1="94546.24950000254" x2="1081.616875" y2="94546.24950000254" fill="rgb(0, 0, 0)" stroke="rgb(153, 153, 153)" stroke-width="1.5px"></line></g></g><g><g><line x1="90.13473958333333" y1="0" x2="90.13473958333333" y2="377.996" fill="rgb(0, 0, 0)" stroke="rgb(153, 153, 153)" stroke-width="1.5px"></line></g></g><g><g><g><g><g><path stroke="rgb(255, 112, 67)" stroke-width="2px" d="M106.35899270833332,637.8705030317425L107.26034010416666,47.249499999996054L108.1616875,224.439180457116L109.06303489583333,47.249499999996054L109.96438229166667,47.249499999996054L110.8657296875,47.249499999996054L111.76707708333332,47.249499999996054L112.66842447916666,47.249499999996054L113.56977187499999,1996.2909243937022L116.2738140625,696.9224646921292L117.17516145833333,165.38158621740266L118.07650885416666,1523.7851098413823L118.97785624999999,1287.554732882529L119.87920364583333,342.5600015158693L120.78055104166666,224.439180457116L121.6818984375,106.31272681903603L122.58324583333332,106.31272681903603L123.48459322916666,47.249499999996054L124.385940625,47.249499999996054L125.28728802083332,47.249499999996054L126.18863541666666,47.249499999996054L127.08998281249998,165.3703210587494L127.99133020833332,165.38158621740266L128.89267760416666,165.38158621740266L129.79402499999998,47.249499999996054L130.69537239583332,224.439180457116L131.59671979166666,637.8705030317425L133.39941458333334,5894.379405760441L134.30076197916665,165.38158621740266L135.202109375,47.249499999996054L136.1034567708333,106.31272681903603L137.00480416666667,47.249499999996054L137.90615156249999,3236.584892117582L138.80749895833333,815.0545509095359L139.70884635416667,47.249499999996054L140.61019375,47.249499999996054L141.51154114583332,47.249499999996054L142.41288854166663,47.249499999996054L143.3142359375,47.249499999996054L144.2155833333333,47.249499999996054L145.11693072916665,47.249499999996054L146.018278125,47.249499999996054L146.91962552083334,47.249499999996054L147.82097291666665,47.249499999996054L148.72232031250002,47.249499999996054L149.62366770833333,47.249499999996054L150.52501510416664,47.249499999996054L151.4263625,47.249499999996054L152.32770989583332,47.249499999996054L153.22905729166666,47.249499999996054L154.13040468749998,47.249499999996054L155.03175208333334,47.249499999996054L155.93309947916666,47.249499999996054L156.83444687499997,47.249499999996054L157.73579427083334,47.249499999996054L158.63714166666665,47.249499999996054L159.5384890625,47.249499999996054L160.43983645833333,47.249499999996054L161.34118385416667,47.249499999996054L162.24253124999998,47.249499999996054L163.14387864583333,47.249499999996054L164.04522604166667,47.249499999996054L164.94657343749998,47.249499999996054L165.84792083333332,6071.557821058908L167.650615625,460.6920877332759L168.5519630208333,165.38158621740266L169.45331041666665,47.249499999996054L170.3546578125,47.249499999996054L171.2560052083333,47.249499999996054L172.15735260416668,47.249499999996054L173.0587,47.249499999996054L173.96004739583333,47.249499999996054L174.86139479166664,47.249499999996054L175.7627421875,47.249499999996054L176.66408958333332,47.249499999996054L177.56543697916663,47.249499999996054L178.466784375,47.249499999996054L179.36813177083332,47.249499999996054L180.26947916666666,401.61759575558267L181.1708265625,578.8129087920292L182.07217395833334,165.3703210587494L182.97352135416665,1228.4858734841625L183.87486875,106.31272681903603L184.77621614583333,47.249499999996054L185.67756354166664,47.249499999996054L186.57891093749998,47.249499999996054L187.48025833333332,47.249499999996054L188.38160572916667,47.249499999996054L189.28295312499998,47.249499999996054L190.18430052083332,47.249499999996054L191.08564791666666,47.249499999996054L191.98699531249997,47.249499999996054L192.88834270833334,47.249499999996054L193.78969010416665,47.249499999996054L194.6910375,47.249499999996054L195.59238489583333,47.249499999996054L196.49373229166665,47.249499999996054L197.3950796875,47.249499999996054L198.2964270833333,47.249499999996054L199.19777447916667,47.249499999996054L200.09912187499998,47.249499999996054L201.00046927083332,47.249499999996054L201.90181666666666,47.249499999996054L202.8031640625,47.249499999996054L203.70451145833331,47.249499999996054L204.60585885416666,47.249499999996054L205.50720625,47.249499999996054L206.4085536458333,47.249499999996054L207.30990104166668,47.249499999996054L208.2112484375,47.249499999996054L209.11259583333333,47.249499999996054L210.01394322916664,47.249499999996054L210.91529062499998,47.249499999996054L211.81663802083332,47.249499999996054L212.71798541666664,1700.9860554571553L213.6193328125,3709.090706669902L214.52068020833332,47.249499999996054L215.42202760416666,47.249499999996054L216.323375,165.3703210587494L217.2247223958333,47.249499999996054L218.12606979166665,47.249499999996054L219.0274171875,47.249499999996054L219.92876458333333,47.249499999996054L220.83011197916665,47.249499999996054L221.731459375,47.249499999996054L222.63280677083333,47.249499999996054L223.53415416666664,47.249499999996054L224.43550156249998,47.249499999996054L225.33684895833332,47.249499999996054L226.23819635416666,47.249499999996054L227.13954374999997,47.249499999996054L228.04089114583334,47.249499999996054L228.94223854166665,47.249499999996054L229.84358593749997,47.249499999996054L230.74493333333334,47.249499999996054L231.64628072916665,47.249499999996054L232.547628125,47.249499999996054L233.4489755208333,47.249499999996054L234.35032291666667,47.249499999996054L235.25167031249998,47.249499999996054L236.15301770833332,47.249499999996054L237.05436510416666,47.249499999996054L237.95571249999998,47.249499999996054L238.85705989583332,47.249499999996054L239.75840729166666,47.249499999996054L240.6597546875,47.249499999996054L241.5611020833333,47.249499999996054L242.46244947916665,47.249499999996054L243.363796875,47.249499999996054L244.2651442708333,47.249499999996054L245.16649166666664,47.249499999996054L246.06783906249998,47.249499999996054L246.96918645833333,1169.428279244449L248.77188125,519.7440493936625L249.67322864583332,47.249499999996054L250.57457604166663,47.249499999996054L251.4759234375,47.249499999996054L252.3772708333333,47.249499999996054L253.27861822916665,47.249499999996054L254.17996562499997,47.249499999996054L255.08131302083333,47.249499999996054L255.98266041666665,47.249499999996054L256.8840078125,47.249499999996054L257.7853552083333,47.249499999996054L258.68670260416667,47.249499999996054L259.58804999999995,47.249499999996054L260.48939739583335,47.249499999996054L261.39074479166663,47.249499999996054L262.2920921875,47.249499999996054L263.1934395833333,47.249499999996054L264.09478697916666,47.249499999996054L264.996134375,47.249499999996054L265.8974817708333,47.249499999996054L266.7988291666667,47.249499999996054L267.70017656249996,47.249499999996054L268.6015239583333,47.249499999996054L269.50287135416664,47.249499999996054L270.40421875,47.249499999996054L271.3055661458333,47.249499999996054L272.2069135416666,47.249499999996054L273.1082609375,47.249499999996054L274.00960833333335,47.249499999996054L274.91095572916663,47.249499999996054L275.81230312499997,47.249499999996054L276.71365052083337,47.249499999996054L277.61499791666665,47.249499999996054L278.5163453125,47.249499999996054L279.41769270833333,47.249499999996054L280.3190401041666,47.249499999996054L281.2203875,47.249499999996054L282.1217348958333,47.249499999996054L283.02308229166664,47.249499999996054L283.9244296875,47.249499999996054L284.82577708333326,47.249499999996054L285.72712447916666,47.249499999996054L286.628471875,47.249499999996054L287.5298192708333,47.249499999996054L288.4311666666666,47.249499999996054L289.3325140625,47.249499999996054L290.2338614583333,47.249499999996054L291.13520885416665,47.249499999996054L292.03655625,47.249499999996054L292.9379036458333,47.249499999996054L293.83925104166667,47.249499999996054L294.7405984375,47.249499999996054L295.6419458333333,47.249499999996054L296.54329322916664,1110.365052425409L297.44464062500003,2409.722246968329L298.3459880208333,106.31272681903603L299.24733541666666,47.249499999996054L300.1486828125,106.31272681903603L301.0500302083333,47.249499999996054L301.9513776041667,47.249499999996054L302.852725,47.249499999996054L303.7540723958333,47.249499999996054L304.65541979166665,47.249499999996054L305.55676718749993,47.249499999996054L306.4581145833333,47.249499999996054L307.35946197916667,47.249499999996054L308.26080937499995,47.249499999996054L309.1621567708333,47.249499999996054L310.0635041666667,47.249499999996054L310.9648515625,47.249499999996054L311.8661989583333,47.249499999996054L312.76754635416665,47.249499999996054L313.66889374999994,47.249499999996054L314.57024114583334,47.249499999996054L315.4715885416667,47.249499999996054L316.37293593749996,47.249499999996054L317.2742833333333,47.249499999996054L318.1756307291667,47.249499999996054L319.076978125,47.249499999996054L319.9783255208333,47.249499999996054L320.87967291666666,47.249499999996054L321.78102031249995,47.249499999996054L322.68236770833335,47.249499999996054L323.5837151041667,47.249499999996054L324.48506249999997,47.249499999996054L325.3864098958333,47.249499999996054L326.28775729166665,47.249499999996054L327.1891046875,47.249499999996054L328.09045208333333,47.249499999996054L328.9917994791666,47.249499999996054L329.89314687499996,47.249499999996054L330.79449427083335,47.249499999996054L331.69584166666664,47.249499999996054L332.5971890625,47.249499999996054L333.4985364583333,47.249499999996054L334.3998838541666,47.249499999996054L335.30123125,47.249499999996054L336.20257864583334,47.249499999996054L337.1039260416666,47.249499999996054L338.00527343749997,47.249499999996054L338.9066208333333,47.249499999996054L339.80796822916665,47.249499999996054L340.709315625,47.249499999996054L341.61066302083333,47.249499999996054L342.5120104166666,47.249499999996054L343.4133578125,47.249499999996054L344.31470520833335,47.249499999996054L345.21605260416663,47.249499999996054L346.1174,47.249499999996054L347.0187473958333,47.249499999996054L347.92009479166666,47.249499999996054L348.8214421875,47.249499999996054L349.7227895833333,47.249499999996054L350.6241369791666,47.249499999996054L351.525484375,47.249499999996054L352.4268317708333,47.249499999996054L353.32817916666664,47.249499999996054L354.2295265625,47.249499999996054L355.13087395833327,47.249499999996054L356.03222135416667,47.249499999996054L356.93356875,47.249499999996054L357.8349161458333,47.249499999996054L358.73626354166663,47.249499999996054L359.63761093749997,47.249499999996054L360.5389583333333,47.249499999996054L361.44030572916665,47.249499999996054L362.341653125,47.249499999996054L363.2430005208333,47.249499999996054L364.1443479166667,47.249499999996054L365.0456953125,47.249499999996054L365.9470427083333,47.249499999996054L366.84839010416664,47.249499999996054L367.7497375,47.249499999996054L368.6510848958333,47.249499999996054L369.55243229166666,47.249499999996054L370.4537796875,47.249499999996054L371.3551270833333,47.249499999996054L372.2564744791666,47.249499999996054L373.15782187499997,47.249499999996054L374.0591692708333,47.249499999996054L374.96051666666665,47.249499999996054L375.86186406249993,47.249499999996054L376.76321145833333,47.249499999996054L377.66455885416667,47.249499999996054L378.56590624999995,47.249499999996054L379.4672536458333,47.249499999996054L380.36860104166664,47.249499999996054L381.2699484375,47.249499999996054L382.1712958333333,47.249499999996054L383.07264322916666,47.249499999996054L383.97399062499994,47.249499999996054L384.87533802083334,47.249499999996054L385.7766854166667,47.249499999996054L386.67803281249996,47.249499999996054L387.5793802083333,47.249499999996054L388.48072760416665,47.249499999996054L389.382075,47.249499999996054L390.2834223958333,47.249499999996054L391.18476979166667,47.249499999996054L392.08611718749995,47.249499999996054L392.9874645833333,47.249499999996054L393.8888119791667,47.249499999996054L394.790159375,47.249499999996054L395.6915067708333,47.249499999996054L396.5928541666666,4240.648482882608L397.4942015625,224.42791529846275L398.39554895833334,47.249499999996054L399.2968963541666,47.249499999996054L400.19824374999996,47.249499999996054L401.0995911458333,47.249499999996054L402.00093854166664,47.249499999996054L402.9022859375,47.249499999996054L403.8036333333333,47.249499999996054L404.7049807291666,47.249499999996054L405.606328125,47.249499999996054L406.50767552083335,47.249499999996054L407.40902291666663,47.249499999996054L408.31037031249997,47.249499999996054L409.2117177083333,47.249499999996054L410.11306510416665,47.249499999996054L411.0144125,47.249499999996054L411.91575989583333,47.249499999996054L412.8171072916666,47.249499999996054L413.71845468749996,47.249499999996054L414.61980208333335,47.249499999996054L415.52114947916664,47.249499999996054L416.422496875,47.249499999996054L417.32384427083326,47.249499999996054L418.22519166666666,47.249499999996054L419.1265390625,47.249499999996054L420.0278864583333,47.249499999996054L420.9292338541666,47.249499999996054L421.83058124999997,47.249499999996054L422.7319286458333,47.249499999996054L423.63327604166665,47.249499999996054L424.5346234375,47.249499999996054L425.4359708333333,47.249499999996054L426.3373182291666,47.249499999996054L427.238665625,47.249499999996054L428.1400130208333,47.249499999996054L429.04136041666663,47.249499999996054L429.9427078125,47.249499999996054L430.8440552083333,47.249499999996054L431.74540260416666,47.249499999996054L432.64675,47.249499999996054L433.5480973958333,47.249499999996054L434.4494447916666,165.3703210587494L435.3507921875,696.9337298507825L436.2521395833333,106.31272681903603L437.15348697916664,47.249499999996054L438.054834375,47.249499999996054L438.9561817708333,47.249499999996054L439.85752916666667,47.249499999996054L440.75887656249995,47.249499999996054L441.6602239583333,47.249499999996054L442.56157135416663,47.249499999996054L443.46291875,47.249499999996054L444.3642661458333,47.249499999996054L445.26561354166665,47.249499999996054L446.16696093749994,47.249499999996054L447.0683083333333,47.249499999996054L447.9696557291667,47.249499999996054L448.87100312499996,47.249499999996054L449.7723505208333,47.249499999996054L450.67369791666664,47.249499999996054L451.5750453125,47.249499999996054L452.4763927083333,47.249499999996054L453.37774010416666,47.249499999996054L454.27908749999995,47.249499999996054L455.1804348958333,47.249499999996054L456.0817822916667,47.249499999996054L456.98312968749997,47.249499999996054L457.8844770833333,47.249499999996054L458.78582447916665,47.249499999996054L459.68717187499993,47.249499999996054L460.58851927083333,47.249499999996054L461.48986666666667,47.249499999996054L462.39121406249996,47.249499999996054L463.2925614583333,47.249499999996054L464.19390885416664,47.249499999996054L465.09525625,47.249499999996054L465.9966036458333,519.7440493936625L466.8979510416666,401.6232283349093L467.79929843749994,47.249499999996054L468.70064583333334,47.249499999996054L469.6019932291666,47.249499999996054L470.50334062499996,47.249499999996054L471.4046880208333,47.249499999996054L472.30603541666665,47.249499999996054L473.2073828125,47.249499999996054L474.1087302083333,47.249499999996054L475.0100776041666,47.249499999996054L475.91142499999995,47.249499999996054L476.81277239583335,47.249499999996054L477.71411979166663,47.249499999996054L478.6154671875,47.249499999996054L479.5168145833333,47.249499999996054L480.4181619791666,47.249499999996054L481.319509375,47.249499999996054L482.22085677083334,47.249499999996054L483.1222041666666,47.249499999996054L484.02355156249996,47.249499999996054L484.9248989583333,106.31272681903603L485.82624635416664,106.31272681903603L486.72759375,47.249499999996054L487.62894114583327,47.249499999996054L488.5302885416666,47.249499999996054L489.4316359375,47.249499999996054L490.3329833333333,47.249499999996054L491.23433072916663,47.249499999996054L492.13567812499997,47.249499999996054L493.03702552083325,47.249499999996054L493.93837291666665,47.249499999996054L494.8397203125,47.249499999996054L495.7410677083333,47.249499999996054L496.6424151041666,47.249499999996054L497.5437625,47.249499999996054L498.4451098958333,47.249499999996054L499.34645729166664,47.249499999996054L500.2478046875,47.249499999996054L501.14915208333326,47.249499999996054L502.05049947916666,47.249499999996054L502.951846875,47.249499999996054L503.8531942708333,47.249499999996054L504.7545416666666,47.249499999996054L505.6558890625,47.249499999996054L506.5572364583333,47.249499999996054L507.45858385416665,47.249499999996054L508.35993124999993,47.249499999996054L509.2612786458333,47.249499999996054L510.16262604166667,47.249499999996054L511.06397343749995,47.249499999996054L511.9653208333333,47.249499999996054L512.8666682291666,47.249499999996054L513.768015625,47.249499999996054L514.6693630208333,47.249499999996054L515.5707104166667,47.249499999996054L516.4720578125,47.249499999996054L517.3734052083333,47.249499999996054L518.2747526041667,47.249499999996054L519.1760999999999,47.249499999996054L520.0774473958334,47.249499999996054L520.9787947916667,47.249499999996054L521.8801421874999,47.249499999996054L522.7814895833333,47.249499999996054L523.6828369791666,47.249499999996054L524.584184375,47.249499999996054L525.4855317708333,47.249499999996054L526.3868791666666,47.249499999996054L527.2882265625,47.249499999996054L528.1895739583333,47.249499999996054L529.0909213541667,47.249499999996054L529.99226875,47.249499999996054L530.8936161458333,47.249499999996054L531.7949635416666,47.249499999996054L532.6963109375,47.249499999996054L533.5976583333334,47.249499999996054L534.4990057291666,47.249499999996054L535.4003531249999,47.249499999996054L536.3017005208333,47.249499999996054L537.2030479166666,47.249499999996054L538.1043953125,47.249499999996054L539.0057427083333,47.249499999996054L539.9070901041666,47.249499999996054L540.8084375,47.249499999996054L541.7097848958333,47.249499999996054L542.6111322916666,47.249499999996054L543.5124796874999,47.249499999996054L544.4138270833332,47.249499999996054L545.3151744791667,47.249499999996054L546.216521875,47.249499999996054L547.1178692708334,47.249499999996054L548.0192166666667,47.249499999996054L548.9205640624999,47.249499999996054L549.8219114583333,47.249499999996054L550.7232588541666,47.249499999996054L551.6246062499999,47.249499999996054L552.5259536458333,47.249499999996054L553.4273010416667,47.249499999996054L554.3286484375,47.249499999996054L555.2299958333333,47.249499999996054L556.1313432291666,47.249499999996054L557.032690625,47.249499999996054L557.9340380208333,47.249499999996054L558.8353854166667,47.249499999996054L559.7367328124999,47.249499999996054L560.6380802083332,47.249499999996054L561.5394276041666,47.249499999996054L562.440775,47.249499999996054L563.3421223958334,47.249499999996054L564.2434697916666,47.249499999996054L565.1448171874999,47.249499999996054L566.0461645833333,47.249499999996054L566.9475119791666,47.249499999996054L567.848859375,47.249499999996054L568.7502067708333,47.249499999996054L569.6515541666665,47.249499999996054L570.5529015625,47.249499999996054L571.4542489583333,47.249499999996054L572.3555963541667,47.249499999996054L573.25694375,47.249499999996054L574.1582911458333,47.249499999996054L575.0596385416666,47.249499999996054L575.9609859374999,47.249499999996054L576.8623333333333,47.249499999996054L577.7636807291666,47.249499999996054L578.665028125,47.249499999996054L579.5663755208334,47.249499999996054L580.4677229166666,47.249499999996054L581.3690703125,47.249499999996054L582.2704177083333,47.249499999996054L583.1717651041666,47.249499999996054L584.0731125,47.249499999996054L584.9744598958333,47.249499999996054L585.8758072916665,47.249499999996054L586.7771546875,47.249499999996054L587.6785020833333,47.249499999996054L588.5798494791667,47.249499999996054L589.481196875,47.249499999996054L590.3825442708333,47.249499999996054L591.2838916666666,47.249499999996054L592.1852390624999,47.249499999996054L593.0865864583333,47.249499999996054L593.9879338541666,47.249499999996054L594.8892812500001,47.249499999996054L595.7906286458333,47.249499999996054L596.6919760416666,47.249499999996054L597.5933234375,47.249499999996054L598.4946708333333,47.249499999996054L599.3960182291667,47.249499999996054L600.297365625,47.249499999996054L601.1987130208332,47.249499999996054L602.1000604166666,47.249499999996054L603.0014078124999,47.249499999996054L603.9027552083334,47.249499999996054L604.8041026041667,47.249499999996054L605.70545,47.249499999996054L606.6067973958333,47.249499999996054L607.5081447916666,47.249499999996054L608.4094921875,47.249499999996054L609.3108395833333,47.249499999996054L610.2121869791666,47.249499999996054L611.1135343749999,47.249499999996054L612.0148817708333,47.249499999996054L612.9162291666667,47.249499999996054L613.8175765625,47.249499999996054L614.7189239583333,47.249499999996054L615.6202713541667,47.249499999996054L616.5216187499999,47.249499999996054L617.4229661458332,47.249499999996054L618.3243135416666,47.249499999996054L619.2256609374999,47.249499999996054L620.1270083333334,47.249499999996054L621.0283557291667,47.249499999996054L621.929703125,47.249499999996054L622.8310505208333,47.249499999996054L623.7323979166666,47.249499999996054L624.6337453125,47.249499999996054L625.5350927083333,47.249499999996054L626.4364401041666,47.249499999996054L627.3377874999999,47.249499999996054L628.2391348958332,47.249499999996054L629.1404822916667,47.249499999996054L630.0418296875,47.249499999996054L630.9431770833334,47.249499999996054L631.8445244791666,47.249499999996054L632.7458718749999,47.249499999996054L633.6472192708333,47.249499999996054L634.5485666666666,47.249499999996054L635.4499140624999,47.249499999996054L636.3512614583334,47.249499999996054L637.2526088541666,47.249499999996054L638.15395625,47.249499999996054L639.0553036458333,47.249499999996054L639.9566510416666,47.249499999996054L640.8579984375,47.249499999996054L641.7593458333333,47.249499999996054L642.6606932291666,47.249499999996054L643.5620406249999,47.249499999996054L644.4633880208332,47.249499999996054L645.3647354166667,47.249499999996054L646.2660828125,47.249499999996054L647.1674302083334,47.249499999996054L648.0687776041666,47.249499999996054L648.9701249999999,47.249499999996054L649.8714723958333,47.249499999996054L650.7728197916666,47.249499999996054L651.6741671875,47.249499999996054L652.5755145833333,47.249499999996054L653.4768619791666,47.249499999996054L654.378209375,47.249499999996054L655.2795567708333,47.249499999996054L656.1809041666667,47.249499999996054L657.0822515625,47.249499999996054L657.9835989583332,47.249499999996054L658.8849463541666,47.249499999996054L659.7862937499999,47.249499999996054L660.6876411458333,47.249499999996054L661.5889885416667,47.249499999996054L662.4903359375,47.249499999996054L663.3916833333333,47.249499999996054L664.2930307291666,47.249499999996054L665.194378125,47.249499999996054L666.0957255208333,47.249499999996054L666.9970729166666,47.249499999996054L667.8984203125,47.249499999996054L668.7997677083332,47.249499999996054L669.7011151041665,47.249499999996054L670.6024625,47.249499999996054L671.5038098958333,47.249499999996054L672.4051572916667,47.249499999996054L673.3065046875,47.249499999996054L674.2078520833333,47.249499999996054L675.1091994791666,47.249499999996054L676.0105468749999,47.249499999996054L676.9118942708333,47.249499999996054L677.8132416666666,47.249499999996054L678.7145890625,47.249499999996054L679.6159364583333,47.249499999996054L680.5172838541666,47.249499999996054L681.41863125,47.249499999996054L682.3199786458333,47.249499999996054L683.2213260416667,47.249499999996054L684.1226734374999,47.249499999996054L685.0240208333332,47.249499999996054L685.9253682291666,47.249499999996054L686.826715625,47.249499999996054L687.7280630208334,47.249499999996054L688.6294104166667,47.249499999996054L689.5307578124999,47.249499999996054L690.4321052083333,47.249499999996054L691.3334526041666,47.249499999996054L692.2348,47.249499999996054L693.1361473958333,47.249499999996054L694.0374947916666,47.249499999996054L694.9388421875,47.249499999996054L695.8401895833333,47.249499999996054L696.7415369791667,47.249499999996054L697.642884375,47.249499999996054L698.5442317708333,47.249499999996054L699.4455791666666,47.249499999996054L700.3469265624999,47.249499999996054L701.2482739583332,47.249499999996054L702.1496213541666,47.249499999996054L703.05096875,47.249499999996054L703.9523161458334,47.249499999996054L704.8536635416666,47.249499999996054L705.7550109375,47.249499999996054L706.6563583333333,47.249499999996054L707.5577057291666,47.249499999996054L708.459053125,47.249499999996054L709.3604005208333,47.249499999996054L710.2617479166665,47.249499999996054L711.1630953124999,47.249499999996054L712.0644427083333,47.249499999996054L712.9657901041667,47.249499999996054L713.8671375,47.249499999996054L714.7684848958334,47.249499999996054L715.6698322916666,47.249499999996054L716.5711796874999,47.249499999996054L717.4725270833333,47.249499999996054L718.3738744791666,47.249499999996054L719.2752218749999,47.249499999996054L720.1765692708334,47.249499999996054L721.0779166666666,47.249499999996054L721.9792640625,47.249499999996054L722.8806114583333,47.249499999996054L723.7819588541666,47.249499999996054L724.68330625,47.249499999996054L725.5846536458332,47.249499999996054L726.4860010416666,47.249499999996054L727.3873484374999,47.249499999996054L728.2886958333333,47.249499999996054L729.1900432291667,47.249499999996054L730.091390625,47.249499999996054L730.9927380208333,47.249499999996054L731.8940854166666,47.249499999996054L732.7954328124999,47.249499999996054L733.6967802083333,47.249499999996054L734.5981276041666,47.249499999996054L735.499475,47.249499999996054L736.4008223958332,47.249499999996054L737.3021697916666,47.249499999996054L738.2035171875,47.249499999996054L739.1048645833333,47.249499999996054L740.0062119791667,47.249499999996054L740.907559375,47.249499999996054L741.8089067708332,47.249499999996054L742.7102541666666,47.249499999996054L743.6116015624999,47.249499999996054L744.5129489583333,47.249499999996054L745.4142963541667,47.249499999996054L746.3156437499999,47.249499999996054L747.2169911458333,47.249499999996054L748.1183385416666,47.249499999996054L749.0196859375,47.249499999996054L749.9210333333333,47.249499999996054L750.8223807291666,47.249499999996054L751.7237281249999,47.249499999996054L752.6250755208332,47.249499999996054L753.5264229166667,47.249499999996054L754.4277703125,47.249499999996054L755.3291177083333,47.249499999996054L756.2304651041667,47.249499999996054L757.1318124999999,47.249499999996054L758.0331598958333,47.249499999996054L758.9345072916666,47.249499999996054L759.8358546874999,47.249499999996054L760.7372020833333,47.249499999996054L761.6385494791667,47.249499999996054L762.539896875,47.249499999996054L763.4412442708333,47.249499999996054L764.3425916666666,47.249499999996054L765.2439390625,578.8129087920292L766.1452864583333,401.6232283349093L767.0466338541665,47.249499999996054L767.9479812499999,47.249499999996054L768.8493286458332,47.249499999996054L769.7506760416667,47.249499999996054L770.6520234375,47.249499999996054L771.5533708333334,47.249499999996054L772.4547182291666,47.249499999996054L773.3560656249999,47.249499999996054L774.2574130208333,47.249499999996054L775.1587604166666,47.249499999996054L776.0601078125,47.249499999996054L776.9614552083333,47.249499999996054L777.8628026041665,47.249499999996054L778.76415,47.249499999996054L779.6654973958333,47.249499999996054L780.5668447916667,47.249499999996054L781.4681921875,47.249499999996054L782.3695395833333,47.249499999996054L783.2708869791666,47.249499999996054L784.1722343749999,47.249499999996054L785.0735817708332,47.249499999996054L785.9749291666666,47.249499999996054L786.8762765625,47.249499999996054L787.7776239583334,47.249499999996054L788.6789713541666,47.249499999996054L789.58031875,47.249499999996054L790.4816661458333,47.249499999996054L791.3830135416666,47.249499999996054L792.2843609375,47.249499999996054L793.1857083333332,47.249499999996054L794.0870557291665,47.249499999996054L794.988403125,47.249499999996054L795.8897505208333,47.249499999996054L796.7910979166667,47.249499999996054L797.6924453125,47.249499999996054L798.5937927083332,47.249499999996054L799.4951401041666,47.249499999996054L800.3964874999999,47.249499999996054L801.2978348958333,47.249499999996054L802.1991822916666,47.249499999996054L803.1005296875,47.249499999996054L804.0018770833333,47.249499999996054L804.9032244791666,47.249499999996054L805.804571875,47.249499999996054L806.7059192708333,47.249499999996054L807.6072666666666,47.249499999996054L808.5086140625,47.249499999996054L809.4099614583332,47.249499999996054L810.3113088541666,47.249499999996054L811.21265625,47.249499999996054L812.1140036458333,47.249499999996054L813.0153510416667,283.50240727615596L813.9166984374999,165.3703210587494L814.8180458333333,47.249499999996054L815.7193932291666,106.31272681903603L816.6207406249999,47.249499999996054L817.5220880208333,47.249499999996054L818.4234354166666,47.249499999996054L819.3247828124998,47.249499999996054L820.2261302083333,47.249499999996054L821.1274776041666,47.249499999996054L822.028825,47.249499999996054L822.9301723958333,47.249499999996054L823.8315197916667,47.249499999996054L824.7328671874999,47.249499999996054L825.6342145833332,47.249499999996054L826.5355619791666,47.249499999996054L827.4369093749999,47.249499999996054L828.3382567708334,47.249499999996054L829.2396041666667,47.249499999996054L830.1409515624999,47.249499999996054L831.0422989583333,47.249499999996054L831.9436463541666,47.249499999996054L832.84499375,47.249499999996054L833.7463411458333,47.249499999996054L834.6476885416665,47.249499999996054L835.5490359374999,47.249499999996054L836.4503833333333,47.249499999996054L837.3517307291667,47.249499999996054L838.253078125,47.249499999996054L839.1544255208333,47.249499999996054L840.0557729166666,47.249499999996054L840.9571203124999,47.249499999996054L841.8584677083333,47.249499999996054L842.7598151041666,47.249499999996054L843.6611624999999,47.249499999996054L844.5625098958334,47.249499999996054L845.4638572916666,47.249499999996054L846.3652046875,47.249499999996054L847.2665520833333,47.249499999996054L848.1678994791666,47.249499999996054L849.069246875,47.249499999996054L849.9705942708333,47.249499999996054L850.8719416666665,47.249499999996054L851.7732890624999,47.249499999996054L852.6746364583332,47.249499999996054L853.5759838541667,47.249499999996054L854.47733125,47.249499999996054L855.3786786458334,47.249499999996054L856.2800260416666,47.249499999996054L857.1813734374999,47.249499999996054L858.0827208333333,47.249499999996054L858.9840682291666,47.249499999996054L859.885415625,47.249499999996054L860.7867630208332,47.249499999996054L861.6881104166666,47.249499999996054L862.5894578125,47.249499999996054L863.4908052083333,47.249499999996054L864.3921526041667,47.249499999996054L865.2935,47.249499999996054L866.1948473958332,47.249499999996054L867.0961947916666,47.249499999996054L867.9975421874999,47.249499999996054L868.8988895833332,47.249499999996054L869.8002369791667,47.249499999996054L870.701584375,47.249499999996054L871.6029317708333,47.249499999996054L872.5042791666666,47.249499999996054L873.4056265625,47.249499999996054L874.3069739583333,47.249499999996054L875.2083213541666,47.249499999996054L876.10966875,47.249499999996054L877.0110161458332,47.249499999996054L877.9123635416667,47.249499999996054L878.8137109375,47.249499999996054L879.7150583333333,47.249499999996054L880.6164057291667,47.249499999996054L881.5177531249999,47.249499999996054L882.4191005208332,47.249499999996054L883.3204479166666,47.249499999996054L884.2217953124999,47.249499999996054L885.1231427083333,47.249499999996054L886.0244901041667,47.249499999996054L886.9258375,47.249499999996054L887.8271848958333,47.249499999996054L888.7285322916666,47.249499999996054L889.6298796875,47.249499999996054L890.5312270833333,47.249499999996054L891.4325744791666,47.249499999996054L892.3339218749999,47.249499999996054L893.2352692708332,47.249499999996054L894.1366166666666,47.249499999996054L895.0379640625,47.249499999996054L895.9393114583333,47.249499999996054L896.8406588541667,47.249499999996054L897.7420062499999,47.249499999996054L898.6433536458333,47.249499999996054L899.5447010416666,47.249499999996054L900.4460484374999,47.249499999996054L901.3473958333333,47.249499999996054L902.2487432291665,47.249499999996054L903.150090625,47.249499999996054L904.0514380208333,47.249499999996054L904.9527854166666,47.249499999996054L905.8541328125,47.249499999996054L906.7554802083333,47.249499999996054L907.6568276041666,47.249499999996054L908.5581749999999,47.249499999996054L909.4595223958332,47.249499999996054L910.3608697916666,47.249499999996054L911.2622171875,47.249499999996054L912.1635645833334,47.249499999996054L913.0649119791666,47.249499999996054L913.9662593749999,47.249499999996054L914.8676067708333,47.249499999996054L915.7689541666666,47.249499999996054L916.6703015625,47.249499999996054L917.5716489583333,47.249499999996054L918.4729963541665,47.249499999996054L919.3743437499999,47.249499999996054L920.2756911458333,47.249499999996054L921.1770385416667,47.249499999996054L922.0783859375,47.249499999996054L922.9797333333333,47.249499999996054L923.8810807291666,47.249499999996054L924.7824281249999,47.249499999996054L925.6837755208333,47.249499999996054L926.5851229166666,47.249499999996054L927.4864703124999,47.249499999996054L928.3878177083333,47.249499999996054L929.2891651041666,47.249499999996054L930.1905125,47.249499999996054L931.0918598958333,47.249499999996054L931.9932072916666,401.6232283349093L932.8945546875,224.439180457116L933.7959020833332,47.249499999996054L934.6972494791665,47.249499999996054L935.5985968749999,47.249499999996054L936.4999442708333,47.249499999996054L937.4012916666667,47.249499999996054L938.3026390625,47.249499999996054L939.2039864583332,47.249499999996054L940.1053338541666,47.249499999996054L941.0066812499999,47.249499999996054L941.9080286458333,47.249499999996054L942.8093760416666,47.249499999996054L943.7107234375,47.249499999996054L944.6120708333333,47.249499999996054L945.5134182291666,47.249499999996054L946.414765625,47.249499999996054L947.3161130208333,47.249499999996054L948.2174604166667,47.249499999996054L949.1188078124999,47.249499999996054L950.0201552083332,47.249499999996054L950.9215026041666,47.249499999996054L951.8228499999999,47.249499999996054L952.7241973958334,47.249499999996054L953.6255447916667,47.249499999996054L954.5268921874999,47.249499999996054L955.4282395833333,47.249499999996054L956.3295869791666,47.249499999996054L957.230934375,47.249499999996054L958.1322817708333,47.249499999996054L959.0336291666666,47.249499999996054L959.9349765624999,47.249499999996054L960.8363239583332,47.249499999996054L961.7376713541667,47.249499999996054L962.63901875,47.249499999996054L963.5403661458333,47.249499999996054L964.4417135416667,47.249499999996054L965.3430609374999,47.249499999996054L966.2444083333332,47.249499999996054L967.1457557291666,47.249499999996054L968.0471031249999,47.249499999996054L968.9484505208333,47.249499999996054L969.8497979166666,47.249499999996054L970.7511453125,47.249499999996054L971.6524927083333,47.249499999996054L972.5538401041666,47.249499999996054L973.4551875,47.249499999996054L974.3565348958333,47.249499999996054L975.2578822916665,47.249499999996054L976.1592296874999,47.249499999996054L977.0605770833332,47.249499999996054L977.9619244791667,47.249499999996054L978.863271875,47.249499999996054L979.7646192708334,47.249499999996054L980.6659666666666,47.249499999996054L981.5673140624999,47.249499999996054L982.4686614583333,47.249499999996054L983.3700088541666,47.249499999996054L984.2713562499999,47.249499999996054L985.1727036458333,47.249499999996054L986.0740510416665,47.249499999996054L986.9753984375,47.249499999996054L987.8767458333333,342.5600015158693L988.7780932291666,47.249499999996054L989.679440625,106.31272681903603L990.5807880208333,47.249499999996054" style="fill: none;" fill="none"></path></g></g></g></g></g><g><g opacity="0.395364"><span fill="rgb(0, 0, 0)" stroke="none" stroke-width="1px">Alt + Scroll to Zoom</span></g></g></g><g transform="translate(61, 377)" clip-path="url(#clip_1)"><clipPath id="clip_1"><rect width="1081" height="21"></rect></clipPath><g><g><line x1="0" y1="0" x2="0" y2="5" style="visibility: inherit;" fill="rgb(0, 0, 0)" stroke="rgb(204, 204, 204)" stroke-width="1px"></line><line x1="90.13473958333333" y1="0" x2="90.13473958333333" y2="5" style="visibility: inherit;" fill="rgb(0, 0, 0)" stroke="rgb(204, 204, 204)" stroke-width="1px"></line><line x1="180.26947916666666" y1="0" x2="180.26947916666666" y2="5" style="visibility: inherit;" fill="rgb(0, 0, 0)" stroke="rgb(204, 204, 204)" stroke-width="1px"></line><line x1="270.40421875" y1="0" x2="270.40421875" y2="5" style="visibility: inherit;" fill="rgb(0, 0, 0)" stroke="rgb(204, 204, 204)" stroke-width="1px"></line><line x1="360.5389583333333" y1="0" x2="360.5389583333333" y2="5" style="visibility: inherit;" fill="rgb(0, 0, 0)" stroke="rgb(204, 204, 204)" stroke-width="1px"></line><line x1="450.67369791666664" y1="0" x2="450.67369791666664" y2="5" style="visibility: inherit;" fill="rgb(0, 0, 0)" stroke="rgb(204, 204, 204)" stroke-width="1px"></line><line x1="540.8084375" y1="0" x2="540.8084375" y2="5" style="visibility: inherit;" fill="rgb(0, 0, 0)" stroke="rgb(204, 204, 204)" stroke-width="1px"></line><line x1="630.9431770833334" y1="0" x2="630.9431770833334" y2="5" style="visibility: inherit;" fill="rgb(0, 0, 0)" stroke="rgb(204, 204, 204)" stroke-width="1px"></line><line x1="721.0779166666666" y1="0" x2="721.0779166666666" y2="5" style="visibility: inherit;" fill="rgb(0, 0, 0)" stroke="rgb(204, 204, 204)" stroke-width="1px"></line><line x1="811.21265625" y1="0" x2="811.21265625" y2="5" style="visibility: inherit;" fill="rgb(0, 0, 0)" stroke="rgb(204, 204, 204)" stroke-width="1px"></line><line x1="901.3473958333333" y1="0" x2="901.3473958333333" y2="5" style="visibility: inherit;" fill="rgb(0, 0, 0)" stroke="rgb(204, 204, 204)" stroke-width="1px"></line><line x1="991.4821354166666" y1="0" x2="991.4821354166666" y2="5" style="visibility: inherit;" fill="rgb(0, 0, 0)" stroke="rgb(204, 204, 204)" stroke-width="1px"></line><line x1="1081.616875" y1="0" x2="1081.616875" y2="5" style="visibility: inherit;" fill="rgb(0, 0, 0)" stroke="rgb(204, 204, 204)" stroke-width="1px"></line></g><g transform="translate(0, 8)"><text x="0" y="0" dx="0em" dy="0.95em" style="text-anchor: middle; visibility: hidden; font-family: Roboto, sans-serif; font-size: 12px; font-weight: 200;" fill="rgb(50, 49, 63)" stroke="none" stroke-width="1px">-100</text><text x="90.13473958333333" y="0" dx="0em" dy="0.95em" style="text-anchor: middle; visibility: inherit; font-family: Roboto, sans-serif; font-size: 12px; font-weight: 200;" fill="rgb(50, 49, 63)" stroke="none" stroke-width="1px">0</text><text x="180.26947916666666" y="0" dx="0em" dy="0.95em" style="text-anchor: middle; visibility: inherit; font-family: Roboto, sans-serif; font-size: 12px; font-weight: 200;" fill="rgb(50, 49, 63)" stroke="none" stroke-width="1px">100</text><text x="270.40421875" y="0" dx="0em" dy="0.95em" style="text-anchor: middle; visibility: inherit; font-family: Roboto, sans-serif; font-size: 12px; font-weight: 200;" fill="rgb(50, 49, 63)" stroke="none" stroke-width="1px">200</text><text x="360.5389583333333" y="0" dx="0em" dy="0.95em" style="text-anchor: middle; visibility: inherit; font-family: Roboto, sans-serif; font-size: 12px; font-weight: 200;" fill="rgb(50, 49, 63)" stroke="none" stroke-width="1px">300</text><text x="450.67369791666664" y="0" dx="0em" dy="0.95em" style="text-anchor: middle; visibility: inherit; font-family: Roboto, sans-serif; font-size: 12px; font-weight: 200;" fill="rgb(50, 49, 63)" stroke="none" stroke-width="1px">400</text><text x="540.8084375" y="0" dx="0em" dy="0.95em" style="text-anchor: middle; visibility: inherit; font-family: Roboto, sans-serif; font-size: 12px; font-weight: 200;" fill="rgb(50, 49, 63)" stroke="none" stroke-width="1px">500</text><text x="630.9431770833334" y="0" dx="0em" dy="0.95em" style="text-anchor: middle; visibility: inherit; font-family: Roboto, sans-serif; font-size: 12px; font-weight: 200;" fill="rgb(50, 49, 63)" stroke="none" stroke-width="1px">600</text><text x="721.0779166666666" y="0" dx="0em" dy="0.95em" style="text-anchor: middle; visibility: inherit; font-family: Roboto, sans-serif; font-size: 12px; font-weight: 200;" fill="rgb(50, 49, 63)" stroke="none" stroke-width="1px">700</text><text x="811.21265625" y="0" dx="0em" dy="0.95em" style="text-anchor: middle; visibility: inherit; font-family: Roboto, sans-serif; font-size: 12px; font-weight: 200;" fill="rgb(50, 49, 63)" stroke="none" stroke-width="1px">800</text><text x="901.3473958333333" y="0" dx="0em" dy="0.95em" style="text-anchor: middle; visibility: inherit; font-family: Roboto, sans-serif; font-size: 12px; font-weight: 200;" fill="rgb(50, 49, 63)" stroke="none" stroke-width="1px">900</text><text x="991.4821354166666" y="0" dx="0em" dy="0.95em" style="text-anchor: middle; visibility: inherit; font-family: Roboto, sans-serif; font-size: 12px; font-weight: 200;" fill="rgb(50, 49, 63)" stroke="none" stroke-width="1px">1k</text><text x="1081.616875" y="0" dx="0em" dy="0.95em" style="text-anchor: middle; visibility: hidden; font-family: Roboto, sans-serif; font-size: 12px; font-weight: 200;" fill="rgb(50, 49, 63)" stroke="none" stroke-width="1px">1.1k</text></g><line x1="0" y1="0" x2="1081.616875" y2="0" fill="rgb(0, 0, 0)" stroke="rgb(204, 204, 204)" stroke-width="1px"></line></g></g></g></g></svg>