<svg viewBox="0 0 1143.567138671875 399.99578857421875" xmlns="http://www.w3.org/2000/svg"><g><g><g><g><g><line x1="51.5625" y1="377.996" x2="46.5625" y2="377.996" style="visibility: inherit;" fill="rgb(0, 0, 0)" stroke="rgb(204, 204, 204)" stroke-width="1px"></line><line x1="51.5625" y1="343.63272727272727" x2="46.5625" y2="343.63272727272727" style="visibility: inherit;" fill="rgb(0, 0, 0)" stroke="rgb(204, 204, 204)" stroke-width="1px"></line><line x1="51.5625" y1="309.2694545454545" x2="46.5625" y2="309.2694545454545" style="visibility: inherit;" fill="rgb(0, 0, 0)" stroke="rgb(204, 204, 204)" stroke-width="1px"></line><line x1="51.5625" y1="274.90618181818184" x2="46.5625" y2="274.90618181818184" style="visibility: inherit;" fill="rgb(0, 0, 0)" stroke="rgb(204, 204, 204)" stroke-width="1px"></line><line x1="51.5625" y1="240.54290909090906" x2="46.5625" y2="240.54290909090906" style="visibility: inherit;" fill="rgb(0, 0, 0)" stroke="rgb(204, 204, 204)" stroke-width="1px"></line><line x1="51.5625" y1="206.17963636363635" x2="46.5625" y2="206.17963636363635" style="visibility: inherit;" fill="rgb(0, 0, 0)" stroke="rgb(204, 204, 204)" stroke-width="1px"></line><line x1="51.5625" y1="171.81636363636363" x2="46.5625" y2="171.81636363636363" style="visibility: inherit;" fill="rgb(0, 0, 0)" stroke="rgb(204, 204, 204)" stroke-width="1px"></line><line x1="51.5625" y1="137.45309090909095" x2="46.5625" y2="137.45309090909095" style="visibility: inherit;" fill="rgb(0, 0, 0)" stroke="rgb(204, 204, 204)" stroke-width="1px"></line><line x1="51.5625" y1="103.08981818181822" x2="46.5625" y2="103.08981818181822" style="visibility: inherit;" fill="rgb(0, 0, 0)" stroke="rgb(204, 204, 204)" stroke-width="1px"></line><line x1="51.5625" y1="68.72654545454547" x2="46.5625" y2="68.72654545454547" style="visibility: inherit;" fill="rgb(0, 0, 0)" stroke="rgb(204, 204, 204)" stroke-width="1px"></line><line x1="51.5625" y1="34.36327272727274" x2="46.5625" y2="34.36327272727274" style="visibility: inherit;" fill="rgb(0, 0, 0)" stroke="rgb(204, 204, 204)" stroke-width="1px"></line><line x1="51.5625" y1="0" x2="46.5625" y2="0" style="visibility: inherit;" fill="rgb(0, 0, 0)" stroke="rgb(204, 204, 204)" stroke-width="1px"></line></g><g transform="translate(41.5625, 0)"><text x="0" y="377.996" dx="0em" dy="0.3em" style="text-anchor: end; visibility: hidden; font-family: Roboto, sans-serif; font-size: 12px; font-weight: 200;" fill="rgb(50, 49, 63)" stroke="none" stroke-width="1px">-0.1</text><text x="0" y="343.63272727272727" dx="0em" dy="0.3em" style="text-anchor: end; visibility: inherit; font-family: Roboto, sans-serif; font-size: 12px; font-weight: 200;" fill="rgb(50, 49, 63)" stroke="none" stroke-width="1px">0</text><text x="0" y="309.2694545454545" dx="0em" dy="0.3em" style="text-anchor: end; visibility: inherit; font-family: Roboto, sans-serif; font-size: 12px; font-weight: 200;" fill="rgb(50, 49, 63)" stroke="none" stroke-width="1px">0.1</text><text x="0" y="274.90618181818184" dx="0em" dy="0.3em" style="text-anchor: end; visibility: inherit; font-family: Roboto, sans-serif; font-size: 12px; font-weight: 200;" fill="rgb(50, 49, 63)" stroke="none" stroke-width="1px">0.2</text><text x="0" y="240.54290909090906" dx="0em" dy="0.3em" style="text-anchor: end; visibility: inherit; font-family: Roboto, sans-serif; font-size: 12px; font-weight: 200;" fill="rgb(50, 49, 63)" stroke="none" stroke-width="1px">0.3</text><text x="0" y="206.17963636363635" dx="0em" dy="0.3em" style="text-anchor: end; visibility: inherit; font-family: Roboto, sans-serif; font-size: 12px; font-weight: 200;" fill="rgb(50, 49, 63)" stroke="none" stroke-width="1px">0.4</text><text x="0" y="171.81636363636363" dx="0em" dy="0.3em" style="text-anchor: end; visibility: inherit; font-family: Roboto, sans-serif; font-size: 12px; font-weight: 200;" fill="rgb(50, 49, 63)" stroke="none" stroke-width="1px">0.5</text><text x="0" y="137.45309090909095" dx="0em" dy="0.3em" style="text-anchor: end; visibility: inherit; font-family: Roboto, sans-serif; font-size: 12px; font-weight: 200;" fill="rgb(50, 49, 63)" stroke="none" stroke-width="1px">0.6</text><text x="0" y="103.08981818181822" dx="0em" dy="0.3em" style="text-anchor: end; visibility: inherit; font-family: Roboto, sans-serif; font-size: 12px; font-weight: 200;" fill="rgb(50, 49, 63)" stroke="none" stroke-width="1px">0.7</text><text x="0" y="68.72654545454547" dx="0em" dy="0.3em" style="text-anchor: end; visibility: inherit; font-family: Roboto, sans-serif; font-size: 12px; font-weight: 200;" fill="rgb(50, 49, 63)" stroke="none" stroke-width="1px">0.8</text><text x="0" y="34.36327272727274" dx="0em" dy="0.3em" style="text-anchor: end; visibility: inherit; font-family: Roboto, sans-serif; font-size: 12px; font-weight: 200;" fill="rgb(50, 49, 63)" stroke="none" stroke-width="1px">0.9</text><text x="0" y="0" dx="0em" dy="0.3em" style="text-anchor: end; visibility: hidden; font-family: Roboto, sans-serif; font-size: 12px; font-weight: 200;" fill="rgb(50, 49, 63)" stroke="none" stroke-width="1px">1</text></g><line x1="51.5625" y1="0" x2="51.5625" y2="377.996" fill="rgb(0, 0, 0)" stroke="rgb(204, 204, 204)" stroke-width="1px"></line></g></g><g transform="translate(51, 0)" clip-path="url(#clip_0)"><clipPath id="clip_0"><rect width="1092" height="377"></rect></clipPath><g><g><g><line x1="0" y1="0" x2="0" y2="377.996" fill="rgb(0, 0, 0)" stroke="rgb(60, 60, 60)" stroke-width="1px" opacity="0.25"></line><line x1="91.00062499999999" y1="0" x2="91.00062499999999" y2="377.996" fill="rgb(0, 0, 0)" stroke="rgb(60, 60, 60)" stroke-width="1px" opacity="0.25"></line><line x1="182.00124999999997" y1="0" x2="182.00124999999997" y2="377.996" fill="rgb(0, 0, 0)" stroke="rgb(60, 60, 60)" stroke-width="1px" opacity="0.25"></line><line x1="273.001875" y1="0" x2="273.001875" y2="377.996" fill="rgb(0, 0, 0)" stroke="rgb(60, 60, 60)" stroke-width="1px" opacity="0.25"></line><line x1="364.00249999999994" y1="0" x2="364.00249999999994" y2="377.996" fill="rgb(0, 0, 0)" stroke="rgb(60, 60, 60)" stroke-width="1px" opacity="0.25"></line><line x1="455.003125" y1="0" x2="455.003125" y2="377.996" fill="rgb(0, 0, 0)" stroke="rgb(60, 60, 60)" stroke-width="1px" opacity="0.25"></line><line x1="546.00375" y1="0" x2="546.00375" y2="377.996" fill="rgb(0, 0, 0)" stroke="rgb(60, 60, 60)" stroke-width="1px" opacity="0.25"></line><line x1="637.004375" y1="0" x2="637.004375" y2="377.996" fill="rgb(0, 0, 0)" stroke="rgb(60, 60, 60)" stroke-width="1px" opacity="0.25"></line><line x1="728.0049999999999" y1="0" x2="728.0049999999999" y2="377.996" fill="rgb(0, 0, 0)" stroke="rgb(60, 60, 60)" stroke-width="1px" opacity="0.25"></line><line x1="819.005625" y1="0" x2="819.005625" y2="377.996" fill="rgb(0, 0, 0)" stroke="rgb(60, 60, 60)" stroke-width="1px" opacity="0.25"></line><line x1="910.00625" y1="0" x2="910.00625" y2="377.996" fill="rgb(0, 0, 0)" stroke="rgb(60, 60, 60)" stroke-width="1px" opacity="0.25"></line><line x1="1001.0068749999999" y1="0" x2="1001.0068749999999" y2="377.996" fill="rgb(0, 0, 0)" stroke="rgb(60, 60, 60)" stroke-width="1px" opacity="0.25"></line><line x1="1092.0075" y1="0" x2="1092.0075" y2="377.996" fill="rgb(0, 0, 0)" stroke="rgb(60, 60, 60)" stroke-width="1px" opacity="0.25"></line></g><g><line x1="0" y1="377.996" x2="1092.0075" y2="377.996" fill="rgb(0, 0, 0)" stroke="rgb(60, 60, 60)" stroke-width="1px" opacity="0.25"></line><line x1="0" y1="343.63272727272727" x2="1092.0075" y2="343.63272727272727" fill="rgb(0, 0, 0)" stroke="rgb(60, 60, 60)" stroke-width="1px" opacity="0.25"></line><line x1="0" y1="309.2694545454545" x2="1092.0075" y2="309.2694545454545" fill="rgb(0, 0, 0)" stroke="rgb(60, 60, 60)" stroke-width="1px" opacity="0.25"></line><line x1="0" y1="274.90618181818184" x2="1092.0075" y2="274.90618181818184" fill="rgb(0, 0, 0)" stroke="rgb(60, 60, 60)" stroke-width="1px" opacity="0.25"></line><line x1="0" y1="240.54290909090906" x2="1092.0075" y2="240.54290909090906" fill="rgb(0, 0, 0)" stroke="rgb(60, 60, 60)" stroke-width="1px" opacity="0.25"></line><line x1="0" y1="206.17963636363635" x2="1092.0075" y2="206.17963636363635" fill="rgb(0, 0, 0)" stroke="rgb(60, 60, 60)" stroke-width="1px" opacity="0.25"></line><line x1="0" y1="171.81636363636363" x2="1092.0075" y2="171.81636363636363" fill="rgb(0, 0, 0)" stroke="rgb(60, 60, 60)" stroke-width="1px" opacity="0.25"></line><line x1="0" y1="137.45309090909095" x2="1092.0075" y2="137.45309090909095" fill="rgb(0, 0, 0)" stroke="rgb(60, 60, 60)" stroke-width="1px" opacity="0.25"></line><line x1="0" y1="103.08981818181822" x2="1092.0075" y2="103.08981818181822" fill="rgb(0, 0, 0)" stroke="rgb(60, 60, 60)" stroke-width="1px" opacity="0.25"></line><line x1="0" y1="68.72654545454547" x2="1092.0075" y2="68.72654545454547" fill="rgb(0, 0, 0)" stroke="rgb(60, 60, 60)" stroke-width="1px" opacity="0.25"></line><line x1="0" y1="34.36327272727274" x2="1092.0075" y2="34.36327272727274" fill="rgb(0, 0, 0)" stroke="rgb(60, 60, 60)" stroke-width="1px" opacity="0.25"></line><line x1="0" y1="0" x2="1092.0075" y2="0" fill="rgb(0, 0, 0)" stroke="rgb(60, 60, 60)" stroke-width="1px" opacity="0.25"></line></g></g></g><g><g><line x1="0" y1="343.63272727272727" x2="1092.0075" y2="343.63272727272727" fill="rgb(0, 0, 0)" stroke="rgb(153, 153, 153)" stroke-width="1.5px"></line></g></g><g><g><line x1="91.00062499999999" y1="0" x2="91.00062499999999" y2="377.996" fill="rgb(0, 0, 0)" stroke="rgb(153, 153, 153)" stroke-width="1.5px"></line></g></g><g><g><g><g><g><path stroke="rgb(255, 112, 67)" stroke-width="2px" d="M91.00062499999999,343.63272727272727L95.55065624999999,343.63272727272727L100.10068749999999,343.63272727272727L104.65071875,343.63272727272727L109.20075,343.63272727272727L113.75078125,343.63272727272727L118.30081249999999,343.63272727272727L122.85084375,343.63272727272727L127.400875,342.72843058326873L131.95090625,334.58976069817487L136.5009375,325.5467941236225L141.05096875,316.5038288292018L145.601,315.59953101962805L150.15103125000002,279.4276621611552L154.70106249999998,267.6718136790666L159.25109375,266.7675133092295L163.80112499999998,212.50970106059853L168.35115625,173.6249643760378L172.9011875,153.7304381680489L177.45121875,157.3476191652905L182.00124999999997,123.88864373553885L186.55128125,102.1855167878758L191.10131249999998,102.1855167878758L195.65134375,86.81248730854557L200.20137499999998,89.52538329753013L204.75140625,77.7695348154415L209.3014375,76.86520884297113L213.85146874999998,86.81248730854557L218.4015,69.63082636638123L222.95153125,77.76949385122822L227.5015625,73.24800736362288L232.05159374999997,82.29098033883355L236.60162499999998,71.43941686500204L241.15165624999997,75.96092383471405L245.7016875,60.58787387327716L250.25171874999998,74.15235381819986L254.80175,87.71675183469603L259.35178125,78.67381982369858L263.9018125,76.86520884297113L268.45184374999997,126.60153972452338L273.001875,113.03705977960068L277.55190624999994,78.67379934159196L282.1019375,132.93161671074958L286.65196875,58.77926289254972L291.202,52.44920638843018L295.75203124999996,53.353491396687296L300.30206250000003,50.64059540770273L304.85209375,53.353511878793924L309.40212499999996,51.5449213801731L313.95215625,52.44922687053684L318.5021875,53.353511878793924L323.05221875,52.44920638843018L327.60224999999997,53.353511878793924L332.15228124999993,51.5449213801731L336.7023125,52.44920638843018L341.25234374999997,52.44920638843018L345.802375,49.73631039944566L350.35240625,50.64059540770273L354.9024375,50.640636371916024L359.45246875,50.64059540770273L364.00249999999994,57.87497788429264L368.55253125,74.15229237187995L373.1025625,87.71677231680265L377.65259375,72.34372235536578L382.20262499999995,62.39648485400465L386.75265625,56.9706723939289L391.3026875,57.87495740218598L395.85271874999995,49.73631039944566L400.40274999999997,51.5449213801731L404.95278125,49.73631039944566L409.5028125,49.73631039944566L414.05284374999997,49.73631039944566L418.602875,47.92771990082483L423.15290625,49.73631039944566L427.70293749999996,48.83200490908191L432.25296875,48.83200490908191L436.803,47.92771990082483L441.35303124999996,48.83202539118858L445.9030625,46.11914988431068L450.45309374999994,47.02343489256776L455.003125,47.9277403829315L459.55315625,47.9277403829315L464.10318749999993,47.92771990082483L468.65321874999995,47.92771990082483L473.20324999999997,47.92771990082483L477.75328125,47.92771990082483L482.30331249999995,47.92771990082483L486.85334375,47.92771990082483L491.403375,48.83200490908191L495.95340624999994,47.92771990082483L500.50343749999996,47.92771990082483L505.05346875,49.73631039944566L509.6035,48.83200490908191L514.15353125,45.21482391184031L518.7035625,47.02343489256776L523.2535937499999,47.02347585678105L527.803625,47.02343489256776L532.35365625,43.40627437743278L536.9036874999999,47.92771990082483L541.45371875,47.92771990082483L546.00375,48.83202539118858L550.5537812499999,45.21482391184031L555.1038124999999,47.02343489256776L559.65384375,46.11910892009739L564.203875,47.92771990082483L568.75390625,48.83202539118858L573.3039375,47.92771990082483L577.8539687499999,47.92771990082483L582.404,47.02343489256776L586.95403125,47.92771990082483L591.5040624999999,47.02343489256776L596.0540937499999,45.21482391184031L600.6041250000001,46.11910892009739L605.15415625,47.92771990082483L609.7041875,47.9277403829315L614.25421875,45.21482391184031L618.8042499999999,45.21482391184031L623.35428125,44.31051842147657L627.9043125,44.31055938568986L632.45434375,45.21482391184031L637.004375,46.11910892009739L641.5544062499999,46.11910892009739L646.1044375,46.11910892009739L650.65446875,46.11910892009739L655.2044999999999,45.21482391184031L659.7545312499999,46.11914988431068L664.3045624999999,47.02343489256776L668.85459375,44.31055938568986L673.404625,47.92771990082483L677.95465625,47.9277403829315L682.5046874999999,44.31055938568986L687.0547187499999,46.11910892009739L691.60475,45.21482391184031L696.1547812499999,46.11910892009739L700.7048125,47.02343489256776L705.25484375,44.31055938568986L709.804875,45.21482391184031L714.35490625,43.40627437743278L718.9049375,45.21482391184031L723.4549687499999,46.11914988431068L728.0049999999999,44.31051842147657L732.55503125,44.31051842147657L737.1050625,44.31055938568986L741.65509375,44.31055938568986L746.205125,46.11914988431068L750.7551562499999,44.31051842147657L755.3051875,45.21482391184031L759.85521875,45.21482391184031L764.4052499999999,42.50194840496241L768.95528125,43.40627437743278L773.5053125,42.50194840496241L778.05534375,45.21482391184031L782.605375,45.21482391184031L787.1554062499999,43.40623341321949L791.7054374999999,44.31055938568986L796.2554687499999,43.40627437743278L800.8054999999999,45.21480342973365L805.35553125,43.40623341321949L809.9055625,45.21482391184031L814.4555937499999,45.21482391184031L819.005625,44.31055938568986L823.55565625,343.63272727272727L828.1056874999999,164.5819811597738L832.6557187499999,80.4824103223194L837.20575,67.82225634986708L841.75578125,79.57812531406232L846.3058125,67.82225634986708L850.85584375,56.066387385671824L855.4058749999999,50.64059540770273L859.9559062499999,47.02343489256776L864.5059375,49.73631039944566L869.0559687499999,51.5449213801731L873.606,51.5449213801731L878.15603125,52.44920638843018L882.7060624999999,46.11910892009739L887.25609375,43.40623341321949L891.806125,45.21482391184031L896.3561562499999,44.31055938568986L900.9061874999999,44.31055938568986L905.45621875,43.40623341321949L910.00625,42.50194840496241L914.55628125,43.40627437743278L919.1063125,43.40627437743278L923.6563437499999,43.40623341321949L928.2063749999999,42.50190744074913L932.7564062499999,43.40623341321949L937.3064374999999,42.50190744074913L941.85646875,42.50194840496241L946.4064999999999,41.597622432492045L950.95653125,41.597622432492045L955.5065625,40.69335790634159L960.0565937499999,39.78909338019114L964.6066249999999,40.69335790634159L969.1566562499999,39.78907289808451L973.7066875,39.78907289808451L978.25671875,40.69335790634159L982.80675,37.07617690909995L987.3567812499999,40.69335790634159L991.9068124999999,40.69335790634159L996.45684375,44.31051842147657" style="fill: none;" fill="none"></path></g></g></g></g></g></g><g transform="translate(51, 377)" clip-path="url(#clip_1)"><clipPath id="clip_1"><rect width="1092" height="21"></rect></clipPath><g><g><line x1="0" y1="0" x2="0" y2="5" style="visibility: inherit;" fill="rgb(0, 0, 0)" stroke="rgb(204, 204, 204)" stroke-width="1px"></line><line x1="91.00062499999999" y1="0" x2="91.00062499999999" y2="5" style="visibility: inherit;" fill="rgb(0, 0, 0)" stroke="rgb(204, 204, 204)" stroke-width="1px"></line><line x1="182.00124999999997" y1="0" x2="182.00124999999997" y2="5" style="visibility: inherit;" fill="rgb(0, 0, 0)" stroke="rgb(204, 204, 204)" stroke-width="1px"></line><line x1="273.001875" y1="0" x2="273.001875" y2="5" style="visibility: inherit;" fill="rgb(0, 0, 0)" stroke="rgb(204, 204, 204)" stroke-width="1px"></line><line x1="364.00249999999994" y1="0" x2="364.00249999999994" y2="5" style="visibility: inherit;" fill="rgb(0, 0, 0)" stroke="rgb(204, 204, 204)" stroke-width="1px"></line><line x1="455.003125" y1="0" x2="455.003125" y2="5" style="visibility: inherit;" fill="rgb(0, 0, 0)" stroke="rgb(204, 204, 204)" stroke-width="1px"></line><line x1="546.00375" y1="0" x2="546.00375" y2="5" style="visibility: inherit;" fill="rgb(0, 0, 0)" stroke="rgb(204, 204, 204)" stroke-width="1px"></line><line x1="637.004375" y1="0" x2="637.004375" y2="5" style="visibility: inherit;" fill="rgb(0, 0, 0)" stroke="rgb(204, 204, 204)" stroke-width="1px"></line><line x1="728.0049999999999" y1="0" x2="728.0049999999999" y2="5" style="visibility: inherit;" fill="rgb(0, 0, 0)" stroke="rgb(204, 204, 204)" stroke-width="1px"></line><line x1="819.005625" y1="0" x2="819.005625" y2="5" style="visibility: inherit;" fill="rgb(0, 0, 0)" stroke="rgb(204, 204, 204)" stroke-width="1px"></line><line x1="910.00625" y1="0" x2="910.00625" y2="5" style="visibility: inherit;" fill="rgb(0, 0, 0)" stroke="rgb(204, 204, 204)" stroke-width="1px"></line><line x1="1001.0068749999999" y1="0" x2="1001.0068749999999" y2="5" style="visibility: inherit;" fill="rgb(0, 0, 0)" stroke="rgb(204, 204, 204)" stroke-width="1px"></line><line x1="1092.0075" y1="0" x2="1092.0075" y2="5" style="visibility: inherit;" fill="rgb(0, 0, 0)" stroke="rgb(204, 204, 204)" stroke-width="1px"></line></g><g transform="translate(0, 8)"><text x="0" y="0" dx="0em" dy="0.95em" style="text-anchor: middle; visibility: hidden; font-family: Roboto, sans-serif; font-size: 12px; font-weight: 200;" fill="rgb(50, 49, 63)" stroke="none" stroke-width="1px">-20</text><text x="91.00062499999999" y="0" dx="0em" dy="0.95em" style="text-anchor: middle; visibility: inherit; font-family: Roboto, sans-serif; font-size: 12px; font-weight: 200;" fill="rgb(50, 49, 63)" stroke="none" stroke-width="1px">0</text><text x="182.00124999999997" y="0" dx="0em" dy="0.95em" style="text-anchor: middle; visibility: inherit; font-family: Roboto, sans-serif; font-size: 12px; font-weight: 200;" fill="rgb(50, 49, 63)" stroke="none" stroke-width="1px">20</text><text x="273.001875" y="0" dx="0em" dy="0.95em" style="text-anchor: middle; visibility: inherit; font-family: Roboto, sans-serif; font-size: 12px; font-weight: 200;" fill="rgb(50, 49, 63)" stroke="none" stroke-width="1px">40</text><text x="364.00249999999994" y="0" dx="0em" dy="0.95em" style="text-anchor: middle; visibility: inherit; font-family: Roboto, sans-serif; font-size: 12px; font-weight: 200;" fill="rgb(50, 49, 63)" stroke="none" stroke-width="1px">60</text><text x="455.003125" y="0" dx="0em" dy="0.95em" style="text-anchor: middle; visibility: inherit; font-family: Roboto, sans-serif; font-size: 12px; font-weight: 200;" fill="rgb(50, 49, 63)" stroke="none" stroke-width="1px">80</text><text x="546.00375" y="0" dx="0em" dy="0.95em" style="text-anchor: middle; visibility: inherit; font-family: Roboto, sans-serif; font-size: 12px; font-weight: 200;" fill="rgb(50, 49, 63)" stroke="none" stroke-width="1px">100</text><text x="637.004375" y="0" dx="0em" dy="0.95em" style="text-anchor: middle; visibility: inherit; font-family: Roboto, sans-serif; font-size: 12px; font-weight: 200;" fill="rgb(50, 49, 63)" stroke="none" stroke-width="1px">120</text><text x="728.0049999999999" y="0" dx="0em" dy="0.95em" style="text-anchor: middle; visibility: inherit; font-family: Roboto, sans-serif; font-size: 12px; font-weight: 200;" fill="rgb(50, 49, 63)" stroke="none" stroke-width="1px">140</text><text x="819.005625" y="0" dx="0em" dy="0.95em" style="text-anchor: middle; visibility: inherit; font-family: Roboto, sans-serif; font-size: 12px; font-weight: 200;" fill="rgb(50, 49, 63)" stroke="none" stroke-width="1px">160</text><text x="910.00625" y="0" dx="0em" dy="0.95em" style="text-anchor: middle; visibility: inherit; font-family: Roboto, sans-serif; font-size: 12px; font-weight: 200;" fill="rgb(50, 49, 63)" stroke="none" stroke-width="1px">180</text><text x="1001.0068749999999" y="0" dx="0em" dy="0.95em" style="text-anchor: middle; visibility: inherit; font-family: Roboto, sans-serif; font-size: 12px; font-weight: 200;" fill="rgb(50, 49, 63)" stroke="none" stroke-width="1px">200</text><text x="1092.0075" y="0" dx="0em" dy="0.95em" style="text-anchor: middle; visibility: hidden; font-family: Roboto, sans-serif; font-size: 12px; font-weight: 200;" fill="rgb(50, 49, 63)" stroke="none" stroke-width="1px">220</text></g><line x1="0" y1="0" x2="1092.0075" y2="0" fill="rgb(0, 0, 0)" stroke="rgb(204, 204, 204)" stroke-width="1px"></line></g></g></g></g></svg>