<?xml version="1.0" standalone="no"?><!DOCTYPE svg PUBLIC "-//W3C//DTD SVG 1.1//EN" "http://www.w3.org/Graphics/SVG/1.1/DTD/svg11.dtd"><svg t="1706508407120" class="icon" viewBox="0 0 1338 1024" version="1.1" xmlns="http://www.w3.org/2000/svg" p-id="1480" xmlns:xlink="http://www.w3.org/1999/xlink" width="261.328125" height="200"><path d="M497.324112 118.327679c9.959964-1.274498 19.601304 3.705484 26.58744 10.467403 7.918408 8.189828 13.441231 18.256001 19.259077 27.944544 73.673053 122.800222 146.413834 246.155087 219.697457 369.191327 17.229322 29.207241 34.848074 58.190265 51.404744 87.798737 7.776797 13.512037 10.738824 29.773684 7.717792 45.114861-1.970751 13.724453-10.585412 26.103603-22.256507 33.408363-9.181104 5.73524-19.565901 9.700344-30.36373 10.821431-5.440217 0.495638-10.904037 0.224217-16.356055 0.25962-75.136365 0-150.284531-0.011801-225.420896 0-9.523331-0.118009-19.141069-2.844018-26.882462-8.496652-8.449448-5.888652-13.677249-16.580272-12.178535-26.894264 1.050281-10.82143 5.723439-20.864001 11.364272-30.021503 12.76858-22.1503 25.54896-44.288798 39.120002-65.967062 6.089267-9.476127 11.069249-20.002535 19.577702-27.649521 5.747041-4.909177 12.50896-9.004091 20.014335-10.408399 10.668019-1.321701 21.465847 2.962027 29.466861 9.90096 8.201629 7.269358 11.246263 19.082064 9.299114 29.667476-3.044634 17.134915-15.494589 30.469938-20.46277 46.896798-1.085683 2.773213-0.51924 6.360688 2.442787 7.705992 5.888652 2.962027 12.685973 3.12724 19.141069 3.292452 32.653105-0.023602 65.306211-0.023602 97.971117 0.011801 5.947656-0.165213 12.886589-0.495638 17.217521-5.168796 2.006154-7.009738-3.009231-13.240616-6.018462-19.117467-70.168184-120.133217-140.265562-240.301838-211.153601-360.022024-3.080036-5.062588-5.629032-10.585412-9.806553-14.892742-2.749611-3.174444-8.260634-2.796815-10.526407 0.743457-6.691113 8.496652-11.918915 18.019983-17.536146 27.224689-77.720763 130.789435-155.441527 261.567069-233.162289 392.356504-7.42277 12.166734-13.547439 25.253938-22.834753 36.181576-7.410969 8.827077-18.586426 14.633123-30.210317 14.574118-6.348887 0.011801-12.272942-2.678806-17.748562-5.629032-8.201629-4.413539-14.515114-12.532562-15.931223-21.831675-1.758335-11.399675 1.82914-22.964562 7.564381-32.747512 66.616111-113.040873 133.904874-225.680516 200.83961-338.544376 25.631567-43.203115 51.628961-86.205614 76.930102-129.621145 6.490498-10.762426 13.264218-21.359639 19.790119-32.110264 7.233955-12.025123 18.89325-23.011766 33.443766-24.439675z" fill="#70C6BE" p-id="1481"></path><path d="M492.603749 395.790568c11.258064-2.147765 23.412996 0.861466 32.346282 8.060018 6.573104 5.900453 11.057448 14.408906 11.269865 23.342191 0.719855 11.08105-4.43714 21.336037-9.936362 30.587947-42.62487 71.454482-85.037325 143.038775-127.662196 214.493257-6.301684 10.56181-13.099005 21.867078-24.781901 27.165685-17.701358 9.924561-43.238518-0.590045-48.725939-20.132345-2.029756-9.275512-1.227294-19.353485 3.103639-27.885539 8.284236-17.158517 18.857847-33.066137 28.251367-49.622808 36.689015-61.990156 73.330826-124.015715 110.491878-185.72265 5.86505-9.369919 14.231892-18.37401 25.643367-20.285756z" fill="#1BA0D8" p-id="1482"></path></svg>